<?xml version="1.0" encoding="UTF-8"?>
<svg xmlns="http://www.w3.org/2000/svg" xmlns:xlink="http://www.w3.org/1999/xlink" width="1000pt" height="1000pt" viewBox="0 0 1000 1000" version="1.1">
<g id="surface25">
<path style=" stroke:none;fill-rule:nonzero;fill:rgb(94.901961%,89.019608%,58.039216%);fill-opacity:0.501961;" d="M 0 739.128906 L 869.566406 739.128906 L 869.566406 695.652344 L 0 695.652344 Z M 0 565.21875 L 869.566406 565.21875 L 869.566406 521.738281 L 0 521.738281 Z M 0 391.304688 L 869.566406 391.304688 L 869.566406 347.824219 L 0 347.824219 Z M 0 217.390625 L 869.566406 217.390625 L 869.566406 173.914062 L 0 173.914062 Z M 0 43.476562 L 869.566406 43.476562 L 869.566406 0 L 0 0 Z M 130.433594 652.175781 L 1000 652.175781 L 1000 608.695312 L 130.433594 608.695312 Z M 130.433594 478.261719 L 1000 478.261719 L 1000 434.78125 L 130.433594 434.78125 Z M 130.433594 304.347656 L 1000 304.347656 L 1000 260.871094 L 130.433594 260.871094 Z M 130.433594 130.433594 L 1000 130.433594 L 1000 86.957031 L 130.433594 86.957031 Z M 130.433594 130.433594 "/>
</g>
</svg>
