<?xml version="1.0" encoding="UTF-8"?>
<svg xmlns="http://www.w3.org/2000/svg" xmlns:xlink="http://www.w3.org/1999/xlink" width="1000pt" height="1000pt" viewBox="0 0 1000 1000" version="1.1">
<g id="surface29">
<path style=" stroke:none;fill-rule:nonzero;fill:rgb(58.823529%,80.784314%,70.588235%);fill-opacity:0.501961;" d="M 0 0 L 406.503906 0 L 406.503906 24.390625 L 0 24.390625 Z M 0 162.601562 L 406.503906 162.601562 L 406.503906 186.992188 L 0 186.992188 Z M 593.496094 0 L 1000 0 L 1000 24.390625 L 593.496094 24.390625 Z M 593.496094 162.601562 L 1000 162.601562 L 1000 186.992188 L 593.496094 186.992188 Z M 593.496094 186.992188 L 593.496094 146.339844 L 430.894531 146.339844 L 430.894531 138.210938 L 593.496094 138.210938 L 593.496094 113.820312 L 430.894531 113.820312 L 430.894531 105.691406 L 593.496094 105.691406 L 593.496094 81.300781 L 430.894531 81.300781 L 430.894531 73.171875 L 593.496094 73.171875 L 593.496094 48.78125 L 430.894531 48.78125 L 430.894531 40.652344 L 593.496094 40.652344 L 593.496094 0 L 406.503906 0 L 406.503906 24.390625 L 569.105469 24.390625 L 569.105469 32.519531 L 406.503906 32.519531 L 406.503906 56.910156 L 569.105469 56.910156 L 569.105469 65.039062 L 406.503906 65.039062 L 406.503906 89.429688 L 569.105469 89.429688 L 569.105469 97.5625 L 406.503906 97.5625 L 406.503906 121.953125 L 569.105469 121.953125 L 569.105469 130.082031 L 406.503906 130.082031 L 406.503906 154.472656 L 569.105469 154.472656 L 569.105469 162.601562 L 406.503906 162.601562 L 406.503906 186.992188 Z M 593.496094 186.992188 "/>
</g>
</svg>
