<?xml version="1.0" encoding="UTF-8"?>
<svg xmlns="http://www.w3.org/2000/svg" xmlns:xlink="http://www.w3.org/1999/xlink" width="1000pt" height="1000pt" viewBox="0 0 1000 1000" version="1.1">
<g id="surface21">
<path style=" stroke:none;fill-rule:nonzero;fill:rgb(100%,43.529412%,41.176471%);fill-opacity:0.501961;" d="M 0 1000 L 20 1000 L 20 0 L 0 0 Z M 40 1000 L 60 1000 L 60 0 L 40 0 Z M 80 1000 L 100 1000 L 100 0 L 80 0 Z M 120 1000 L 140 1000 L 140 0 L 120 0 Z M 160 1000 L 180 1000 L 180 0 L 160 0 Z M 200 1000 L 220 1000 L 220 0 L 200 0 Z M 240 1000 L 260 1000 L 260 0 L 240 0 Z M 280 1000 L 300 1000 L 300 0 L 280 0 Z M 320 1000 L 340 1000 L 340 0 L 320 0 Z M 360 1000 L 380 1000 L 380 0 L 360 0 Z M 400 1000 L 420 1000 L 420 0 L 400 0 Z M 440 1000 L 460 1000 L 460 0 L 440 0 Z M 480 1000 L 500 1000 L 500 0 L 480 0 Z M 520 1000 L 540 1000 L 540 0 L 520 0 Z M 560 1000 L 580 1000 L 580 0 L 560 0 Z M 600 1000 L 620 1000 L 620 0 L 600 0 Z M 640 1000 L 660 1000 L 660 0 L 640 0 Z M 680 1000 L 700 1000 L 700 0 L 680 0 Z M 720 1000 L 740 1000 L 740 0 L 720 0 Z M 760 1000 L 780 1000 L 780 0 L 760 0 Z M 800 1000 L 820 1000 L 820 0 L 800 0 Z M 840 1000 L 860 1000 L 860 0 L 840 0 Z M 880 1000 L 900 1000 L 900 0 L 880 0 Z M 920 1000 L 940 1000 L 940 0 L 920 0 Z M 960 1000 L 980 1000 L 980 0 L 960 0 Z M 960 1000 "/>
</g>
</svg>
