<?xml version="1.0" encoding="UTF-8"?>
<svg xmlns="http://www.w3.org/2000/svg" xmlns:xlink="http://www.w3.org/1999/xlink" width="1000pt" height="1000pt" viewBox="0 0 1000 1000" version="1.1">
<g id="surface45">
<path style=" stroke:none;fill-rule:nonzero;fill:rgb(100%,93.333333%,67.843137%);fill-opacity:0.501961;" d="M 44.960938 294.15625 L 48.625 297.789062 L 52.3125 301.394531 L 56.03125 304.964844 L 59.78125 308.507812 L 63.554688 312.023438 L 67.359375 315.503906 L 71.191406 318.957031 L 75.050781 322.378906 L 78.9375 325.765625 L 82.851562 329.125 L 86.792969 332.453125 L 90.757812 335.75 L 94.75 339.011719 L 98.769531 342.246094 L 102.816406 345.445312 L 106.886719 348.609375 L 110.984375 351.746094 L 115.101562 354.847656 L 119.25 357.914062 L 123.417969 360.949219 L 127.613281 363.949219 L 131.832031 366.917969 L 136.074219 369.851562 L 140.335938 372.75 L 144.625 375.617188 L 148.9375 378.445312 L 153.269531 381.242188 L 157.625 384.003906 L 162.003906 386.730469 L 166.402344 389.421875 L 170.824219 392.078125 L 175.265625 394.699219 L 179.730469 397.28125 L 184.210938 399.832031 L 188.714844 402.34375 L 193.242188 404.820312 L 197.785156 407.261719 L 202.347656 409.664062 L 206.929688 412.03125 L 211.53125 414.363281 L 216.148438 416.65625 L 220.785156 418.914062 L 225.441406 421.132812 L 230.117188 423.3125 L 234.804688 425.457031 L 239.511719 427.5625 L 244.238281 429.632812 L 248.976562 431.664062 L 253.734375 433.65625 L 258.507812 435.609375 L 263.296875 437.527344 L 268.097656 439.402344 L 272.917969 441.242188 L 277.75 443.042969 L 282.597656 444.804688 L 287.457031 446.527344 L 292.332031 448.210938 L 297.222656 449.855469 L 302.121094 451.460938 L 307.035156 453.027344 L 311.960938 454.554688 L 316.902344 456.042969 L 321.851562 457.492188 L 326.8125 458.898438 L 331.785156 460.265625 L 336.769531 461.59375 L 341.761719 462.882812 L 346.765625 464.128906 L 351.78125 465.339844 L 356.804688 466.507812 L 361.835938 467.632812 L 366.878906 468.722656 L 371.925781 469.769531 L 376.984375 470.773438 L 382.050781 471.738281 L 387.125 472.664062 L 392.207031 473.546875 L 397.292969 474.390625 L 402.386719 475.195312 L 407.488281 475.957031 L 412.597656 476.675781 L 417.707031 477.359375 L 422.824219 477.996094 L 427.949219 478.59375 L 433.074219 479.152344 L 438.207031 479.667969 L 443.34375 480.140625 L 448.480469 480.574219 L 453.625 480.96875 L 458.769531 481.320312 L 463.917969 481.628906 L 469.066406 481.898438 L 474.21875 482.125 L 479.375 482.308594 L 484.53125 482.453125 L 489.6875 482.558594 L 494.84375 482.621094 L 500 482.640625 L 505.15625 482.621094 L 510.3125 482.558594 L 515.46875 482.453125 L 520.625 482.308594 L 525.78125 482.125 L 530.933594 481.898438 L 536.082031 481.628906 L 541.230469 481.320312 L 546.375 480.96875 L 551.519531 480.574219 L 556.65625 480.140625 L 561.792969 479.667969 L 566.925781 479.152344 L 572.050781 478.59375 L 577.175781 477.996094 L 582.292969 477.359375 L 587.402344 476.675781 L 592.511719 475.957031 L 597.613281 475.195312 L 602.707031 474.390625 L 607.792969 473.546875 L 612.875 472.664062 L 617.949219 471.738281 L 623.015625 470.773438 L 628.074219 469.769531 L 633.121094 468.722656 L 638.164062 467.632812 L 643.195312 466.507812 L 648.21875 465.339844 L 653.234375 464.128906 L 658.238281 462.882812 L 663.230469 461.59375 L 668.214844 460.265625 L 673.1875 458.898438 L 678.148438 457.492188 L 683.097656 456.042969 L 688.039062 454.554688 L 692.964844 453.027344 L 697.878906 451.460938 L 702.777344 449.855469 L 707.667969 448.210938 L 712.542969 446.527344 L 717.402344 444.804688 L 722.25 443.042969 L 727.082031 441.242188 L 731.902344 439.402344 L 736.703125 437.527344 L 741.492188 435.609375 L 746.265625 433.65625 L 751.023438 431.664062 L 755.761719 429.632812 L 760.488281 427.5625 L 765.195312 425.457031 L 769.882812 423.3125 L 774.558594 421.132812 L 779.214844 418.914062 L 783.851562 416.65625 L 788.46875 414.363281 L 793.070312 412.03125 L 797.652344 409.664062 L 802.214844 407.261719 L 806.757812 404.820312 L 811.285156 402.34375 L 815.789062 399.832031 L 820.269531 397.28125 L 824.734375 394.699219 L 829.175781 392.078125 L 833.597656 389.421875 L 837.996094 386.730469 L 842.375 384.003906 L 846.730469 381.242188 L 851.0625 378.445312 L 855.375 375.617188 L 859.664062 372.75 L 863.925781 369.851562 L 868.167969 366.917969 L 872.386719 363.949219 L 876.582031 360.949219 L 880.75 357.914062 L 884.898438 354.847656 L 889.015625 351.746094 L 893.113281 348.609375 L 897.183594 345.445312 L 901.230469 342.246094 L 905.25 339.011719 L 909.242188 335.75 L 913.207031 332.453125 L 917.148438 329.125 L 921.0625 325.765625 L 924.949219 322.378906 L 928.808594 318.957031 L 932.640625 315.503906 L 936.445312 312.023438 L 940.21875 308.507812 L 943.96875 304.964844 L 947.6875 301.394531 L 951.375 297.789062 L 955.039062 294.15625 L 660.878906 0 L 706.382812 0 L 1000 293.617188 L 996.117188 297.847656 L 992.203125 302.050781 L 988.25 306.21875 L 984.261719 310.351562 L 980.238281 314.449219 L 976.179688 318.515625 L 972.085938 322.546875 L 967.960938 326.539062 L 963.800781 330.5 L 959.605469 334.425781 L 955.378906 338.3125 L 951.121094 342.167969 L 946.828125 345.984375 L 942.503906 349.761719 L 938.148438 353.507812 L 933.757812 357.210938 L 929.339844 360.878906 L 924.890625 364.511719 L 920.40625 368.105469 L 915.894531 371.660156 L 911.355469 375.175781 L 906.78125 378.652344 L 902.183594 382.089844 L 897.550781 385.488281 L 892.894531 388.847656 L 888.207031 392.167969 L 883.492188 395.449219 L 878.75 398.6875 L 873.976562 401.886719 L 869.179688 405.046875 L 864.355469 408.164062 L 859.507812 411.238281 L 854.628906 414.273438 L 849.730469 417.269531 L 844.800781 420.222656 L 839.851562 423.128906 L 834.875 426 L 829.871094 428.824219 L 824.847656 431.605469 L 819.800781 434.347656 L 814.730469 437.042969 L 809.636719 439.695312 L 804.519531 442.308594 L 799.378906 444.875 L 794.222656 447.398438 L 789.039062 449.875 L 783.835938 452.308594 L 778.613281 454.699219 L 773.371094 457.046875 L 768.109375 459.347656 L 762.828125 461.605469 L 757.527344 463.816406 L 752.207031 465.984375 L 746.871094 468.105469 L 741.515625 470.179688 L 736.140625 472.210938 L 730.753906 474.195312 L 725.34375 476.132812 L 719.921875 478.027344 L 714.484375 479.871094 L 709.03125 481.671875 L 703.558594 483.425781 L 698.074219 485.132812 L 692.578125 486.792969 L 687.066406 488.40625 L 681.539062 489.972656 L 676 491.492188 L 670.449219 492.964844 L 664.882812 494.390625 L 659.308594 495.769531 L 653.722656 497.097656 L 648.121094 498.382812 L 642.511719 499.617188 L 636.894531 500.804688 L 631.265625 501.945312 L 625.625 503.035156 L 619.976562 504.078125 L 614.320312 505.074219 L 608.65625 506.023438 L 602.984375 506.921875 L 597.304688 507.773438 L 591.617188 508.578125 L 585.921875 509.332031 L 580.222656 510.039062 L 574.515625 510.695312 L 568.804688 511.304688 L 563.089844 511.867188 L 557.367188 512.378906 L 551.644531 512.839844 L 545.914062 513.253906 L 540.183594 513.621094 L 534.445312 513.9375 L 528.710938 514.207031 L 522.96875 514.425781 L 517.230469 514.597656 L 511.488281 514.71875 L 505.742188 514.792969 L 500 514.816406 L 494.257812 514.792969 L 488.511719 514.71875 L 482.769531 514.597656 L 477.03125 514.425781 L 471.289062 514.207031 L 465.554688 513.9375 L 459.816406 513.621094 L 454.085938 513.253906 L 448.355469 512.839844 L 442.632812 512.378906 L 436.910156 511.867188 L 431.195312 511.304688 L 425.484375 510.695312 L 419.777344 510.039062 L 414.078125 509.332031 L 408.382812 508.578125 L 402.695312 507.773438 L 397.015625 506.921875 L 391.34375 506.023438 L 385.679688 505.074219 L 380.023438 504.078125 L 374.375 503.035156 L 368.734375 501.945312 L 363.105469 500.804688 L 357.488281 499.617188 L 351.878906 498.382812 L 346.277344 497.097656 L 340.691406 495.769531 L 335.117188 494.390625 L 329.550781 492.964844 L 324 491.492188 L 318.460938 489.972656 L 312.933594 488.40625 L 307.421875 486.792969 L 301.925781 485.132812 L 296.441406 483.425781 L 290.96875 481.671875 L 285.515625 479.871094 L 280.078125 478.027344 L 274.65625 476.132812 L 269.246094 474.195312 L 263.859375 472.210938 L 258.484375 470.179688 L 253.128906 468.105469 L 247.792969 465.984375 L 242.472656 463.816406 L 237.171875 461.605469 L 231.890625 459.347656 L 226.628906 457.046875 L 221.386719 454.699219 L 216.164062 452.308594 L 210.960938 449.875 L 205.777344 447.398438 L 200.621094 444.875 L 195.480469 442.308594 L 190.363281 439.695312 L 185.269531 437.042969 L 180.199219 434.347656 L 175.152344 431.605469 L 170.128906 428.824219 L 165.125 426 L 160.148438 423.128906 L 155.199219 420.222656 L 150.269531 417.269531 L 145.371094 414.273438 L 140.492188 411.238281 L 135.644531 408.164062 L 130.820312 405.046875 L 126.023438 401.886719 L 121.25 398.6875 L 116.507812 395.449219 L 111.792969 392.167969 L 107.105469 388.847656 L 102.449219 385.488281 L 97.816406 382.089844 L 93.21875 378.652344 L 88.644531 375.175781 L 84.105469 371.660156 L 79.59375 368.105469 L 75.109375 364.511719 L 70.660156 360.878906 L 66.242188 357.210938 L 61.851562 353.507812 L 57.496094 349.761719 L 53.171875 345.984375 L 48.878906 342.167969 L 44.621094 338.3125 L 40.394531 334.425781 L 36.199219 330.5 L 32.039062 326.539062 L 27.914062 322.546875 L 23.820312 318.515625 L 19.761719 314.449219 L 15.738281 310.351562 L 11.75 306.21875 L 7.796875 302.050781 L 3.882812 297.847656 L 0 293.617188 L 293.617188 0 L 339.121094 0 Z M 44.960938 294.15625 "/>
</g>
</svg>
