<?xml version="1.0" encoding="UTF-8"?>
<svg xmlns="http://www.w3.org/2000/svg" xmlns:xlink="http://www.w3.org/1999/xlink" width="1000pt" height="1000pt" viewBox="0 0 1000 1000" version="1.1">
<g id="surface9">
<path style=" stroke:none;fill-rule:nonzero;fill:rgb(0%,0%,0%);fill-opacity:1;" d="M 0 628.125 L 0.046875 627.589844 L 0.09375 627.371094 L 0.136719 627.203125 L 0.183594 627.066406 L 0.277344 626.839844 L 0.371094 626.652344 L 0.460938 626.492188 L 0.554688 626.347656 L 0.644531 626.222656 L 0.738281 626.109375 L 0.839844 625.992188 L 0.945312 625.886719 L 1.046875 625.789062 L 1.152344 625.703125 L 1.355469 625.546875 L 1.5625 625.417969 L 1.773438 625.304688 L 1.988281 625.214844 L 2.199219 625.140625 L 2.410156 625.082031 L 2.589844 625.046875 L 2.769531 625.019531 L 2.945312 625.003906 L 3.125 625 L 3.125 1000 L 2.945312 999.996094 L 2.769531 999.980469 L 2.589844 999.953125 L 2.410156 999.917969 L 2.199219 999.859375 L 1.988281 999.785156 L 1.773438 999.695312 L 1.5625 999.582031 L 1.355469 999.453125 L 1.152344 999.296875 L 1.046875 999.210938 L 0.945312 999.113281 L 0.839844 999.007812 L 0.738281 998.890625 L 0.644531 998.777344 L 0.554688 998.652344 L 0.460938 998.507812 L 0.371094 998.347656 L 0.277344 998.160156 L 0.183594 997.933594 L 0.136719 997.796875 L 0.09375 997.628906 L 0.046875 997.410156 L 0 996.875 Z M 3.125 625 L 93.75 625 L 93.75 1000 L 3.125 1000 Z M 93.75 625 L 250 625 L 250 718.75 L 93.75 718.75 Z M 93.75 906.25 L 250 906.25 L 250 1000 L 93.75 1000 Z M 250 625 L 250.59375 625.6875 L 251.261719 626.457031 L 251.945312 627.25 L 252.523438 627.917969 L 253.152344 628.640625 L 253.730469 629.3125 L 254.351562 630.027344 L 255.070312 630.859375 L 255.707031 631.597656 L 256.269531 632.246094 L 256.878906 632.953125 L 257.496094 633.664062 L 258.175781 634.449219 L 258.820312 635.199219 L 259.492188 635.972656 L 260.058594 636.628906 L 260.75 637.425781 L 261.382812 638.160156 L 261.96875 638.835938 L 262.558594 639.519531 L 263.222656 640.285156 L 263.824219 640.980469 L 264.515625 641.777344 L 265.152344 642.515625 L 265.78125 643.242188 L 266.390625 643.945312 L 267.015625 644.671875 L 267.683594 645.445312 L 268.941406 646.894531 L 269.589844 647.648438 L 270.199219 648.347656 L 270.773438 649.015625 L 271.417969 649.757812 L 272.027344 650.464844 L 272.707031 651.25 L 273.316406 651.953125 L 273.929688 652.664062 L 274.609375 653.449219 L 275.140625 654.066406 L 275.828125 654.859375 L 276.511719 655.648438 L 277.140625 656.375 L 277.738281 657.066406 L 278.359375 657.78125 L 278.921875 658.4375 L 279.667969 659.296875 L 280.207031 659.917969 L 280.898438 660.71875 L 281.558594 661.484375 L 282.109375 662.121094 L 282.777344 662.894531 L 283.429688 663.648438 L 284.066406 664.378906 L 284.660156 665.070312 L 285.332031 665.84375 L 285.878906 666.476562 L 286.515625 667.210938 L 287.222656 668.027344 L 287.753906 668.644531 L 288.445312 669.445312 L 289.050781 670.140625 L 289.738281 670.9375 L 290.316406 671.605469 L 290.984375 672.378906 L 291.636719 673.128906 L 292.164062 673.742188 L 292.875 674.566406 L 293.507812 675.292969 L 294.164062 676.054688 L 294.683594 676.652344 L 295.328125 677.398438 L 295.976562 678.148438 L 296.574219 678.835938 L 297.28125 679.65625 L 297.882812 680.355469 L 298.53125 681.101562 L 299.109375 681.769531 L 299.8125 682.585938 L 300.453125 683.324219 L 300.984375 683.941406 L 301.671875 684.734375 L 302.304688 685.464844 L 302.875 686.125 L 303.578125 686.9375 L 304.167969 687.617188 L 304.855469 688.414062 L 305.417969 689.0625 L 306.078125 689.828125 L 306.710938 690.558594 L 307.324219 691.265625 L 308 692.046875 L 308.53125 692.664062 L 309.277344 693.523438 L 309.910156 694.257812 L 310.429688 694.855469 L 311.175781 695.71875 L 311.722656 696.351562 L 312.378906 697.109375 L 312.964844 697.789062 L 313.667969 698.601562 L 314.296875 699.328125 L 315.464844 700.675781 L 316.097656 701.410156 L 316.777344 702.195312 L 317.429688 702.949219 L 318.078125 703.699219 L 318.734375 704.457031 L 319.261719 705.066406 L 319.878906 705.777344 L 320.558594 706.566406 L 321.203125 707.308594 L 321.878906 708.089844 L 322.421875 708.722656 L 323.109375 709.515625 L 323.679688 710.171875 L 324.335938 710.933594 L 324.941406 711.632812 L 325.582031 712.375 L 326.183594 713.070312 L 326.871094 713.863281 L 327.554688 714.652344 L 328.117188 715.304688 L 328.8125 716.109375 L 329.371094 716.75 L 329.953125 717.425781 L 330.65625 718.238281 L 331.292969 718.976562 L 331.898438 719.675781 L 332.527344 720.402344 L 333.160156 721.132812 L 333.738281 721.800781 L 334.371094 722.53125 L 335.039062 723.304688 L 335.644531 724.003906 L 336.269531 724.730469 L 336.976562 725.542969 L 337.535156 726.191406 L 338.15625 726.90625 L 338.84375 727.703125 L 339.480469 728.441406 L 340.035156 729.082031 L 340.777344 729.9375 L 341.300781 730.542969 L 342.03125 731.390625 L 342.648438 732.101562 L 343.257812 732.804688 L 343.8125 733.449219 L 344.515625 734.261719 L 345.1875 735.035156 L 345.824219 735.773438 L 346.4375 736.480469 L 347.003906 737.136719 L 347.714844 737.957031 L 348.332031 738.671875 L 348.917969 739.347656 L 349.582031 740.117188 L 350.160156 740.785156 L 350.789062 741.511719 L 351.472656 742.300781 L 352.09375 743.019531 L 352.636719 743.648438 L 353.339844 744.460938 L 353.925781 745.140625 L 354.550781 745.863281 L 355.242188 746.660156 L 355.835938 747.34375 L 356.476562 748.085938 L 357.070312 748.773438 L 357.773438 749.585938 L 358.332031 750.230469 L 359.035156 751.042969 L 359.609375 751.707031 L 360.199219 752.386719 L 360.871094 753.164062 L 361.570312 753.972656 L 362.789062 755.386719 L 363.40625 756.097656 L 364.0625 756.855469 L 364.667969 757.554688 L 365.28125 758.265625 L 365.945312 759.03125 L 366.539062 759.71875 L 367.234375 760.523438 L 367.859375 761.246094 L 368.421875 761.898438 L 369.128906 762.714844 L 369.695312 763.367188 L 370.394531 764.175781 L 370.949219 764.820312 L 371.589844 765.558594 L 372.175781 766.234375 L 372.882812 767.050781 L 373.511719 767.78125 L 374.089844 768.445312 L 374.746094 769.207031 L 375.441406 770.011719 L 375.953125 770.605469 L 376.59375 771.339844 L 377.242188 772.089844 L 377.960938 772.921875 L 378.542969 773.597656 L 379.179688 774.332031 L 379.761719 775.007812 L 380.414062 775.757812 L 381.035156 776.476562 L 381.632812 777.167969 L 382.273438 777.90625 L 382.980469 778.722656 L 383.519531 779.351562 L 384.15625 780.082031 L 384.820312 780.851562 L 385.464844 781.597656 L 386.058594 782.28125 L 386.707031 783.035156 L 387.300781 783.722656 L 388.035156 784.566406 L 388.648438 785.277344 L 389.238281 785.957031 L 389.820312 786.632812 L 390.4375 787.34375 L 391.171875 788.195312 L 391.789062 788.910156 L 392.367188 789.574219 L 393.070312 790.386719 L 393.671875 791.082031 L 394.253906 791.753906 L 394.9375 792.550781 L 395.484375 793.179688 L 396.152344 793.949219 L 396.804688 794.707031 L 397.441406 795.445312 L 398.039062 796.132812 L 398.648438 796.835938 L 399.382812 797.6875 L 399.996094 798.394531 L 400.625 799.121094 L 401.214844 799.804688 L 401.8125 800.496094 L 402.515625 801.308594 L 403.085938 801.96875 L 403.765625 802.75 L 404.328125 803.402344 L 404.992188 804.167969 L 405.589844 804.863281 L 406.25 805.625 L 406.25 809.375 L 405.589844 808.992188 L 404.992188 808.644531 L 404.328125 808.261719 L 403.765625 807.933594 L 403.085938 807.539062 L 402.515625 807.207031 L 401.8125 806.800781 L 401.214844 806.453125 L 400.625 806.113281 L 399.996094 805.746094 L 399.382812 805.394531 L 398.648438 804.964844 L 398.039062 804.613281 L 397.441406 804.265625 L 396.804688 803.894531 L 396.152344 803.515625 L 395.484375 803.132812 L 394.9375 802.8125 L 394.253906 802.417969 L 393.671875 802.078125 L 393.070312 801.730469 L 392.367188 801.320312 L 391.789062 800.988281 L 391.171875 800.628906 L 390.4375 800.203125 L 389.820312 799.84375 L 389.238281 799.507812 L 388.648438 799.167969 L 388.035156 798.808594 L 387.300781 798.386719 L 386.707031 798.039062 L 386.058594 797.664062 L 385.464844 797.320312 L 384.820312 796.945312 L 384.15625 796.558594 L 383.519531 796.191406 L 382.980469 795.878906 L 382.273438 795.46875 L 381.632812 795.097656 L 381.035156 794.75 L 380.414062 794.390625 L 379.761719 794.011719 L 379.179688 793.675781 L 378.542969 793.304688 L 377.960938 792.96875 L 377.242188 792.550781 L 376.59375 792.171875 L 375.953125 791.804688 L 375.441406 791.503906 L 374.746094 791.105469 L 374.089844 790.722656 L 373.511719 790.386719 L 372.882812 790.019531 L 372.175781 789.613281 L 371.589844 789.273438 L 370.949219 788.902344 L 370.394531 788.578125 L 369.695312 788.171875 L 369.128906 787.84375 L 368.421875 787.4375 L 367.859375 787.109375 L 367.234375 786.746094 L 366.539062 786.34375 L 365.945312 785.996094 L 365.28125 785.613281 L 364.667969 785.257812 L 364.0625 784.90625 L 363.40625 784.527344 L 362.789062 784.167969 L 362.179688 783.816406 L 361.570312 783.460938 L 360.871094 783.054688 L 360.199219 782.664062 L 359.609375 782.324219 L 359.035156 781.988281 L 358.332031 781.582031 L 357.773438 781.257812 L 357.070312 780.851562 L 356.476562 780.507812 L 355.835938 780.132812 L 355.242188 779.789062 L 354.550781 779.390625 L 353.925781 779.027344 L 353.339844 778.6875 L 352.636719 778.28125 L 352.09375 777.964844 L 351.472656 777.605469 L 350.789062 777.207031 L 350.160156 776.84375 L 349.582031 776.507812 L 348.917969 776.121094 L 348.332031 775.78125 L 347.714844 775.425781 L 347.003906 775.011719 L 346.4375 774.683594 L 345.824219 774.328125 L 345.1875 773.957031 L 344.515625 773.570312 L 343.8125 773.164062 L 343.257812 772.839844 L 342.648438 772.488281 L 342.03125 772.128906 L 341.300781 771.703125 L 340.777344 771.398438 L 340.035156 770.972656 L 339.480469 770.648438 L 338.84375 770.277344 L 338.15625 769.878906 L 337.535156 769.519531 L 336.976562 769.195312 L 336.269531 768.789062 L 335.644531 768.425781 L 335.039062 768.070312 L 334.371094 767.683594 L 333.738281 767.320312 L 333.160156 766.980469 L 332.527344 766.617188 L 331.898438 766.25 L 331.292969 765.902344 L 330.65625 765.53125 L 329.953125 765.125 L 329.371094 764.785156 L 328.8125 764.460938 L 328.117188 764.058594 L 327.554688 763.730469 L 326.871094 763.335938 L 326.183594 762.9375 L 325.582031 762.589844 L 324.941406 762.214844 L 324.335938 761.867188 L 323.679688 761.484375 L 323.109375 761.152344 L 322.421875 760.753906 L 321.878906 760.4375 L 321.203125 760.046875 L 320.558594 759.675781 L 319.878906 759.277344 L 319.261719 758.921875 L 318.734375 758.617188 L 318.078125 758.234375 L 317.429688 757.859375 L 316.777344 757.480469 L 316.097656 757.085938 L 315.464844 756.71875 L 314.90625 756.394531 L 314.296875 756.042969 L 313.667969 755.679688 L 312.964844 755.269531 L 312.378906 754.929688 L 311.722656 754.550781 L 311.175781 754.230469 L 310.429688 753.800781 L 309.910156 753.5 L 309.277344 753.132812 L 308.53125 752.699219 L 308 752.390625 L 307.324219 751.996094 L 306.710938 751.644531 L 306.078125 751.277344 L 305.417969 750.890625 L 304.855469 750.566406 L 304.167969 750.167969 L 303.578125 749.824219 L 302.875 749.417969 L 302.304688 749.085938 L 301.671875 748.71875 L 300.984375 748.320312 L 300.453125 748.011719 L 299.8125 747.640625 L 299.109375 747.234375 L 298.53125 746.898438 L 297.882812 746.523438 L 297.28125 746.171875 L 296.574219 745.761719 L 295.976562 745.414062 L 295.328125 745.039062 L 294.683594 744.664062 L 294.164062 744.363281 L 293.507812 743.984375 L 292.875 743.617188 L 292.164062 743.207031 L 291.636719 742.898438 L 290.984375 742.519531 L 290.316406 742.132812 L 289.738281 741.796875 L 289.050781 741.398438 L 288.445312 741.050781 L 287.753906 740.648438 L 287.222656 740.339844 L 286.515625 739.929688 L 285.878906 739.558594 L 285.332031 739.242188 L 284.660156 738.855469 L 284.066406 738.507812 L 283.429688 738.140625 L 282.777344 737.761719 L 282.109375 737.375 L 281.558594 737.054688 L 280.898438 736.671875 L 280.207031 736.269531 L 279.667969 735.957031 L 278.921875 735.527344 L 278.359375 735.199219 L 277.738281 734.839844 L 277.140625 734.492188 L 276.511719 734.128906 L 275.828125 733.730469 L 275.140625 733.332031 L 274.609375 733.023438 L 273.929688 732.628906 L 273.316406 732.273438 L 272.707031 731.921875 L 272.027344 731.527344 L 271.417969 731.171875 L 270.773438 730.800781 L 270.199219 730.464844 L 269.589844 730.113281 L 268.941406 729.734375 L 268.222656 729.320312 L 267.683594 729.007812 L 267.015625 728.621094 L 266.390625 728.257812 L 265.78125 727.902344 L 265.152344 727.539062 L 264.515625 727.167969 L 263.824219 726.769531 L 263.222656 726.417969 L 262.558594 726.035156 L 261.96875 725.691406 L 261.382812 725.351562 L 260.75 724.984375 L 260.058594 724.585938 L 259.492188 724.257812 L 258.820312 723.867188 L 258.175781 723.492188 L 257.496094 723.097656 L 256.878906 722.742188 L 256.269531 722.386719 L 255.707031 722.0625 L 255.070312 721.691406 L 254.351562 721.273438 L 253.730469 720.914062 L 253.152344 720.578125 L 252.523438 720.214844 L 251.945312 719.878906 L 251.261719 719.480469 L 250 718.75 Z M 250 906.25 L 251.261719 905.519531 L 251.945312 905.121094 L 252.523438 904.785156 L 253.152344 904.421875 L 253.730469 904.085938 L 254.351562 903.726562 L 255.070312 903.308594 L 255.707031 902.9375 L 256.269531 902.613281 L 256.878906 902.257812 L 257.496094 901.902344 L 258.175781 901.507812 L 258.820312 901.132812 L 259.492188 900.742188 L 260.058594 900.414062 L 260.75 900.015625 L 261.382812 899.648438 L 261.96875 899.308594 L 262.558594 898.964844 L 263.222656 898.582031 L 263.824219 898.230469 L 264.515625 897.832031 L 265.152344 897.460938 L 265.78125 897.097656 L 266.390625 896.742188 L 267.015625 896.378906 L 267.683594 895.992188 L 268.222656 895.679688 L 268.941406 895.265625 L 269.589844 894.886719 L 270.199219 894.535156 L 270.773438 894.199219 L 271.417969 893.828125 L 272.027344 893.472656 L 272.707031 893.078125 L 273.316406 892.726562 L 273.929688 892.371094 L 274.609375 891.976562 L 275.140625 891.667969 L 275.828125 891.269531 L 276.511719 890.871094 L 277.140625 890.507812 L 277.738281 890.160156 L 278.359375 889.800781 L 278.921875 889.472656 L 279.667969 889.042969 L 280.207031 888.730469 L 280.898438 888.328125 L 281.558594 887.945312 L 282.109375 887.625 L 282.777344 887.238281 L 283.429688 886.859375 L 284.066406 886.492188 L 284.660156 886.144531 L 285.332031 885.757812 L 285.878906 885.441406 L 286.515625 885.070312 L 287.222656 884.660156 L 287.753906 884.351562 L 288.445312 883.949219 L 289.050781 883.601562 L 289.738281 883.203125 L 290.316406 882.867188 L 290.984375 882.480469 L 291.636719 882.101562 L 292.164062 881.792969 L 292.875 881.382812 L 293.507812 881.015625 L 294.164062 880.636719 L 294.683594 880.335938 L 295.328125 879.960938 L 295.976562 879.585938 L 296.574219 879.238281 L 297.28125 878.828125 L 297.882812 878.476562 L 298.53125 878.101562 L 299.109375 877.765625 L 299.8125 877.359375 L 300.453125 876.988281 L 300.984375 876.679688 L 301.671875 876.28125 L 302.304688 875.914062 L 302.875 875.582031 L 303.578125 875.175781 L 304.167969 874.832031 L 304.855469 874.433594 L 305.417969 874.109375 L 306.078125 873.722656 L 306.710938 873.355469 L 307.324219 873.003906 L 308 872.609375 L 308.53125 872.300781 L 309.277344 871.867188 L 309.910156 871.5 L 310.429688 871.199219 L 311.175781 870.769531 L 311.722656 870.449219 L 312.378906 870.070312 L 312.964844 869.730469 L 313.667969 869.320312 L 314.296875 868.957031 L 314.90625 868.605469 L 315.464844 868.28125 L 316.097656 867.914062 L 316.777344 867.519531 L 317.429688 867.140625 L 318.078125 866.765625 L 318.734375 866.382812 L 319.261719 866.078125 L 319.878906 865.722656 L 320.558594 865.324219 L 321.203125 864.953125 L 321.878906 864.5625 L 322.421875 864.246094 L 323.109375 863.847656 L 323.679688 863.515625 L 324.335938 863.132812 L 324.941406 862.785156 L 325.582031 862.410156 L 326.183594 862.0625 L 326.871094 861.664062 L 327.554688 861.269531 L 328.117188 860.941406 L 328.8125 860.539062 L 329.371094 860.214844 L 329.953125 859.875 L 330.65625 859.46875 L 331.292969 859.097656 L 331.898438 858.75 L 332.527344 858.382812 L 333.160156 858.019531 L 333.738281 857.679688 L 334.371094 857.316406 L 335.039062 856.929688 L 335.644531 856.574219 L 336.269531 856.210938 L 336.976562 855.804688 L 337.535156 855.480469 L 338.15625 855.121094 L 338.84375 854.722656 L 339.480469 854.351562 L 340.035156 854.027344 L 340.777344 853.601562 L 341.300781 853.296875 L 342.03125 852.871094 L 342.648438 852.511719 L 343.257812 852.160156 L 343.8125 851.835938 L 344.515625 851.429688 L 345.1875 851.042969 L 345.824219 850.671875 L 346.4375 850.316406 L 347.003906 849.988281 L 347.714844 849.574219 L 348.332031 849.21875 L 348.917969 848.878906 L 349.582031 848.492188 L 350.160156 848.15625 L 350.789062 847.792969 L 351.472656 847.394531 L 352.09375 847.035156 L 352.636719 846.71875 L 353.339844 846.3125 L 353.925781 845.972656 L 354.550781 845.609375 L 355.242188 845.210938 L 355.835938 844.867188 L 356.476562 844.492188 L 357.070312 844.148438 L 357.773438 843.742188 L 358.332031 843.417969 L 359.035156 843.011719 L 359.609375 842.675781 L 360.199219 842.335938 L 360.871094 841.945312 L 361.570312 841.539062 L 362.179688 841.183594 L 362.789062 840.832031 L 363.40625 840.472656 L 364.0625 840.09375 L 364.667969 839.742188 L 365.28125 839.386719 L 365.945312 839.003906 L 366.539062 838.65625 L 367.234375 838.253906 L 367.859375 837.890625 L 368.421875 837.5625 L 369.128906 837.15625 L 369.695312 836.828125 L 370.394531 836.421875 L 370.949219 836.097656 L 371.589844 835.726562 L 372.175781 835.386719 L 372.882812 834.980469 L 373.511719 834.613281 L 374.089844 834.277344 L 374.746094 833.894531 L 375.441406 833.496094 L 375.953125 833.195312 L 376.59375 832.828125 L 377.242188 832.449219 L 377.960938 832.03125 L 378.542969 831.695312 L 379.179688 831.324219 L 379.761719 830.988281 L 380.414062 830.609375 L 381.035156 830.25 L 381.632812 829.902344 L 382.273438 829.53125 L 382.980469 829.121094 L 383.519531 828.808594 L 384.15625 828.441406 L 384.820312 828.054688 L 385.464844 827.679688 L 386.058594 827.335938 L 386.707031 826.960938 L 387.300781 826.613281 L 388.035156 826.191406 L 388.648438 825.832031 L 389.238281 825.492188 L 389.820312 825.15625 L 390.4375 824.796875 L 391.171875 824.371094 L 391.789062 824.011719 L 392.367188 823.679688 L 393.070312 823.269531 L 393.671875 822.921875 L 394.253906 822.582031 L 394.9375 822.1875 L 395.484375 821.867188 L 396.152344 821.484375 L 396.804688 821.105469 L 397.441406 820.734375 L 398.039062 820.386719 L 398.648438 820.035156 L 399.382812 819.605469 L 399.996094 819.253906 L 400.625 818.886719 L 401.214844 818.546875 L 401.8125 818.199219 L 402.515625 817.792969 L 403.085938 817.460938 L 403.765625 817.066406 L 404.328125 816.738281 L 404.992188 816.355469 L 405.589844 816.007812 L 406.25 815.625 L 406.25 819.375 L 405.589844 820.136719 L 404.992188 820.832031 L 404.328125 821.597656 L 403.765625 822.25 L 403.085938 823.03125 L 402.515625 823.691406 L 401.8125 824.503906 L 401.214844 825.195312 L 400.625 825.878906 L 399.996094 826.605469 L 399.382812 827.3125 L 398.648438 828.164062 L 398.039062 828.867188 L 397.441406 829.554688 L 396.804688 830.292969 L 396.152344 831.050781 L 395.484375 831.820312 L 394.9375 832.449219 L 394.253906 833.246094 L 393.671875 833.917969 L 393.070312 834.613281 L 392.367188 835.425781 L 391.789062 836.089844 L 391.171875 836.804688 L 390.4375 837.65625 L 389.820312 838.367188 L 389.238281 839.042969 L 388.648438 839.722656 L 388.035156 840.433594 L 387.300781 841.277344 L 386.707031 841.964844 L 386.058594 842.71875 L 385.464844 843.402344 L 384.820312 844.148438 L 384.15625 844.917969 L 383.519531 845.648438 L 382.980469 846.277344 L 382.273438 847.09375 L 381.632812 847.832031 L 381.035156 848.523438 L 380.414062 849.242188 L 379.761719 849.992188 L 379.179688 850.667969 L 378.542969 851.402344 L 377.960938 852.078125 L 377.242188 852.910156 L 376.59375 853.660156 L 375.953125 854.394531 L 375.441406 854.988281 L 374.746094 855.792969 L 374.089844 856.554688 L 373.511719 857.21875 L 372.882812 857.949219 L 372.175781 858.765625 L 371.589844 859.441406 L 370.949219 860.179688 L 370.394531 860.824219 L 369.695312 861.632812 L 369.128906 862.285156 L 368.421875 863.101562 L 367.859375 863.753906 L 367.234375 864.476562 L 366.539062 865.28125 L 365.945312 865.96875 L 365.28125 866.734375 L 364.667969 867.445312 L 364.0625 868.144531 L 363.40625 868.902344 L 362.789062 869.613281 L 361.570312 871.027344 L 360.871094 871.835938 L 360.199219 872.613281 L 359.609375 873.292969 L 359.035156 873.957031 L 358.332031 874.769531 L 357.773438 875.414062 L 357.070312 876.226562 L 356.476562 876.914062 L 355.835938 877.65625 L 355.242188 878.339844 L 354.550781 879.136719 L 353.925781 879.859375 L 353.339844 880.539062 L 352.636719 881.351562 L 352.09375 881.980469 L 351.472656 882.699219 L 350.789062 883.488281 L 350.160156 884.214844 L 349.582031 884.882812 L 348.917969 885.652344 L 348.332031 886.328125 L 347.714844 887.042969 L 347.003906 887.863281 L 346.4375 888.519531 L 345.824219 889.226562 L 345.1875 889.964844 L 344.515625 890.738281 L 343.8125 891.550781 L 343.257812 892.195312 L 342.648438 892.898438 L 342.03125 893.609375 L 341.300781 894.457031 L 340.777344 895.0625 L 340.035156 895.917969 L 339.480469 896.558594 L 338.84375 897.296875 L 338.15625 898.09375 L 337.535156 898.808594 L 336.976562 899.457031 L 336.269531 900.269531 L 335.644531 900.996094 L 335.039062 901.695312 L 334.371094 902.46875 L 333.738281 903.199219 L 333.160156 903.867188 L 332.527344 904.597656 L 331.898438 905.324219 L 331.292969 906.023438 L 330.65625 906.761719 L 329.953125 907.574219 L 329.371094 908.25 L 328.8125 908.890625 L 328.117188 909.695312 L 327.554688 910.347656 L 326.871094 911.136719 L 326.183594 911.929688 L 325.582031 912.625 L 324.941406 913.367188 L 324.335938 914.066406 L 323.679688 914.828125 L 323.109375 915.484375 L 322.421875 916.277344 L 321.878906 916.910156 L 321.203125 917.691406 L 320.558594 918.433594 L 319.878906 919.222656 L 319.261719 919.933594 L 318.734375 920.542969 L 318.078125 921.300781 L 317.429688 922.050781 L 316.777344 922.804688 L 316.097656 923.589844 L 315.464844 924.324219 L 314.296875 925.671875 L 313.667969 926.398438 L 312.964844 927.210938 L 312.378906 927.890625 L 311.722656 928.648438 L 311.175781 929.28125 L 310.429688 930.144531 L 309.910156 930.742188 L 309.277344 931.476562 L 308.53125 932.335938 L 308 932.953125 L 307.324219 933.734375 L 306.710938 934.441406 L 306.078125 935.171875 L 305.417969 935.9375 L 304.855469 936.585938 L 304.167969 937.382812 L 303.578125 938.0625 L 302.875 938.875 L 302.304688 939.535156 L 301.671875 940.265625 L 300.984375 941.058594 L 300.453125 941.675781 L 299.8125 942.414062 L 299.109375 943.230469 L 298.53125 943.898438 L 297.882812 944.644531 L 297.28125 945.34375 L 296.574219 946.164062 L 295.976562 946.851562 L 295.328125 947.601562 L 294.683594 948.347656 L 294.164062 948.945312 L 293.507812 949.707031 L 292.875 950.433594 L 292.164062 951.257812 L 291.636719 951.871094 L 290.984375 952.621094 L 290.316406 953.394531 L 289.738281 954.0625 L 289.050781 954.859375 L 288.445312 955.554688 L 287.753906 956.355469 L 287.222656 956.972656 L 286.515625 957.789062 L 285.878906 958.523438 L 285.332031 959.15625 L 284.660156 959.929688 L 284.066406 960.621094 L 283.429688 961.351562 L 282.777344 962.105469 L 282.109375 962.878906 L 281.558594 963.515625 L 280.898438 964.28125 L 280.207031 965.082031 L 279.667969 965.703125 L 278.921875 966.5625 L 278.359375 967.21875 L 277.738281 967.933594 L 277.140625 968.625 L 276.511719 969.351562 L 275.828125 970.140625 L 275.140625 970.933594 L 274.609375 971.550781 L 273.929688 972.335938 L 273.316406 973.046875 L 272.707031 973.75 L 272.027344 974.535156 L 271.417969 975.242188 L 270.773438 975.984375 L 270.199219 976.652344 L 269.589844 977.351562 L 268.941406 978.105469 L 267.683594 979.554688 L 267.015625 980.328125 L 266.390625 981.054688 L 265.78125 981.757812 L 265.152344 982.484375 L 264.515625 983.222656 L 263.824219 984.019531 L 263.222656 984.714844 L 262.558594 985.480469 L 261.96875 986.164062 L 261.382812 986.839844 L 260.75 987.574219 L 260.058594 988.371094 L 259.492188 989.027344 L 258.820312 989.800781 L 258.175781 990.550781 L 257.496094 991.335938 L 256.878906 992.046875 L 256.269531 992.753906 L 255.707031 993.402344 L 255.070312 994.140625 L 254.351562 994.972656 L 253.730469 995.6875 L 253.152344 996.359375 L 252.523438 997.082031 L 251.945312 997.75 L 251.261719 998.542969 L 250.59375 999.3125 L 250 1000 Z M 406.25 805.625 L 718.75 805.625 L 718.75 809.375 L 406.25 809.375 Z M 406.25 815.625 L 718.75 815.625 L 718.75 819.375 L 406.25 819.375 Z M 718.75 805.625 L 719.300781 805.625 L 719.917969 805.617188 L 720.550781 805.605469 L 721.085938 805.59375 L 721.664062 805.574219 L 722.203125 805.554688 L 722.777344 805.53125 L 723.441406 805.5 L 724.03125 805.464844 L 724.546875 805.429688 L 725.113281 805.390625 L 725.679688 805.347656 L 726.308594 805.296875 L 726.902344 805.242188 L 727.523438 805.179688 L 728.042969 805.125 L 728.679688 805.054688 L 729.261719 804.988281 L 729.796875 804.917969 L 730.339844 804.847656 L 730.949219 804.765625 L 731.5 804.683594 L 732.128906 804.589844 L 732.714844 804.496094 L 733.289062 804.398438 L 733.84375 804.304688 L 734.414062 804.203125 L 735.023438 804.085938 L 735.511719 803.992188 L 736.164062 803.863281 L 736.753906 803.738281 L 737.300781 803.621094 L 737.824219 803.503906 L 738.402344 803.371094 L 738.953125 803.242188 L 739.5625 803.09375 L 740.109375 802.957031 L 740.660156 802.816406 L 741.269531 802.65625 L 741.746094 802.527344 L 742.359375 802.355469 L 742.964844 802.179688 L 743.523438 802.019531 L 744.054688 801.859375 L 744.601562 801.691406 L 745.101562 801.53125 L 745.757812 801.320312 L 746.835938 800.960938 L 747.414062 800.757812 L 747.894531 800.589844 L 748.476562 800.378906 L 749.042969 800.171875 L 749.59375 799.964844 L 750.109375 799.769531 L 750.6875 799.542969 L 751.15625 799.355469 L 751.703125 799.132812 L 752.308594 798.882812 L 752.761719 798.691406 L 753.351562 798.4375 L 753.859375 798.214844 L 754.441406 797.953125 L 754.929688 797.730469 L 755.492188 797.472656 L 756.035156 797.214844 L 756.476562 797.003906 L 757.070312 796.714844 L 757.59375 796.457031 L 758.136719 796.183594 L 758.5625 795.964844 L 759.625 795.410156 L 760.109375 795.148438 L 760.6875 794.832031 L 761.175781 794.5625 L 762.160156 794 L 762.722656 793.671875 L 763.234375 793.371094 L 763.65625 793.117188 L 764.199219 792.789062 L 764.695312 792.480469 L 765.144531 792.199219 L 765.695312 791.847656 L 766.152344 791.554688 L 766.683594 791.203125 L 767.117188 790.917969 L 767.625 790.574219 L 768.105469 790.242188 L 768.570312 789.917969 L 769.082031 789.558594 L 769.484375 789.269531 L 770.042969 788.867188 L 770.515625 788.519531 L 770.898438 788.230469 L 771.449219 787.816406 L 771.851562 787.507812 L 772.332031 787.132812 L 772.757812 786.796875 L 773.265625 786.390625 L 773.71875 786.023438 L 774.152344 785.664062 L 774.550781 785.335938 L 775 784.957031 L 775.476562 784.546875 L 775.929688 784.152344 L 776.382812 783.753906 L 776.835938 783.351562 L 777.195312 783.023438 L 777.617188 782.640625 L 778.082031 782.210938 L 778.511719 781.800781 L 778.964844 781.371094 L 779.328125 781.019531 L 779.78125 780.574219 L 780.15625 780.203125 L 780.585938 779.769531 L 780.976562 779.371094 L 781.390625 778.945312 L 781.777344 778.542969 L 782.210938 778.082031 L 782.640625 777.617188 L 782.992188 777.230469 L 783.425781 776.753906 L 783.765625 776.371094 L 784.125 775.964844 L 784.550781 775.472656 L 784.9375 775.023438 L 785.296875 774.597656 L 786.039062 773.699219 L 786.378906 773.28125 L 786.746094 772.824219 L 787.125 772.339844 L 787.472656 771.898438 L 787.824219 771.4375 L 788.21875 770.917969 L 788.527344 770.503906 L 788.867188 770.039062 L 789.242188 769.523438 L 789.585938 769.042969 L 789.882812 768.625 L 790.273438 768.0625 L 790.546875 767.664062 L 790.925781 767.101562 L 791.242188 766.625 L 791.550781 766.15625 L 791.832031 765.722656 L 792.179688 765.175781 L 792.511719 764.648438 L 792.820312 764.144531 L 793.117188 763.660156 L 793.386719 763.210938 L 793.71875 762.644531 L 794.007812 762.148438 L 794.277344 761.679688 L 794.578125 761.144531 L 794.839844 760.675781 L 795.117188 760.167969 L 795.417969 759.609375 L 795.6875 759.101562 L 795.917969 758.65625 L 796.214844 758.074219 L 796.457031 757.589844 L 796.714844 757.070312 L 796.996094 756.496094 L 797.230469 756.003906 L 797.484375 755.464844 L 797.714844 754.964844 L 797.984375 754.375 L 798.195312 753.902344 L 798.457031 753.304688 L 798.667969 752.816406 L 798.878906 752.316406 L 799.117188 751.742188 L 799.359375 751.140625 L 799.570312 750.617188 L 799.773438 750.089844 L 799.980469 749.558594 L 800.191406 748.988281 L 800.386719 748.464844 L 800.578125 747.929688 L 800.78125 747.351562 L 800.960938 746.832031 L 801.167969 746.21875 L 801.347656 745.667969 L 801.507812 745.171875 L 801.707031 744.550781 L 801.859375 744.050781 L 802.046875 743.429688 L 802.191406 742.933594 L 802.355469 742.367188 L 802.5 741.84375 L 802.671875 741.214844 L 802.820312 740.648438 L 802.953125 740.132812 L 803.101562 739.539062 L 803.25 738.917969 L 803.359375 738.453125 L 803.492188 737.878906 L 803.625 737.292969 L 803.761719 736.640625 L 803.871094 736.113281 L 803.988281 735.535156 L 804.089844 735.007812 L 804.199219 734.414062 L 804.304688 733.847656 L 804.398438 733.300781 L 804.496094 732.71875 L 804.597656 732.074219 L 804.671875 731.578125 L 804.757812 730.996094 L 804.84375 730.386719 L 804.921875 729.792969 L 804.988281 729.25 L 805.058594 728.652344 L 805.121094 728.105469 L 805.191406 727.433594 L 805.246094 726.863281 L 805.339844 725.785156 L 805.382812 725.214844 L 805.433594 724.539062 L 805.46875 723.96875 L 805.5 723.433594 L 805.53125 722.785156 L 805.554688 722.230469 L 805.574219 721.691406 L 805.59375 721.054688 L 805.605469 720.550781 L 805.617188 719.933594 L 805.625 719.328125 L 805.625 718.75 L 809.375 718.75 L 809.371094 719.355469 L 809.367188 719.984375 L 809.355469 720.628906 L 809.34375 721.15625 L 809.324219 721.816406 L 809.300781 722.378906 L 809.277344 722.957031 L 809.242188 723.636719 L 809.210938 724.191406 L 809.171875 724.789062 L 809.125 725.496094 L 809.078125 726.089844 L 809.03125 726.648438 L 808.980469 727.214844 L 808.921875 727.804688 L 808.847656 728.507812 L 808.785156 729.078125 L 808.710938 729.703125 L 808.640625 730.269531 L 808.558594 730.890625 L 808.46875 731.523438 L 808.382812 732.128906 L 808.304688 732.648438 L 808.195312 733.320312 L 808.09375 733.929688 L 807.996094 734.5 L 807.890625 735.089844 L 807.773438 735.707031 L 807.667969 736.257812 L 807.546875 736.863281 L 807.433594 737.414062 L 807.285156 738.09375 L 807.152344 738.707031 L 807.011719 739.304688 L 806.898438 739.789062 L 806.742188 740.4375 L 806.585938 741.054688 L 806.449219 741.59375 L 806.292969 742.183594 L 806.113281 742.839844 L 805.960938 743.386719 L 805.792969 743.980469 L 805.640625 744.496094 L 805.445312 745.140625 L 805.285156 745.664062 L 805.082031 746.3125 L 804.914062 746.832031 L 804.726562 747.402344 L 804.511719 748.042969 L 804.324219 748.585938 L 804.109375 749.1875 L 803.910156 749.746094 L 803.707031 750.292969 L 803.484375 750.886719 L 803.273438 751.441406 L 803.058594 751.992188 L 802.839844 752.539062 L 802.585938 753.164062 L 802.335938 753.765625 L 802.117188 754.289062 L 801.898438 754.796875 L 801.625 755.417969 L 801.40625 755.910156 L 801.125 756.527344 L 800.882812 757.050781 L 800.621094 757.609375 L 800.375 758.128906 L 800.082031 758.726562 L 799.558594 759.773438 L 799.25 760.378906 L 799.007812 760.84375 L 798.726562 761.371094 L 798.414062 761.953125 L 798.121094 762.484375 L 797.851562 762.972656 L 797.535156 763.535156 L 797.257812 764.023438 L 796.957031 764.539062 L 796.609375 765.128906 L 796.324219 765.601562 L 796.019531 766.105469 L 795.695312 766.628906 L 795.351562 767.179688 L 794.984375 767.75 L 794.695312 768.199219 L 794.371094 768.691406 L 794.042969 769.1875 L 793.644531 769.773438 L 793.359375 770.191406 L 792.953125 770.777344 L 792.644531 771.214844 L 792.285156 771.714844 L 791.894531 772.253906 L 791.539062 772.738281 L 791.21875 773.167969 L 790.804688 773.710938 L 790.4375 774.191406 L 790.078125 774.652344 L 789.679688 775.160156 L 789.296875 775.636719 L 788.945312 776.070312 L 788.558594 776.542969 L 788.167969 777.007812 L 787.792969 777.453125 L 787.390625 777.921875 L 786.945312 778.433594 L 786.574219 778.855469 L 786.214844 779.257812 L 785.765625 779.757812 L 785.398438 780.15625 L 784.949219 780.640625 L 784.496094 781.121094 L 784.09375 781.542969 L 783.664062 781.988281 L 783.253906 782.40625 L 782.417969 783.242188 L 781.945312 783.707031 L 781.566406 784.074219 L 781.09375 784.523438 L 780.640625 784.949219 L 780.160156 785.398438 L 779.71875 785.800781 L 779.34375 786.140625 L 778.871094 786.5625 L 778.398438 786.976562 L 777.925781 787.386719 L 777.425781 787.8125 L 776.957031 788.210938 L 776.546875 788.554688 L 776.089844 788.925781 L 775.617188 789.3125 L 775.089844 789.734375 L 774.644531 790.085938 L 774.144531 790.472656 L 773.722656 790.796875 L 773.152344 791.230469 L 772.75 791.53125 L 772.257812 791.894531 L 771.675781 792.316406 L 771.253906 792.617188 L 770.722656 792.992188 L 770.238281 793.328125 L 769.734375 793.675781 L 769.203125 794.03125 L 768.753906 794.332031 L 768.199219 794.695312 L 767.71875 795.003906 L 767.148438 795.371094 L 766.679688 795.664062 L 766.160156 795.984375 L 765.59375 796.328125 L 765.152344 796.59375 L 764.621094 796.90625 L 764.035156 797.25 L 763.550781 797.527344 L 763.007812 797.835938 L 762.496094 798.117188 L 761.894531 798.445312 L 761.386719 798.71875 L 760.835938 799.011719 L 760.28125 799.296875 L 759.835938 799.527344 L 759.269531 799.8125 L 758.726562 800.082031 L 758.105469 800.382812 L 757.644531 800.605469 L 757.078125 800.871094 L 756.492188 801.140625 L 755.984375 801.375 L 755.375 801.644531 L 754.84375 801.878906 L 754.226562 802.140625 L 753.753906 802.339844 L 753.125 802.601562 L 752.558594 802.832031 L 752.0625 803.03125 L 751.460938 803.265625 L 750.925781 803.472656 L 750.351562 803.6875 L 749.761719 803.902344 L 749.152344 804.121094 L 748.652344 804.300781 L 748.050781 804.507812 L 747.414062 804.722656 L 746.921875 804.882812 L 746.238281 805.105469 L 745.714844 805.269531 L 745.144531 805.445312 L 744.59375 805.613281 L 744.011719 805.78125 L 743.375 805.964844 L 742.738281 806.144531 L 742.242188 806.277344 L 741.605469 806.445312 L 741.03125 806.59375 L 740.460938 806.734375 L 739.824219 806.890625 L 739.25 807.027344 L 738.644531 807.164062 L 738.101562 807.285156 L 737.527344 807.40625 L 736.914062 807.535156 L 736.234375 807.671875 L 735.726562 807.769531 L 735.089844 807.890625 L 734.496094 807.996094 L 733.914062 808.097656 L 733.316406 808.195312 L 732.707031 808.292969 L 732.050781 808.394531 L 731.476562 808.476562 L 730.839844 808.566406 L 730.273438 808.640625 L 729.714844 808.710938 L 729.109375 808.78125 L 728.445312 808.855469 L 727.902344 808.910156 L 727.253906 808.976562 L 726.632812 809.03125 L 725.980469 809.085938 L 725.386719 809.132812 L 724.800781 809.171875 L 724.257812 809.207031 L 723.644531 809.242188 L 722.949219 809.277344 L 722.351562 809.304688 L 721.792969 809.324219 L 721.1875 809.34375 L 720.628906 809.355469 L 719.96875 809.367188 L 719.324219 809.375 L 718.75 809.375 Z M 718.75 815.625 L 719.363281 815.625 L 720.050781 815.617188 L 720.757812 815.605469 L 721.355469 815.589844 L 722 815.570312 L 722.597656 815.546875 L 723.238281 815.519531 L 723.980469 815.484375 L 724.640625 815.445312 L 725.214844 815.410156 L 725.84375 815.363281 L 726.476562 815.316406 L 727.175781 815.257812 L 727.839844 815.199219 L 728.53125 815.128906 L 729.113281 815.070312 L 729.820312 814.988281 L 730.472656 814.914062 L 731.070312 814.839844 L 731.675781 814.757812 L 732.355469 814.664062 L 732.96875 814.574219 L 733.671875 814.46875 L 734.320312 814.367188 L 734.960938 814.257812 L 735.582031 814.152344 L 736.21875 814.039062 L 736.894531 813.910156 L 737.441406 813.804688 L 738.167969 813.660156 L 738.824219 813.523438 L 739.4375 813.390625 L 740.019531 813.261719 L 740.664062 813.113281 L 741.277344 812.96875 L 741.960938 812.804688 L 742.570312 812.652344 L 743.183594 812.492188 L 743.863281 812.3125 L 744.390625 812.167969 L 745.074219 811.980469 L 745.753906 811.785156 L 746.375 811.601562 L 746.964844 811.425781 L 747.578125 811.238281 L 748.132812 811.0625 L 748.867188 810.824219 L 749.390625 810.652344 L 750.070312 810.421875 L 750.714844 810.199219 L 751.25 810.011719 L 751.898438 809.777344 L 752.53125 809.542969 L 753.144531 809.3125 L 753.71875 809.09375 L 754.363281 808.84375 L 754.886719 808.632812 L 755.496094 808.386719 L 756.167969 808.105469 L 756.675781 807.894531 L 757.332031 807.609375 L 757.902344 807.359375 L 758.550781 807.070312 L 759.09375 806.824219 L 759.71875 806.535156 L 760.328125 806.25 L 760.820312 806.011719 L 761.480469 805.691406 L 762.0625 805.402344 L 762.671875 805.097656 L 763.148438 804.851562 L 763.738281 804.546875 L 764.328125 804.234375 L 764.871094 803.941406 L 765.511719 803.589844 L 766.058594 803.289062 L 766.640625 802.960938 L 767.15625 802.664062 L 767.785156 802.296875 L 768.355469 801.960938 L 768.824219 801.679688 L 769.429688 801.308594 L 769.984375 800.96875 L 770.484375 800.652344 L 771.097656 800.265625 L 771.609375 799.933594 L 772.203125 799.542969 L 772.683594 799.222656 L 773.25 798.839844 L 773.789062 798.472656 L 774.304688 798.113281 L 774.875 797.710938 L 775.324219 797.390625 L 775.945312 796.9375 L 776.472656 796.550781 L 776.902344 796.230469 L 777.515625 795.765625 L 777.964844 795.421875 L 778.496094 795.007812 L 778.972656 794.628906 L 779.542969 794.175781 L 780.046875 793.765625 L 780.53125 793.367188 L 780.972656 793 L 781.472656 792.578125 L 782.007812 792.121094 L 782.511719 791.683594 L 783.015625 791.238281 L 783.519531 790.789062 L 783.925781 790.421875 L 784.394531 789.992188 L 784.910156 789.515625 L 785.394531 789.058594 L 785.898438 788.578125 L 786.300781 788.1875 L 786.808594 787.691406 L 787.703125 786.796875 L 788.140625 786.351562 L 788.601562 785.875 L 789.03125 785.425781 L 789.515625 784.910156 L 789.996094 784.394531 L 790.386719 783.964844 L 790.871094 783.429688 L 791.25 783 L 791.648438 782.550781 L 792.125 782 L 792.554688 781.5 L 792.957031 781.023438 L 793.371094 780.527344 L 793.785156 780.023438 L 794.164062 779.558594 L 794.570312 779.050781 L 794.996094 778.507812 L 795.382812 778.015625 L 795.777344 777.503906 L 796.214844 776.921875 L 796.558594 776.460938 L 796.941406 775.945312 L 797.355469 775.367188 L 797.742188 774.832031 L 798.070312 774.367188 L 798.507812 773.738281 L 798.8125 773.292969 L 799.234375 772.664062 L 799.589844 772.136719 L 799.929688 771.613281 L 800.242188 771.128906 L 800.632812 770.519531 L 801 769.929688 L 801.347656 769.371094 L 801.675781 768.832031 L 801.976562 768.328125 L 802.347656 767.699219 L 802.671875 767.144531 L 802.96875 766.621094 L 803.308594 766.023438 L 803.597656 765.503906 L 803.90625 764.933594 L 804.242188 764.3125 L 804.542969 763.746094 L 804.800781 763.246094 L 805.132812 762.601562 L 805.691406 761.484375 L 806.003906 760.84375 L 806.265625 760.292969 L 806.546875 759.691406 L 806.804688 759.132812 L 807.105469 758.472656 L 807.339844 757.949219 L 807.632812 757.285156 L 807.867188 756.738281 L 808.101562 756.179688 L 808.367188 755.539062 L 808.640625 754.871094 L 809.101562 753.699219 L 809.328125 753.101562 L 809.566406 752.46875 L 809.78125 751.882812 L 809.996094 751.285156 L 810.226562 750.640625 L 810.425781 750.0625 L 810.65625 749.378906 L 810.855469 748.765625 L 811.035156 748.214844 L 811.253906 747.519531 L 811.425781 746.960938 L 811.632812 746.269531 L 811.796875 745.71875 L 811.976562 745.082031 L 812.140625 744.5 L 812.332031 743.800781 L 812.496094 743.171875 L 812.644531 742.59375 L 812.808594 741.933594 L 812.980469 741.238281 L 813.101562 740.722656 L 813.246094 740.082031 L 813.394531 739.425781 L 813.546875 738.699219 L 813.671875 738.113281 L 813.800781 737.464844 L 813.914062 736.878906 L 814.039062 736.21875 L 814.152344 735.585938 L 814.257812 734.976562 L 814.363281 734.328125 L 814.480469 733.605469 L 814.5625 733.054688 L 814.65625 732.40625 L 814.753906 731.726562 L 814.839844 731.066406 L 814.914062 730.457031 L 814.992188 729.792969 L 815.0625 729.183594 L 815.140625 728.429688 L 815.203125 727.796875 L 815.257812 727.195312 L 815.308594 726.597656 L 815.355469 725.960938 L 815.410156 725.203125 L 815.449219 724.566406 L 815.484375 723.972656 L 815.519531 723.25 L 815.546875 722.628906 L 815.570312 722.027344 L 815.589844 721.320312 L 815.605469 720.757812 L 815.617188 720.070312 L 815.621094 719.394531 L 815.625 718.75 L 819.375 718.75 L 819.371094 719.421875 L 819.367188 720.121094 L 819.351562 720.835938 L 819.339844 721.421875 L 819.316406 722.15625 L 819.292969 722.78125 L 819.265625 723.421875 L 819.230469 724.175781 L 819.195312 724.792969 L 819.152344 725.453125 L 819.097656 726.242188 L 819.042969 726.898438 L 818.992188 727.523438 L 818.933594 728.148438 L 818.871094 728.804688 L 818.789062 729.585938 L 818.71875 730.21875 L 818.636719 730.914062 L 818.558594 731.542969 L 818.46875 732.226562 L 818.371094 732.933594 L 818.273438 733.605469 L 818.183594 734.179688 L 818.066406 734.929688 L 817.953125 735.605469 L 817.84375 736.238281 L 817.726562 736.894531 L 817.597656 737.578125 L 817.480469 738.191406 L 817.34375 738.859375 L 817.21875 739.472656 L 817.054688 740.226562 L 816.90625 740.90625 L 816.753906 741.574219 L 816.625 742.109375 L 816.449219 742.832031 L 816.28125 743.515625 L 816.125 744.117188 L 815.953125 744.769531 L 815.753906 745.5 L 815.585938 746.101562 L 815.398438 746.761719 L 815.230469 747.335938 L 815.011719 748.054688 L 814.835938 748.632812 L 814.609375 749.355469 L 814.421875 749.929688 L 814.214844 750.566406 L 813.972656 751.273438 L 813.765625 751.875 L 813.53125 752.546875 L 813.304688 753.167969 L 813.082031 753.777344 L 812.835938 754.433594 L 812.597656 755.050781 L 812.363281 755.660156 L 812.117188 756.269531 L 811.835938 756.964844 L 811.5625 757.628906 L 811.316406 758.210938 L 811.070312 758.777344 L 810.769531 759.464844 L 810.527344 760.011719 L 810.214844 760.695312 L 809.945312 761.277344 L 809.652344 761.898438 L 809.378906 762.472656 L 809.054688 763.136719 L 808.757812 763.738281 L 808.476562 764.296875 L 808.132812 764.96875 L 807.863281 765.488281 L 807.550781 766.074219 L 807.203125 766.722656 L 806.882812 767.3125 L 806.582031 767.851562 L 806.230469 768.476562 L 805.917969 769.019531 L 805.585938 769.59375 L 805.199219 770.246094 L 804.886719 770.769531 L 804.542969 771.328125 L 804.183594 771.914062 L 803.800781 772.523438 L 803.398438 773.15625 L 803.074219 773.65625 L 802.71875 774.203125 L 802.351562 774.753906 L 801.910156 775.402344 L 801.59375 775.867188 L 801.140625 776.519531 L 800.796875 777.003906 L 800.398438 777.5625 L 799.964844 778.15625 L 799.570312 778.695312 L 799.214844 779.171875 L 798.757812 779.777344 L 798.347656 780.308594 L 797.949219 780.824219 L 797.503906 781.382812 L 797.082031 781.914062 L 796.691406 782.394531 L 796.261719 782.917969 L 795.828125 783.433594 L 795.410156 783.929688 L 794.964844 784.449219 L 794.472656 785.019531 L 794.058594 785.488281 L 793.660156 785.933594 L 793.160156 786.488281 L 792.753906 786.933594 L 792.253906 787.472656 L 791.75 788.003906 L 791.304688 788.472656 L 790.824219 788.96875 L 790.371094 789.429688 L 789.875 789.929688 L 789.441406 790.359375 L 788.917969 790.875 L 788.496094 791.28125 L 787.972656 791.78125 L 787.472656 792.253906 L 786.933594 792.75 L 786.445312 793.199219 L 786.027344 793.578125 L 785.503906 794.042969 L 784.980469 794.503906 L 784.457031 794.960938 L 783.902344 795.433594 L 783.382812 795.875 L 782.921875 796.257812 L 782.417969 796.671875 L 781.894531 797.097656 L 781.304688 797.566406 L 780.8125 797.957031 L 780.257812 798.386719 L 779.789062 798.746094 L 779.152344 799.230469 L 778.707031 799.5625 L 778.160156 799.964844 L 777.515625 800.433594 L 777.046875 800.765625 L 776.457031 801.183594 L 775.917969 801.558594 L 775.359375 801.941406 L 774.773438 802.339844 L 774.269531 802.671875 L 773.652344 803.078125 L 773.125 803.417969 L 772.488281 803.824219 L 771.96875 804.148438 L 771.390625 804.507812 L 770.761719 804.890625 L 770.273438 805.183594 L 769.683594 805.53125 L 769.03125 805.910156 L 768.492188 806.21875 L 767.890625 806.5625 L 767.324219 806.875 L 766.65625 807.238281 L 766.09375 807.542969 L 765.480469 807.867188 L 764.867188 808.1875 L 764.371094 808.4375 L 763.742188 808.757812 L 763.136719 809.058594 L 762.449219 809.390625 L 761.9375 809.636719 L 761.304688 809.933594 L 760.65625 810.234375 L 760.089844 810.492188 L 759.417969 810.789062 L 758.828125 811.050781 L 758.144531 811.34375 L 757.617188 811.566406 L 756.917969 811.855469 L 756.289062 812.113281 L 755.742188 812.328125 L 755.074219 812.589844 L 754.476562 812.820312 L 753.839844 813.058594 L 753.183594 813.300781 L 752.507812 813.542969 L 751.953125 813.738281 L 751.28125 813.972656 L 750.578125 814.207031 L 750.03125 814.390625 L 749.269531 814.632812 L 748.691406 814.816406 L 748.058594 815.011719 L 747.445312 815.195312 L 746.800781 815.386719 L 746.09375 815.589844 L 745.382812 815.785156 L 744.832031 815.933594 L 744.128906 816.121094 L 743.492188 816.285156 L 742.859375 816.445312 L 742.148438 816.617188 L 741.511719 816.765625 L 740.839844 816.921875 L 740.238281 817.054688 L 739.601562 817.191406 L 738.917969 817.332031 L 738.164062 817.484375 L 737.597656 817.59375 L 736.894531 817.726562 L 736.234375 817.84375 L 735.589844 817.957031 L 734.921875 818.066406 L 734.25 818.175781 L 733.519531 818.285156 L 732.878906 818.378906 L 732.175781 818.476562 L 731.546875 818.558594 L 730.925781 818.636719 L 730.25 818.714844 L 729.515625 818.796875 L 728.910156 818.859375 L 728.195312 818.929688 L 727.503906 818.992188 L 726.777344 819.054688 L 726.121094 819.105469 L 725.464844 819.152344 L 724.867188 819.1875 L 724.183594 819.226562 L 723.414062 819.265625 L 722.746094 819.296875 L 722.128906 819.316406 L 721.453125 819.339844 L 720.835938 819.351562 L 720.101562 819.367188 L 719.386719 819.371094 L 718.75 819.375 Z M 805.625 718.75 L 805.625 406.25 L 809.375 406.25 L 809.375 718.75 Z M 815.625 718.75 L 815.625 406.25 L 819.375 406.25 L 819.375 718.75 Z M 805.625 406.25 L 804.9375 405.65625 L 804.167969 404.988281 L 803.375 404.304688 L 802.707031 403.726562 L 801.984375 403.097656 L 801.3125 402.519531 L 800.597656 401.898438 L 799.765625 401.179688 L 799.027344 400.542969 L 798.378906 399.980469 L 797.671875 399.371094 L 796.960938 398.753906 L 796.175781 398.074219 L 795.425781 397.429688 L 794.652344 396.757812 L 793.996094 396.191406 L 793.199219 395.5 L 792.464844 394.867188 L 791.789062 394.28125 L 791.105469 393.691406 L 790.339844 393.027344 L 789.644531 392.425781 L 788.847656 391.734375 L 788.109375 391.097656 L 787.382812 390.46875 L 786.679688 389.859375 L 785.953125 389.234375 L 785.179688 388.566406 L 783.730469 387.308594 L 782.976562 386.660156 L 782.277344 386.050781 L 781.609375 385.476562 L 780.867188 384.832031 L 780.160156 384.222656 L 779.375 383.542969 L 778.671875 382.933594 L 777.960938 382.320312 L 777.175781 381.640625 L 776.558594 381.109375 L 775.765625 380.421875 L 774.976562 379.738281 L 774.25 379.109375 L 773.558594 378.511719 L 772.84375 377.890625 L 772.1875 377.328125 L 771.328125 376.582031 L 770.707031 376.042969 L 769.90625 375.351562 L 769.140625 374.691406 L 768.503906 374.140625 L 767.730469 373.472656 L 766.976562 372.820312 L 766.246094 372.183594 L 765.554688 371.589844 L 764.78125 370.917969 L 764.148438 370.371094 L 763.414062 369.734375 L 762.597656 369.027344 L 761.980469 368.496094 L 761.179688 367.804688 L 760.484375 367.199219 L 759.6875 366.511719 L 759.019531 365.933594 L 758.246094 365.265625 L 757.496094 364.613281 L 756.882812 364.085938 L 756.058594 363.375 L 755.332031 362.742188 L 754.570312 362.085938 L 753.972656 361.566406 L 753.226562 360.921875 L 752.476562 360.273438 L 751.789062 359.675781 L 750.96875 358.96875 L 750.269531 358.367188 L 749.523438 357.71875 L 748.855469 357.140625 L 748.039062 356.4375 L 747.300781 355.796875 L 746.683594 355.265625 L 745.890625 354.578125 L 745.160156 353.945312 L 744.5 353.375 L 743.6875 352.671875 L 743.007812 352.082031 L 742.210938 351.394531 L 741.5625 350.832031 L 740.796875 350.171875 L 740.066406 349.539062 L 739.359375 348.925781 L 738.578125 348.25 L 737.960938 347.71875 L 737.101562 346.972656 L 736.367188 346.339844 L 735.769531 345.820312 L 734.90625 345.074219 L 734.273438 344.527344 L 733.515625 343.871094 L 732.835938 343.285156 L 732.023438 342.582031 L 731.296875 341.953125 L 729.949219 340.785156 L 729.214844 340.152344 L 728.429688 339.472656 L 727.675781 338.820312 L 726.925781 338.171875 L 726.167969 337.515625 L 725.558594 336.988281 L 724.847656 336.371094 L 724.058594 335.691406 L 723.316406 335.046875 L 722.535156 334.371094 L 721.902344 333.828125 L 721.109375 333.140625 L 720.453125 332.570312 L 719.691406 331.914062 L 718.992188 331.308594 L 718.25 330.667969 L 717.554688 330.066406 L 716.761719 329.378906 L 715.972656 328.695312 L 715.320312 328.132812 L 714.515625 327.4375 L 713.875 326.878906 L 713.199219 326.296875 L 712.386719 325.59375 L 711.648438 324.957031 L 710.949219 324.351562 L 710.222656 323.722656 L 709.492188 323.089844 L 708.824219 322.511719 L 708.09375 321.878906 L 707.320312 321.210938 L 706.621094 320.605469 L 705.894531 319.980469 L 705.082031 319.273438 L 704.433594 318.714844 L 703.71875 318.09375 L 702.921875 317.40625 L 702.183594 316.769531 L 701.542969 316.214844 L 700.6875 315.472656 L 700.082031 314.949219 L 699.234375 314.21875 L 698.523438 313.601562 L 697.820312 312.992188 L 697.175781 312.4375 L 696.363281 311.734375 L 695.589844 311.0625 L 694.851562 310.425781 L 694.144531 309.8125 L 693.488281 309.246094 L 692.667969 308.535156 L 691.953125 307.917969 L 691.277344 307.332031 L 690.507812 306.667969 L 689.839844 306.089844 L 689.113281 305.460938 L 688.324219 304.777344 L 687.605469 304.15625 L 686.976562 303.613281 L 686.164062 302.910156 L 685.484375 302.324219 L 684.761719 301.699219 L 683.964844 301.007812 L 683.28125 300.414062 L 682.539062 299.773438 L 681.851562 299.179688 L 681.039062 298.476562 L 680.394531 297.917969 L 679.582031 297.214844 L 678.917969 296.640625 L 678.238281 296.050781 L 677.460938 295.378906 L 676.652344 294.679688 L 675.238281 293.460938 L 674.527344 292.84375 L 673.769531 292.1875 L 673.070312 291.582031 L 672.359375 290.96875 L 671.59375 290.304688 L 670.90625 289.710938 L 670.101562 289.015625 L 669.378906 288.390625 L 668.726562 287.828125 L 667.910156 287.121094 L 667.257812 286.554688 L 666.449219 285.855469 L 665.804688 285.300781 L 665.066406 284.660156 L 664.390625 284.074219 L 663.574219 283.367188 L 662.84375 282.738281 L 662.179688 282.160156 L 661.417969 281.503906 L 660.613281 280.808594 L 660.019531 280.296875 L 659.285156 279.65625 L 658.535156 279.007812 L 657.703125 278.289062 L 657.027344 277.707031 L 656.292969 277.070312 L 655.617188 276.488281 L 654.867188 275.835938 L 654.148438 275.214844 L 653.457031 274.617188 L 652.71875 273.976562 L 651.902344 273.269531 L 651.273438 272.730469 L 650.542969 272.09375 L 649.773438 271.429688 L 649.027344 270.785156 L 648.34375 270.191406 L 647.589844 269.542969 L 646.902344 268.949219 L 646.058594 268.214844 L 645.347656 267.601562 L 644.667969 267.011719 L 643.992188 266.429688 L 643.28125 265.8125 L 642.429688 265.078125 L 641.714844 264.460938 L 641.050781 263.882812 L 640.238281 263.179688 L 639.542969 262.578125 L 638.871094 261.996094 L 638.074219 261.3125 L 637.445312 260.765625 L 636.675781 260.097656 L 635.917969 259.445312 L 635.179688 258.808594 L 634.492188 258.210938 L 633.789062 257.601562 L 632.9375 256.867188 L 632.230469 256.253906 L 631.503906 255.625 L 630.820312 255.035156 L 630.128906 254.4375 L 629.316406 253.734375 L 628.65625 253.164062 L 627.875 252.484375 L 627.222656 251.921875 L 626.457031 251.257812 L 625.761719 250.660156 L 625 250 L 718.75 250 L 719.132812 250.660156 L 719.480469 251.257812 L 719.863281 251.921875 L 720.191406 252.484375 L 720.585938 253.164062 L 720.917969 253.734375 L 721.324219 254.4375 L 721.671875 255.035156 L 722.011719 255.625 L 722.378906 256.253906 L 722.730469 256.867188 L 723.160156 257.601562 L 723.511719 258.210938 L 723.859375 258.808594 L 724.230469 259.445312 L 724.609375 260.097656 L 724.992188 260.765625 L 725.3125 261.3125 L 725.707031 261.996094 L 726.046875 262.578125 L 726.394531 263.179688 L 726.804688 263.882812 L 727.136719 264.460938 L 727.496094 265.078125 L 727.921875 265.8125 L 728.28125 266.429688 L 728.617188 267.011719 L 728.957031 267.601562 L 729.316406 268.214844 L 729.738281 268.949219 L 730.085938 269.542969 L 730.460938 270.191406 L 730.804688 270.785156 L 731.179688 271.429688 L 731.566406 272.09375 L 731.933594 272.730469 L 732.246094 273.269531 L 732.65625 273.976562 L 733.027344 274.617188 L 733.375 275.214844 L 733.734375 275.835938 L 734.113281 276.488281 L 734.449219 277.070312 L 734.820312 277.707031 L 735.15625 278.289062 L 735.574219 279.007812 L 735.953125 279.65625 L 736.320312 280.296875 L 736.621094 280.808594 L 737.019531 281.503906 L 737.402344 282.160156 L 737.738281 282.738281 L 738.105469 283.367188 L 738.511719 284.074219 L 738.851562 284.660156 L 739.222656 285.300781 L 739.546875 285.855469 L 739.953125 286.554688 L 740.28125 287.121094 L 740.6875 287.828125 L 741.015625 288.390625 L 741.378906 289.015625 L 741.78125 289.710938 L 742.128906 290.304688 L 742.511719 290.96875 L 742.867188 291.582031 L 743.21875 292.1875 L 743.597656 292.84375 L 743.957031 293.460938 L 744.308594 294.070312 L 744.664062 294.679688 L 745.070312 295.378906 L 745.460938 296.050781 L 745.800781 296.640625 L 746.136719 297.214844 L 746.542969 297.917969 L 746.867188 298.476562 L 747.273438 299.179688 L 747.617188 299.773438 L 747.992188 300.414062 L 748.335938 301.007812 L 748.734375 301.699219 L 749.097656 302.324219 L 749.4375 302.910156 L 749.84375 303.613281 L 750.160156 304.15625 L 750.519531 304.777344 L 750.917969 305.460938 L 751.28125 306.089844 L 751.617188 306.667969 L 752.003906 307.332031 L 752.34375 307.917969 L 752.699219 308.535156 L 753.113281 309.246094 L 753.441406 309.8125 L 753.796875 310.425781 L 754.167969 311.0625 L 754.554688 311.734375 L 754.960938 312.4375 L 755.285156 312.992188 L 755.636719 313.601562 L 755.996094 314.21875 L 756.421875 314.949219 L 756.726562 315.472656 L 757.152344 316.214844 L 757.476562 316.769531 L 757.847656 317.40625 L 758.246094 318.09375 L 758.605469 318.714844 L 758.929688 319.273438 L 759.335938 319.980469 L 759.699219 320.605469 L 760.054688 321.210938 L 760.441406 321.878906 L 760.804688 322.511719 L 761.144531 323.089844 L 761.507812 323.722656 L 761.875 324.351562 L 762.222656 324.957031 L 762.59375 325.59375 L 763 326.296875 L 763.339844 326.878906 L 763.664062 327.4375 L 764.066406 328.132812 L 764.394531 328.695312 L 764.789062 329.378906 L 765.1875 330.066406 L 765.535156 330.667969 L 765.910156 331.308594 L 766.257812 331.914062 L 766.640625 332.570312 L 766.972656 333.140625 L 767.371094 333.828125 L 767.6875 334.371094 L 768.078125 335.046875 L 768.449219 335.691406 L 768.847656 336.371094 L 769.203125 336.988281 L 769.507812 337.515625 L 769.890625 338.171875 L 770.265625 338.820312 L 770.644531 339.472656 L 771.039062 340.152344 L 771.40625 340.785156 L 771.730469 341.34375 L 772.082031 341.953125 L 772.445312 342.582031 L 772.855469 343.285156 L 773.195312 343.871094 L 773.574219 344.527344 L 773.894531 345.074219 L 774.324219 345.820312 L 774.625 346.339844 L 774.992188 346.972656 L 775.425781 347.71875 L 775.734375 348.25 L 776.128906 348.925781 L 776.480469 349.539062 L 776.847656 350.171875 L 777.234375 350.832031 L 777.558594 351.394531 L 777.957031 352.082031 L 778.300781 352.671875 L 778.707031 353.375 L 779.039062 353.945312 L 779.40625 354.578125 L 779.804688 355.265625 L 780.113281 355.796875 L 780.484375 356.4375 L 780.890625 357.140625 L 781.226562 357.71875 L 781.601562 358.367188 L 781.953125 358.96875 L 782.363281 359.675781 L 782.710938 360.273438 L 783.085938 360.921875 L 783.460938 361.566406 L 783.761719 362.085938 L 784.140625 362.742188 L 784.507812 363.375 L 784.917969 364.085938 L 785.226562 364.613281 L 785.605469 365.265625 L 785.992188 365.933594 L 786.328125 366.511719 L 786.726562 367.199219 L 787.074219 367.804688 L 787.476562 368.496094 L 787.785156 369.027344 L 788.195312 369.734375 L 788.566406 370.371094 L 788.882812 370.917969 L 789.269531 371.589844 L 789.617188 372.183594 L 789.984375 372.820312 L 790.363281 373.472656 L 790.75 374.140625 L 791.070312 374.691406 L 791.453125 375.351562 L 791.855469 376.042969 L 792.167969 376.582031 L 792.597656 377.328125 L 792.925781 377.890625 L 793.285156 378.511719 L 793.632812 379.109375 L 793.996094 379.738281 L 794.394531 380.421875 L 794.792969 381.109375 L 795.101562 381.640625 L 795.496094 382.320312 L 795.851562 382.933594 L 796.203125 383.542969 L 796.597656 384.222656 L 796.953125 384.832031 L 797.324219 385.476562 L 797.660156 386.050781 L 798.011719 386.660156 L 798.390625 387.308594 L 798.804688 388.027344 L 799.117188 388.566406 L 799.503906 389.234375 L 799.867188 389.859375 L 800.222656 390.46875 L 800.585938 391.097656 L 800.957031 391.734375 L 801.355469 392.425781 L 801.707031 393.027344 L 802.089844 393.691406 L 802.433594 394.28125 L 802.773438 394.867188 L 803.140625 395.5 L 803.539062 396.191406 L 803.867188 396.757812 L 804.257812 397.429688 L 804.632812 398.074219 L 805.027344 398.753906 L 805.382812 399.371094 L 805.738281 399.980469 L 806.0625 400.542969 L 806.433594 401.179688 L 806.851562 401.898438 L 807.210938 402.519531 L 807.546875 403.097656 L 807.910156 403.726562 L 808.246094 404.304688 L 808.644531 404.988281 L 809.375 406.25 Z M 815.625 406.25 L 816.355469 404.988281 L 816.753906 404.304688 L 817.089844 403.726562 L 817.453125 403.097656 L 817.789062 402.519531 L 818.148438 401.898438 L 818.566406 401.179688 L 818.9375 400.542969 L 819.261719 399.980469 L 819.617188 399.371094 L 819.972656 398.753906 L 820.367188 398.074219 L 820.742188 397.429688 L 821.132812 396.757812 L 821.460938 396.191406 L 821.859375 395.5 L 822.226562 394.867188 L 822.566406 394.28125 L 822.910156 393.691406 L 823.292969 393.027344 L 823.644531 392.425781 L 824.042969 391.734375 L 824.414062 391.097656 L 824.777344 390.46875 L 825.132812 389.859375 L 825.496094 389.234375 L 825.882812 388.566406 L 826.195312 388.027344 L 826.609375 387.308594 L 826.988281 386.660156 L 827.339844 386.050781 L 827.675781 385.476562 L 828.046875 384.832031 L 828.402344 384.222656 L 828.796875 383.542969 L 829.148438 382.933594 L 829.503906 382.320312 L 829.898438 381.640625 L 830.207031 381.109375 L 830.605469 380.421875 L 831.003906 379.738281 L 831.367188 379.109375 L 831.714844 378.511719 L 832.074219 377.890625 L 832.402344 377.328125 L 832.832031 376.582031 L 833.144531 376.042969 L 833.546875 375.351562 L 833.929688 374.691406 L 834.25 374.140625 L 834.636719 373.472656 L 835.015625 372.820312 L 835.382812 372.183594 L 835.730469 371.589844 L 836.117188 370.917969 L 836.433594 370.371094 L 836.804688 369.734375 L 837.214844 369.027344 L 837.523438 368.496094 L 837.925781 367.804688 L 838.273438 367.199219 L 838.671875 366.511719 L 839.007812 365.933594 L 839.394531 365.265625 L 839.773438 364.613281 L 840.082031 364.085938 L 840.492188 363.375 L 840.859375 362.742188 L 841.238281 362.085938 L 841.539062 361.566406 L 841.914062 360.921875 L 842.289062 360.273438 L 842.636719 359.675781 L 843.046875 358.96875 L 843.398438 358.367188 L 843.773438 357.71875 L 844.109375 357.140625 L 844.515625 356.4375 L 844.886719 355.796875 L 845.195312 355.265625 L 845.59375 354.578125 L 845.960938 353.945312 L 846.292969 353.375 L 846.699219 352.671875 L 847.042969 352.082031 L 847.441406 351.394531 L 847.765625 350.832031 L 848.152344 350.171875 L 848.519531 349.539062 L 848.871094 348.925781 L 849.265625 348.25 L 849.574219 347.71875 L 850.007812 346.972656 L 850.375 346.339844 L 850.675781 345.820312 L 851.105469 345.074219 L 851.425781 344.527344 L 851.804688 343.871094 L 852.144531 343.285156 L 852.554688 342.582031 L 852.917969 341.953125 L 853.269531 341.34375 L 853.59375 340.785156 L 853.960938 340.152344 L 854.355469 339.472656 L 854.734375 338.820312 L 855.109375 338.171875 L 855.492188 337.515625 L 855.796875 336.988281 L 856.152344 336.371094 L 856.550781 335.691406 L 856.921875 335.046875 L 857.3125 334.371094 L 857.628906 333.828125 L 858.027344 333.140625 L 858.359375 332.570312 L 858.742188 331.914062 L 859.089844 331.308594 L 859.464844 330.667969 L 859.8125 330.066406 L 860.210938 329.378906 L 860.605469 328.695312 L 860.933594 328.132812 L 861.335938 327.4375 L 861.660156 326.878906 L 862 326.296875 L 862.40625 325.59375 L 862.777344 324.957031 L 863.125 324.351562 L 863.492188 323.722656 L 863.855469 323.089844 L 864.195312 322.511719 L 864.558594 321.878906 L 864.945312 321.210938 L 865.300781 320.605469 L 865.664062 319.980469 L 866.070312 319.273438 L 866.394531 318.714844 L 866.753906 318.09375 L 867.152344 317.40625 L 867.523438 316.769531 L 867.847656 316.214844 L 868.273438 315.472656 L 868.578125 314.949219 L 869.003906 314.21875 L 869.363281 313.601562 L 869.714844 312.992188 L 870.039062 312.4375 L 870.445312 311.734375 L 870.832031 311.0625 L 871.203125 310.425781 L 871.558594 309.8125 L 871.886719 309.246094 L 872.300781 308.535156 L 872.65625 307.917969 L 872.996094 307.332031 L 873.382812 306.667969 L 873.71875 306.089844 L 874.082031 305.460938 L 874.480469 304.777344 L 874.839844 304.15625 L 875.15625 303.613281 L 875.5625 302.910156 L 875.902344 302.324219 L 876.265625 301.699219 L 876.664062 301.007812 L 877.007812 300.414062 L 877.382812 299.773438 L 877.726562 299.179688 L 878.132812 298.476562 L 878.457031 297.917969 L 878.863281 297.214844 L 879.199219 296.640625 L 879.539062 296.050781 L 879.929688 295.378906 L 880.335938 294.679688 L 880.691406 294.070312 L 881.042969 293.460938 L 881.402344 292.84375 L 881.78125 292.1875 L 882.132812 291.582031 L 882.488281 290.96875 L 882.871094 290.304688 L 883.21875 289.710938 L 883.621094 289.015625 L 883.984375 288.390625 L 884.3125 287.828125 L 884.71875 287.121094 L 885.046875 286.554688 L 885.453125 285.855469 L 885.777344 285.300781 L 886.148438 284.660156 L 886.488281 284.074219 L 886.894531 283.367188 L 887.261719 282.738281 L 887.597656 282.160156 L 887.980469 281.503906 L 888.378906 280.808594 L 888.679688 280.296875 L 889.046875 279.65625 L 889.425781 279.007812 L 889.84375 278.289062 L 890.179688 277.707031 L 890.550781 277.070312 L 890.886719 276.488281 L 891.265625 275.835938 L 891.625 275.214844 L 891.972656 274.617188 L 892.34375 273.976562 L 892.753906 273.269531 L 893.066406 272.730469 L 893.433594 272.09375 L 893.820312 271.429688 L 894.195312 270.785156 L 894.539062 270.191406 L 894.914062 269.542969 L 895.261719 268.949219 L 895.683594 268.214844 L 896.042969 267.601562 L 896.382812 267.011719 L 896.71875 266.429688 L 897.078125 265.8125 L 897.503906 265.078125 L 897.863281 264.460938 L 898.195312 263.882812 L 898.605469 263.179688 L 898.953125 262.578125 L 899.292969 261.996094 L 899.6875 261.3125 L 900.007812 260.765625 L 900.390625 260.097656 L 900.769531 259.445312 L 901.140625 258.808594 L 901.488281 258.210938 L 901.839844 257.601562 L 902.269531 256.867188 L 902.621094 256.253906 L 902.988281 255.625 L 903.328125 255.035156 L 903.675781 254.4375 L 904.082031 253.734375 L 904.414062 253.164062 L 904.808594 252.484375 L 905.136719 251.921875 L 905.519531 251.257812 L 905.867188 250.660156 L 906.25 250 L 1000 250 L 999.238281 250.660156 L 998.542969 251.257812 L 997.777344 251.921875 L 997.125 252.484375 L 996.34375 253.164062 L 995.683594 253.734375 L 994.871094 254.4375 L 994.179688 255.035156 L 993.496094 255.625 L 992.769531 256.253906 L 992.0625 256.867188 L 991.210938 257.601562 L 990.507812 258.210938 L 989.820312 258.808594 L 989.082031 259.445312 L 988.324219 260.097656 L 987.554688 260.765625 L 986.925781 261.3125 L 986.128906 261.996094 L 985.457031 262.578125 L 984.761719 263.179688 L 983.949219 263.882812 L 983.285156 264.460938 L 982.570312 265.078125 L 981.71875 265.8125 L 981.007812 266.429688 L 980.332031 267.011719 L 979.652344 267.601562 L 978.941406 268.214844 L 978.097656 268.949219 L 977.410156 269.542969 L 976.65625 270.191406 L 975.972656 270.785156 L 975.226562 271.429688 L 974.457031 272.09375 L 973.726562 272.730469 L 973.097656 273.269531 L 972.28125 273.976562 L 971.542969 274.617188 L 970.851562 275.214844 L 970.132812 275.835938 L 969.382812 276.488281 L 968.707031 277.070312 L 967.972656 277.707031 L 967.296875 278.289062 L 966.464844 279.007812 L 965.714844 279.65625 L 964.980469 280.296875 L 964.386719 280.808594 L 963.582031 281.503906 L 962.820312 282.160156 L 962.15625 282.738281 L 961.425781 283.367188 L 960.609375 284.074219 L 959.933594 284.660156 L 959.195312 285.300781 L 958.550781 285.855469 L 957.742188 286.554688 L 957.089844 287.121094 L 956.273438 287.828125 L 955.621094 288.390625 L 954.898438 289.015625 L 954.09375 289.710938 L 953.40625 290.304688 L 952.640625 290.96875 L 951.929688 291.582031 L 951.230469 292.1875 L 950.472656 292.84375 L 949.761719 293.460938 L 948.347656 294.679688 L 947.539062 295.378906 L 946.761719 296.050781 L 946.082031 296.640625 L 945.417969 297.214844 L 944.605469 297.917969 L 943.960938 298.476562 L 943.148438 299.179688 L 942.460938 299.773438 L 941.71875 300.414062 L 941.035156 301.007812 L 940.238281 301.699219 L 939.515625 302.324219 L 938.835938 302.910156 L 938.023438 303.613281 L 937.394531 304.15625 L 936.675781 304.777344 L 935.886719 305.460938 L 935.160156 306.089844 L 934.492188 306.667969 L 933.722656 307.332031 L 933.046875 307.917969 L 932.332031 308.535156 L 931.511719 309.246094 L 930.855469 309.8125 L 930.148438 310.425781 L 929.410156 311.0625 L 928.636719 311.734375 L 927.824219 312.4375 L 927.179688 312.992188 L 926.476562 313.601562 L 925.765625 314.21875 L 924.917969 314.949219 L 924.3125 315.472656 L 923.457031 316.214844 L 922.816406 316.769531 L 922.078125 317.40625 L 921.28125 318.09375 L 920.566406 318.714844 L 919.917969 319.273438 L 919.105469 319.980469 L 918.378906 320.605469 L 917.679688 321.210938 L 916.90625 321.878906 L 916.175781 322.511719 L 915.507812 323.089844 L 914.777344 323.722656 L 914.050781 324.351562 L 913.351562 324.957031 L 912.613281 325.59375 L 911.800781 326.296875 L 911.125 326.878906 L 910.484375 327.4375 L 909.679688 328.132812 L 909.027344 328.695312 L 908.238281 329.378906 L 907.445312 330.066406 L 906.75 330.667969 L 906.007812 331.308594 L 905.308594 331.914062 L 904.546875 332.570312 L 903.890625 333.140625 L 903.097656 333.828125 L 902.464844 334.371094 L 901.683594 335.046875 L 900.941406 335.691406 L 900.152344 336.371094 L 899.441406 336.988281 L 898.832031 337.515625 L 898.074219 338.171875 L 897.324219 338.820312 L 896.570312 339.472656 L 895.785156 340.152344 L 895.050781 340.785156 L 893.703125 341.953125 L 892.976562 342.582031 L 892.164062 343.285156 L 891.484375 343.871094 L 890.726562 344.527344 L 890.09375 345.074219 L 889.230469 345.820312 L 888.632812 346.339844 L 887.898438 346.972656 L 887.039062 347.71875 L 886.421875 348.25 L 885.640625 348.925781 L 884.933594 349.539062 L 884.203125 350.171875 L 883.4375 350.832031 L 882.789062 351.394531 L 881.992188 352.082031 L 881.3125 352.671875 L 880.5 353.375 L 879.839844 353.945312 L 879.109375 354.578125 L 878.316406 355.265625 L 877.699219 355.796875 L 876.960938 356.4375 L 876.144531 357.140625 L 875.476562 357.71875 L 874.730469 358.367188 L 874.03125 358.96875 L 873.210938 359.675781 L 872.523438 360.273438 L 871.773438 360.921875 L 871.027344 361.566406 L 870.429688 362.085938 L 869.667969 362.742188 L 868.941406 363.375 L 868.117188 364.085938 L 867.503906 364.613281 L 866.753906 365.265625 L 865.980469 365.933594 L 865.3125 366.511719 L 864.515625 367.199219 L 863.820312 367.804688 L 863.019531 368.496094 L 862.402344 369.027344 L 861.585938 369.734375 L 860.851562 370.371094 L 860.21875 370.917969 L 859.445312 371.589844 L 858.753906 372.183594 L 858.023438 372.820312 L 857.269531 373.472656 L 856.496094 374.140625 L 855.859375 374.691406 L 855.09375 375.351562 L 854.292969 376.042969 L 853.671875 376.582031 L 852.8125 377.328125 L 852.15625 377.890625 L 851.441406 378.511719 L 850.75 379.109375 L 850.023438 379.738281 L 849.234375 380.421875 L 848.441406 381.109375 L 847.824219 381.640625 L 847.039062 382.320312 L 846.328125 382.933594 L 845.625 383.542969 L 844.839844 384.222656 L 844.132812 384.832031 L 843.390625 385.476562 L 842.722656 386.050781 L 842.023438 386.660156 L 841.269531 387.308594 L 839.820312 388.566406 L 839.046875 389.234375 L 838.320312 389.859375 L 837.617188 390.46875 L 836.890625 391.097656 L 836.152344 391.734375 L 835.355469 392.425781 L 834.660156 393.027344 L 833.894531 393.691406 L 833.210938 394.28125 L 832.535156 394.867188 L 831.800781 395.5 L 831.003906 396.191406 L 830.347656 396.757812 L 829.574219 397.429688 L 828.824219 398.074219 L 828.039062 398.753906 L 827.328125 399.371094 L 826.621094 399.980469 L 825.972656 400.542969 L 825.234375 401.179688 L 824.402344 401.898438 L 823.6875 402.519531 L 823.015625 403.097656 L 822.292969 403.726562 L 821.625 404.304688 L 820.832031 404.988281 L 820.0625 405.65625 L 819.375 406.25 Z M 625 250 L 625 93.75 L 718.75 93.75 L 718.75 250 Z M 906.25 250 L 906.25 93.75 L 1000 93.75 L 1000 250 Z M 625 93.75 L 625 3.125 L 1000 3.125 L 1000 93.75 Z M 625 3.125 L 625.003906 2.941406 L 625.023438 2.753906 L 625.050781 2.570312 L 625.089844 2.386719 L 625.144531 2.179688 L 625.21875 1.972656 L 625.308594 1.769531 L 625.417969 1.5625 L 625.554688 1.351562 L 625.714844 1.136719 L 625.804688 1.03125 L 625.90625 0.925781 L 626.015625 0.820312 L 626.136719 0.714844 L 626.25 0.625 L 626.375 0.535156 L 626.515625 0.445312 L 626.675781 0.355469 L 626.859375 0.269531 L 627.085938 0.179688 L 627.21875 0.132812 L 627.382812 0.0898438 L 627.597656 0.0429688 L 628.125 0 L 996.875 0 L 997.402344 0.0429688 L 997.617188 0.0898438 L 997.78125 0.132812 L 997.914062 0.179688 L 998.140625 0.269531 L 998.324219 0.355469 L 998.484375 0.445312 L 998.625 0.535156 L 998.75 0.625 L 998.863281 0.714844 L 998.984375 0.820312 L 999.09375 0.925781 L 999.195312 1.03125 L 999.285156 1.136719 L 999.445312 1.351562 L 999.582031 1.5625 L 999.691406 1.769531 L 999.78125 1.972656 L 999.855469 2.179688 L 999.910156 2.386719 L 999.949219 2.570312 L 999.976562 2.753906 L 999.996094 2.941406 L 1000 3.125 Z M 625 3.125 "/>
</g>
</svg>
