<?xml version="1.0" encoding="UTF-8"?>
<svg xmlns="http://www.w3.org/2000/svg" xmlns:xlink="http://www.w3.org/1999/xlink" width="1000pt" height="1000pt" viewBox="0 0 1000 1000" version="1.1">
<g id="surface53">
<path style=" stroke:none;fill-rule:nonzero;fill:rgb(58.823529%,80.784314%,70.588235%);fill-opacity:0.501961;" d="M 0 5.375 L 5.375 5.375 L 5.375 0 L 0 0 Z M 26.882812 5.375 L 32.257812 5.375 L 32.257812 0 L 26.882812 0 Z M 0 12.097656 L 5.375 12.097656 L 5.375 6.71875 L 0 6.71875 Z M 26.882812 12.097656 L 32.257812 12.097656 L 32.257812 6.71875 L 26.882812 6.71875 Z M 0 18.816406 L 5.375 18.816406 L 5.375 13.441406 L 0 13.441406 Z M 26.882812 18.816406 L 32.257812 18.816406 L 32.257812 13.441406 L 26.882812 13.441406 Z M 0 25.539062 L 5.375 25.539062 L 5.375 20.160156 L 0 20.160156 Z M 6.71875 25.539062 L 12.097656 25.539062 L 12.097656 20.160156 L 6.71875 20.160156 Z M 13.441406 25.539062 L 18.816406 25.539062 L 18.816406 20.160156 L 13.441406 20.160156 Z M 20.160156 25.539062 L 25.539062 25.539062 L 25.539062 20.160156 L 20.160156 20.160156 Z M 26.882812 25.539062 L 32.257812 25.539062 L 32.257812 20.160156 L 26.882812 20.160156 Z M 0 32.257812 L 5.375 32.257812 L 5.375 26.882812 L 0 26.882812 Z M 26.882812 32.257812 L 32.257812 32.257812 L 32.257812 26.882812 L 26.882812 26.882812 Z M 0 38.976562 L 5.375 38.976562 L 5.375 33.601562 L 0 33.601562 Z M 26.882812 38.976562 L 32.257812 38.976562 L 32.257812 33.601562 L 26.882812 33.601562 Z M 0 45.699219 L 5.375 45.699219 L 5.375 40.324219 L 0 40.324219 Z M 26.882812 45.699219 L 32.257812 45.699219 L 32.257812 40.324219 L 26.882812 40.324219 Z M 40.324219 18.816406 L 45.699219 18.816406 L 45.699219 13.441406 L 40.324219 13.441406 Z M 47.042969 18.816406 L 52.417969 18.816406 L 52.417969 13.441406 L 47.042969 13.441406 Z M 53.761719 18.816406 L 59.140625 18.816406 L 59.140625 13.441406 L 53.761719 13.441406 Z M 60.484375 18.816406 L 65.859375 18.816406 L 65.859375 13.441406 L 60.484375 13.441406 Z M 67.203125 18.816406 L 72.582031 18.816406 L 72.582031 13.441406 L 67.203125 13.441406 Z M 40.324219 32.257812 L 45.699219 32.257812 L 45.699219 26.882812 L 40.324219 26.882812 Z M 47.042969 32.257812 L 52.417969 32.257812 L 52.417969 26.882812 L 47.042969 26.882812 Z M 53.761719 32.257812 L 59.140625 32.257812 L 59.140625 26.882812 L 53.761719 26.882812 Z M 60.484375 32.257812 L 65.859375 32.257812 L 65.859375 26.882812 L 60.484375 26.882812 Z M 67.203125 32.257812 L 72.582031 32.257812 L 72.582031 26.882812 L 67.203125 26.882812 Z M 87.367188 5.375 L 92.742188 5.375 L 92.742188 0 L 87.367188 0 Z M 80.644531 12.097656 L 86.023438 12.097656 L 86.023438 6.71875 L 80.644531 6.71875 Z M 87.367188 12.097656 L 92.742188 12.097656 L 92.742188 6.71875 L 87.367188 6.71875 Z M 94.085938 12.097656 L 99.460938 12.097656 L 99.460938 6.71875 L 94.085938 6.71875 Z M 100.804688 12.097656 L 106.183594 12.097656 L 106.183594 6.71875 L 100.804688 6.71875 Z M 87.367188 18.816406 L 92.742188 18.816406 L 92.742188 13.441406 L 87.367188 13.441406 Z M 87.367188 25.539062 L 92.742188 25.539062 L 92.742188 20.160156 L 87.367188 20.160156 Z M 100.804688 25.539062 L 106.183594 25.539062 L 106.183594 20.160156 L 100.804688 20.160156 Z M 87.367188 32.257812 L 92.742188 32.257812 L 92.742188 26.882812 L 87.367188 26.882812 Z M 94.085938 32.257812 L 99.460938 32.257812 L 99.460938 26.882812 L 94.085938 26.882812 Z M 107.527344 32.257812 L 112.902344 32.257812 L 112.902344 26.882812 L 107.527344 26.882812 Z M 87.367188 38.976562 L 92.742188 38.976562 L 92.742188 33.601562 L 87.367188 33.601562 Z M 107.527344 38.976562 L 112.902344 38.976562 L 112.902344 33.601562 L 107.527344 33.601562 Z M 87.367188 45.699219 L 92.742188 45.699219 L 92.742188 40.324219 L 87.367188 40.324219 Z M 107.527344 45.699219 L 112.902344 45.699219 L 112.902344 40.324219 L 107.527344 40.324219 Z M 127.6875 18.816406 L 133.066406 18.816406 L 133.066406 13.441406 L 127.6875 13.441406 Z M 141.128906 18.816406 L 146.503906 18.816406 L 146.503906 13.441406 L 141.128906 13.441406 Z M 120.96875 25.539062 L 126.34375 25.539062 L 126.34375 20.160156 L 120.96875 20.160156 Z M 147.847656 25.539062 L 153.226562 25.539062 L 153.226562 20.160156 L 147.847656 20.160156 Z M 120.96875 32.257812 L 126.34375 32.257812 L 126.34375 26.882812 L 120.96875 26.882812 Z M 134.410156 32.257812 L 139.785156 32.257812 L 139.785156 26.882812 L 134.410156 26.882812 Z M 147.847656 32.257812 L 153.226562 32.257812 L 153.226562 26.882812 L 147.847656 26.882812 Z M 120.96875 38.976562 L 126.34375 38.976562 L 126.34375 33.601562 L 120.96875 33.601562 Z M 134.410156 38.976562 L 139.785156 38.976562 L 139.785156 33.601562 L 134.410156 33.601562 Z M 147.847656 38.976562 L 153.226562 38.976562 L 153.226562 33.601562 L 147.847656 33.601562 Z M 127.6875 45.699219 L 133.066406 45.699219 L 133.066406 40.324219 L 127.6875 40.324219 Z M 141.128906 45.699219 L 146.503906 45.699219 L 146.503906 40.324219 L 141.128906 40.324219 Z M 168.011719 18.816406 L 173.386719 18.816406 L 173.386719 13.441406 L 168.011719 13.441406 Z M 174.730469 18.816406 L 180.109375 18.816406 L 180.109375 13.441406 L 174.730469 13.441406 Z M 181.453125 18.816406 L 186.828125 18.816406 L 186.828125 13.441406 L 181.453125 13.441406 Z M 188.171875 18.816406 L 193.546875 18.816406 L 193.546875 13.441406 L 188.171875 13.441406 Z M 161.289062 25.539062 L 166.667969 25.539062 L 166.667969 20.160156 L 161.289062 20.160156 Z M 174.730469 25.539062 L 180.109375 25.539062 L 180.109375 20.160156 L 174.730469 20.160156 Z M 161.289062 32.257812 L 166.667969 32.257812 L 166.667969 26.882812 L 161.289062 26.882812 Z M 181.453125 32.257812 L 186.828125 32.257812 L 186.828125 26.882812 L 181.453125 26.882812 Z M 161.289062 38.976562 L 166.667969 38.976562 L 166.667969 33.601562 L 161.289062 33.601562 Z M 188.171875 38.976562 L 193.546875 38.976562 L 193.546875 33.601562 L 188.171875 33.601562 Z M 168.011719 45.699219 L 173.386719 45.699219 L 173.386719 40.324219 L 168.011719 40.324219 Z M 174.730469 45.699219 L 180.109375 45.699219 L 180.109375 40.324219 L 174.730469 40.324219 Z M 181.453125 45.699219 L 186.828125 45.699219 L 186.828125 40.324219 L 181.453125 40.324219 Z M 201.613281 40.996094 L 206.988281 40.996094 L 206.988281 35.617188 L 201.613281 35.617188 Z M 228.496094 40.996094 L 233.871094 40.996094 L 233.871094 35.617188 L 228.496094 35.617188 Z M 208.332031 47.714844 L 213.710938 47.714844 L 213.710938 42.339844 L 208.332031 42.339844 Z M 221.773438 47.714844 L 227.152344 47.714844 L 227.152344 42.339844 L 221.773438 42.339844 Z M 215.054688 54.433594 L 220.429688 54.433594 L 220.429688 49.058594 L 215.054688 49.058594 Z M 208.332031 61.15625 L 213.710938 61.15625 L 213.710938 55.78125 L 208.332031 55.78125 Z M 221.773438 61.15625 L 227.152344 61.15625 L 227.152344 55.78125 L 221.773438 55.78125 Z M 201.613281 67.875 L 206.988281 67.875 L 206.988281 62.5 L 201.613281 62.5 Z M 228.496094 67.875 L 233.871094 67.875 L 233.871094 62.5 L 228.496094 62.5 Z M 255.375 12.097656 L 260.753906 12.097656 L 260.753906 6.71875 L 255.375 6.71875 Z M 255.375 18.816406 L 260.753906 18.816406 L 260.753906 13.441406 L 255.375 13.441406 Z M 241.933594 25.539062 L 247.3125 25.539062 L 247.3125 20.160156 L 241.933594 20.160156 Z M 248.65625 25.539062 L 254.03125 25.539062 L 254.03125 20.160156 L 248.65625 20.160156 Z M 255.375 25.539062 L 260.753906 25.539062 L 260.753906 20.160156 L 255.375 20.160156 Z M 262.097656 25.539062 L 267.472656 25.539062 L 267.472656 20.160156 L 262.097656 20.160156 Z M 268.816406 25.539062 L 274.195312 25.539062 L 274.195312 20.160156 L 268.816406 20.160156 Z M 255.375 32.257812 L 260.753906 32.257812 L 260.753906 26.882812 L 255.375 26.882812 Z M 255.375 38.976562 L 260.753906 38.976562 L 260.753906 33.601562 L 255.375 33.601562 Z M 295.699219 5.375 L 301.074219 5.375 L 301.074219 0 L 295.699219 0 Z M 302.417969 5.375 L 307.796875 5.375 L 307.796875 0 L 302.417969 0 Z M 309.140625 5.375 L 314.515625 5.375 L 314.515625 0 L 309.140625 0 Z M 302.417969 12.097656 L 307.796875 12.097656 L 307.796875 6.71875 L 302.417969 6.71875 Z M 302.417969 18.816406 L 307.796875 18.816406 L 307.796875 13.441406 L 302.417969 13.441406 Z M 302.417969 25.539062 L 307.796875 25.539062 L 307.796875 20.160156 L 302.417969 20.160156 Z M 302.417969 32.257812 L 307.796875 32.257812 L 307.796875 26.882812 L 302.417969 26.882812 Z M 282.257812 38.976562 L 287.632812 38.976562 L 287.632812 33.601562 L 282.257812 33.601562 Z M 302.417969 38.976562 L 307.796875 38.976562 L 307.796875 33.601562 L 302.417969 33.601562 Z M 288.976562 45.699219 L 294.355469 45.699219 L 294.355469 40.324219 L 288.976562 40.324219 Z M 295.699219 45.699219 L 301.074219 45.699219 L 301.074219 40.324219 L 295.699219 40.324219 Z M 329.300781 18.816406 L 334.675781 18.816406 L 334.675781 13.441406 L 329.300781 13.441406 Z M 336.023438 18.816406 L 341.398438 18.816406 L 341.398438 13.441406 L 336.023438 13.441406 Z M 342.742188 18.816406 L 348.117188 18.816406 L 348.117188 13.441406 L 342.742188 13.441406 Z M 349.460938 18.816406 L 354.839844 18.816406 L 354.839844 13.441406 L 349.460938 13.441406 Z M 322.582031 25.539062 L 327.957031 25.539062 L 327.957031 20.160156 L 322.582031 20.160156 Z M 336.023438 25.539062 L 341.398438 25.539062 L 341.398438 20.160156 L 336.023438 20.160156 Z M 322.582031 32.257812 L 327.957031 32.257812 L 327.957031 26.882812 L 322.582031 26.882812 Z M 342.742188 32.257812 L 348.117188 32.257812 L 348.117188 26.882812 L 342.742188 26.882812 Z M 322.582031 38.976562 L 327.957031 38.976562 L 327.957031 33.601562 L 322.582031 33.601562 Z M 349.460938 38.976562 L 354.839844 38.976562 L 354.839844 33.601562 L 349.460938 33.601562 Z M 329.300781 45.699219 L 334.675781 45.699219 L 334.675781 40.324219 L 329.300781 40.324219 Z M 336.023438 45.699219 L 341.398438 45.699219 L 341.398438 40.324219 L 336.023438 40.324219 Z M 342.742188 45.699219 L 348.117188 45.699219 L 348.117188 40.324219 L 342.742188 40.324219 Z M 362.902344 40.996094 L 368.28125 40.996094 L 368.28125 35.617188 L 362.902344 35.617188 Z M 389.785156 40.996094 L 395.160156 40.996094 L 395.160156 35.617188 L 389.785156 35.617188 Z M 362.902344 47.714844 L 368.28125 47.714844 L 368.28125 42.339844 L 362.902344 42.339844 Z M 389.785156 47.714844 L 395.160156 47.714844 L 395.160156 42.339844 L 389.785156 42.339844 Z M 362.902344 54.433594 L 368.28125 54.433594 L 368.28125 49.058594 L 362.902344 49.058594 Z M 389.785156 54.433594 L 395.160156 54.433594 L 395.160156 49.058594 L 389.785156 49.058594 Z M 362.902344 61.15625 L 368.28125 61.15625 L 368.28125 55.78125 L 362.902344 55.78125 Z M 389.785156 61.15625 L 395.160156 61.15625 L 395.160156 55.78125 L 389.785156 55.78125 Z M 369.625 67.875 L 375 67.875 L 375 62.5 L 369.625 62.5 Z M 376.34375 67.875 L 381.71875 67.875 L 381.71875 62.5 L 376.34375 62.5 Z M 383.066406 67.875 L 388.441406 67.875 L 388.441406 62.5 L 383.066406 62.5 Z M 389.785156 67.875 L 395.160156 67.875 L 395.160156 62.5 L 389.785156 62.5 Z M 389.785156 74.597656 L 395.160156 74.597656 L 395.160156 69.21875 L 389.785156 69.21875 Z M 389.785156 81.316406 L 395.160156 81.316406 L 395.160156 75.941406 L 389.785156 75.941406 Z M 369.625 88.039062 L 375 88.039062 L 375 82.660156 L 369.625 82.660156 Z M 376.34375 88.039062 L 381.71875 88.039062 L 381.71875 82.660156 L 376.34375 82.660156 Z M 383.066406 88.039062 L 388.441406 88.039062 L 388.441406 82.660156 L 383.066406 82.660156 Z M 6.71875 166.667969 L 12.097656 166.667969 L 12.097656 161.289062 L 6.71875 161.289062 Z M 13.441406 166.667969 L 18.816406 166.667969 L 18.816406 161.289062 L 13.441406 161.289062 Z M 20.160156 166.667969 L 25.539062 166.667969 L 25.539062 161.289062 L 20.160156 161.289062 Z M 0 173.386719 L 5.375 173.386719 L 5.375 168.011719 L 0 168.011719 Z M 0 180.109375 L 5.375 180.109375 L 5.375 174.730469 L 0 174.730469 Z M 0 186.828125 L 5.375 186.828125 L 5.375 181.453125 L 0 181.453125 Z M 26.882812 186.828125 L 32.257812 186.828125 L 32.257812 181.453125 L 26.882812 181.453125 Z M 6.71875 193.546875 L 12.097656 193.546875 L 12.097656 188.171875 L 6.71875 188.171875 Z M 13.441406 193.546875 L 18.816406 193.546875 L 18.816406 188.171875 L 13.441406 188.171875 Z M 20.160156 193.546875 L 25.539062 193.546875 L 25.539062 188.171875 L 20.160156 188.171875 Z M 47.042969 131.046875 L 52.417969 131.046875 L 52.417969 125.671875 L 47.042969 125.671875 Z M 53.761719 131.046875 L 59.140625 131.046875 L 59.140625 125.671875 L 53.761719 125.671875 Z M 60.484375 131.046875 L 65.859375 131.046875 L 65.859375 125.671875 L 60.484375 125.671875 Z M 40.324219 137.769531 L 45.699219 137.769531 L 45.699219 132.390625 L 40.324219 132.390625 Z M 67.203125 137.769531 L 72.582031 137.769531 L 72.582031 132.390625 L 67.203125 132.390625 Z M 67.203125 144.488281 L 72.582031 144.488281 L 72.582031 139.113281 L 67.203125 139.113281 Z M 60.484375 151.210938 L 65.859375 151.210938 L 65.859375 145.832031 L 60.484375 145.832031 Z M 53.761719 157.929688 L 59.140625 157.929688 L 59.140625 152.554688 L 53.761719 152.554688 Z M 47.042969 164.652344 L 52.417969 164.652344 L 52.417969 159.273438 L 47.042969 159.273438 Z M 40.324219 171.371094 L 45.699219 171.371094 L 45.699219 165.996094 L 40.324219 165.996094 Z M 47.042969 171.371094 L 52.417969 171.371094 L 52.417969 165.996094 L 47.042969 165.996094 Z M 53.761719 171.371094 L 59.140625 171.371094 L 59.140625 165.996094 L 53.761719 165.996094 Z M 60.484375 171.371094 L 65.859375 171.371094 L 65.859375 165.996094 L 60.484375 165.996094 Z M 67.203125 171.371094 L 72.582031 171.371094 L 72.582031 165.996094 L 67.203125 165.996094 Z M 80.644531 166.667969 L 86.023438 166.667969 L 86.023438 161.289062 L 80.644531 161.289062 Z M 87.367188 166.667969 L 92.742188 166.667969 L 92.742188 161.289062 L 87.367188 161.289062 Z M 94.085938 166.667969 L 99.460938 166.667969 L 99.460938 161.289062 L 94.085938 161.289062 Z M 100.804688 166.667969 L 106.183594 166.667969 L 106.183594 161.289062 L 100.804688 161.289062 Z M 107.527344 166.667969 L 112.902344 166.667969 L 112.902344 161.289062 L 107.527344 161.289062 Z M 80.644531 180.109375 L 86.023438 180.109375 L 86.023438 174.730469 L 80.644531 174.730469 Z M 87.367188 180.109375 L 92.742188 180.109375 L 92.742188 174.730469 L 87.367188 174.730469 Z M 94.085938 180.109375 L 99.460938 180.109375 L 99.460938 174.730469 L 94.085938 174.730469 Z M 100.804688 180.109375 L 106.183594 180.109375 L 106.183594 174.730469 L 100.804688 174.730469 Z M 107.527344 180.109375 L 112.902344 180.109375 L 112.902344 174.730469 L 107.527344 174.730469 Z M 127.6875 166.667969 L 133.066406 166.667969 L 133.066406 161.289062 L 127.6875 161.289062 Z M 134.410156 166.667969 L 139.785156 166.667969 L 139.785156 161.289062 L 134.410156 161.289062 Z M 141.128906 166.667969 L 146.503906 166.667969 L 146.503906 161.289062 L 141.128906 161.289062 Z M 147.847656 173.386719 L 153.226562 173.386719 L 153.226562 168.011719 L 147.847656 168.011719 Z M 127.6875 180.109375 L 133.066406 180.109375 L 133.066406 174.730469 L 127.6875 174.730469 Z M 134.410156 180.109375 L 139.785156 180.109375 L 139.785156 174.730469 L 134.410156 174.730469 Z M 141.128906 180.109375 L 146.503906 180.109375 L 146.503906 174.730469 L 141.128906 174.730469 Z M 147.847656 180.109375 L 153.226562 180.109375 L 153.226562 174.730469 L 147.847656 174.730469 Z M 120.96875 186.828125 L 126.34375 186.828125 L 126.34375 181.453125 L 120.96875 181.453125 Z M 147.847656 186.828125 L 153.226562 186.828125 L 153.226562 181.453125 L 147.847656 181.453125 Z M 127.6875 193.546875 L 133.066406 193.546875 L 133.066406 188.171875 L 127.6875 188.171875 Z M 134.410156 193.546875 L 139.785156 193.546875 L 139.785156 188.171875 L 134.410156 188.171875 Z M 141.128906 193.546875 L 146.503906 193.546875 L 146.503906 188.171875 L 141.128906 188.171875 Z M 147.847656 193.546875 L 153.226562 193.546875 L 153.226562 188.171875 L 147.847656 188.171875 Z M 168.011719 131.046875 L 173.386719 131.046875 L 173.386719 125.671875 L 168.011719 125.671875 Z M 174.730469 131.046875 L 180.109375 131.046875 L 180.109375 125.671875 L 174.730469 125.671875 Z M 181.453125 131.046875 L 186.828125 131.046875 L 186.828125 125.671875 L 181.453125 125.671875 Z M 161.289062 137.769531 L 166.667969 137.769531 L 166.667969 132.390625 L 161.289062 132.390625 Z M 188.171875 137.769531 L 193.546875 137.769531 L 193.546875 132.390625 L 188.171875 132.390625 Z M 188.171875 144.488281 L 193.546875 144.488281 L 193.546875 139.113281 L 188.171875 139.113281 Z M 181.453125 151.210938 L 186.828125 151.210938 L 186.828125 145.832031 L 181.453125 145.832031 Z M 174.730469 157.929688 L 180.109375 157.929688 L 180.109375 152.554688 L 174.730469 152.554688 Z M 168.011719 164.652344 L 173.386719 164.652344 L 173.386719 159.273438 L 168.011719 159.273438 Z M 161.289062 171.371094 L 166.667969 171.371094 L 166.667969 165.996094 L 161.289062 165.996094 Z M 168.011719 171.371094 L 173.386719 171.371094 L 173.386719 165.996094 L 168.011719 165.996094 Z M 174.730469 171.371094 L 180.109375 171.371094 L 180.109375 165.996094 L 174.730469 165.996094 Z M 181.453125 171.371094 L 186.828125 171.371094 L 186.828125 165.996094 L 181.453125 165.996094 Z M 188.171875 171.371094 L 193.546875 171.371094 L 193.546875 165.996094 L 188.171875 165.996094 Z M 215.054688 159.945312 L 220.429688 159.945312 L 220.429688 154.570312 L 215.054688 154.570312 Z M 215.054688 166.667969 L 220.429688 166.667969 L 220.429688 161.289062 L 215.054688 161.289062 Z M 201.613281 173.386719 L 206.988281 173.386719 L 206.988281 168.011719 L 201.613281 168.011719 Z M 208.332031 173.386719 L 213.710938 173.386719 L 213.710938 168.011719 L 208.332031 168.011719 Z M 215.054688 173.386719 L 220.429688 173.386719 L 220.429688 168.011719 L 215.054688 168.011719 Z M 221.773438 173.386719 L 227.152344 173.386719 L 227.152344 168.011719 L 221.773438 168.011719 Z M 228.496094 173.386719 L 233.871094 173.386719 L 233.871094 168.011719 L 228.496094 168.011719 Z M 215.054688 180.109375 L 220.429688 180.109375 L 220.429688 174.730469 L 215.054688 174.730469 Z M 215.054688 186.828125 L 220.429688 186.828125 L 220.429688 181.453125 L 215.054688 181.453125 Z M 241.933594 153.226562 L 247.3125 153.226562 L 247.3125 147.847656 L 241.933594 147.847656 Z M 241.933594 159.945312 L 247.3125 159.945312 L 247.3125 154.570312 L 241.933594 154.570312 Z M 241.933594 166.667969 L 247.3125 166.667969 L 247.3125 161.289062 L 241.933594 161.289062 Z M 255.375 166.667969 L 260.753906 166.667969 L 260.753906 161.289062 L 255.375 161.289062 Z M 262.097656 166.667969 L 267.472656 166.667969 L 267.472656 161.289062 L 262.097656 161.289062 Z M 241.933594 173.386719 L 247.3125 173.386719 L 247.3125 168.011719 L 241.933594 168.011719 Z M 248.65625 173.386719 L 254.03125 173.386719 L 254.03125 168.011719 L 248.65625 168.011719 Z M 268.816406 173.386719 L 274.195312 173.386719 L 274.195312 168.011719 L 268.816406 168.011719 Z M 241.933594 180.109375 L 247.3125 180.109375 L 247.3125 174.730469 L 241.933594 174.730469 Z M 268.816406 180.109375 L 274.195312 180.109375 L 274.195312 174.730469 L 268.816406 174.730469 Z M 241.933594 186.828125 L 247.3125 186.828125 L 247.3125 181.453125 L 241.933594 181.453125 Z M 268.816406 186.828125 L 274.195312 186.828125 L 274.195312 181.453125 L 268.816406 181.453125 Z M 241.933594 193.546875 L 247.3125 193.546875 L 247.3125 188.171875 L 241.933594 188.171875 Z M 248.65625 193.546875 L 254.03125 193.546875 L 254.03125 188.171875 L 248.65625 188.171875 Z M 255.375 193.546875 L 260.753906 193.546875 L 260.753906 188.171875 L 255.375 188.171875 Z M 262.097656 193.546875 L 267.472656 193.546875 L 267.472656 188.171875 L 262.097656 188.171875 Z M 288.976562 131.046875 L 294.355469 131.046875 L 294.355469 125.671875 L 288.976562 125.671875 Z M 295.699219 131.046875 L 301.074219 131.046875 L 301.074219 125.671875 L 295.699219 125.671875 Z M 302.417969 131.046875 L 307.796875 131.046875 L 307.796875 125.671875 L 302.417969 125.671875 Z M 282.257812 137.769531 L 287.632812 137.769531 L 287.632812 132.390625 L 282.257812 132.390625 Z M 309.140625 137.769531 L 314.515625 137.769531 L 314.515625 132.390625 L 309.140625 132.390625 Z M 309.140625 144.488281 L 314.515625 144.488281 L 314.515625 139.113281 L 309.140625 139.113281 Z M 302.417969 151.210938 L 307.796875 151.210938 L 307.796875 145.832031 L 302.417969 145.832031 Z M 295.699219 157.929688 L 301.074219 157.929688 L 301.074219 152.554688 L 295.699219 152.554688 Z M 288.976562 164.652344 L 294.355469 164.652344 L 294.355469 159.273438 L 288.976562 159.273438 Z M 282.257812 171.371094 L 287.632812 171.371094 L 287.632812 165.996094 L 282.257812 165.996094 Z M 288.976562 171.371094 L 294.355469 171.371094 L 294.355469 165.996094 L 288.976562 165.996094 Z M 295.699219 171.371094 L 301.074219 171.371094 L 301.074219 165.996094 L 295.699219 165.996094 Z M 302.417969 171.371094 L 307.796875 171.371094 L 307.796875 165.996094 L 302.417969 165.996094 Z M 309.140625 171.371094 L 314.515625 171.371094 L 314.515625 165.996094 L 309.140625 165.996094 Z M 13.441406 301.074219 L 18.816406 301.074219 L 18.816406 295.699219 L 13.441406 295.699219 Z M 13.441406 307.796875 L 18.816406 307.796875 L 18.816406 302.417969 L 13.441406 302.417969 Z M 13.441406 314.515625 L 18.816406 314.515625 L 18.816406 309.140625 L 13.441406 309.140625 Z M 13.441406 321.238281 L 18.816406 321.238281 L 18.816406 315.859375 L 13.441406 315.859375 Z M 13.441406 327.957031 L 18.816406 327.957031 L 18.816406 322.582031 L 13.441406 322.582031 Z M 13.441406 334.675781 L 18.816406 334.675781 L 18.816406 329.300781 L 13.441406 329.300781 Z M 13.441406 341.398438 L 18.816406 341.398438 L 18.816406 336.023438 L 13.441406 336.023438 Z M 40.324219 301.074219 L 45.699219 301.074219 L 45.699219 295.699219 L 40.324219 295.699219 Z M 53.761719 301.074219 L 59.140625 301.074219 L 59.140625 295.699219 L 53.761719 295.699219 Z M 67.203125 301.074219 L 72.582031 301.074219 L 72.582031 295.699219 L 67.203125 295.699219 Z M 40.324219 307.796875 L 45.699219 307.796875 L 45.699219 302.417969 L 40.324219 302.417969 Z M 53.761719 307.796875 L 59.140625 307.796875 L 59.140625 302.417969 L 53.761719 302.417969 Z M 67.203125 307.796875 L 72.582031 307.796875 L 72.582031 302.417969 L 67.203125 302.417969 Z M 40.324219 314.515625 L 45.699219 314.515625 L 45.699219 309.140625 L 40.324219 309.140625 Z M 53.761719 314.515625 L 59.140625 314.515625 L 59.140625 309.140625 L 53.761719 309.140625 Z M 67.203125 314.515625 L 72.582031 314.515625 L 72.582031 309.140625 L 67.203125 309.140625 Z M 47.042969 321.238281 L 52.417969 321.238281 L 52.417969 315.859375 L 47.042969 315.859375 Z M 53.761719 321.238281 L 59.140625 321.238281 L 59.140625 315.859375 L 53.761719 315.859375 Z M 60.484375 321.238281 L 65.859375 321.238281 L 65.859375 315.859375 L 60.484375 315.859375 Z M 53.761719 327.957031 L 59.140625 327.957031 L 59.140625 322.582031 L 53.761719 322.582031 Z M 53.761719 334.675781 L 59.140625 334.675781 L 59.140625 329.300781 L 53.761719 329.300781 Z M 47.042969 341.398438 L 52.417969 341.398438 L 52.417969 336.023438 L 47.042969 336.023438 Z M 53.761719 341.398438 L 59.140625 341.398438 L 59.140625 336.023438 L 53.761719 336.023438 Z M 60.484375 341.398438 L 65.859375 341.398438 L 65.859375 336.023438 L 60.484375 336.023438 Z M 87.367188 301.074219 L 92.742188 301.074219 L 92.742188 295.699219 L 87.367188 295.699219 Z M 94.085938 307.796875 L 99.460938 307.796875 L 99.460938 302.417969 L 94.085938 302.417969 Z M 100.804688 314.515625 L 106.183594 314.515625 L 106.183594 309.140625 L 100.804688 309.140625 Z M 107.527344 321.238281 L 112.902344 321.238281 L 112.902344 315.859375 L 107.527344 315.859375 Z M 100.804688 327.957031 L 106.183594 327.957031 L 106.183594 322.582031 L 100.804688 322.582031 Z M 94.085938 334.675781 L 99.460938 334.675781 L 99.460938 329.300781 L 94.085938 329.300781 Z M 87.367188 341.398438 L 92.742188 341.398438 L 92.742188 336.023438 L 87.367188 336.023438 Z M 120.96875 314.515625 L 126.34375 314.515625 L 126.34375 309.140625 L 120.96875 309.140625 Z M 127.6875 314.515625 L 133.066406 314.515625 L 133.066406 309.140625 L 127.6875 309.140625 Z M 134.410156 314.515625 L 139.785156 314.515625 L 139.785156 309.140625 L 134.410156 309.140625 Z M 141.128906 314.515625 L 146.503906 314.515625 L 146.503906 309.140625 L 141.128906 309.140625 Z M 147.847656 314.515625 L 153.226562 314.515625 L 153.226562 309.140625 L 147.847656 309.140625 Z M 120.96875 327.957031 L 126.34375 327.957031 L 126.34375 322.582031 L 120.96875 322.582031 Z M 127.6875 327.957031 L 133.066406 327.957031 L 133.066406 322.582031 L 127.6875 322.582031 Z M 134.410156 327.957031 L 139.785156 327.957031 L 139.785156 322.582031 L 134.410156 322.582031 Z M 141.128906 327.957031 L 146.503906 327.957031 L 146.503906 322.582031 L 141.128906 322.582031 Z M 147.847656 327.957031 L 153.226562 327.957031 L 153.226562 322.582031 L 147.847656 322.582031 Z M 168.011719 314.515625 L 173.386719 314.515625 L 173.386719 309.140625 L 168.011719 309.140625 Z M 174.730469 314.515625 L 180.109375 314.515625 L 180.109375 309.140625 L 174.730469 309.140625 Z M 181.453125 314.515625 L 186.828125 314.515625 L 186.828125 309.140625 L 181.453125 309.140625 Z M 188.171875 321.238281 L 193.546875 321.238281 L 193.546875 315.859375 L 188.171875 315.859375 Z M 168.011719 327.957031 L 173.386719 327.957031 L 173.386719 322.582031 L 168.011719 322.582031 Z M 174.730469 327.957031 L 180.109375 327.957031 L 180.109375 322.582031 L 174.730469 322.582031 Z M 181.453125 327.957031 L 186.828125 327.957031 L 186.828125 322.582031 L 181.453125 322.582031 Z M 188.171875 327.957031 L 193.546875 327.957031 L 193.546875 322.582031 L 188.171875 322.582031 Z M 161.289062 334.675781 L 166.667969 334.675781 L 166.667969 329.300781 L 161.289062 329.300781 Z M 188.171875 334.675781 L 193.546875 334.675781 L 193.546875 329.300781 L 188.171875 329.300781 Z M 168.011719 341.398438 L 173.386719 341.398438 L 173.386719 336.023438 L 168.011719 336.023438 Z M 174.730469 341.398438 L 180.109375 341.398438 L 180.109375 336.023438 L 174.730469 336.023438 Z M 181.453125 341.398438 L 186.828125 341.398438 L 186.828125 336.023438 L 181.453125 336.023438 Z M 188.171875 341.398438 L 193.546875 341.398438 L 193.546875 336.023438 L 188.171875 336.023438 Z M 215.054688 285.617188 L 220.429688 285.617188 L 220.429688 280.242188 L 215.054688 280.242188 Z M 208.332031 292.339844 L 213.710938 292.339844 L 213.710938 286.960938 L 208.332031 286.960938 Z M 215.054688 292.339844 L 220.429688 292.339844 L 220.429688 286.960938 L 215.054688 286.960938 Z M 221.773438 292.339844 L 227.152344 292.339844 L 227.152344 286.960938 L 221.773438 286.960938 Z M 215.054688 299.058594 L 220.429688 299.058594 L 220.429688 293.683594 L 215.054688 293.683594 Z M 215.054688 305.78125 L 220.429688 305.78125 L 220.429688 300.402344 L 215.054688 300.402344 Z M 215.054688 312.5 L 220.429688 312.5 L 220.429688 307.125 L 215.054688 307.125 Z M 248.65625 314.515625 L 254.03125 314.515625 L 254.03125 309.140625 L 248.65625 309.140625 Z M 255.375 314.515625 L 260.753906 314.515625 L 260.753906 309.140625 L 255.375 309.140625 Z M 262.097656 314.515625 L 267.472656 314.515625 L 267.472656 309.140625 L 262.097656 309.140625 Z M 268.816406 321.238281 L 274.195312 321.238281 L 274.195312 315.859375 L 268.816406 315.859375 Z M 248.65625 327.957031 L 254.03125 327.957031 L 254.03125 322.582031 L 248.65625 322.582031 Z M 255.375 327.957031 L 260.753906 327.957031 L 260.753906 322.582031 L 255.375 322.582031 Z M 262.097656 327.957031 L 267.472656 327.957031 L 267.472656 322.582031 L 262.097656 322.582031 Z M 268.816406 327.957031 L 274.195312 327.957031 L 274.195312 322.582031 L 268.816406 322.582031 Z M 241.933594 334.675781 L 247.3125 334.675781 L 247.3125 329.300781 L 241.933594 329.300781 Z M 268.816406 334.675781 L 274.195312 334.675781 L 274.195312 329.300781 L 268.816406 329.300781 Z M 248.65625 341.398438 L 254.03125 341.398438 L 254.03125 336.023438 L 248.65625 336.023438 Z M 255.375 341.398438 L 260.753906 341.398438 L 260.753906 336.023438 L 255.375 336.023438 Z M 262.097656 341.398438 L 267.472656 341.398438 L 267.472656 336.023438 L 262.097656 336.023438 Z M 268.816406 341.398438 L 274.195312 341.398438 L 274.195312 336.023438 L 268.816406 336.023438 Z M 295.699219 301.074219 L 301.074219 301.074219 L 301.074219 295.699219 L 295.699219 295.699219 Z M 295.699219 307.796875 L 301.074219 307.796875 L 301.074219 302.417969 L 295.699219 302.417969 Z M 295.699219 314.515625 L 301.074219 314.515625 L 301.074219 309.140625 L 295.699219 309.140625 Z M 295.699219 321.238281 L 301.074219 321.238281 L 301.074219 315.859375 L 295.699219 315.859375 Z M 295.699219 327.957031 L 301.074219 327.957031 L 301.074219 322.582031 L 295.699219 322.582031 Z M 295.699219 334.675781 L 301.074219 334.675781 L 301.074219 329.300781 L 295.699219 329.300781 Z M 295.699219 341.398438 L 301.074219 341.398438 L 301.074219 336.023438 L 295.699219 336.023438 Z M 336.023438 307.796875 L 341.398438 307.796875 L 341.398438 302.417969 L 336.023438 302.417969 Z M 322.582031 314.515625 L 327.957031 314.515625 L 327.957031 309.140625 L 322.582031 309.140625 Z M 336.023438 314.515625 L 341.398438 314.515625 L 341.398438 309.140625 L 336.023438 309.140625 Z M 349.460938 314.515625 L 354.839844 314.515625 L 354.839844 309.140625 L 349.460938 309.140625 Z M 322.582031 321.238281 L 327.957031 321.238281 L 327.957031 315.859375 L 322.582031 315.859375 Z M 336.023438 321.238281 L 341.398438 321.238281 L 341.398438 315.859375 L 336.023438 315.859375 Z M 349.460938 321.238281 L 354.839844 321.238281 L 354.839844 315.859375 L 349.460938 315.859375 Z M 329.300781 327.957031 L 334.675781 327.957031 L 334.675781 322.582031 L 329.300781 322.582031 Z M 336.023438 327.957031 L 341.398438 327.957031 L 341.398438 322.582031 L 336.023438 322.582031 Z M 342.742188 327.957031 L 348.117188 327.957031 L 348.117188 322.582031 L 342.742188 322.582031 Z M 336.023438 334.675781 L 341.398438 334.675781 L 341.398438 329.300781 L 336.023438 329.300781 Z M 336.023438 341.398438 L 341.398438 341.398438 L 341.398438 336.023438 L 336.023438 336.023438 Z M 376.34375 323.253906 L 381.71875 323.253906 L 381.71875 317.875 L 376.34375 317.875 Z M 369.625 329.972656 L 375 329.972656 L 375 324.597656 L 369.625 324.597656 Z M 376.34375 329.972656 L 381.71875 329.972656 L 381.71875 324.597656 L 376.34375 324.597656 Z M 376.34375 336.695312 L 381.71875 336.695312 L 381.71875 331.316406 L 376.34375 331.316406 Z M 376.34375 343.414062 L 381.71875 343.414062 L 381.71875 338.039062 L 376.34375 338.039062 Z M 376.34375 350.132812 L 381.71875 350.132812 L 381.71875 344.757812 L 376.34375 344.757812 Z M 376.34375 356.855469 L 381.71875 356.855469 L 381.71875 351.476562 L 376.34375 351.476562 Z M 369.625 363.574219 L 375 363.574219 L 375 358.199219 L 369.625 358.199219 Z M 376.34375 363.574219 L 381.71875 363.574219 L 381.71875 358.199219 L 376.34375 358.199219 Z M 383.066406 363.574219 L 388.441406 363.574219 L 388.441406 358.199219 L 383.066406 358.199219 Z M 409.945312 301.074219 L 415.324219 301.074219 L 415.324219 295.699219 L 409.945312 295.699219 Z M 416.667969 307.796875 L 422.042969 307.796875 L 422.042969 302.417969 L 416.667969 302.417969 Z M 423.386719 314.515625 L 428.761719 314.515625 L 428.761719 309.140625 L 423.386719 309.140625 Z M 430.109375 321.238281 L 435.484375 321.238281 L 435.484375 315.859375 L 430.109375 315.859375 Z M 423.386719 327.957031 L 428.761719 327.957031 L 428.761719 322.582031 L 423.386719 322.582031 Z M 416.667969 334.675781 L 422.042969 334.675781 L 422.042969 329.300781 L 416.667969 329.300781 Z M 409.945312 341.398438 L 415.324219 341.398438 L 415.324219 336.023438 L 409.945312 336.023438 Z M 456.988281 307.796875 L 462.367188 307.796875 L 462.367188 302.417969 L 456.988281 302.417969 Z M 456.988281 314.515625 L 462.367188 314.515625 L 462.367188 309.140625 L 456.988281 309.140625 Z M 443.546875 321.238281 L 448.925781 321.238281 L 448.925781 315.859375 L 443.546875 315.859375 Z M 450.269531 321.238281 L 455.644531 321.238281 L 455.644531 315.859375 L 450.269531 315.859375 Z M 456.988281 321.238281 L 462.367188 321.238281 L 462.367188 315.859375 L 456.988281 315.859375 Z M 463.710938 321.238281 L 469.085938 321.238281 L 469.085938 315.859375 L 463.710938 315.859375 Z M 470.429688 321.238281 L 475.804688 321.238281 L 475.804688 315.859375 L 470.429688 315.859375 Z M 456.988281 327.957031 L 462.367188 327.957031 L 462.367188 322.582031 L 456.988281 322.582031 Z M 456.988281 334.675781 L 462.367188 334.675781 L 462.367188 329.300781 L 456.988281 329.300781 Z M 483.871094 301.074219 L 489.246094 301.074219 L 489.246094 295.699219 L 483.871094 295.699219 Z M 483.871094 307.796875 L 489.246094 307.796875 L 489.246094 302.417969 L 483.871094 302.417969 Z M 483.871094 314.515625 L 489.246094 314.515625 L 489.246094 309.140625 L 483.871094 309.140625 Z M 497.3125 314.515625 L 502.6875 314.515625 L 502.6875 309.140625 L 497.3125 309.140625 Z M 504.03125 314.515625 L 509.410156 314.515625 L 509.410156 309.140625 L 504.03125 309.140625 Z M 483.871094 321.238281 L 489.246094 321.238281 L 489.246094 315.859375 L 483.871094 315.859375 Z M 490.589844 321.238281 L 495.96875 321.238281 L 495.96875 315.859375 L 490.589844 315.859375 Z M 510.753906 321.238281 L 516.128906 321.238281 L 516.128906 315.859375 L 510.753906 315.859375 Z M 483.871094 327.957031 L 489.246094 327.957031 L 489.246094 322.582031 L 483.871094 322.582031 Z M 510.753906 327.957031 L 516.128906 327.957031 L 516.128906 322.582031 L 510.753906 322.582031 Z M 483.871094 334.675781 L 489.246094 334.675781 L 489.246094 329.300781 L 483.871094 329.300781 Z M 510.753906 334.675781 L 516.128906 334.675781 L 516.128906 329.300781 L 510.753906 329.300781 Z M 483.871094 341.398438 L 489.246094 341.398438 L 489.246094 336.023438 L 483.871094 336.023438 Z M 490.589844 341.398438 L 495.96875 341.398438 L 495.96875 336.023438 L 490.589844 336.023438 Z M 497.3125 341.398438 L 502.6875 341.398438 L 502.6875 336.023438 L 497.3125 336.023438 Z M 504.03125 341.398438 L 509.410156 341.398438 L 509.410156 336.023438 L 504.03125 336.023438 Z M 537.632812 285.617188 L 543.011719 285.617188 L 543.011719 280.242188 L 537.632812 280.242188 Z M 530.914062 292.339844 L 536.289062 292.339844 L 536.289062 286.960938 L 530.914062 286.960938 Z M 537.632812 292.339844 L 543.011719 292.339844 L 543.011719 286.960938 L 537.632812 286.960938 Z M 544.355469 292.339844 L 549.730469 292.339844 L 549.730469 286.960938 L 544.355469 286.960938 Z M 537.632812 299.058594 L 543.011719 299.058594 L 543.011719 293.683594 L 537.632812 293.683594 Z M 537.632812 305.78125 L 543.011719 305.78125 L 543.011719 300.402344 L 537.632812 300.402344 Z M 537.632812 312.5 L 543.011719 312.5 L 543.011719 307.125 L 537.632812 307.125 Z M 564.515625 301.074219 L 569.890625 301.074219 L 569.890625 295.699219 L 564.515625 295.699219 Z M 564.515625 307.796875 L 569.890625 307.796875 L 569.890625 302.417969 L 564.515625 302.417969 Z M 564.515625 314.515625 L 569.890625 314.515625 L 569.890625 309.140625 L 564.515625 309.140625 Z M 577.957031 314.515625 L 583.332031 314.515625 L 583.332031 309.140625 L 577.957031 309.140625 Z M 584.675781 314.515625 L 590.054688 314.515625 L 590.054688 309.140625 L 584.675781 309.140625 Z M 564.515625 321.238281 L 569.890625 321.238281 L 569.890625 315.859375 L 564.515625 315.859375 Z M 571.238281 321.238281 L 576.613281 321.238281 L 576.613281 315.859375 L 571.238281 315.859375 Z M 591.398438 321.238281 L 596.773438 321.238281 L 596.773438 315.859375 L 591.398438 315.859375 Z M 564.515625 327.957031 L 569.890625 327.957031 L 569.890625 322.582031 L 564.515625 322.582031 Z M 591.398438 327.957031 L 596.773438 327.957031 L 596.773438 322.582031 L 591.398438 322.582031 Z M 564.515625 334.675781 L 569.890625 334.675781 L 569.890625 329.300781 L 564.515625 329.300781 Z M 591.398438 334.675781 L 596.773438 334.675781 L 596.773438 329.300781 L 591.398438 329.300781 Z M 564.515625 341.398438 L 569.890625 341.398438 L 569.890625 336.023438 L 564.515625 336.023438 Z M 571.238281 341.398438 L 576.613281 341.398438 L 576.613281 336.023438 L 571.238281 336.023438 Z M 577.957031 341.398438 L 583.332031 341.398438 L 583.332031 336.023438 L 577.957031 336.023438 Z M 584.675781 341.398438 L 590.054688 341.398438 L 590.054688 336.023438 L 584.675781 336.023438 Z M 618.28125 301.074219 L 623.65625 301.074219 L 623.65625 295.699219 L 618.28125 295.699219 Z M 618.28125 307.796875 L 623.65625 307.796875 L 623.65625 302.417969 L 618.28125 302.417969 Z M 618.28125 314.515625 L 623.65625 314.515625 L 623.65625 309.140625 L 618.28125 309.140625 Z M 618.28125 321.238281 L 623.65625 321.238281 L 623.65625 315.859375 L 618.28125 315.859375 Z M 618.28125 327.957031 L 623.65625 327.957031 L 623.65625 322.582031 L 618.28125 322.582031 Z M 618.28125 334.675781 L 623.65625 334.675781 L 623.65625 329.300781 L 618.28125 329.300781 Z M 618.28125 341.398438 L 623.65625 341.398438 L 623.65625 336.023438 L 618.28125 336.023438 Z M 658.601562 307.796875 L 663.976562 307.796875 L 663.976562 302.417969 L 658.601562 302.417969 Z M 645.160156 314.515625 L 650.539062 314.515625 L 650.539062 309.140625 L 645.160156 309.140625 Z M 658.601562 314.515625 L 663.976562 314.515625 L 663.976562 309.140625 L 658.601562 309.140625 Z M 672.042969 314.515625 L 677.417969 314.515625 L 677.417969 309.140625 L 672.042969 309.140625 Z M 645.160156 321.238281 L 650.539062 321.238281 L 650.539062 315.859375 L 645.160156 315.859375 Z M 658.601562 321.238281 L 663.976562 321.238281 L 663.976562 315.859375 L 658.601562 315.859375 Z M 672.042969 321.238281 L 677.417969 321.238281 L 677.417969 315.859375 L 672.042969 315.859375 Z M 651.882812 327.957031 L 657.257812 327.957031 L 657.257812 322.582031 L 651.882812 322.582031 Z M 658.601562 327.957031 L 663.976562 327.957031 L 663.976562 322.582031 L 658.601562 322.582031 Z M 665.324219 327.957031 L 670.699219 327.957031 L 670.699219 322.582031 L 665.324219 322.582031 Z M 658.601562 334.675781 L 663.976562 334.675781 L 663.976562 329.300781 L 658.601562 329.300781 Z M 658.601562 341.398438 L 663.976562 341.398438 L 663.976562 336.023438 L 658.601562 336.023438 Z M 692.203125 323.253906 L 697.582031 323.253906 L 697.582031 317.875 L 692.203125 317.875 Z M 698.925781 323.253906 L 704.300781 323.253906 L 704.300781 317.875 L 698.925781 317.875 Z M 705.644531 323.253906 L 711.023438 323.253906 L 711.023438 317.875 L 705.644531 317.875 Z M 685.484375 329.972656 L 690.859375 329.972656 L 690.859375 324.597656 L 685.484375 324.597656 Z M 712.367188 329.972656 L 717.742188 329.972656 L 717.742188 324.597656 L 712.367188 324.597656 Z M 712.367188 336.695312 L 717.742188 336.695312 L 717.742188 331.316406 L 712.367188 331.316406 Z M 705.644531 343.414062 L 711.023438 343.414062 L 711.023438 338.039062 L 705.644531 338.039062 Z M 698.925781 350.132812 L 704.300781 350.132812 L 704.300781 344.757812 L 698.925781 344.757812 Z M 692.203125 356.855469 L 697.582031 356.855469 L 697.582031 351.476562 L 692.203125 351.476562 Z M 685.484375 363.574219 L 690.859375 363.574219 L 690.859375 358.199219 L 685.484375 358.199219 Z M 692.203125 363.574219 L 697.582031 363.574219 L 697.582031 358.199219 L 692.203125 358.199219 Z M 698.925781 363.574219 L 704.300781 363.574219 L 704.300781 358.199219 L 698.925781 358.199219 Z M 705.644531 363.574219 L 711.023438 363.574219 L 711.023438 358.199219 L 705.644531 358.199219 Z M 712.367188 363.574219 L 717.742188 363.574219 L 717.742188 358.199219 L 712.367188 358.199219 Z M 732.527344 301.074219 L 737.902344 301.074219 L 737.902344 295.699219 L 732.527344 295.699219 Z M 739.246094 307.796875 L 744.625 307.796875 L 744.625 302.417969 L 739.246094 302.417969 Z M 745.96875 314.515625 L 751.34375 314.515625 L 751.34375 309.140625 L 745.96875 309.140625 Z M 752.6875 321.238281 L 758.066406 321.238281 L 758.066406 315.859375 L 752.6875 315.859375 Z M 745.96875 327.957031 L 751.34375 327.957031 L 751.34375 322.582031 L 745.96875 322.582031 Z M 739.246094 334.675781 L 744.625 334.675781 L 744.625 329.300781 L 739.246094 329.300781 Z M 732.527344 341.398438 L 737.902344 341.398438 L 737.902344 336.023438 L 732.527344 336.023438 Z M 6.71875 462.367188 L 12.097656 462.367188 L 12.097656 456.988281 L 6.71875 456.988281 Z M 13.441406 462.367188 L 18.816406 462.367188 L 18.816406 456.988281 L 13.441406 456.988281 Z M 20.160156 462.367188 L 25.539062 462.367188 L 25.539062 456.988281 L 20.160156 456.988281 Z M 0 469.085938 L 5.375 469.085938 L 5.375 463.710938 L 0 463.710938 Z M 26.882812 469.085938 L 32.257812 469.085938 L 32.257812 463.710938 L 26.882812 463.710938 Z M 0 475.804688 L 5.375 475.804688 L 5.375 470.429688 L 0 470.429688 Z M 6.71875 475.804688 L 12.097656 475.804688 L 12.097656 470.429688 L 6.71875 470.429688 Z M 13.441406 475.804688 L 18.816406 475.804688 L 18.816406 470.429688 L 13.441406 470.429688 Z M 20.160156 475.804688 L 25.539062 475.804688 L 25.539062 470.429688 L 20.160156 470.429688 Z M 26.882812 475.804688 L 32.257812 475.804688 L 32.257812 470.429688 L 26.882812 470.429688 Z M 0 482.527344 L 5.375 482.527344 L 5.375 477.152344 L 0 477.152344 Z M 6.71875 489.246094 L 12.097656 489.246094 L 12.097656 483.871094 L 6.71875 483.871094 Z M 13.441406 489.246094 L 18.816406 489.246094 L 18.816406 483.871094 L 13.441406 483.871094 Z M 20.160156 489.246094 L 25.539062 489.246094 L 25.539062 483.871094 L 20.160156 483.871094 Z M 53.761719 426.746094 L 59.140625 426.746094 L 59.140625 421.371094 L 53.761719 421.371094 Z M 47.042969 440.1875 L 52.417969 440.1875 L 52.417969 434.8125 L 47.042969 434.8125 Z M 53.761719 440.1875 L 59.140625 440.1875 L 59.140625 434.8125 L 53.761719 434.8125 Z M 53.761719 446.910156 L 59.140625 446.910156 L 59.140625 441.53125 L 53.761719 441.53125 Z M 53.761719 453.628906 L 59.140625 453.628906 L 59.140625 448.253906 L 53.761719 448.253906 Z M 53.761719 460.347656 L 59.140625 460.347656 L 59.140625 454.972656 L 53.761719 454.972656 Z M 67.203125 460.347656 L 72.582031 460.347656 L 72.582031 454.972656 L 67.203125 454.972656 Z M 53.761719 467.070312 L 59.140625 467.070312 L 59.140625 461.695312 L 53.761719 461.695312 Z M 60.484375 467.070312 L 65.859375 467.070312 L 65.859375 461.695312 L 60.484375 461.695312 Z M 80.644531 440.1875 L 86.023438 440.1875 L 86.023438 434.8125 L 80.644531 434.8125 Z M 87.367188 440.1875 L 92.742188 440.1875 L 92.742188 434.8125 L 87.367188 434.8125 Z M 94.085938 440.1875 L 99.460938 440.1875 L 99.460938 434.8125 L 94.085938 434.8125 Z M 100.804688 440.1875 L 106.183594 440.1875 L 106.183594 434.8125 L 100.804688 434.8125 Z M 107.527344 440.1875 L 112.902344 440.1875 L 112.902344 434.8125 L 107.527344 434.8125 Z M 87.367188 446.910156 L 92.742188 446.910156 L 92.742188 441.53125 L 87.367188 441.53125 Z M 100.804688 446.910156 L 106.183594 446.910156 L 106.183594 441.53125 L 100.804688 441.53125 Z M 87.367188 453.628906 L 92.742188 453.628906 L 92.742188 448.253906 L 87.367188 448.253906 Z M 100.804688 453.628906 L 106.183594 453.628906 L 106.183594 448.253906 L 100.804688 448.253906 Z M 87.367188 460.347656 L 92.742188 460.347656 L 92.742188 454.972656 L 87.367188 454.972656 Z M 100.804688 460.347656 L 106.183594 460.347656 L 106.183594 454.972656 L 100.804688 454.972656 Z M 80.644531 467.070312 L 86.023438 467.070312 L 86.023438 461.695312 L 80.644531 461.695312 Z M 100.804688 467.070312 L 106.183594 467.070312 L 106.183594 461.695312 L 100.804688 461.695312 Z M 107.527344 467.070312 L 112.902344 467.070312 L 112.902344 461.695312 L 107.527344 461.695312 Z M 120.96875 462.367188 L 126.34375 462.367188 L 126.34375 456.988281 L 120.96875 456.988281 Z M 127.6875 462.367188 L 133.066406 462.367188 L 133.066406 456.988281 L 127.6875 456.988281 Z M 134.410156 462.367188 L 139.785156 462.367188 L 139.785156 456.988281 L 134.410156 456.988281 Z M 141.128906 462.367188 L 146.503906 462.367188 L 146.503906 456.988281 L 141.128906 456.988281 Z M 147.847656 462.367188 L 153.226562 462.367188 L 153.226562 456.988281 L 147.847656 456.988281 Z M 120.96875 475.804688 L 126.34375 475.804688 L 126.34375 470.429688 L 120.96875 470.429688 Z M 127.6875 475.804688 L 133.066406 475.804688 L 133.066406 470.429688 L 127.6875 470.429688 Z M 134.410156 475.804688 L 139.785156 475.804688 L 139.785156 470.429688 L 134.410156 470.429688 Z M 141.128906 475.804688 L 146.503906 475.804688 L 146.503906 470.429688 L 141.128906 470.429688 Z M 147.847656 475.804688 L 153.226562 475.804688 L 153.226562 470.429688 L 147.847656 470.429688 Z M 161.289062 469.085938 L 166.667969 469.085938 L 166.667969 463.710938 L 161.289062 463.710938 Z M 168.011719 469.085938 L 173.386719 469.085938 L 173.386719 463.710938 L 168.011719 463.710938 Z M 174.730469 469.085938 L 180.109375 469.085938 L 180.109375 463.710938 L 174.730469 463.710938 Z M 181.453125 469.085938 L 186.828125 469.085938 L 186.828125 463.710938 L 181.453125 463.710938 Z M 188.171875 469.085938 L 193.546875 469.085938 L 193.546875 463.710938 L 188.171875 463.710938 Z M 215.054688 448.925781 L 220.429688 448.925781 L 220.429688 443.546875 L 215.054688 443.546875 Z M 208.332031 455.644531 L 213.710938 455.644531 L 213.710938 450.269531 L 208.332031 450.269531 Z M 215.054688 455.644531 L 220.429688 455.644531 L 220.429688 450.269531 L 215.054688 450.269531 Z M 215.054688 462.367188 L 220.429688 462.367188 L 220.429688 456.988281 L 215.054688 456.988281 Z M 215.054688 469.085938 L 220.429688 469.085938 L 220.429688 463.710938 L 215.054688 463.710938 Z M 215.054688 475.804688 L 220.429688 475.804688 L 220.429688 470.429688 L 215.054688 470.429688 Z M 215.054688 482.527344 L 220.429688 482.527344 L 220.429688 477.152344 L 215.054688 477.152344 Z M 208.332031 489.246094 L 213.710938 489.246094 L 213.710938 483.871094 L 208.332031 483.871094 Z M 215.054688 489.246094 L 220.429688 489.246094 L 220.429688 483.871094 L 215.054688 483.871094 Z M 221.773438 489.246094 L 227.152344 489.246094 L 227.152344 483.871094 L 221.773438 483.871094 Z M 288.976562 462.367188 L 294.355469 462.367188 L 294.355469 456.988281 L 288.976562 456.988281 Z M 295.699219 462.367188 L 301.074219 462.367188 L 301.074219 456.988281 L 295.699219 456.988281 Z M 302.417969 462.367188 L 307.796875 462.367188 L 307.796875 456.988281 L 302.417969 456.988281 Z M 309.140625 469.085938 L 314.515625 469.085938 L 314.515625 463.710938 L 309.140625 463.710938 Z M 288.976562 475.804688 L 294.355469 475.804688 L 294.355469 470.429688 L 288.976562 470.429688 Z M 295.699219 475.804688 L 301.074219 475.804688 L 301.074219 470.429688 L 295.699219 470.429688 Z M 302.417969 475.804688 L 307.796875 475.804688 L 307.796875 470.429688 L 302.417969 470.429688 Z M 309.140625 475.804688 L 314.515625 475.804688 L 314.515625 470.429688 L 309.140625 470.429688 Z M 282.257812 482.527344 L 287.632812 482.527344 L 287.632812 477.152344 L 282.257812 477.152344 Z M 309.140625 482.527344 L 314.515625 482.527344 L 314.515625 477.152344 L 309.140625 477.152344 Z M 288.976562 489.246094 L 294.355469 489.246094 L 294.355469 483.871094 L 288.976562 483.871094 Z M 295.699219 489.246094 L 301.074219 489.246094 L 301.074219 483.871094 L 295.699219 483.871094 Z M 302.417969 489.246094 L 307.796875 489.246094 L 307.796875 483.871094 L 302.417969 483.871094 Z M 309.140625 489.246094 L 314.515625 489.246094 L 314.515625 483.871094 L 309.140625 483.871094 Z M 322.582031 462.367188 L 327.957031 462.367188 L 327.957031 456.988281 L 322.582031 456.988281 Z M 336.023438 462.367188 L 341.398438 462.367188 L 341.398438 456.988281 L 336.023438 456.988281 Z M 342.742188 462.367188 L 348.117188 462.367188 L 348.117188 456.988281 L 342.742188 456.988281 Z M 322.582031 469.085938 L 327.957031 469.085938 L 327.957031 463.710938 L 322.582031 463.710938 Z M 329.300781 469.085938 L 334.675781 469.085938 L 334.675781 463.710938 L 329.300781 463.710938 Z M 349.460938 469.085938 L 354.839844 469.085938 L 354.839844 463.710938 L 349.460938 463.710938 Z M 322.582031 475.804688 L 327.957031 475.804688 L 327.957031 470.429688 L 322.582031 470.429688 Z M 349.460938 475.804688 L 354.839844 475.804688 L 354.839844 470.429688 L 349.460938 470.429688 Z M 322.582031 482.527344 L 327.957031 482.527344 L 327.957031 477.152344 L 322.582031 477.152344 Z M 349.460938 482.527344 L 354.839844 482.527344 L 354.839844 477.152344 L 349.460938 477.152344 Z M 322.582031 489.246094 L 327.957031 489.246094 L 327.957031 483.871094 L 322.582031 483.871094 Z M 349.460938 489.246094 L 354.839844 489.246094 L 354.839844 483.871094 L 349.460938 483.871094 Z M 389.785156 448.925781 L 395.160156 448.925781 L 395.160156 443.546875 L 389.785156 443.546875 Z M 389.785156 455.644531 L 395.160156 455.644531 L 395.160156 450.269531 L 389.785156 450.269531 Z M 369.625 462.367188 L 375 462.367188 L 375 456.988281 L 369.625 456.988281 Z M 376.34375 462.367188 L 381.71875 462.367188 L 381.71875 456.988281 L 376.34375 456.988281 Z M 389.785156 462.367188 L 395.160156 462.367188 L 395.160156 456.988281 L 389.785156 456.988281 Z M 362.902344 469.085938 L 368.28125 469.085938 L 368.28125 463.710938 L 362.902344 463.710938 Z M 383.066406 469.085938 L 388.441406 469.085938 L 388.441406 463.710938 L 383.066406 463.710938 Z M 389.785156 469.085938 L 395.160156 469.085938 L 395.160156 463.710938 L 389.785156 463.710938 Z M 362.902344 475.804688 L 368.28125 475.804688 L 368.28125 470.429688 L 362.902344 470.429688 Z M 389.785156 475.804688 L 395.160156 475.804688 L 395.160156 470.429688 L 389.785156 470.429688 Z M 362.902344 482.527344 L 368.28125 482.527344 L 368.28125 477.152344 L 362.902344 477.152344 Z M 389.785156 482.527344 L 395.160156 482.527344 L 395.160156 477.152344 L 389.785156 477.152344 Z M 369.625 489.246094 L 375 489.246094 L 375 483.871094 L 369.625 483.871094 Z M 376.34375 489.246094 L 381.71875 489.246094 L 381.71875 483.871094 L 376.34375 483.871094 Z M 383.066406 489.246094 L 388.441406 489.246094 L 388.441406 483.871094 L 383.066406 483.871094 Z M 389.785156 489.246094 L 395.160156 489.246094 L 395.160156 483.871094 L 389.785156 483.871094 Z M 450.269531 462.367188 L 455.644531 462.367188 L 455.644531 456.988281 L 450.269531 456.988281 Z M 456.988281 462.367188 L 462.367188 462.367188 L 462.367188 456.988281 L 456.988281 456.988281 Z M 463.710938 462.367188 L 469.085938 462.367188 L 469.085938 456.988281 L 463.710938 456.988281 Z M 443.546875 469.085938 L 448.925781 469.085938 L 448.925781 463.710938 L 443.546875 463.710938 Z M 443.546875 475.804688 L 448.925781 475.804688 L 448.925781 470.429688 L 443.546875 470.429688 Z M 443.546875 482.527344 L 448.925781 482.527344 L 448.925781 477.152344 L 443.546875 477.152344 Z M 470.429688 482.527344 L 475.804688 482.527344 L 475.804688 477.152344 L 470.429688 477.152344 Z M 450.269531 489.246094 L 455.644531 489.246094 L 455.644531 483.871094 L 450.269531 483.871094 Z M 456.988281 489.246094 L 462.367188 489.246094 L 462.367188 483.871094 L 456.988281 483.871094 Z M 463.710938 489.246094 L 469.085938 489.246094 L 469.085938 483.871094 L 463.710938 483.871094 Z M 483.871094 484.542969 L 489.246094 484.542969 L 489.246094 479.167969 L 483.871094 479.167969 Z M 510.753906 484.542969 L 516.128906 484.542969 L 516.128906 479.167969 L 510.753906 479.167969 Z M 483.871094 491.261719 L 489.246094 491.261719 L 489.246094 485.886719 L 483.871094 485.886719 Z M 510.753906 491.261719 L 516.128906 491.261719 L 516.128906 485.886719 L 510.753906 485.886719 Z M 483.871094 497.984375 L 489.246094 497.984375 L 489.246094 492.609375 L 483.871094 492.609375 Z M 510.753906 497.984375 L 516.128906 497.984375 L 516.128906 492.609375 L 510.753906 492.609375 Z M 490.589844 504.703125 L 495.96875 504.703125 L 495.96875 499.328125 L 490.589844 499.328125 Z M 504.03125 504.703125 L 509.410156 504.703125 L 509.410156 499.328125 L 504.03125 499.328125 Z M 497.3125 511.425781 L 502.6875 511.425781 L 502.6875 506.046875 L 497.3125 506.046875 Z M 530.914062 484.542969 L 536.289062 484.542969 L 536.289062 479.167969 L 530.914062 479.167969 Z M 537.632812 484.542969 L 543.011719 484.542969 L 543.011719 479.167969 L 537.632812 479.167969 Z M 544.355469 484.542969 L 549.730469 484.542969 L 549.730469 479.167969 L 544.355469 479.167969 Z M 551.074219 491.261719 L 556.453125 491.261719 L 556.453125 485.886719 L 551.074219 485.886719 Z M 530.914062 497.984375 L 536.289062 497.984375 L 536.289062 492.609375 L 530.914062 492.609375 Z M 537.632812 497.984375 L 543.011719 497.984375 L 543.011719 492.609375 L 537.632812 492.609375 Z M 544.355469 497.984375 L 549.730469 497.984375 L 549.730469 492.609375 L 544.355469 492.609375 Z M 551.074219 497.984375 L 556.453125 497.984375 L 556.453125 492.609375 L 551.074219 492.609375 Z M 524.195312 504.703125 L 529.570312 504.703125 L 529.570312 499.328125 L 524.195312 499.328125 Z M 551.074219 504.703125 L 556.453125 504.703125 L 556.453125 499.328125 L 551.074219 499.328125 Z M 530.914062 511.425781 L 536.289062 511.425781 L 536.289062 506.046875 L 530.914062 506.046875 Z M 537.632812 511.425781 L 543.011719 511.425781 L 543.011719 506.046875 L 537.632812 506.046875 Z M 544.355469 511.425781 L 549.730469 511.425781 L 549.730469 506.046875 L 544.355469 506.046875 Z M 551.074219 511.425781 L 556.453125 511.425781 L 556.453125 506.046875 L 551.074219 506.046875 Z M 571.238281 484.542969 L 576.613281 484.542969 L 576.613281 479.167969 L 571.238281 479.167969 Z M 577.957031 484.542969 L 583.332031 484.542969 L 583.332031 479.167969 L 577.957031 479.167969 Z M 584.675781 484.542969 L 590.054688 484.542969 L 590.054688 479.167969 L 584.675781 479.167969 Z M 564.515625 491.261719 L 569.890625 491.261719 L 569.890625 485.886719 L 564.515625 485.886719 Z M 564.515625 497.984375 L 569.890625 497.984375 L 569.890625 492.609375 L 564.515625 492.609375 Z M 564.515625 504.703125 L 569.890625 504.703125 L 569.890625 499.328125 L 564.515625 499.328125 Z M 591.398438 504.703125 L 596.773438 504.703125 L 596.773438 499.328125 L 591.398438 499.328125 Z M 571.238281 511.425781 L 576.613281 511.425781 L 576.613281 506.046875 L 571.238281 506.046875 Z M 577.957031 511.425781 L 583.332031 511.425781 L 583.332031 506.046875 L 577.957031 506.046875 Z M 584.675781 511.425781 L 590.054688 511.425781 L 590.054688 506.046875 L 584.675781 506.046875 Z M 611.558594 455.644531 L 616.933594 455.644531 L 616.933594 450.269531 L 611.558594 450.269531 Z M 604.839844 462.367188 L 610.214844 462.367188 L 610.214844 456.988281 L 604.839844 456.988281 Z M 618.28125 462.367188 L 623.65625 462.367188 L 623.65625 456.988281 L 618.28125 456.988281 Z M 631.71875 462.367188 L 637.097656 462.367188 L 637.097656 456.988281 L 631.71875 456.988281 Z M 625 469.085938 L 630.375 469.085938 L 630.375 463.710938 L 625 463.710938 Z M 611.558594 475.804688 L 616.933594 475.804688 L 616.933594 470.429688 L 611.558594 470.429688 Z M 604.839844 482.527344 L 610.214844 482.527344 L 610.214844 477.152344 L 604.839844 477.152344 Z M 618.28125 482.527344 L 623.65625 482.527344 L 623.65625 477.152344 L 618.28125 477.152344 Z M 631.71875 482.527344 L 637.097656 482.527344 L 637.097656 477.152344 L 631.71875 477.152344 Z M 625 489.246094 L 630.375 489.246094 L 630.375 483.871094 L 625 483.871094 Z M 645.160156 448.925781 L 650.539062 448.925781 L 650.539062 443.546875 L 645.160156 443.546875 Z M 651.882812 448.925781 L 657.257812 448.925781 L 657.257812 443.546875 L 651.882812 443.546875 Z M 658.601562 448.925781 L 663.976562 448.925781 L 663.976562 443.546875 L 658.601562 443.546875 Z M 665.324219 448.925781 L 670.699219 448.925781 L 670.699219 443.546875 L 665.324219 443.546875 Z M 672.042969 448.925781 L 677.417969 448.925781 L 677.417969 443.546875 L 672.042969 443.546875 Z M 665.324219 455.644531 L 670.699219 455.644531 L 670.699219 450.269531 L 665.324219 450.269531 Z M 658.601562 462.367188 L 663.976562 462.367188 L 663.976562 456.988281 L 658.601562 456.988281 Z M 665.324219 469.085938 L 670.699219 469.085938 L 670.699219 463.710938 L 665.324219 463.710938 Z M 672.042969 475.804688 L 677.417969 475.804688 L 677.417969 470.429688 L 672.042969 470.429688 Z M 645.160156 482.527344 L 650.539062 482.527344 L 650.539062 477.152344 L 645.160156 477.152344 Z M 672.042969 482.527344 L 677.417969 482.527344 L 677.417969 477.152344 L 672.042969 477.152344 Z M 651.882812 489.246094 L 657.257812 489.246094 L 657.257812 483.871094 L 651.882812 483.871094 Z M 658.601562 489.246094 L 663.976562 489.246094 L 663.976562 483.871094 L 658.601562 483.871094 Z M 665.324219 489.246094 L 670.699219 489.246094 L 670.699219 483.871094 L 665.324219 483.871094 Z M 685.484375 462.367188 L 690.859375 462.367188 L 690.859375 456.988281 L 685.484375 456.988281 Z M 712.367188 462.367188 L 717.742188 462.367188 L 717.742188 456.988281 L 712.367188 456.988281 Z M 692.203125 469.085938 L 697.582031 469.085938 L 697.582031 463.710938 L 692.203125 463.710938 Z M 705.644531 469.085938 L 711.023438 469.085938 L 711.023438 463.710938 L 705.644531 463.710938 Z M 698.925781 475.804688 L 704.300781 475.804688 L 704.300781 470.429688 L 698.925781 470.429688 Z M 692.203125 482.527344 L 697.582031 482.527344 L 697.582031 477.152344 L 692.203125 477.152344 Z M 705.644531 482.527344 L 711.023438 482.527344 L 711.023438 477.152344 L 705.644531 477.152344 Z M 685.484375 489.246094 L 690.859375 489.246094 L 690.859375 483.871094 L 685.484375 483.871094 Z M 712.367188 489.246094 L 717.742188 489.246094 L 717.742188 483.871094 L 712.367188 483.871094 Z M 739.246094 448.925781 L 744.625 448.925781 L 744.625 443.546875 L 739.246094 443.546875 Z M 732.527344 455.644531 L 737.902344 455.644531 L 737.902344 450.269531 L 732.527344 450.269531 Z M 739.246094 455.644531 L 744.625 455.644531 L 744.625 450.269531 L 739.246094 450.269531 Z M 739.246094 462.367188 L 744.625 462.367188 L 744.625 456.988281 L 739.246094 456.988281 Z M 739.246094 469.085938 L 744.625 469.085938 L 744.625 463.710938 L 739.246094 463.710938 Z M 739.246094 475.804688 L 744.625 475.804688 L 744.625 470.429688 L 739.246094 470.429688 Z M 739.246094 482.527344 L 744.625 482.527344 L 744.625 477.152344 L 739.246094 477.152344 Z M 732.527344 489.246094 L 737.902344 489.246094 L 737.902344 483.871094 L 732.527344 483.871094 Z M 739.246094 489.246094 L 744.625 489.246094 L 744.625 483.871094 L 739.246094 483.871094 Z M 745.96875 489.246094 L 751.34375 489.246094 L 751.34375 483.871094 L 745.96875 483.871094 Z M 772.847656 448.925781 L 778.226562 448.925781 L 778.226562 443.546875 L 772.847656 443.546875 Z M 779.570312 448.925781 L 784.945312 448.925781 L 784.945312 443.546875 L 779.570312 443.546875 Z M 786.289062 448.925781 L 791.667969 448.925781 L 791.667969 443.546875 L 786.289062 443.546875 Z M 766.128906 455.644531 L 771.503906 455.644531 L 771.503906 450.269531 L 766.128906 450.269531 Z M 793.011719 455.644531 L 798.386719 455.644531 L 798.386719 450.269531 L 793.011719 450.269531 Z M 766.128906 462.367188 L 771.503906 462.367188 L 771.503906 456.988281 L 766.128906 456.988281 Z M 786.289062 462.367188 L 791.667969 462.367188 L 791.667969 456.988281 L 786.289062 456.988281 Z M 793.011719 462.367188 L 798.386719 462.367188 L 798.386719 456.988281 L 793.011719 456.988281 Z M 766.128906 469.085938 L 771.503906 469.085938 L 771.503906 463.710938 L 766.128906 463.710938 Z M 779.570312 469.085938 L 784.945312 469.085938 L 784.945312 463.710938 L 779.570312 463.710938 Z M 793.011719 469.085938 L 798.386719 469.085938 L 798.386719 463.710938 L 793.011719 463.710938 Z M 766.128906 475.804688 L 771.503906 475.804688 L 771.503906 470.429688 L 766.128906 470.429688 Z M 772.847656 475.804688 L 778.226562 475.804688 L 778.226562 470.429688 L 772.847656 470.429688 Z M 793.011719 475.804688 L 798.386719 475.804688 L 798.386719 470.429688 L 793.011719 470.429688 Z M 766.128906 482.527344 L 771.503906 482.527344 L 771.503906 477.152344 L 766.128906 477.152344 Z M 793.011719 482.527344 L 798.386719 482.527344 L 798.386719 477.152344 L 793.011719 477.152344 Z M 772.847656 489.246094 L 778.226562 489.246094 L 778.226562 483.871094 L 772.847656 483.871094 Z M 779.570312 489.246094 L 784.945312 489.246094 L 784.945312 483.871094 L 779.570312 483.871094 Z M 786.289062 489.246094 L 791.667969 489.246094 L 791.667969 483.871094 L 786.289062 483.871094 Z M 813.171875 426.746094 L 818.546875 426.746094 L 818.546875 421.371094 L 813.171875 421.371094 Z M 819.890625 426.746094 L 825.269531 426.746094 L 825.269531 421.371094 L 819.890625 421.371094 Z M 826.613281 426.746094 L 831.988281 426.746094 L 831.988281 421.371094 L 826.613281 421.371094 Z M 806.453125 433.46875 L 811.828125 433.46875 L 811.828125 428.089844 L 806.453125 428.089844 Z M 833.332031 433.46875 L 838.710938 433.46875 L 838.710938 428.089844 L 833.332031 428.089844 Z M 806.453125 440.1875 L 811.828125 440.1875 L 811.828125 434.8125 L 806.453125 434.8125 Z M 833.332031 440.1875 L 838.710938 440.1875 L 838.710938 434.8125 L 833.332031 434.8125 Z M 813.171875 446.910156 L 818.546875 446.910156 L 818.546875 441.53125 L 813.171875 441.53125 Z M 819.890625 446.910156 L 825.269531 446.910156 L 825.269531 441.53125 L 819.890625 441.53125 Z M 826.613281 446.910156 L 831.988281 446.910156 L 831.988281 441.53125 L 826.613281 441.53125 Z M 806.453125 453.628906 L 811.828125 453.628906 L 811.828125 448.253906 L 806.453125 448.253906 Z M 833.332031 453.628906 L 838.710938 453.628906 L 838.710938 448.253906 L 833.332031 448.253906 Z M 806.453125 460.347656 L 811.828125 460.347656 L 811.828125 454.972656 L 806.453125 454.972656 Z M 833.332031 460.347656 L 838.710938 460.347656 L 838.710938 454.972656 L 833.332031 454.972656 Z M 813.171875 467.070312 L 818.546875 467.070312 L 818.546875 461.695312 L 813.171875 461.695312 Z M 819.890625 467.070312 L 825.269531 467.070312 L 825.269531 461.695312 L 819.890625 461.695312 Z M 826.613281 467.070312 L 831.988281 467.070312 L 831.988281 461.695312 L 826.613281 461.695312 Z M 887.097656 462.367188 L 892.472656 462.367188 L 892.472656 456.988281 L 887.097656 456.988281 Z M 893.816406 462.367188 L 899.195312 462.367188 L 899.195312 456.988281 L 893.816406 456.988281 Z M 907.257812 462.367188 L 912.632812 462.367188 L 912.632812 456.988281 L 907.257812 456.988281 Z M 887.097656 469.085938 L 892.472656 469.085938 L 892.472656 463.710938 L 887.097656 463.710938 Z M 900.539062 469.085938 L 905.914062 469.085938 L 905.914062 463.710938 L 900.539062 463.710938 Z M 913.976562 469.085938 L 919.355469 469.085938 L 919.355469 463.710938 L 913.976562 463.710938 Z M 887.097656 475.804688 L 892.472656 475.804688 L 892.472656 470.429688 L 887.097656 470.429688 Z M 900.539062 475.804688 L 905.914062 475.804688 L 905.914062 470.429688 L 900.539062 470.429688 Z M 913.976562 475.804688 L 919.355469 475.804688 L 919.355469 470.429688 L 913.976562 470.429688 Z M 887.097656 482.527344 L 892.472656 482.527344 L 892.472656 477.152344 L 887.097656 477.152344 Z M 913.976562 482.527344 L 919.355469 482.527344 L 919.355469 477.152344 L 913.976562 477.152344 Z M 887.097656 489.246094 L 892.472656 489.246094 L 892.472656 483.871094 L 887.097656 483.871094 Z M 913.976562 489.246094 L 919.355469 489.246094 L 919.355469 483.871094 L 913.976562 483.871094 Z M 954.300781 455.644531 L 959.675781 455.644531 L 959.675781 450.269531 L 954.300781 450.269531 Z M 947.582031 462.367188 L 952.957031 462.367188 L 952.957031 456.988281 L 947.582031 456.988281 Z M 940.859375 469.085938 L 946.238281 469.085938 L 946.238281 463.710938 L 940.859375 463.710938 Z M 934.140625 475.804688 L 939.515625 475.804688 L 939.515625 470.429688 L 934.140625 470.429688 Z M 927.417969 482.527344 L 932.796875 482.527344 L 932.796875 477.152344 L 927.417969 477.152344 Z M 974.460938 462.367188 L 979.839844 462.367188 L 979.839844 456.988281 L 974.460938 456.988281 Z M 981.183594 462.367188 L 986.558594 462.367188 L 986.558594 456.988281 L 981.183594 456.988281 Z M 987.902344 462.367188 L 993.28125 462.367188 L 993.28125 456.988281 L 987.902344 456.988281 Z M 967.742188 469.085938 L 973.117188 469.085938 L 973.117188 463.710938 L 967.742188 463.710938 Z M 974.460938 475.804688 L 979.839844 475.804688 L 979.839844 470.429688 L 974.460938 470.429688 Z M 981.183594 475.804688 L 986.558594 475.804688 L 986.558594 470.429688 L 981.183594 470.429688 Z M 987.902344 475.804688 L 993.28125 475.804688 L 993.28125 470.429688 L 987.902344 470.429688 Z M 994.625 482.527344 L 1000 482.527344 L 1000 477.152344 L 994.625 477.152344 Z M 967.742188 489.246094 L 973.117188 489.246094 L 973.117188 483.871094 L 967.742188 483.871094 Z M 974.460938 489.246094 L 979.839844 489.246094 L 979.839844 483.871094 L 974.460938 483.871094 Z M 981.183594 489.246094 L 986.558594 489.246094 L 986.558594 483.871094 L 981.183594 483.871094 Z M 987.902344 489.246094 L 993.28125 489.246094 L 993.28125 483.871094 L 987.902344 483.871094 Z M 987.902344 489.246094 "/>
</g>
</svg>
