<?xml version="1.0" encoding="UTF-8"?>
<svg xmlns="http://www.w3.org/2000/svg" xmlns:xlink="http://www.w3.org/1999/xlink" width="288pt" height="288pt" viewBox="0 0 288 288" version="1.1">
<g id="surface25">
<path style=" stroke:none;fill-rule:nonzero;fill:rgb(100%,80%,36.078431%);fill-opacity:0.501961;" d="M 0 288 L 28.800781 288 L 28.800781 259.199219 L 0 259.199219 Z M 57.601562 288 L 86.398438 288 L 86.398438 259.199219 L 57.601562 259.199219 Z M 115.199219 288 L 144 288 L 144 259.199219 L 115.199219 259.199219 Z M 172.800781 288 L 201.601562 288 L 201.601562 259.199219 L 172.800781 259.199219 Z M 230.398438 288 L 259.199219 288 L 259.199219 259.199219 L 230.398438 259.199219 Z M 0 230.398438 L 28.800781 230.398438 L 28.800781 201.601562 L 0 201.601562 Z M 57.601562 230.398438 L 86.398438 230.398438 L 86.398438 201.601562 L 57.601562 201.601562 Z M 115.199219 230.398438 L 144 230.398438 L 144 201.601562 L 115.199219 201.601562 Z M 172.800781 230.398438 L 201.601562 230.398438 L 201.601562 201.601562 L 172.800781 201.601562 Z M 230.398438 230.398438 L 259.199219 230.398438 L 259.199219 201.601562 L 230.398438 201.601562 Z M 0 172.800781 L 28.800781 172.800781 L 28.800781 144 L 0 144 Z M 57.601562 172.800781 L 86.398438 172.800781 L 86.398438 144 L 57.601562 144 Z M 115.199219 172.800781 L 144 172.800781 L 144 144 L 115.199219 144 Z M 172.800781 172.800781 L 201.601562 172.800781 L 201.601562 144 L 172.800781 144 Z M 230.398438 172.800781 L 259.199219 172.800781 L 259.199219 144 L 230.398438 144 Z M 0 115.199219 L 28.800781 115.199219 L 28.800781 86.398438 L 0 86.398438 Z M 57.601562 115.199219 L 86.398438 115.199219 L 86.398438 86.398438 L 57.601562 86.398438 Z M 115.199219 115.199219 L 144 115.199219 L 144 86.398438 L 115.199219 86.398438 Z M 172.800781 115.199219 L 201.601562 115.199219 L 201.601562 86.398438 L 172.800781 86.398438 Z M 230.398438 115.199219 L 259.199219 115.199219 L 259.199219 86.398438 L 230.398438 86.398438 Z M 0 57.601562 L 28.800781 57.601562 L 28.800781 28.800781 L 0 28.800781 Z M 57.601562 57.601562 L 86.398438 57.601562 L 86.398438 28.800781 L 57.601562 28.800781 Z M 115.199219 57.601562 L 144 57.601562 L 144 28.800781 L 115.199219 28.800781 Z M 172.800781 57.601562 L 201.601562 57.601562 L 201.601562 28.800781 L 172.800781 28.800781 Z M 230.398438 57.601562 L 259.199219 57.601562 L 259.199219 28.800781 L 230.398438 28.800781 Z M 28.800781 259.199219 L 57.601562 259.199219 L 57.601562 230.398438 L 28.800781 230.398438 Z M 86.398438 259.199219 L 115.199219 259.199219 L 115.199219 230.398438 L 86.398438 230.398438 Z M 144 259.199219 L 172.800781 259.199219 L 172.800781 230.398438 L 144 230.398438 Z M 201.601562 259.199219 L 230.398438 259.199219 L 230.398438 230.398438 L 201.601562 230.398438 Z M 259.199219 259.199219 L 288 259.199219 L 288 230.398438 L 259.199219 230.398438 Z M 28.800781 201.601562 L 57.601562 201.601562 L 57.601562 172.800781 L 28.800781 172.800781 Z M 86.398438 201.601562 L 115.199219 201.601562 L 115.199219 172.800781 L 86.398438 172.800781 Z M 144 201.601562 L 172.800781 201.601562 L 172.800781 172.800781 L 144 172.800781 Z M 201.601562 201.601562 L 230.398438 201.601562 L 230.398438 172.800781 L 201.601562 172.800781 Z M 259.199219 201.601562 L 288 201.601562 L 288 172.800781 L 259.199219 172.800781 Z M 28.800781 144 L 57.601562 144 L 57.601562 115.199219 L 28.800781 115.199219 Z M 86.398438 144 L 115.199219 144 L 115.199219 115.199219 L 86.398438 115.199219 Z M 144 144 L 172.800781 144 L 172.800781 115.199219 L 144 115.199219 Z M 201.601562 144 L 230.398438 144 L 230.398438 115.199219 L 201.601562 115.199219 Z M 259.199219 144 L 288 144 L 288 115.199219 L 259.199219 115.199219 Z M 28.800781 86.398438 L 57.601562 86.398438 L 57.601562 57.601562 L 28.800781 57.601562 Z M 86.398438 86.398438 L 115.199219 86.398438 L 115.199219 57.601562 L 86.398438 57.601562 Z M 144 86.398438 L 172.800781 86.398438 L 172.800781 57.601562 L 144 57.601562 Z M 201.601562 86.398438 L 230.398438 86.398438 L 230.398438 57.601562 L 201.601562 57.601562 Z M 259.199219 86.398438 L 288 86.398438 L 288 57.601562 L 259.199219 57.601562 Z M 28.800781 28.800781 L 57.601562 28.800781 L 57.601562 0 L 28.800781 0 Z M 86.398438 28.800781 L 115.199219 28.800781 L 115.199219 0 L 86.398438 0 Z M 144 28.800781 L 172.800781 28.800781 L 172.800781 0 L 144 0 Z M 201.601562 28.800781 L 230.398438 28.800781 L 230.398438 0 L 201.601562 0 Z M 259.199219 28.800781 L 288 28.800781 L 288 0 L 259.199219 0 Z M 259.199219 28.800781 "/>
<path style=" stroke:none;fill-rule:nonzero;fill:rgb(100%,43.529412%,41.176471%);fill-opacity:0.501961;" d="M 0 259.199219 L 28.800781 259.199219 L 28.800781 230.398438 L 0 230.398438 Z M 57.601562 259.199219 L 86.398438 259.199219 L 86.398438 230.398438 L 57.601562 230.398438 Z M 115.199219 259.199219 L 144 259.199219 L 144 230.398438 L 115.199219 230.398438 Z M 172.800781 259.199219 L 201.601562 259.199219 L 201.601562 230.398438 L 172.800781 230.398438 Z M 230.398438 259.199219 L 259.199219 259.199219 L 259.199219 230.398438 L 230.398438 230.398438 Z M 0 201.601562 L 28.800781 201.601562 L 28.800781 172.800781 L 0 172.800781 Z M 57.601562 201.601562 L 86.398438 201.601562 L 86.398438 172.800781 L 57.601562 172.800781 Z M 115.199219 201.601562 L 144 201.601562 L 144 172.800781 L 115.199219 172.800781 Z M 172.800781 201.601562 L 201.601562 201.601562 L 201.601562 172.800781 L 172.800781 172.800781 Z M 230.398438 201.601562 L 259.199219 201.601562 L 259.199219 172.800781 L 230.398438 172.800781 Z M 0 144 L 28.800781 144 L 28.800781 115.199219 L 0 115.199219 Z M 57.601562 144 L 86.398438 144 L 86.398438 115.199219 L 57.601562 115.199219 Z M 115.199219 144 L 144 144 L 144 115.199219 L 115.199219 115.199219 Z M 172.800781 144 L 201.601562 144 L 201.601562 115.199219 L 172.800781 115.199219 Z M 230.398438 144 L 259.199219 144 L 259.199219 115.199219 L 230.398438 115.199219 Z M 0 86.398438 L 28.800781 86.398438 L 28.800781 57.601562 L 0 57.601562 Z M 57.601562 86.398438 L 86.398438 86.398438 L 86.398438 57.601562 L 57.601562 57.601562 Z M 115.199219 86.398438 L 144 86.398438 L 144 57.601562 L 115.199219 57.601562 Z M 172.800781 86.398438 L 201.601562 86.398438 L 201.601562 57.601562 L 172.800781 57.601562 Z M 230.398438 86.398438 L 259.199219 86.398438 L 259.199219 57.601562 L 230.398438 57.601562 Z M 0 28.800781 L 28.800781 28.800781 L 28.800781 0 L 0 0 Z M 57.601562 28.800781 L 86.398438 28.800781 L 86.398438 0 L 57.601562 0 Z M 115.199219 28.800781 L 144 28.800781 L 144 0 L 115.199219 0 Z M 172.800781 28.800781 L 201.601562 28.800781 L 201.601562 0 L 172.800781 0 Z M 230.398438 28.800781 L 259.199219 28.800781 L 259.199219 0 L 230.398438 0 Z M 28.800781 288 L 57.601562 288 L 57.601562 259.199219 L 28.800781 259.199219 Z M 86.398438 288 L 115.199219 288 L 115.199219 259.199219 L 86.398438 259.199219 Z M 144 288 L 172.800781 288 L 172.800781 259.199219 L 144 259.199219 Z M 201.601562 288 L 230.398438 288 L 230.398438 259.199219 L 201.601562 259.199219 Z M 259.199219 288 L 288 288 L 288 259.199219 L 259.199219 259.199219 Z M 28.800781 230.398438 L 57.601562 230.398438 L 57.601562 201.601562 L 28.800781 201.601562 Z M 86.398438 230.398438 L 115.199219 230.398438 L 115.199219 201.601562 L 86.398438 201.601562 Z M 144 230.398438 L 172.800781 230.398438 L 172.800781 201.601562 L 144 201.601562 Z M 201.601562 230.398438 L 230.398438 230.398438 L 230.398438 201.601562 L 201.601562 201.601562 Z M 259.199219 230.398438 L 288 230.398438 L 288 201.601562 L 259.199219 201.601562 Z M 28.800781 172.800781 L 57.601562 172.800781 L 57.601562 144 L 28.800781 144 Z M 86.398438 172.800781 L 115.199219 172.800781 L 115.199219 144 L 86.398438 144 Z M 144 172.800781 L 172.800781 172.800781 L 172.800781 144 L 144 144 Z M 201.601562 172.800781 L 230.398438 172.800781 L 230.398438 144 L 201.601562 144 Z M 259.199219 172.800781 L 288 172.800781 L 288 144 L 259.199219 144 Z M 28.800781 115.199219 L 57.601562 115.199219 L 57.601562 86.398438 L 28.800781 86.398438 Z M 86.398438 115.199219 L 115.199219 115.199219 L 115.199219 86.398438 L 86.398438 86.398438 Z M 144 115.199219 L 172.800781 115.199219 L 172.800781 86.398438 L 144 86.398438 Z M 201.601562 115.199219 L 230.398438 115.199219 L 230.398438 86.398438 L 201.601562 86.398438 Z M 259.199219 115.199219 L 288 115.199219 L 288 86.398438 L 259.199219 86.398438 Z M 28.800781 57.601562 L 57.601562 57.601562 L 57.601562 28.800781 L 28.800781 28.800781 Z M 86.398438 57.601562 L 115.199219 57.601562 L 115.199219 28.800781 L 86.398438 28.800781 Z M 144 57.601562 L 172.800781 57.601562 L 172.800781 28.800781 L 144 28.800781 Z M 201.601562 57.601562 L 230.398438 57.601562 L 230.398438 28.800781 L 201.601562 28.800781 Z M 259.199219 57.601562 L 288 57.601562 L 288 28.800781 L 259.199219 28.800781 Z M 259.199219 57.601562 "/>
</g>
</svg>
