<?xml version="1.0" encoding="UTF-8" ?>
<svg xmlns="http://www.w3.org/2000/svg" version="1.1" viewBox="0.0 -200000.0 200000.0 200000.0"  width="200000.0" height="200000.0" >
<polygon points="0,0 20000,0 20000,-20000 0,-20000" fill="#ffcc5c" />
<polygon points="40000,0 60000,0 60000,-20000 40000,-20000" fill="#ffcc5c" />
<polygon points="80000,0 100000,0 100000,-20000 80000,-20000" fill="#ffcc5c" />
<polygon points="120000,0 140000,0 140000,-20000 120000,-20000" fill="#ffcc5c" />
<polygon points="160000,0 180000,0 180000,-20000 160000,-20000" fill="#ffcc5c" />
<polygon points="0,-40000 20000,-40000 20000,-60000 0,-60000" fill="#ffcc5c" />
<polygon points="40000,-40000 60000,-40000 60000,-60000 40000,-60000" fill="#ffcc5c" />
<polygon points="80000,-40000 100000,-40000 100000,-60000 80000,-60000" fill="#ffcc5c" />
<polygon points="120000,-40000 140000,-40000 140000,-60000 120000,-60000" fill="#ffcc5c" />
<polygon points="160000,-40000 180000,-40000 180000,-60000 160000,-60000" fill="#ffcc5c" />
<polygon points="0,-80000 20000,-80000 20000,-100000 0,-100000" fill="#ffcc5c" />
<polygon points="40000,-80000 60000,-80000 60000,-100000 40000,-100000" fill="#ffcc5c" />
<polygon points="80000,-80000 100000,-80000 100000,-100000 80000,-100000" fill="#ffcc5c" />
<polygon points="120000,-80000 140000,-80000 140000,-100000 120000,-100000" fill="#ffcc5c" />
<polygon points="160000,-80000 180000,-80000 180000,-100000 160000,-100000" fill="#ffcc5c" />
<polygon points="0,-120000 20000,-120000 20000,-140000 0,-140000" fill="#ffcc5c" />
<polygon points="40000,-120000 60000,-120000 60000,-140000 40000,-140000" fill="#ffcc5c" />
<polygon points="80000,-120000 100000,-120000 100000,-140000 80000,-140000" fill="#ffcc5c" />
<polygon points="120000,-120000 140000,-120000 140000,-140000 120000,-140000" fill="#ffcc5c" />
<polygon points="160000,-120000 180000,-120000 180000,-140000 160000,-140000" fill="#ffcc5c" />
<polygon points="0,-160000 20000,-160000 20000,-180000 0,-180000" fill="#ffcc5c" />
<polygon points="40000,-160000 60000,-160000 60000,-180000 40000,-180000" fill="#ffcc5c" />
<polygon points="80000,-160000 100000,-160000 100000,-180000 80000,-180000" fill="#ffcc5c" />
<polygon points="120000,-160000 140000,-160000 140000,-180000 120000,-180000" fill="#ffcc5c" />
<polygon points="160000,-160000 180000,-160000 180000,-180000 160000,-180000" fill="#ffcc5c" />
<polygon points="20000,-20000 40000,-20000 40000,-40000 20000,-40000" fill="#ffcc5c" />
<polygon points="60000,-20000 80000,-20000 80000,-40000 60000,-40000" fill="#ffcc5c" />
<polygon points="100000,-20000 120000,-20000 120000,-40000 100000,-40000" fill="#ffcc5c" />
<polygon points="140000,-20000 160000,-20000 160000,-40000 140000,-40000" fill="#ffcc5c" />
<polygon points="180000,-20000 200000,-20000 200000,-40000 180000,-40000" fill="#ffcc5c" />
<polygon points="20000,-60000 40000,-60000 40000,-80000 20000,-80000" fill="#ffcc5c" />
<polygon points="60000,-60000 80000,-60000 80000,-80000 60000,-80000" fill="#ffcc5c" />
<polygon points="100000,-60000 120000,-60000 120000,-80000 100000,-80000" fill="#ffcc5c" />
<polygon points="140000,-60000 160000,-60000 160000,-80000 140000,-80000" fill="#ffcc5c" />
<polygon points="180000,-60000 200000,-60000 200000,-80000 180000,-80000" fill="#ffcc5c" />
<polygon points="20000,-100000 40000,-100000 40000,-120000 20000,-120000" fill="#ffcc5c" />
<polygon points="60000,-100000 80000,-100000 80000,-120000 60000,-120000" fill="#ffcc5c" />
<polygon points="100000,-100000 120000,-100000 120000,-120000 100000,-120000" fill="#ffcc5c" />
<polygon points="140000,-100000 160000,-100000 160000,-120000 140000,-120000" fill="#ffcc5c" />
<polygon points="180000,-100000 200000,-100000 200000,-120000 180000,-120000" fill="#ffcc5c" />
<polygon points="20000,-140000 40000,-140000 40000,-160000 20000,-160000" fill="#ffcc5c" />
<polygon points="60000,-140000 80000,-140000 80000,-160000 60000,-160000" fill="#ffcc5c" />
<polygon points="100000,-140000 120000,-140000 120000,-160000 100000,-160000" fill="#ffcc5c" />
<polygon points="140000,-140000 160000,-140000 160000,-160000 140000,-160000" fill="#ffcc5c" />
<polygon points="180000,-140000 200000,-140000 200000,-160000 180000,-160000" fill="#ffcc5c" />
<polygon points="20000,-180000 40000,-180000 40000,-200000 20000,-200000" fill="#ffcc5c" />
<polygon points="60000,-180000 80000,-180000 80000,-200000 60000,-200000" fill="#ffcc5c" />
<polygon points="100000,-180000 120000,-180000 120000,-200000 100000,-200000" fill="#ffcc5c" />
<polygon points="140000,-180000 160000,-180000 160000,-200000 140000,-200000" fill="#ffcc5c" />
<polygon points="180000,-180000 200000,-180000 200000,-200000 180000,-200000" fill="#ffcc5c" />
<polygon points="0,-20000 20000,-20000 20000,-40000 0,-40000" fill="#ff6f69" />
<polygon points="40000,-20000 60000,-20000 60000,-40000 40000,-40000" fill="#ff6f69" />
<polygon points="80000,-20000 100000,-20000 100000,-40000 80000,-40000" fill="#ff6f69" />
<polygon points="120000,-20000 140000,-20000 140000,-40000 120000,-40000" fill="#ff6f69" />
<polygon points="160000,-20000 180000,-20000 180000,-40000 160000,-40000" fill="#ff6f69" />
<polygon points="0,-60000 20000,-60000 20000,-80000 0,-80000" fill="#ff6f69" />
<polygon points="40000,-60000 60000,-60000 60000,-80000 40000,-80000" fill="#ff6f69" />
<polygon points="80000,-60000 100000,-60000 100000,-80000 80000,-80000" fill="#ff6f69" />
<polygon points="120000,-60000 140000,-60000 140000,-80000 120000,-80000" fill="#ff6f69" />
<polygon points="160000,-60000 180000,-60000 180000,-80000 160000,-80000" fill="#ff6f69" />
<polygon points="0,-100000 20000,-100000 20000,-120000 0,-120000" fill="#ff6f69" />
<polygon points="40000,-100000 60000,-100000 60000,-120000 40000,-120000" fill="#ff6f69" />
<polygon points="80000,-100000 100000,-100000 100000,-120000 80000,-120000" fill="#ff6f69" />
<polygon points="120000,-100000 140000,-100000 140000,-120000 120000,-120000" fill="#ff6f69" />
<polygon points="160000,-100000 180000,-100000 180000,-120000 160000,-120000" fill="#ff6f69" />
<polygon points="0,-140000 20000,-140000 20000,-160000 0,-160000" fill="#ff6f69" />
<polygon points="40000,-140000 60000,-140000 60000,-160000 40000,-160000" fill="#ff6f69" />
<polygon points="80000,-140000 100000,-140000 100000,-160000 80000,-160000" fill="#ff6f69" />
<polygon points="120000,-140000 140000,-140000 140000,-160000 120000,-160000" fill="#ff6f69" />
<polygon points="160000,-140000 180000,-140000 180000,-160000 160000,-160000" fill="#ff6f69" />
<polygon points="0,-180000 20000,-180000 20000,-200000 0,-200000" fill="#ff6f69" />
<polygon points="40000,-180000 60000,-180000 60000,-200000 40000,-200000" fill="#ff6f69" />
<polygon points="80000,-180000 100000,-180000 100000,-200000 80000,-200000" fill="#ff6f69" />
<polygon points="120000,-180000 140000,-180000 140000,-200000 120000,-200000" fill="#ff6f69" />
<polygon points="160000,-180000 180000,-180000 180000,-200000 160000,-200000" fill="#ff6f69" />
<polygon points="20000,0 40000,0 40000,-20000 20000,-20000" fill="#ff6f69" />
<polygon points="60000,0 80000,0 80000,-20000 60000,-20000" fill="#ff6f69" />
<polygon points="100000,0 120000,0 120000,-20000 100000,-20000" fill="#ff6f69" />
<polygon points="140000,0 160000,0 160000,-20000 140000,-20000" fill="#ff6f69" />
<polygon points="180000,0 200000,0 200000,-20000 180000,-20000" fill="#ff6f69" />
<polygon points="20000,-40000 40000,-40000 40000,-60000 20000,-60000" fill="#ff6f69" />
<polygon points="60000,-40000 80000,-40000 80000,-60000 60000,-60000" fill="#ff6f69" />
<polygon points="100000,-40000 120000,-40000 120000,-60000 100000,-60000" fill="#ff6f69" />
<polygon points="140000,-40000 160000,-40000 160000,-60000 140000,-60000" fill="#ff6f69" />
<polygon points="180000,-40000 200000,-40000 200000,-60000 180000,-60000" fill="#ff6f69" />
<polygon points="20000,-80000 40000,-80000 40000,-100000 20000,-100000" fill="#ff6f69" />
<polygon points="60000,-80000 80000,-80000 80000,-100000 60000,-100000" fill="#ff6f69" />
<polygon points="100000,-80000 120000,-80000 120000,-100000 100000,-100000" fill="#ff6f69" />
<polygon points="140000,-80000 160000,-80000 160000,-100000 140000,-100000" fill="#ff6f69" />
<polygon points="180000,-80000 200000,-80000 200000,-100000 180000,-100000" fill="#ff6f69" />
<polygon points="20000,-120000 40000,-120000 40000,-140000 20000,-140000" fill="#ff6f69" />
<polygon points="60000,-120000 80000,-120000 80000,-140000 60000,-140000" fill="#ff6f69" />
<polygon points="100000,-120000 120000,-120000 120000,-140000 100000,-140000" fill="#ff6f69" />
<polygon points="140000,-120000 160000,-120000 160000,-140000 140000,-140000" fill="#ff6f69" />
<polygon points="180000,-120000 200000,-120000 200000,-140000 180000,-140000" fill="#ff6f69" />
<polygon points="20000,-160000 40000,-160000 40000,-180000 20000,-180000" fill="#ff6f69" />
<polygon points="60000,-160000 80000,-160000 80000,-180000 60000,-180000" fill="#ff6f69" />
<polygon points="100000,-160000 120000,-160000 120000,-180000 100000,-180000" fill="#ff6f69" />
<polygon points="140000,-160000 160000,-160000 160000,-180000 140000,-180000" fill="#ff6f69" />
<polygon points="180000,-160000 200000,-160000 200000,-180000 180000,-180000" fill="#ff6f69" />
</svg>
