<?xml version="1.0" encoding="UTF-8" ?>
<svg xmlns="http://www.w3.org/2000/svg" version="1.1" viewBox="0.0 -200000.0 200000.0 200000.0"  width="200000.0" height="200000.0" >
<polygon points="0.0,0.0 20000.0,0.0 20000.0,-20000.0 0.0,-20000.0" fill="#ffcc5c" />
<polygon points="40000.0,0.0 60000.0,0.0 60000.0,-20000.0 40000.0,-20000.0" fill="#ffcc5c" />
<polygon points="80000.0,0.0 100000.0,0.0 100000.0,-20000.0 80000.0,-20000.0" fill="#ffcc5c" />
<polygon points="120000.0,0.0 140000.0,0.0 140000.0,-20000.0 120000.0,-20000.0" fill="#ffcc5c" />
<polygon points="160000.0,0.0 180000.0,0.0 180000.0,-20000.0 160000.0,-20000.0" fill="#ffcc5c" />
<polygon points="0.0,-40000.0 20000.0,-40000.0 20000.0,-60000.0 0.0,-60000.0" fill="#ffcc5c" />
<polygon points="40000.0,-40000.0 60000.0,-40000.0 60000.0,-60000.0 40000.0,-60000.0" fill="#ffcc5c" />
<polygon points="80000.0,-40000.0 100000.0,-40000.0 100000.0,-60000.0 80000.0,-60000.0" fill="#ffcc5c" />
<polygon points="120000.0,-40000.0 140000.0,-40000.0 140000.0,-60000.0 120000.0,-60000.0" fill="#ffcc5c" />
<polygon points="160000.0,-40000.0 180000.0,-40000.0 180000.0,-60000.0 160000.0,-60000.0" fill="#ffcc5c" />
<polygon points="0.0,-80000.0 20000.0,-80000.0 20000.0,-100000.0 0.0,-100000.0" fill="#ffcc5c" />
<polygon points="40000.0,-80000.0 60000.0,-80000.0 60000.0,-100000.0 40000.0,-100000.0" fill="#ffcc5c" />
<polygon points="80000.0,-80000.0 100000.0,-80000.0 100000.0,-100000.0 80000.0,-100000.0" fill="#ffcc5c" />
<polygon points="120000.0,-80000.0 140000.0,-80000.0 140000.0,-100000.0 120000.0,-100000.0" fill="#ffcc5c" />
<polygon points="160000.0,-80000.0 180000.0,-80000.0 180000.0,-100000.0 160000.0,-100000.0" fill="#ffcc5c" />
<polygon points="0.0,-120000.0 20000.0,-120000.0 20000.0,-140000.0 0.0,-140000.0" fill="#ffcc5c" />
<polygon points="40000.0,-120000.0 60000.0,-120000.0 60000.0,-140000.0 40000.0,-140000.0" fill="#ffcc5c" />
<polygon points="80000.0,-120000.0 100000.0,-120000.0 100000.0,-140000.0 80000.0,-140000.0" fill="#ffcc5c" />
<polygon points="120000.0,-120000.0 140000.0,-120000.0 140000.0,-140000.0 120000.0,-140000.0" fill="#ffcc5c" />
<polygon points="160000.0,-120000.0 180000.0,-120000.0 180000.0,-140000.0 160000.0,-140000.0" fill="#ffcc5c" />
<polygon points="0.0,-160000.0 20000.0,-160000.0 20000.0,-180000.0 0.0,-180000.0" fill="#ffcc5c" />
<polygon points="40000.0,-160000.0 60000.0,-160000.0 60000.0,-180000.0 40000.0,-180000.0" fill="#ffcc5c" />
<polygon points="80000.0,-160000.0 100000.0,-160000.0 100000.0,-180000.0 80000.0,-180000.0" fill="#ffcc5c" />
<polygon points="120000.0,-160000.0 140000.0,-160000.0 140000.0,-180000.0 120000.0,-180000.0" fill="#ffcc5c" />
<polygon points="160000.0,-160000.0 180000.0,-160000.0 180000.0,-180000.0 160000.0,-180000.0" fill="#ffcc5c" />
<polygon points="20000.0,-20000.0 40000.0,-20000.0 40000.0,-40000.0 20000.0,-40000.0" fill="#ffcc5c" />
<polygon points="60000.0,-20000.0 80000.0,-20000.0 80000.0,-40000.0 60000.0,-40000.0" fill="#ffcc5c" />
<polygon points="100000.0,-20000.0 120000.0,-20000.0 120000.0,-40000.0 100000.0,-40000.0" fill="#ffcc5c" />
<polygon points="140000.0,-20000.0 160000.0,-20000.0 160000.0,-40000.0 140000.0,-40000.0" fill="#ffcc5c" />
<polygon points="180000.0,-20000.0 200000.0,-20000.0 200000.0,-40000.0 180000.0,-40000.0" fill="#ffcc5c" />
<polygon points="20000.0,-60000.0 40000.0,-60000.0 40000.0,-80000.0 20000.0,-80000.0" fill="#ffcc5c" />
<polygon points="60000.0,-60000.0 80000.0,-60000.0 80000.0,-80000.0 60000.0,-80000.0" fill="#ffcc5c" />
<polygon points="100000.0,-60000.0 120000.0,-60000.0 120000.0,-80000.0 100000.0,-80000.0" fill="#ffcc5c" />
<polygon points="140000.0,-60000.0 160000.0,-60000.0 160000.0,-80000.0 140000.0,-80000.0" fill="#ffcc5c" />
<polygon points="180000.0,-60000.0 200000.0,-60000.0 200000.0,-80000.0 180000.0,-80000.0" fill="#ffcc5c" />
<polygon points="20000.0,-100000.0 40000.0,-100000.0 40000.0,-120000.0 20000.0,-120000.0" fill="#ffcc5c" />
<polygon points="60000.0,-100000.0 80000.0,-100000.0 80000.0,-120000.0 60000.0,-120000.0" fill="#ffcc5c" />
<polygon points="100000.0,-100000.0 120000.0,-100000.0 120000.0,-120000.0 100000.0,-120000.0" fill="#ffcc5c" />
<polygon points="140000.0,-100000.0 160000.0,-100000.0 160000.0,-120000.0 140000.0,-120000.0" fill="#ffcc5c" />
<polygon points="180000.0,-100000.0 200000.0,-100000.0 200000.0,-120000.0 180000.0,-120000.0" fill="#ffcc5c" />
<polygon points="20000.0,-140000.0 40000.0,-140000.0 40000.0,-160000.0 20000.0,-160000.0" fill="#ffcc5c" />
<polygon points="60000.0,-140000.0 80000.0,-140000.0 80000.0,-160000.0 60000.0,-160000.0" fill="#ffcc5c" />
<polygon points="100000.0,-140000.0 120000.0,-140000.0 120000.0,-160000.0 100000.0,-160000.0" fill="#ffcc5c" />
<polygon points="140000.0,-140000.0 160000.0,-140000.0 160000.0,-160000.0 140000.0,-160000.0" fill="#ffcc5c" />
<polygon points="180000.0,-140000.0 200000.0,-140000.0 200000.0,-160000.0 180000.0,-160000.0" fill="#ffcc5c" />
<polygon points="20000.0,-180000.0 40000.0,-180000.0 40000.0,-200000.0 20000.0,-200000.0" fill="#ffcc5c" />
<polygon points="60000.0,-180000.0 80000.0,-180000.0 80000.0,-200000.0 60000.0,-200000.0" fill="#ffcc5c" />
<polygon points="100000.0,-180000.0 120000.0,-180000.0 120000.0,-200000.0 100000.0,-200000.0" fill="#ffcc5c" />
<polygon points="140000.0,-180000.0 160000.0,-180000.0 160000.0,-200000.0 140000.0,-200000.0" fill="#ffcc5c" />
<polygon points="180000.0,-180000.0 200000.0,-180000.0 200000.0,-200000.0 180000.0,-200000.0" fill="#ffcc5c" />
<polygon points="0.0,-20000.0 20000.0,-20000.0 20000.0,-40000.0 0.0,-40000.0" fill="#ff6f69" />
<polygon points="40000.0,-20000.0 60000.0,-20000.0 60000.0,-40000.0 40000.0,-40000.0" fill="#ff6f69" />
<polygon points="80000.0,-20000.0 100000.0,-20000.0 100000.0,-40000.0 80000.0,-40000.0" fill="#ff6f69" />
<polygon points="120000.0,-20000.0 140000.0,-20000.0 140000.0,-40000.0 120000.0,-40000.0" fill="#ff6f69" />
<polygon points="160000.0,-20000.0 180000.0,-20000.0 180000.0,-40000.0 160000.0,-40000.0" fill="#ff6f69" />
<polygon points="0.0,-60000.0 20000.0,-60000.0 20000.0,-80000.0 0.0,-80000.0" fill="#ff6f69" />
<polygon points="40000.0,-60000.0 60000.0,-60000.0 60000.0,-80000.0 40000.0,-80000.0" fill="#ff6f69" />
<polygon points="80000.0,-60000.0 100000.0,-60000.0 100000.0,-80000.0 80000.0,-80000.0" fill="#ff6f69" />
<polygon points="120000.0,-60000.0 140000.0,-60000.0 140000.0,-80000.0 120000.0,-80000.0" fill="#ff6f69" />
<polygon points="160000.0,-60000.0 180000.0,-60000.0 180000.0,-80000.0 160000.0,-80000.0" fill="#ff6f69" />
<polygon points="0.0,-100000.0 20000.0,-100000.0 20000.0,-120000.0 0.0,-120000.0" fill="#ff6f69" />
<polygon points="40000.0,-100000.0 60000.0,-100000.0 60000.0,-120000.0 40000.0,-120000.0" fill="#ff6f69" />
<polygon points="80000.0,-100000.0 100000.0,-100000.0 100000.0,-120000.0 80000.0,-120000.0" fill="#ff6f69" />
<polygon points="120000.0,-100000.0 140000.0,-100000.0 140000.0,-120000.0 120000.0,-120000.0" fill="#ff6f69" />
<polygon points="160000.0,-100000.0 180000.0,-100000.0 180000.0,-120000.0 160000.0,-120000.0" fill="#ff6f69" />
<polygon points="0.0,-140000.0 20000.0,-140000.0 20000.0,-160000.0 0.0,-160000.0" fill="#ff6f69" />
<polygon points="40000.0,-140000.0 60000.0,-140000.0 60000.0,-160000.0 40000.0,-160000.0" fill="#ff6f69" />
<polygon points="80000.0,-140000.0 100000.0,-140000.0 100000.0,-160000.0 80000.0,-160000.0" fill="#ff6f69" />
<polygon points="120000.0,-140000.0 140000.0,-140000.0 140000.0,-160000.0 120000.0,-160000.0" fill="#ff6f69" />
<polygon points="160000.0,-140000.0 180000.0,-140000.0 180000.0,-160000.0 160000.0,-160000.0" fill="#ff6f69" />
<polygon points="0.0,-180000.0 20000.0,-180000.0 20000.0,-200000.0 0.0,-200000.0" fill="#ff6f69" />
<polygon points="40000.0,-180000.0 60000.0,-180000.0 60000.0,-200000.0 40000.0,-200000.0" fill="#ff6f69" />
<polygon points="80000.0,-180000.0 100000.0,-180000.0 100000.0,-200000.0 80000.0,-200000.0" fill="#ff6f69" />
<polygon points="120000.0,-180000.0 140000.0,-180000.0 140000.0,-200000.0 120000.0,-200000.0" fill="#ff6f69" />
<polygon points="160000.0,-180000.0 180000.0,-180000.0 180000.0,-200000.0 160000.0,-200000.0" fill="#ff6f69" />
<polygon points="20000.0,0.0 40000.0,0.0 40000.0,-20000.0 20000.0,-20000.0" fill="#ff6f69" />
<polygon points="60000.0,0.0 80000.0,0.0 80000.0,-20000.0 60000.0,-20000.0" fill="#ff6f69" />
<polygon points="100000.0,0.0 120000.0,0.0 120000.0,-20000.0 100000.0,-20000.0" fill="#ff6f69" />
<polygon points="140000.0,0.0 160000.0,0.0 160000.0,-20000.0 140000.0,-20000.0" fill="#ff6f69" />
<polygon points="180000.0,0.0 200000.0,0.0 200000.0,-20000.0 180000.0,-20000.0" fill="#ff6f69" />
<polygon points="20000.0,-40000.0 40000.0,-40000.0 40000.0,-60000.0 20000.0,-60000.0" fill="#ff6f69" />
<polygon points="60000.0,-40000.0 80000.0,-40000.0 80000.0,-60000.0 60000.0,-60000.0" fill="#ff6f69" />
<polygon points="100000.0,-40000.0 120000.0,-40000.0 120000.0,-60000.0 100000.0,-60000.0" fill="#ff6f69" />
<polygon points="140000.0,-40000.0 160000.0,-40000.0 160000.0,-60000.0 140000.0,-60000.0" fill="#ff6f69" />
<polygon points="180000.0,-40000.0 200000.0,-40000.0 200000.0,-60000.0 180000.0,-60000.0" fill="#ff6f69" />
<polygon points="20000.0,-80000.0 40000.0,-80000.0 40000.0,-100000.0 20000.0,-100000.0" fill="#ff6f69" />
<polygon points="60000.0,-80000.0 80000.0,-80000.0 80000.0,-100000.0 60000.0,-100000.0" fill="#ff6f69" />
<polygon points="100000.0,-80000.0 120000.0,-80000.0 120000.0,-100000.0 100000.0,-100000.0" fill="#ff6f69" />
<polygon points="140000.0,-80000.0 160000.0,-80000.0 160000.0,-100000.0 140000.0,-100000.0" fill="#ff6f69" />
<polygon points="180000.0,-80000.0 200000.0,-80000.0 200000.0,-100000.0 180000.0,-100000.0" fill="#ff6f69" />
<polygon points="20000.0,-120000.0 40000.0,-120000.0 40000.0,-140000.0 20000.0,-140000.0" fill="#ff6f69" />
<polygon points="60000.0,-120000.0 80000.0,-120000.0 80000.0,-140000.0 60000.0,-140000.0" fill="#ff6f69" />
<polygon points="100000.0,-120000.0 120000.0,-120000.0 120000.0,-140000.0 100000.0,-140000.0" fill="#ff6f69" />
<polygon points="140000.0,-120000.0 160000.0,-120000.0 160000.0,-140000.0 140000.0,-140000.0" fill="#ff6f69" />
<polygon points="180000.0,-120000.0 200000.0,-120000.0 200000.0,-140000.0 180000.0,-140000.0" fill="#ff6f69" />
<polygon points="20000.0,-160000.0 40000.0,-160000.0 40000.0,-180000.0 20000.0,-180000.0" fill="#ff6f69" />
<polygon points="60000.0,-160000.0 80000.0,-160000.0 80000.0,-180000.0 60000.0,-180000.0" fill="#ff6f69" />
<polygon points="100000.0,-160000.0 120000.0,-160000.0 120000.0,-180000.0 100000.0,-180000.0" fill="#ff6f69" />
<polygon points="140000.0,-160000.0 160000.0,-160000.0 160000.0,-180000.0 140000.0,-180000.0" fill="#ff6f69" />
<polygon points="180000.0,-160000.0 200000.0,-160000.0 200000.0,-180000.0 180000.0,-180000.0" fill="#ff6f69" />
</svg>
