<?xml version="1.0" encoding="UTF-8" ?>
<svg xmlns="http://www.w3.org/2000/svg" version="1.1" viewBox="0 0 23000 17000"  >
<g fill="#f2e394" >
<polygon points="0,17000 20000,17000 20000,16000 0,16000" />
<polygon points="0,13000 20000,13000 20000,12000 0,12000" />
<polygon points="0,9000 20000,9000 20000,8000 0,8000" />
<polygon points="0,5000 20000,5000 20000,4000 0,4000" />
<polygon points="0,1000 20000,1000 20000,0 0,0" />
<polygon points="3000,15000 23000,15000 23000,14000 3000,14000" />
<polygon points="3000,11000 23000,11000 23000,10000 3000,10000" />
<polygon points="3000,7000 23000,7000 23000,6000 3000,6000" />
<polygon points="3000,3000 23000,3000 23000,2000 3000,2000" />
</g>
</svg>
