<?xml version="1.0" encoding="UTF-8" ?>
<svg xmlns="http://www.w3.org/2000/svg" version="1.1" viewBox="0.0 -17000.0 23000.0 17000.0"  width="23000.0" height="17000.0" >
<polygon points="0,0 20000,0 20000,-1000 0,-1000" fill="#f2e394" />
<polygon points="0,-4000 20000,-4000 20000,-5000 0,-5000" fill="#f2e394" />
<polygon points="0,-8000 20000,-8000 20000,-9000 0,-9000" fill="#f2e394" />
<polygon points="0,-12000 20000,-12000 20000,-13000 0,-13000" fill="#f2e394" />
<polygon points="0,-16000 20000,-16000 20000,-17000 0,-17000" fill="#f2e394" />
<polygon points="3000,-2000 23000,-2000 23000,-3000 3000,-3000" fill="#f2e394" />
<polygon points="3000,-6000 23000,-6000 23000,-7000 3000,-7000" fill="#f2e394" />
<polygon points="3000,-10000 23000,-10000 23000,-11000 3000,-11000" fill="#f2e394" />
<polygon points="3000,-14000 23000,-14000 23000,-15000 3000,-15000" fill="#f2e394" />
</svg>
