<?xml version="1.0" encoding="UTF-8"?>
<svg xmlns="http://www.w3.org/2000/svg" xmlns:xlink="http://www.w3.org/1999/xlink" width="288pt" height="288pt" viewBox="0 0 288 288" version="1.1">
<g id="surface25">
<path style=" stroke:none;fill-rule:nonzero;fill:rgb(94.901961%,89.019608%,58.039216%);fill-opacity:0.501961;" d="M 0 212.871094 L 250.433594 212.871094 L 250.433594 200.347656 L 0 200.347656 Z M 0 162.78125 L 250.433594 162.78125 L 250.433594 150.261719 L 0 150.261719 Z M 0 112.695312 L 250.433594 112.695312 L 250.433594 100.175781 L 0 100.175781 Z M 0 62.609375 L 250.433594 62.609375 L 250.433594 50.085938 L 0 50.085938 Z M 0 12.523438 L 250.433594 12.523438 L 250.433594 0 L 0 0 Z M 37.566406 187.824219 L 288 187.824219 L 288 175.304688 L 37.566406 175.304688 Z M 37.566406 137.738281 L 288 137.738281 L 288 125.21875 L 37.566406 125.21875 Z M 37.566406 87.652344 L 288 87.652344 L 288 75.128906 L 37.566406 75.128906 Z M 37.566406 37.566406 L 288 37.566406 L 288 25.042969 L 37.566406 25.042969 Z M 37.566406 37.566406 "/>
</g>
</svg>
