<?xml version="1.0" encoding="UTF-8" ?>
<svg xmlns="http://www.w3.org/2000/svg" version="1.1" viewBox="0.0 -17000.0 23000.0 17000.0"  width="23000.0" height="17000.0" >
<polygon points="0.0,0.0 20000.0,0.0 20000.0,-1000.0 0.0,-1000.0" fill="#f2e394" />
<polygon points="0.0,-4000.0 20000.0,-4000.0 20000.0,-5000.0 0.0,-5000.0" fill="#f2e394" />
<polygon points="0.0,-8000.0 20000.0,-8000.0 20000.0,-9000.0 0.0,-9000.0" fill="#f2e394" />
<polygon points="0.0,-12000.0 20000.0,-12000.0 20000.0,-13000.0 0.0,-13000.0" fill="#f2e394" />
<polygon points="0.0,-16000.0 20000.0,-16000.0 20000.0,-17000.0 0.0,-17000.0" fill="#f2e394" />
<polygon points="3000.0,-2000.0 23000.0,-2000.0 23000.0,-3000.0 3000.0,-3000.0" fill="#f2e394" />
<polygon points="3000.0,-6000.0 23000.0,-6000.0 23000.0,-7000.0 3000.0,-7000.0" fill="#f2e394" />
<polygon points="3000.0,-10000.0 23000.0,-10000.0 23000.0,-11000.0 3000.0,-11000.0" fill="#f2e394" />
<polygon points="3000.0,-14000.0 23000.0,-14000.0 23000.0,-15000.0 3000.0,-15000.0" fill="#f2e394" />
</svg>
