<?xml version="1.0" encoding="UTF-8"?>
<svg xmlns="http://www.w3.org/2000/svg" xmlns:xlink="http://www.w3.org/1999/xlink" width="288pt" height="288pt" viewBox="0 0 288 288" version="1.1">
<g id="surface37">
<path style=" stroke:none;fill-rule:nonzero;fill:rgb(58.823529%,80.784314%,70.588235%);fill-opacity:0.501961;" d="M 0 0 L 117.074219 0 L 117.074219 7.023438 L 0 7.023438 Z M 0 46.828125 L 117.074219 46.828125 L 117.074219 53.855469 L 0 53.855469 Z M 170.925781 0 L 288 0 L 288 7.023438 L 170.925781 7.023438 Z M 170.925781 46.828125 L 288 46.828125 L 288 53.855469 L 170.925781 53.855469 Z M 170.925781 53.855469 L 170.925781 42.144531 L 124.097656 42.144531 L 124.097656 39.804688 L 170.925781 39.804688 L 170.925781 32.78125 L 124.097656 32.78125 L 124.097656 30.4375 L 170.925781 30.4375 L 170.925781 23.414062 L 124.097656 23.414062 L 124.097656 21.074219 L 170.925781 21.074219 L 170.925781 14.046875 L 124.097656 14.046875 L 124.097656 11.707031 L 170.925781 11.707031 L 170.925781 0 L 117.074219 0 L 117.074219 7.023438 L 163.902344 7.023438 L 163.902344 9.367188 L 117.074219 9.367188 L 117.074219 16.390625 L 163.902344 16.390625 L 163.902344 18.730469 L 117.074219 18.730469 L 117.074219 25.757812 L 163.902344 25.757812 L 163.902344 28.097656 L 117.074219 28.097656 L 117.074219 35.121094 L 163.902344 35.121094 L 163.902344 37.464844 L 117.074219 37.464844 L 117.074219 44.488281 L 163.902344 44.488281 L 163.902344 46.828125 L 117.074219 46.828125 L 117.074219 53.855469 Z M 170.925781 53.855469 "/>
</g>
</svg>
