<?xml version="1.0" encoding="UTF-8" ?>
<svg xmlns="http://www.w3.org/2000/svg" version="1.1" viewBox="-7.041719095097281e-13 0 123000 23000"  >
<g fill="#96ceb4" >
<polygon points="0,0 50000,0 50000,3000 0,3000" />
<polygon points="0,20000 50000,20000 50000,23000 0,23000" />
<polygon points="73000,0 123000,0 123000,3000 73000,3000" />
<polygon points="73000,20000 123000,20000 123000,23000 73000,23000" />
<polygon points="73000,23000 73000,18000 53000,18000 53000,17000 73000,17000 73000,14000 53000,14000 53000,13000 73000,13000 73000,10000 53000,10000 53000,9000 73000,9000 73000,6000 53000,6000 53000,5000 73000,5000 73000,0 50000,0 50000,3000 70000,3000 70000,4000 50000,4000 50000,7000 70000,7000 70000,8000 50000,8000 50000,11000 70000,11000 70000,12000 50000,12000 50000,15000 70000,15000 70000,16000 50000,16000 50000,19000 70000,19000 70000,20000 50000,20000 50000,23000" />
</g>
</svg>
