<?xml version="1.0" encoding="UTF-8" ?>
<svg xmlns="http://www.w3.org/2000/svg" version="1.1" viewBox="0.0 -5000.0 4900.0 5000.0"  width="4900.0" height="5000.0" >
<polygon points="0,0 100,0 100,-5000 0,-5000" fill="#ff6f69" />
<polygon points="200,0 300,0 300,-5000 200,-5000" fill="#ff6f69" />
<polygon points="400,0 500,0 500,-5000 400,-5000" fill="#ff6f69" />
<polygon points="600,0 700,0 700,-5000 600,-5000" fill="#ff6f69" />
<polygon points="800,0 900,0 900,-5000 800,-5000" fill="#ff6f69" />
<polygon points="1000,0 1100,0 1100,-5000 1000,-5000" fill="#ff6f69" />
<polygon points="1200,0 1300,0 1300,-5000 1200,-5000" fill="#ff6f69" />
<polygon points="1400,0 1500,0 1500,-5000 1400,-5000" fill="#ff6f69" />
<polygon points="1600,0 1700,0 1700,-5000 1600,-5000" fill="#ff6f69" />
<polygon points="1800,0 1900,0 1900,-5000 1800,-5000" fill="#ff6f69" />
<polygon points="2000,0 2100,0 2100,-5000 2000,-5000" fill="#ff6f69" />
<polygon points="2200,0 2300,0 2300,-5000 2200,-5000" fill="#ff6f69" />
<polygon points="2400,0 2500,0 2500,-5000 2400,-5000" fill="#ff6f69" />
<polygon points="2600,0 2700,0 2700,-5000 2600,-5000" fill="#ff6f69" />
<polygon points="2800,0 2900,0 2900,-5000 2800,-5000" fill="#ff6f69" />
<polygon points="3000,0 3100,0 3100,-5000 3000,-5000" fill="#ff6f69" />
<polygon points="3200,0 3300,0 3300,-5000 3200,-5000" fill="#ff6f69" />
<polygon points="3400,0 3500,0 3500,-5000 3400,-5000" fill="#ff6f69" />
<polygon points="3600,0 3700,0 3700,-5000 3600,-5000" fill="#ff6f69" />
<polygon points="3800,0 3900,0 3900,-5000 3800,-5000" fill="#ff6f69" />
<polygon points="4000,0 4100,0 4100,-5000 4000,-5000" fill="#ff6f69" />
<polygon points="4200,0 4300,0 4300,-5000 4200,-5000" fill="#ff6f69" />
<polygon points="4400,0 4500,0 4500,-5000 4400,-5000" fill="#ff6f69" />
<polygon points="4600,0 4700,0 4700,-5000 4600,-5000" fill="#ff6f69" />
<polygon points="4800,0 4900,0 4900,-5000 4800,-5000" fill="#ff6f69" />
</svg>
