<?xml version="1.0" encoding="UTF-8"?>
<svg xmlns="http://www.w3.org/2000/svg" xmlns:xlink="http://www.w3.org/1999/xlink" width="288pt" height="288pt" viewBox="0 0 288 288" version="1.1">
<g id="surface21">
<path style=" stroke:none;fill-rule:nonzero;fill:rgb(100%,43.529412%,41.176471%);fill-opacity:0.501961;" d="M 0 288 L 5.761719 288 L 5.761719 0 L 0 0 Z M 11.519531 288 L 17.28125 288 L 17.28125 0 L 11.519531 0 Z M 23.039062 288 L 28.800781 288 L 28.800781 0 L 23.039062 0 Z M 34.558594 288 L 40.320312 288 L 40.320312 0 L 34.558594 0 Z M 46.078125 288 L 51.839844 288 L 51.839844 0 L 46.078125 0 Z M 57.601562 288 L 63.359375 288 L 63.359375 0 L 57.601562 0 Z M 69.121094 288 L 74.878906 288 L 74.878906 0 L 69.121094 0 Z M 80.640625 288 L 86.398438 288 L 86.398438 0 L 80.640625 0 Z M 92.160156 288 L 97.921875 288 L 97.921875 0 L 92.160156 0 Z M 103.679688 288 L 109.441406 288 L 109.441406 0 L 103.679688 0 Z M 115.199219 288 L 120.960938 288 L 120.960938 0 L 115.199219 0 Z M 126.71875 288 L 132.480469 288 L 132.480469 0 L 126.71875 0 Z M 138.238281 288 L 144 288 L 144 0 L 138.238281 0 Z M 149.761719 288 L 155.519531 288 L 155.519531 0 L 149.761719 0 Z M 161.28125 288 L 167.039062 288 L 167.039062 0 L 161.28125 0 Z M 172.800781 288 L 178.558594 288 L 178.558594 0 L 172.800781 0 Z M 184.320312 288 L 190.078125 288 L 190.078125 0 L 184.320312 0 Z M 195.839844 288 L 201.601562 288 L 201.601562 0 L 195.839844 0 Z M 207.359375 288 L 213.121094 288 L 213.121094 0 L 207.359375 0 Z M 218.878906 288 L 224.640625 288 L 224.640625 0 L 218.878906 0 Z M 230.398438 288 L 236.160156 288 L 236.160156 0 L 230.398438 0 Z M 241.921875 288 L 247.679688 288 L 247.679688 0 L 241.921875 0 Z M 253.441406 288 L 259.199219 288 L 259.199219 0 L 253.441406 0 Z M 264.960938 288 L 270.71875 288 L 270.71875 0 L 264.960938 0 Z M 276.480469 288 L 282.238281 288 L 282.238281 0 L 276.480469 0 Z M 276.480469 288 "/>
</g>
</svg>
