<?xml version="1.0" encoding="UTF-8" ?>
<svg xmlns="http://www.w3.org/2000/svg" version="1.1" viewBox="0.0 0 4900 5000"  >
<g fill="#ff6f69" >
<polygon points="0,5000 100,5000 100,0 0,0" />
<polygon points="200,5000 300,5000 300,0 200,0" />
<polygon points="400,5000 500,5000 500,0 400,0" />
<polygon points="600,5000 700,5000 700,0 600,0" />
<polygon points="800,5000 900,5000 900,0 800,0" />
<polygon points="1000,5000 1100,5000 1100,0 1000,0" />
<polygon points="1200,5000 1300,5000 1300,0 1200,0" />
<polygon points="1400,5000 1500,5000 1500,0 1400,0" />
<polygon points="1600,5000 1700,5000 1700,0 1600,0" />
<polygon points="1800,5000 1900,5000 1900,0 1800,0" />
<polygon points="2000,5000 2100,5000 2100,0 2000,0" />
<polygon points="2200,5000 2300,5000 2300,0 2200,0" />
<polygon points="2400,5000 2500,5000 2500,0 2400,0" />
<polygon points="2600,5000 2700,5000 2700,0 2600,0" />
<polygon points="2800,5000 2900,5000 2900,0 2800,0" />
<polygon points="3000,5000 3100,5000 3100,0 3000,0" />
<polygon points="3200,5000 3300,5000 3300,0 3200,0" />
<polygon points="3400,5000 3500,5000 3500,0 3400,0" />
<polygon points="3600,5000 3700,5000 3700,0 3600,0" />
<polygon points="3800,5000 3900,5000 3900,0 3800,0" />
<polygon points="4000,5000 4100,5000 4100,0 4000,0" />
<polygon points="4200,5000 4300,5000 4300,0 4200,0" />
<polygon points="4400,5000 4500,5000 4500,0 4400,0" />
<polygon points="4600,5000 4700,5000 4700,0 4600,0" />
<polygon points="4800,5000 4900,5000 4900,0 4800,0" />
</g>
</svg>
