<?xml version="1.0" encoding="UTF-8"?>
<svg xmlns="http://www.w3.org/2000/svg" xmlns:xlink="http://www.w3.org/1999/xlink" width="288pt" height="288pt" viewBox="0 0 288 288" version="1.1">
<g id="surface9">
<path style=" stroke:none;fill-rule:nonzero;fill:rgb(0%,0%,0%);fill-opacity:1;" d="M 142.574219 280.871094 L 142.574219 139.722656 L 145.425781 139.722656 L 145.425781 280.871094 Z M 142.574219 139.722656 L 145.425781 139.722656 L 145.425781 136.871094 L 142.574219 136.871094 Z M 142.574219 139.722656 L 139.722656 139.722656 L 139.722656 136.871094 L 142.574219 136.871094 Z M 139.722656 139.722656 L 139.722656 136.871094 L 136.871094 136.871094 L 136.871094 139.722656 Z M 139.722656 139.722656 L 139.722656 148.277344 L 136.871094 148.277344 L 136.871094 139.722656 Z M 139.722656 148.277344 L 136.871094 148.277344 L 136.871094 151.128906 L 139.722656 151.128906 Z M 139.722656 148.277344 L 139.722656 151.128906 Z M 148.277344 148.277344 L 153.980469 148.277344 L 153.980469 151.128906 L 148.277344 151.128906 Z M 153.980469 148.277344 L 153.980469 151.128906 L 156.832031 151.128906 L 156.832031 148.277344 Z M 153.980469 148.277344 L 153.980469 128.316406 L 156.832031 128.316406 L 156.832031 148.277344 Z M 153.980469 128.316406 L 156.832031 128.316406 L 156.832031 125.464844 L 153.980469 125.464844 Z M 153.980469 128.316406 L 128.316406 128.316406 L 128.316406 125.464844 L 153.980469 125.464844 Z M 128.316406 128.316406 L 128.316406 125.464844 L 125.464844 125.464844 L 125.464844 128.316406 Z M 128.316406 128.316406 L 128.316406 159.683594 L 125.464844 159.683594 L 125.464844 128.316406 Z M 128.316406 159.683594 L 125.464844 159.683594 L 125.464844 162.535156 L 128.316406 162.535156 Z M 128.316406 159.683594 L 139.722656 159.683594 L 139.722656 162.535156 L 128.316406 162.535156 Z M 148.277344 159.683594 L 165.386719 159.683594 L 165.386719 162.535156 L 148.277344 162.535156 Z M 165.386719 159.683594 L 165.386719 162.535156 L 168.238281 162.535156 L 168.238281 159.683594 Z M 165.386719 159.683594 L 165.386719 116.910156 L 168.238281 116.910156 L 168.238281 159.683594 Z M 165.386719 116.910156 L 168.238281 116.910156 L 168.238281 114.058594 L 165.386719 114.058594 Z M 165.386719 116.910156 L 116.910156 116.910156 L 116.910156 114.058594 L 165.386719 114.058594 Z M 116.910156 116.910156 L 116.910156 114.058594 L 114.058594 114.058594 L 114.058594 116.910156 Z M 116.910156 116.910156 L 116.910156 171.089844 L 114.058594 171.089844 L 114.058594 116.910156 Z M 116.910156 171.089844 L 114.058594 171.089844 L 114.058594 173.941406 L 116.910156 173.941406 Z M 116.910156 171.089844 L 139.722656 171.089844 L 139.722656 173.941406 L 116.910156 173.941406 Z M 148.277344 171.089844 L 176.792969 171.089844 L 176.792969 173.941406 L 148.277344 173.941406 Z M 176.792969 171.089844 L 176.792969 173.941406 L 179.644531 173.941406 L 179.644531 171.089844 Z M 176.792969 171.089844 L 176.792969 105.503906 L 179.644531 105.503906 L 179.644531 171.089844 Z M 176.792969 105.503906 L 179.644531 105.503906 L 179.644531 102.652344 L 176.792969 102.652344 Z M 176.792969 105.503906 L 105.503906 105.503906 L 105.503906 102.652344 L 176.792969 102.652344 Z M 105.503906 105.503906 L 105.503906 102.652344 L 102.652344 102.652344 L 102.652344 105.503906 Z M 105.503906 105.503906 L 105.503906 182.496094 L 102.652344 182.496094 L 102.652344 105.503906 Z M 105.503906 182.496094 L 102.652344 182.496094 L 102.652344 185.347656 L 105.503906 185.347656 Z M 105.503906 182.496094 L 139.722656 182.496094 L 139.722656 185.347656 L 105.503906 185.347656 Z M 148.277344 182.496094 L 188.199219 182.496094 L 188.199219 185.347656 L 148.277344 185.347656 Z M 188.199219 182.496094 L 188.199219 185.347656 L 191.050781 185.347656 L 191.050781 182.496094 Z M 188.199219 182.496094 L 188.199219 94.097656 L 191.050781 94.097656 L 191.050781 182.496094 Z M 188.199219 94.097656 L 191.050781 94.097656 L 191.050781 91.246094 L 188.199219 91.246094 Z M 188.199219 94.097656 L 94.097656 94.097656 L 94.097656 91.246094 L 188.199219 91.246094 Z M 94.097656 94.097656 L 94.097656 91.246094 L 91.246094 91.246094 L 91.246094 94.097656 Z M 94.097656 94.097656 L 94.097656 193.902344 L 91.246094 193.902344 L 91.246094 94.097656 Z M 94.097656 193.902344 L 91.246094 193.902344 L 91.246094 196.753906 L 94.097656 196.753906 Z M 94.097656 193.902344 L 139.722656 193.902344 L 139.722656 196.753906 L 94.097656 196.753906 Z M 148.277344 193.902344 L 199.605469 193.902344 L 199.605469 196.753906 L 148.277344 196.753906 Z M 199.605469 193.902344 L 199.605469 196.753906 L 202.457031 196.753906 L 202.457031 193.902344 Z M 199.605469 193.902344 L 199.605469 82.691406 L 202.457031 82.691406 L 202.457031 193.902344 Z M 199.605469 82.691406 L 202.457031 82.691406 L 202.457031 79.839844 L 199.605469 79.839844 Z M 199.605469 82.691406 L 82.691406 82.691406 L 82.691406 79.839844 L 199.605469 79.839844 Z M 82.691406 82.691406 L 82.691406 79.839844 L 79.839844 79.839844 L 79.839844 82.691406 Z M 82.691406 82.691406 L 82.691406 205.308594 L 79.839844 205.308594 L 79.839844 82.691406 Z M 82.691406 205.308594 L 79.839844 205.308594 L 79.839844 208.160156 L 82.691406 208.160156 Z M 82.691406 205.308594 L 139.722656 205.308594 L 139.722656 208.160156 L 82.691406 208.160156 Z M 148.277344 205.308594 L 211.011719 205.308594 L 211.011719 208.160156 L 148.277344 208.160156 Z M 211.011719 205.308594 L 211.011719 208.160156 L 213.863281 208.160156 L 213.863281 205.308594 Z M 211.011719 205.308594 L 211.011719 71.289062 L 213.863281 71.289062 L 213.863281 205.308594 Z M 211.011719 71.289062 L 213.863281 71.289062 L 213.863281 68.4375 L 211.011719 68.4375 Z M 211.011719 71.289062 L 71.289062 71.289062 L 71.289062 68.4375 L 211.011719 68.4375 Z M 71.289062 71.289062 L 71.289062 68.4375 L 68.4375 68.4375 L 68.4375 71.289062 Z M 71.289062 71.289062 L 71.289062 216.710938 L 68.4375 216.710938 L 68.4375 71.289062 Z M 71.289062 216.710938 L 68.4375 216.710938 L 68.4375 219.5625 L 71.289062 219.5625 Z M 71.289062 216.710938 L 139.722656 216.710938 L 139.722656 219.5625 L 71.289062 219.5625 Z M 148.277344 216.710938 L 222.414062 216.710938 L 222.414062 219.5625 L 148.277344 219.5625 Z M 222.414062 216.710938 L 222.414062 219.5625 L 225.265625 219.5625 L 225.265625 216.710938 Z M 222.414062 216.710938 L 222.414062 59.882812 L 225.265625 59.882812 L 225.265625 216.710938 Z M 222.414062 59.882812 L 225.265625 59.882812 L 225.265625 57.03125 L 222.414062 57.03125 Z M 222.414062 59.882812 L 59.882812 59.882812 L 59.882812 57.03125 L 222.414062 57.03125 Z M 59.882812 59.882812 L 59.882812 57.03125 L 57.03125 57.03125 L 57.03125 59.882812 Z M 59.882812 59.882812 L 59.882812 228.117188 L 57.03125 228.117188 L 57.03125 59.882812 Z M 59.882812 228.117188 L 57.03125 228.117188 L 57.03125 230.96875 L 59.882812 230.96875 Z M 59.882812 228.117188 L 139.722656 228.117188 L 139.722656 230.96875 L 59.882812 230.96875 Z M 148.277344 228.117188 L 233.820312 228.117188 L 233.820312 230.96875 L 148.277344 230.96875 Z M 233.820312 228.117188 L 233.820312 230.96875 L 236.671875 230.96875 L 236.671875 228.117188 Z M 233.820312 228.117188 L 233.820312 48.476562 L 236.671875 48.476562 L 236.671875 228.117188 Z M 233.820312 48.476562 L 236.671875 48.476562 L 236.671875 45.625 L 233.820312 45.625 Z M 233.820312 48.476562 L 48.476562 48.476562 L 48.476562 45.625 L 233.820312 45.625 Z M 48.476562 48.476562 L 48.476562 45.625 L 45.625 45.625 L 45.625 48.476562 Z M 48.476562 48.476562 L 48.476562 239.523438 L 45.625 239.523438 L 45.625 48.476562 Z M 48.476562 239.523438 L 45.625 239.523438 L 45.625 242.375 L 48.476562 242.375 Z M 48.476562 239.523438 L 139.722656 239.523438 L 139.722656 242.375 L 48.476562 242.375 Z M 148.277344 239.523438 L 245.226562 239.523438 L 245.226562 242.375 L 148.277344 242.375 Z M 245.226562 239.523438 L 245.226562 242.375 L 248.078125 242.375 L 248.078125 239.523438 Z M 245.226562 239.523438 L 245.226562 37.070312 L 248.078125 37.070312 L 248.078125 239.523438 Z M 245.226562 37.070312 L 248.078125 37.070312 L 248.078125 34.21875 L 245.226562 34.21875 Z M 245.226562 37.070312 L 37.070312 37.070312 L 37.070312 34.21875 L 245.226562 34.21875 Z M 37.070312 37.070312 L 37.070312 34.21875 L 34.21875 34.21875 L 34.21875 37.070312 Z M 37.070312 37.070312 L 37.070312 250.929688 L 34.21875 250.929688 L 34.21875 37.070312 Z M 37.070312 250.929688 L 34.21875 250.929688 L 34.21875 253.78125 L 37.070312 253.78125 Z M 37.070312 250.929688 L 139.722656 250.929688 L 139.722656 253.78125 L 37.070312 253.78125 Z M 148.277344 250.929688 L 256.632812 250.929688 L 256.632812 253.78125 L 148.277344 253.78125 Z M 256.632812 250.929688 L 256.632812 253.78125 L 259.484375 253.78125 L 259.484375 250.929688 Z M 256.632812 250.929688 L 256.632812 25.664062 L 259.484375 25.664062 L 259.484375 250.929688 Z M 256.632812 25.664062 L 259.484375 25.664062 L 259.484375 22.8125 L 256.632812 22.8125 Z M 256.632812 25.664062 L 25.664062 25.664062 L 25.664062 22.8125 L 256.632812 22.8125 Z M 25.664062 25.664062 L 25.664062 22.8125 L 22.8125 22.8125 L 22.8125 25.664062 Z M 25.664062 25.664062 L 25.664062 262.335938 L 22.8125 262.335938 L 22.8125 25.664062 Z M 25.664062 262.335938 L 22.8125 262.335938 L 22.8125 265.1875 L 25.664062 265.1875 Z M 25.664062 262.335938 L 139.722656 262.335938 L 139.722656 265.1875 L 25.664062 265.1875 Z M 148.277344 262.335938 L 268.039062 262.335938 L 268.039062 265.1875 L 148.277344 265.1875 Z M 268.039062 262.335938 L 268.039062 265.1875 L 270.890625 265.1875 L 270.890625 262.335938 Z M 268.039062 262.335938 L 268.039062 14.257812 L 270.890625 14.257812 L 270.890625 262.335938 Z M 268.039062 14.257812 L 270.890625 14.257812 L 270.890625 11.40625 L 268.039062 11.40625 Z M 268.039062 14.257812 L 14.257812 14.257812 L 14.257812 11.40625 L 268.039062 11.40625 Z M 14.257812 14.257812 L 14.257812 11.40625 L 11.40625 11.40625 L 11.40625 14.257812 Z M 14.257812 14.257812 L 14.257812 273.742188 L 11.40625 273.742188 L 11.40625 14.257812 Z M 14.257812 273.742188 L 11.40625 273.742188 L 11.40625 276.59375 L 14.257812 276.59375 Z M 14.257812 273.742188 L 139.722656 273.742188 L 139.722656 276.59375 L 14.257812 276.59375 Z M 148.277344 273.742188 L 279.445312 273.742188 L 279.445312 276.59375 L 148.277344 276.59375 Z M 279.445312 273.742188 L 279.445312 276.59375 L 282.296875 276.59375 L 282.296875 273.742188 Z M 279.445312 273.742188 L 279.445312 2.851562 L 282.296875 2.851562 L 282.296875 273.742188 Z M 279.445312 2.851562 L 282.296875 2.851562 L 282.296875 0 L 279.445312 0 Z M 279.445312 2.851562 L 2.851562 2.851562 L 2.851562 0 L 279.445312 0 Z M 2.851562 2.851562 L 2.851562 0 L 0 0 L 0 2.851562 Z M 2.851562 2.851562 L 2.851562 285.148438 L 0 285.148438 L 0 2.851562 Z M 2.851562 285.148438 L 0 285.148438 L 0 288 L 2.851562 288 Z M 2.851562 285.148438 L 7.128906 285.148438 L 7.128906 288 L 2.851562 288 Z M 2.851562 285.148438 "/>
<path style=" stroke:none;fill-rule:nonzero;fill:rgb(0%,0%,0%);fill-opacity:0.5;" d="M 138.296875 151.128906 L 139.722656 151.128906 L 139.722656 148.277344 L 138.296875 148.277344 Z M 148.277344 151.128906 L 149.703125 151.128906 L 149.703125 148.277344 L 148.277344 148.277344 Z M 138.296875 162.535156 L 139.722656 162.535156 L 139.722656 159.683594 L 138.296875 159.683594 Z M 148.277344 162.535156 L 149.703125 162.535156 L 149.703125 159.683594 L 148.277344 159.683594 Z M 138.296875 173.941406 L 139.722656 173.941406 L 139.722656 171.089844 L 138.296875 171.089844 Z M 148.277344 173.941406 L 149.703125 173.941406 L 149.703125 171.089844 L 148.277344 171.089844 Z M 138.296875 185.347656 L 139.722656 185.347656 L 139.722656 182.496094 L 138.296875 182.496094 Z M 148.277344 185.347656 L 149.703125 185.347656 L 149.703125 182.496094 L 148.277344 182.496094 Z M 138.296875 196.753906 L 139.722656 196.753906 L 139.722656 193.902344 L 138.296875 193.902344 Z M 148.277344 196.753906 L 149.703125 196.753906 L 149.703125 193.902344 L 148.277344 193.902344 Z M 138.296875 208.160156 L 139.722656 208.160156 L 139.722656 205.308594 L 138.296875 205.308594 Z M 148.277344 208.160156 L 149.703125 208.160156 L 149.703125 205.308594 L 148.277344 205.308594 Z M 138.296875 219.5625 L 139.722656 219.5625 L 139.722656 216.710938 L 138.296875 216.710938 Z M 148.277344 219.5625 L 149.703125 219.5625 L 149.703125 216.710938 L 148.277344 216.710938 Z M 138.296875 230.96875 L 139.722656 230.96875 L 139.722656 228.117188 L 138.296875 228.117188 Z M 148.277344 230.96875 L 149.703125 230.96875 L 149.703125 228.117188 L 148.277344 228.117188 Z M 138.296875 242.375 L 139.722656 242.375 L 139.722656 239.523438 L 138.296875 239.523438 Z M 148.277344 242.375 L 149.703125 242.375 L 149.703125 239.523438 L 148.277344 239.523438 Z M 138.296875 253.78125 L 139.722656 253.78125 L 139.722656 250.929688 L 138.296875 250.929688 Z M 148.277344 253.78125 L 149.703125 253.78125 L 149.703125 250.929688 L 148.277344 250.929688 Z M 138.296875 265.1875 L 139.722656 265.1875 L 139.722656 262.335938 L 138.296875 262.335938 Z M 148.277344 265.1875 L 149.703125 265.1875 L 149.703125 262.335938 L 148.277344 262.335938 Z M 138.296875 276.59375 L 139.722656 276.59375 L 139.722656 273.742188 L 138.296875 273.742188 Z M 148.277344 276.59375 L 149.703125 276.59375 L 149.703125 273.742188 L 148.277344 273.742188 Z M 148.277344 276.59375 "/>
<path style=" stroke:none;fill-rule:nonzero;fill:rgb(10%,0%,0%);fill-opacity:0.5;" d="M 148.082031 151.128906 L 148.277344 151.128906 L 148.277344 148.277344 L 148.082031 148.277344 Z M 139.722656 151.128906 L 139.917969 151.128906 L 139.917969 148.277344 L 139.722656 148.277344 Z M 148.082031 162.535156 L 148.277344 162.535156 L 148.277344 159.683594 L 148.082031 159.683594 Z M 139.722656 162.535156 L 139.917969 162.535156 L 139.917969 159.683594 L 139.722656 159.683594 Z M 148.082031 173.941406 L 148.277344 173.941406 L 148.277344 171.089844 L 148.082031 171.089844 Z M 139.722656 173.941406 L 139.917969 173.941406 L 139.917969 171.089844 L 139.722656 171.089844 Z M 148.082031 185.347656 L 148.277344 185.347656 L 148.277344 182.496094 L 148.082031 182.496094 Z M 139.722656 185.347656 L 139.917969 185.347656 L 139.917969 182.496094 L 139.722656 182.496094 Z M 148.082031 196.753906 L 148.277344 196.753906 L 148.277344 193.902344 L 148.082031 193.902344 Z M 139.722656 196.753906 L 139.917969 196.753906 L 139.917969 193.902344 L 139.722656 193.902344 Z M 148.082031 208.160156 L 148.277344 208.160156 L 148.277344 205.308594 L 148.082031 205.308594 Z M 139.722656 208.160156 L 139.917969 208.160156 L 139.917969 205.308594 L 139.722656 205.308594 Z M 148.082031 219.5625 L 148.277344 219.5625 L 148.277344 216.710938 L 148.082031 216.710938 Z M 139.722656 219.5625 L 139.917969 219.5625 L 139.917969 216.710938 L 139.722656 216.710938 Z M 148.082031 230.96875 L 148.277344 230.96875 L 148.277344 228.117188 L 148.082031 228.117188 Z M 139.722656 230.96875 L 139.917969 230.96875 L 139.917969 228.117188 L 139.722656 228.117188 Z M 148.082031 242.375 L 148.277344 242.375 L 148.277344 239.523438 L 148.082031 239.523438 Z M 139.722656 242.375 L 139.917969 242.375 L 139.917969 239.523438 L 139.722656 239.523438 Z M 148.082031 253.78125 L 148.277344 253.78125 L 148.277344 250.929688 L 148.082031 250.929688 Z M 139.722656 253.78125 L 139.917969 253.78125 L 139.917969 250.929688 L 139.722656 250.929688 Z M 148.082031 265.1875 L 148.277344 265.1875 L 148.277344 262.335938 L 148.082031 262.335938 Z M 139.722656 265.1875 L 139.917969 265.1875 L 139.917969 262.335938 L 139.722656 262.335938 Z M 148.082031 276.59375 L 148.277344 276.59375 L 148.277344 273.742188 L 148.082031 273.742188 Z M 139.722656 276.59375 L 139.917969 276.59375 L 139.917969 273.742188 L 139.722656 273.742188 Z M 139.722656 276.59375 "/>
<path style=" stroke:none;fill-rule:nonzero;fill:rgb(20%,0%,0%);fill-opacity:0.5;" d="M 147.875 151.128906 L 148.082031 151.128906 L 148.082031 148.277344 L 147.875 148.277344 Z M 139.917969 151.128906 L 140.125 151.128906 L 140.125 148.277344 L 139.917969 148.277344 Z M 147.875 162.535156 L 148.082031 162.535156 L 148.082031 159.683594 L 147.875 159.683594 Z M 139.917969 162.535156 L 140.125 162.535156 L 140.125 159.683594 L 139.917969 159.683594 Z M 147.875 173.941406 L 148.082031 173.941406 L 148.082031 171.089844 L 147.875 171.089844 Z M 139.917969 173.941406 L 140.125 173.941406 L 140.125 171.089844 L 139.917969 171.089844 Z M 147.875 185.347656 L 148.082031 185.347656 L 148.082031 182.496094 L 147.875 182.496094 Z M 139.917969 185.347656 L 140.125 185.347656 L 140.125 182.496094 L 139.917969 182.496094 Z M 147.875 196.753906 L 148.082031 196.753906 L 148.082031 193.902344 L 147.875 193.902344 Z M 139.917969 196.753906 L 140.125 196.753906 L 140.125 193.902344 L 139.917969 193.902344 Z M 147.875 208.160156 L 148.082031 208.160156 L 148.082031 205.308594 L 147.875 205.308594 Z M 139.917969 208.160156 L 140.125 208.160156 L 140.125 205.308594 L 139.917969 205.308594 Z M 147.875 219.5625 L 148.082031 219.5625 L 148.082031 216.710938 L 147.875 216.710938 Z M 139.917969 219.5625 L 140.125 219.5625 L 140.125 216.710938 L 139.917969 216.710938 Z M 147.875 230.96875 L 148.082031 230.96875 L 148.082031 228.117188 L 147.875 228.117188 Z M 139.917969 230.96875 L 140.125 230.96875 L 140.125 228.117188 L 139.917969 228.117188 Z M 147.875 242.375 L 148.082031 242.375 L 148.082031 239.523438 L 147.875 239.523438 Z M 139.917969 242.375 L 140.125 242.375 L 140.125 239.523438 L 139.917969 239.523438 Z M 147.875 253.78125 L 148.082031 253.78125 L 148.082031 250.929688 L 147.875 250.929688 Z M 139.917969 253.78125 L 140.125 253.78125 L 140.125 250.929688 L 139.917969 250.929688 Z M 147.875 265.1875 L 148.082031 265.1875 L 148.082031 262.335938 L 147.875 262.335938 Z M 139.917969 265.1875 L 140.125 265.1875 L 140.125 262.335938 L 139.917969 262.335938 Z M 147.875 276.59375 L 148.082031 276.59375 L 148.082031 273.742188 L 147.875 273.742188 Z M 139.917969 276.59375 L 140.125 276.59375 L 140.125 273.742188 L 139.917969 273.742188 Z M 139.917969 276.59375 "/>
<path style=" stroke:none;fill-rule:nonzero;fill:rgb(30%,0%,0%);fill-opacity:0.5;" d="M 147.648438 151.128906 L 147.875 151.128906 L 147.875 148.277344 L 147.648438 148.277344 Z M 140.125 151.128906 L 140.351562 151.128906 L 140.351562 148.277344 L 140.125 148.277344 Z M 147.648438 162.535156 L 147.875 162.535156 L 147.875 159.683594 L 147.648438 159.683594 Z M 140.125 162.535156 L 140.351562 162.535156 L 140.351562 159.683594 L 140.125 159.683594 Z M 147.648438 173.941406 L 147.875 173.941406 L 147.875 171.089844 L 147.648438 171.089844 Z M 140.125 173.941406 L 140.351562 173.941406 L 140.351562 171.089844 L 140.125 171.089844 Z M 147.648438 185.347656 L 147.875 185.347656 L 147.875 182.496094 L 147.648438 182.496094 Z M 140.125 185.347656 L 140.351562 185.347656 L 140.351562 182.496094 L 140.125 182.496094 Z M 147.648438 196.753906 L 147.875 196.753906 L 147.875 193.902344 L 147.648438 193.902344 Z M 140.125 196.753906 L 140.351562 196.753906 L 140.351562 193.902344 L 140.125 193.902344 Z M 147.648438 208.160156 L 147.875 208.160156 L 147.875 205.308594 L 147.648438 205.308594 Z M 140.125 208.160156 L 140.351562 208.160156 L 140.351562 205.308594 L 140.125 205.308594 Z M 147.648438 219.5625 L 147.875 219.5625 L 147.875 216.710938 L 147.648438 216.710938 Z M 140.125 219.5625 L 140.351562 219.5625 L 140.351562 216.710938 L 140.125 216.710938 Z M 147.648438 230.96875 L 147.875 230.96875 L 147.875 228.117188 L 147.648438 228.117188 Z M 140.125 230.96875 L 140.351562 230.96875 L 140.351562 228.117188 L 140.125 228.117188 Z M 147.648438 242.375 L 147.875 242.375 L 147.875 239.523438 L 147.648438 239.523438 Z M 140.125 242.375 L 140.351562 242.375 L 140.351562 239.523438 L 140.125 239.523438 Z M 147.648438 253.78125 L 147.875 253.78125 L 147.875 250.929688 L 147.648438 250.929688 Z M 140.125 253.78125 L 140.351562 253.78125 L 140.351562 250.929688 L 140.125 250.929688 Z M 147.648438 265.1875 L 147.875 265.1875 L 147.875 262.335938 L 147.648438 262.335938 Z M 140.125 265.1875 L 140.351562 265.1875 L 140.351562 262.335938 L 140.125 262.335938 Z M 147.648438 276.59375 L 147.875 276.59375 L 147.875 273.742188 L 147.648438 273.742188 Z M 140.125 276.59375 L 140.351562 276.59375 L 140.351562 273.742188 L 140.125 273.742188 Z M 140.125 276.59375 "/>
<path style=" stroke:none;fill-rule:nonzero;fill:rgb(40%,0%,0%);fill-opacity:0.5;" d="M 147.398438 151.128906 L 147.648438 151.128906 L 147.648438 148.277344 L 147.398438 148.277344 Z M 140.351562 151.128906 L 140.601562 151.128906 L 140.601562 148.277344 L 140.351562 148.277344 Z M 147.398438 162.535156 L 147.648438 162.535156 L 147.648438 159.683594 L 147.398438 159.683594 Z M 140.351562 162.535156 L 140.601562 162.535156 L 140.601562 159.683594 L 140.351562 159.683594 Z M 147.398438 173.941406 L 147.648438 173.941406 L 147.648438 171.089844 L 147.398438 171.089844 Z M 140.351562 173.941406 L 140.601562 173.941406 L 140.601562 171.089844 L 140.351562 171.089844 Z M 147.398438 185.347656 L 147.648438 185.347656 L 147.648438 182.496094 L 147.398438 182.496094 Z M 140.351562 185.347656 L 140.601562 185.347656 L 140.601562 182.496094 L 140.351562 182.496094 Z M 147.398438 196.753906 L 147.648438 196.753906 L 147.648438 193.902344 L 147.398438 193.902344 Z M 140.351562 196.753906 L 140.601562 196.753906 L 140.601562 193.902344 L 140.351562 193.902344 Z M 147.398438 208.160156 L 147.648438 208.160156 L 147.648438 205.308594 L 147.398438 205.308594 Z M 140.351562 208.160156 L 140.601562 208.160156 L 140.601562 205.308594 L 140.351562 205.308594 Z M 147.398438 219.5625 L 147.648438 219.5625 L 147.648438 216.710938 L 147.398438 216.710938 Z M 140.351562 219.5625 L 140.601562 219.5625 L 140.601562 216.710938 L 140.351562 216.710938 Z M 147.398438 230.96875 L 147.648438 230.96875 L 147.648438 228.117188 L 147.398438 228.117188 Z M 140.351562 230.96875 L 140.601562 230.96875 L 140.601562 228.117188 L 140.351562 228.117188 Z M 147.398438 242.375 L 147.648438 242.375 L 147.648438 239.523438 L 147.398438 239.523438 Z M 140.351562 242.375 L 140.601562 242.375 L 140.601562 239.523438 L 140.351562 239.523438 Z M 147.398438 253.78125 L 147.648438 253.78125 L 147.648438 250.929688 L 147.398438 250.929688 Z M 140.351562 253.78125 L 140.601562 253.78125 L 140.601562 250.929688 L 140.351562 250.929688 Z M 147.398438 265.1875 L 147.648438 265.1875 L 147.648438 262.335938 L 147.398438 262.335938 Z M 140.351562 265.1875 L 140.601562 265.1875 L 140.601562 262.335938 L 140.351562 262.335938 Z M 147.398438 276.59375 L 147.648438 276.59375 L 147.648438 273.742188 L 147.398438 273.742188 Z M 140.351562 276.59375 L 140.601562 276.59375 L 140.601562 273.742188 L 140.351562 273.742188 Z M 140.351562 276.59375 "/>
<path style=" stroke:none;fill-rule:nonzero;fill:rgb(50%,0%,0%);fill-opacity:0.5;" d="M 147.125 151.128906 L 147.398438 151.128906 L 147.398438 148.277344 L 147.125 148.277344 Z M 140.601562 151.128906 L 140.875 151.128906 L 140.875 148.277344 L 140.601562 148.277344 Z M 147.125 162.535156 L 147.398438 162.535156 L 147.398438 159.683594 L 147.125 159.683594 Z M 140.601562 162.535156 L 140.875 162.535156 L 140.875 159.683594 L 140.601562 159.683594 Z M 147.125 173.941406 L 147.398438 173.941406 L 147.398438 171.089844 L 147.125 171.089844 Z M 140.601562 173.941406 L 140.875 173.941406 L 140.875 171.089844 L 140.601562 171.089844 Z M 147.125 185.347656 L 147.398438 185.347656 L 147.398438 182.496094 L 147.125 182.496094 Z M 140.601562 185.347656 L 140.875 185.347656 L 140.875 182.496094 L 140.601562 182.496094 Z M 147.125 196.753906 L 147.398438 196.753906 L 147.398438 193.902344 L 147.125 193.902344 Z M 140.601562 196.753906 L 140.875 196.753906 L 140.875 193.902344 L 140.601562 193.902344 Z M 147.125 208.160156 L 147.398438 208.160156 L 147.398438 205.308594 L 147.125 205.308594 Z M 140.601562 208.160156 L 140.875 208.160156 L 140.875 205.308594 L 140.601562 205.308594 Z M 147.125 219.5625 L 147.398438 219.5625 L 147.398438 216.710938 L 147.125 216.710938 Z M 140.601562 219.5625 L 140.875 219.5625 L 140.875 216.710938 L 140.601562 216.710938 Z M 147.125 230.96875 L 147.398438 230.96875 L 147.398438 228.117188 L 147.125 228.117188 Z M 140.601562 230.96875 L 140.875 230.96875 L 140.875 228.117188 L 140.601562 228.117188 Z M 147.125 242.375 L 147.398438 242.375 L 147.398438 239.523438 L 147.125 239.523438 Z M 140.601562 242.375 L 140.875 242.375 L 140.875 239.523438 L 140.601562 239.523438 Z M 147.125 253.78125 L 147.398438 253.78125 L 147.398438 250.929688 L 147.125 250.929688 Z M 140.601562 253.78125 L 140.875 253.78125 L 140.875 250.929688 L 140.601562 250.929688 Z M 147.125 265.1875 L 147.398438 265.1875 L 147.398438 262.335938 L 147.125 262.335938 Z M 140.601562 265.1875 L 140.875 265.1875 L 140.875 262.335938 L 140.601562 262.335938 Z M 147.125 276.59375 L 147.398438 276.59375 L 147.398438 273.742188 L 147.125 273.742188 Z M 140.601562 276.59375 L 140.875 276.59375 L 140.875 273.742188 L 140.601562 273.742188 Z M 140.601562 276.59375 "/>
<path style=" stroke:none;fill-rule:nonzero;fill:rgb(60%,0%,0%);fill-opacity:0.5;" d="M 146.816406 151.128906 L 147.125 151.128906 L 147.125 148.277344 L 146.816406 148.277344 Z M 140.875 151.128906 L 141.183594 151.128906 L 141.183594 148.277344 L 140.875 148.277344 Z M 146.816406 162.535156 L 147.125 162.535156 L 147.125 159.683594 L 146.816406 159.683594 Z M 140.875 162.535156 L 141.183594 162.535156 L 141.183594 159.683594 L 140.875 159.683594 Z M 146.816406 173.941406 L 147.125 173.941406 L 147.125 171.089844 L 146.816406 171.089844 Z M 140.875 173.941406 L 141.183594 173.941406 L 141.183594 171.089844 L 140.875 171.089844 Z M 146.816406 185.347656 L 147.125 185.347656 L 147.125 182.496094 L 146.816406 182.496094 Z M 140.875 185.347656 L 141.183594 185.347656 L 141.183594 182.496094 L 140.875 182.496094 Z M 146.816406 196.753906 L 147.125 196.753906 L 147.125 193.902344 L 146.816406 193.902344 Z M 140.875 196.753906 L 141.183594 196.753906 L 141.183594 193.902344 L 140.875 193.902344 Z M 146.816406 208.160156 L 147.125 208.160156 L 147.125 205.308594 L 146.816406 205.308594 Z M 140.875 208.160156 L 141.183594 208.160156 L 141.183594 205.308594 L 140.875 205.308594 Z M 146.816406 219.5625 L 147.125 219.5625 L 147.125 216.710938 L 146.816406 216.710938 Z M 140.875 219.5625 L 141.183594 219.5625 L 141.183594 216.710938 L 140.875 216.710938 Z M 146.816406 230.96875 L 147.125 230.96875 L 147.125 228.117188 L 146.816406 228.117188 Z M 140.875 230.96875 L 141.183594 230.96875 L 141.183594 228.117188 L 140.875 228.117188 Z M 146.816406 242.375 L 147.125 242.375 L 147.125 239.523438 L 146.816406 239.523438 Z M 140.875 242.375 L 141.183594 242.375 L 141.183594 239.523438 L 140.875 239.523438 Z M 146.816406 253.78125 L 147.125 253.78125 L 147.125 250.929688 L 146.816406 250.929688 Z M 140.875 253.78125 L 141.183594 253.78125 L 141.183594 250.929688 L 140.875 250.929688 Z M 146.816406 265.1875 L 147.125 265.1875 L 147.125 262.335938 L 146.816406 262.335938 Z M 140.875 265.1875 L 141.183594 265.1875 L 141.183594 262.335938 L 140.875 262.335938 Z M 146.816406 276.59375 L 147.125 276.59375 L 147.125 273.742188 L 146.816406 273.742188 Z M 140.875 276.59375 L 141.183594 276.59375 L 141.183594 273.742188 L 140.875 273.742188 Z M 140.875 276.59375 "/>
<path style=" stroke:none;fill-rule:nonzero;fill:rgb(70%,0%,0%);fill-opacity:0.5;" d="M 146.457031 151.128906 L 146.816406 151.128906 L 146.816406 148.277344 L 146.457031 148.277344 Z M 141.183594 151.128906 L 141.542969 151.128906 L 141.542969 148.277344 L 141.183594 148.277344 Z M 146.457031 162.535156 L 146.816406 162.535156 L 146.816406 159.683594 L 146.457031 159.683594 Z M 141.183594 162.535156 L 141.542969 162.535156 L 141.542969 159.683594 L 141.183594 159.683594 Z M 146.457031 173.941406 L 146.816406 173.941406 L 146.816406 171.089844 L 146.457031 171.089844 Z M 141.183594 173.941406 L 141.542969 173.941406 L 141.542969 171.089844 L 141.183594 171.089844 Z M 146.457031 185.347656 L 146.816406 185.347656 L 146.816406 182.496094 L 146.457031 182.496094 Z M 141.183594 185.347656 L 141.542969 185.347656 L 141.542969 182.496094 L 141.183594 182.496094 Z M 146.457031 196.753906 L 146.816406 196.753906 L 146.816406 193.902344 L 146.457031 193.902344 Z M 141.183594 196.753906 L 141.542969 196.753906 L 141.542969 193.902344 L 141.183594 193.902344 Z M 146.457031 208.160156 L 146.816406 208.160156 L 146.816406 205.308594 L 146.457031 205.308594 Z M 141.183594 208.160156 L 141.542969 208.160156 L 141.542969 205.308594 L 141.183594 205.308594 Z M 146.457031 219.5625 L 146.816406 219.5625 L 146.816406 216.710938 L 146.457031 216.710938 Z M 141.183594 219.5625 L 141.542969 219.5625 L 141.542969 216.710938 L 141.183594 216.710938 Z M 146.457031 230.96875 L 146.816406 230.96875 L 146.816406 228.117188 L 146.457031 228.117188 Z M 141.183594 230.96875 L 141.542969 230.96875 L 141.542969 228.117188 L 141.183594 228.117188 Z M 146.457031 242.375 L 146.816406 242.375 L 146.816406 239.523438 L 146.457031 239.523438 Z M 141.183594 242.375 L 141.542969 242.375 L 141.542969 239.523438 L 141.183594 239.523438 Z M 146.457031 253.78125 L 146.816406 253.78125 L 146.816406 250.929688 L 146.457031 250.929688 Z M 141.183594 253.78125 L 141.542969 253.78125 L 141.542969 250.929688 L 141.183594 250.929688 Z M 146.457031 265.1875 L 146.816406 265.1875 L 146.816406 262.335938 L 146.457031 262.335938 Z M 141.183594 265.1875 L 141.542969 265.1875 L 141.542969 262.335938 L 141.183594 262.335938 Z M 146.457031 276.59375 L 146.816406 276.59375 L 146.816406 273.742188 L 146.457031 273.742188 Z M 141.183594 276.59375 L 141.542969 276.59375 L 141.542969 273.742188 L 141.183594 273.742188 Z M 141.183594 276.59375 "/>
<path style=" stroke:none;fill-rule:nonzero;fill:rgb(80%,0%,0%);fill-opacity:0.5;" d="M 146.019531 151.128906 L 146.457031 151.128906 L 146.457031 148.277344 L 146.019531 148.277344 Z M 141.542969 151.128906 L 141.980469 151.128906 L 141.980469 148.277344 L 141.542969 148.277344 Z M 146.019531 162.535156 L 146.457031 162.535156 L 146.457031 159.683594 L 146.019531 159.683594 Z M 141.542969 162.535156 L 141.980469 162.535156 L 141.980469 159.683594 L 141.542969 159.683594 Z M 146.019531 173.941406 L 146.457031 173.941406 L 146.457031 171.089844 L 146.019531 171.089844 Z M 141.542969 173.941406 L 141.980469 173.941406 L 141.980469 171.089844 L 141.542969 171.089844 Z M 146.019531 185.347656 L 146.457031 185.347656 L 146.457031 182.496094 L 146.019531 182.496094 Z M 141.542969 185.347656 L 141.980469 185.347656 L 141.980469 182.496094 L 141.542969 182.496094 Z M 146.019531 196.753906 L 146.457031 196.753906 L 146.457031 193.902344 L 146.019531 193.902344 Z M 141.542969 196.753906 L 141.980469 196.753906 L 141.980469 193.902344 L 141.542969 193.902344 Z M 146.019531 208.160156 L 146.457031 208.160156 L 146.457031 205.308594 L 146.019531 205.308594 Z M 141.542969 208.160156 L 141.980469 208.160156 L 141.980469 205.308594 L 141.542969 205.308594 Z M 146.019531 219.5625 L 146.457031 219.5625 L 146.457031 216.710938 L 146.019531 216.710938 Z M 141.542969 219.5625 L 141.980469 219.5625 L 141.980469 216.710938 L 141.542969 216.710938 Z M 146.019531 230.96875 L 146.457031 230.96875 L 146.457031 228.117188 L 146.019531 228.117188 Z M 141.542969 230.96875 L 141.980469 230.96875 L 141.980469 228.117188 L 141.542969 228.117188 Z M 146.019531 242.375 L 146.457031 242.375 L 146.457031 239.523438 L 146.019531 239.523438 Z M 141.542969 242.375 L 141.980469 242.375 L 141.980469 239.523438 L 141.542969 239.523438 Z M 146.019531 253.78125 L 146.457031 253.78125 L 146.457031 250.929688 L 146.019531 250.929688 Z M 141.542969 253.78125 L 141.980469 253.78125 L 141.980469 250.929688 L 141.542969 250.929688 Z M 146.019531 265.1875 L 146.457031 265.1875 L 146.457031 262.335938 L 146.019531 262.335938 Z M 141.542969 265.1875 L 141.980469 265.1875 L 141.980469 262.335938 L 141.542969 262.335938 Z M 146.019531 276.59375 L 146.457031 276.59375 L 146.457031 273.742188 L 146.019531 273.742188 Z M 141.542969 276.59375 L 141.980469 276.59375 L 141.980469 273.742188 L 141.542969 273.742188 Z M 141.542969 276.59375 "/>
<path style=" stroke:none;fill-rule:nonzero;fill:rgb(90%,0%,0%);fill-opacity:0.5;" d="M 145.441406 151.128906 L 146.019531 151.128906 L 146.019531 148.277344 L 145.441406 148.277344 Z M 141.980469 151.128906 L 142.558594 151.128906 L 142.558594 148.277344 L 141.980469 148.277344 Z M 145.441406 162.535156 L 146.019531 162.535156 L 146.019531 159.683594 L 145.441406 159.683594 Z M 141.980469 162.535156 L 142.558594 162.535156 L 142.558594 159.683594 L 141.980469 159.683594 Z M 145.441406 173.941406 L 146.019531 173.941406 L 146.019531 171.089844 L 145.441406 171.089844 Z M 141.980469 173.941406 L 142.558594 173.941406 L 142.558594 171.089844 L 141.980469 171.089844 Z M 145.441406 185.347656 L 146.019531 185.347656 L 146.019531 182.496094 L 145.441406 182.496094 Z M 141.980469 185.347656 L 142.558594 185.347656 L 142.558594 182.496094 L 141.980469 182.496094 Z M 145.441406 196.753906 L 146.019531 196.753906 L 146.019531 193.902344 L 145.441406 193.902344 Z M 141.980469 196.753906 L 142.558594 196.753906 L 142.558594 193.902344 L 141.980469 193.902344 Z M 145.441406 208.160156 L 146.019531 208.160156 L 146.019531 205.308594 L 145.441406 205.308594 Z M 141.980469 208.160156 L 142.558594 208.160156 L 142.558594 205.308594 L 141.980469 205.308594 Z M 145.441406 219.5625 L 146.019531 219.5625 L 146.019531 216.710938 L 145.441406 216.710938 Z M 141.980469 219.5625 L 142.558594 219.5625 L 142.558594 216.710938 L 141.980469 216.710938 Z M 145.441406 230.96875 L 146.019531 230.96875 L 146.019531 228.117188 L 145.441406 228.117188 Z M 141.980469 230.96875 L 142.558594 230.96875 L 142.558594 228.117188 L 141.980469 228.117188 Z M 145.441406 242.375 L 146.019531 242.375 L 146.019531 239.523438 L 145.441406 239.523438 Z M 141.980469 242.375 L 142.558594 242.375 L 142.558594 239.523438 L 141.980469 239.523438 Z M 145.441406 253.78125 L 146.019531 253.78125 L 146.019531 250.929688 L 145.441406 250.929688 Z M 141.980469 253.78125 L 142.558594 253.78125 L 142.558594 250.929688 L 141.980469 250.929688 Z M 145.441406 265.1875 L 146.019531 265.1875 L 146.019531 262.335938 L 145.441406 262.335938 Z M 141.980469 265.1875 L 142.558594 265.1875 L 142.558594 262.335938 L 141.980469 262.335938 Z M 145.441406 276.59375 L 146.019531 276.59375 L 146.019531 273.742188 L 145.441406 273.742188 Z M 141.980469 276.59375 L 142.558594 276.59375 L 142.558594 273.742188 L 141.980469 273.742188 Z M 141.980469 276.59375 "/>
<path style=" stroke:none;fill-rule:nonzero;fill:rgb(100%,0%,0%);fill-opacity:0.5;" d="M 144 151.128906 L 145.441406 151.128906 L 145.441406 148.277344 L 144 148.277344 Z M 142.558594 151.128906 L 144 151.128906 L 144 148.277344 L 142.558594 148.277344 Z M 144 162.535156 L 145.441406 162.535156 L 145.441406 159.683594 L 144 159.683594 Z M 142.558594 162.535156 L 144 162.535156 L 144 159.683594 L 142.558594 159.683594 Z M 144 173.941406 L 145.441406 173.941406 L 145.441406 171.089844 L 144 171.089844 Z M 142.558594 173.941406 L 144 173.941406 L 144 171.089844 L 142.558594 171.089844 Z M 144 185.347656 L 145.441406 185.347656 L 145.441406 182.496094 L 144 182.496094 Z M 142.558594 185.347656 L 144 185.347656 L 144 182.496094 L 142.558594 182.496094 Z M 144 196.753906 L 145.441406 196.753906 L 145.441406 193.902344 L 144 193.902344 Z M 142.558594 196.753906 L 144 196.753906 L 144 193.902344 L 142.558594 193.902344 Z M 144 208.160156 L 145.441406 208.160156 L 145.441406 205.308594 L 144 205.308594 Z M 142.558594 208.160156 L 144 208.160156 L 144 205.308594 L 142.558594 205.308594 Z M 144 219.5625 L 145.441406 219.5625 L 145.441406 216.710938 L 144 216.710938 Z M 142.558594 219.5625 L 144 219.5625 L 144 216.710938 L 142.558594 216.710938 Z M 144 230.96875 L 145.441406 230.96875 L 145.441406 228.117188 L 144 228.117188 Z M 142.558594 230.96875 L 144 230.96875 L 144 228.117188 L 142.558594 228.117188 Z M 144 242.375 L 145.441406 242.375 L 145.441406 239.523438 L 144 239.523438 Z M 142.558594 242.375 L 144 242.375 L 144 239.523438 L 142.558594 239.523438 Z M 144 253.78125 L 145.441406 253.78125 L 145.441406 250.929688 L 144 250.929688 Z M 142.558594 253.78125 L 144 253.78125 L 144 250.929688 L 142.558594 250.929688 Z M 144 265.1875 L 145.441406 265.1875 L 145.441406 262.335938 L 144 262.335938 Z M 142.558594 265.1875 L 144 265.1875 L 144 262.335938 L 142.558594 262.335938 Z M 144 276.59375 L 145.441406 276.59375 L 145.441406 273.742188 L 144 273.742188 Z M 142.558594 276.59375 L 144 276.59375 L 144 273.742188 L 142.558594 273.742188 Z M 142.558594 276.59375 "/>
</g>
</svg>
