<?xml version="1.0" encoding="UTF-8"?>
<svg xmlns="http://www.w3.org/2000/svg" xmlns:xlink="http://www.w3.org/1999/xlink" width="288pt" height="288pt" viewBox="0 0 288 288" version="1.1">
<g id="surface45">
<path style=" stroke:none;fill-rule:nonzero;fill:rgb(58.823529%,80.784314%,70.588235%);fill-opacity:0.501961;" d="M 0 33.261719 L 41.320312 33.261719 L 41.320312 35.742188 L 0 35.742188 Z M 0 39.875 L 41.320312 39.875 L 41.320312 42.351562 L 0 42.351562 Z M 0 39.875 "/>
<path style=" stroke:none;fill-rule:nonzero;fill:rgb(100%,93.333333%,67.843137%);fill-opacity:0.501961;" d="M 87.597656 57.433594 L 54.542969 57.433594 L 54.542969 18.179688 L 87.597656 18.179688 L 87.597656 0 L 36.363281 0 L 36.363281 33.261719 L 41.320312 33.261719 L 41.320312 4.957031 L 82.640625 4.957031 L 82.640625 13.222656 L 49.582031 13.222656 L 49.582031 62.394531 L 82.640625 62.394531 L 82.640625 70.65625 L 41.320312 70.65625 L 41.320312 42.351562 L 36.363281 42.351562 L 36.363281 75.617188 L 87.597656 75.617188 Z M 87.597656 57.433594 "/>
<path style=" stroke:none;fill-rule:nonzero;fill:rgb(100%,80%,36.078431%);fill-opacity:0.501961;" d="M 279.734375 46.898438 L 279.734375 45.246094 L 277.257812 45.246094 L 277.257812 43.59375 L 275.605469 43.59375 L 275.605469 42.972656 L 69.003906 42.972656 L 69.003906 32.644531 L 275.605469 32.644531 L 275.605469 32.023438 L 277.257812 32.023438 L 277.257812 30.371094 L 278.910156 30.371094 L 278.910156 33.675781 L 275.605469 33.675781 L 275.605469 41.941406 L 278.910156 41.941406 L 278.910156 45.246094 L 279.734375 45.246094 L 279.734375 43.59375 L 281.390625 43.59375 L 281.390625 45.246094 L 288 45.246094 L 288 30.371094 L 281.390625 30.371094 L 281.390625 32.023438 L 279.734375 32.023438 L 279.734375 28.71875 L 288 28.71875 L 288 20.246094 L 56.609375 20.246094 L 56.609375 55.367188 L 288 55.367188 L 288 46.898438 Z M 279.734375 46.898438 "/>
</g>
</svg>
