<?xml version="1.0" encoding="UTF-8"?>
<svg xmlns="http://www.w3.org/2000/svg" xmlns:xlink="http://www.w3.org/1999/xlink" width="1000pt" height="1000pt" viewBox="0 0 1000 1000" version="1.1">
<g id="surface37">
<path style=" stroke:none;fill-rule:nonzero;fill:rgb(58.823529%,80.784314%,70.588235%);fill-opacity:0.501961;" d="M 0 115.496094 L 143.472656 115.496094 L 143.472656 124.101562 L 0 124.101562 Z M 0 138.449219 L 143.472656 138.449219 L 143.472656 147.058594 L 0 147.058594 Z M 0 138.449219 "/>
<path style=" stroke:none;fill-rule:nonzero;fill:rgb(100%,93.333333%,67.843137%);fill-opacity:0.501961;" d="M 304.160156 199.425781 L 189.382812 199.425781 L 189.382812 63.128906 L 304.160156 63.128906 L 304.160156 0 L 126.253906 0 L 126.253906 115.496094 L 143.472656 115.496094 L 143.472656 17.214844 L 286.945312 17.214844 L 286.945312 45.910156 L 172.167969 45.910156 L 172.167969 216.644531 L 286.945312 216.644531 L 286.945312 245.335938 L 143.472656 245.335938 L 143.472656 147.058594 L 126.253906 147.058594 L 126.253906 262.554688 L 304.160156 262.554688 Z M 304.160156 199.425781 "/>
<path style=" stroke:none;fill-rule:nonzero;fill:rgb(100%,80%,36.078431%);fill-opacity:0.501961;" d="M 971.304688 162.839844 L 971.304688 157.101562 L 962.699219 157.101562 L 962.699219 151.363281 L 956.957031 151.363281 L 956.957031 149.210938 L 239.597656 149.210938 L 239.597656 113.34375 L 956.957031 113.34375 L 956.957031 111.191406 L 962.699219 111.191406 L 962.699219 105.453125 L 968.4375 105.453125 L 968.4375 116.929688 L 956.957031 116.929688 L 956.957031 145.625 L 968.4375 145.625 L 968.4375 157.101562 L 971.304688 157.101562 L 971.304688 151.363281 L 977.042969 151.363281 L 977.042969 157.101562 L 1000 157.101562 L 1000 105.453125 L 977.042969 105.453125 L 977.042969 111.191406 L 971.304688 111.191406 L 971.304688 99.714844 L 1000 99.714844 L 1000 70.300781 L 196.558594 70.300781 L 196.558594 192.253906 L 1000 192.253906 L 1000 162.839844 Z M 971.304688 162.839844 "/>
</g>
</svg>
