<?xml version="1.0" encoding="UTF-8"?>
<svg xmlns="http://www.w3.org/2000/svg" xmlns:xlink="http://www.w3.org/1999/xlink" width="288pt" height="288pt" viewBox="0 0 288 288" version="1.1">
<g id="surface45">
<path style=" stroke:none;fill-rule:nonzero;fill:rgb(100%,93.333333%,67.843137%);fill-opacity:0.501961;" d="M 12.949219 84.71875 L 14.003906 85.761719 L 15.066406 86.800781 L 16.136719 87.832031 L 17.214844 88.851562 L 18.304688 89.863281 L 19.398438 90.863281 L 20.503906 91.859375 L 21.613281 92.84375 L 22.734375 93.820312 L 23.859375 94.789062 L 24.996094 95.746094 L 26.136719 96.695312 L 27.289062 97.636719 L 28.445312 98.566406 L 29.609375 99.488281 L 30.785156 100.398438 L 31.964844 101.300781 L 33.148438 102.195312 L 34.34375 103.078125 L 35.542969 103.953125 L 36.753906 104.816406 L 37.96875 105.671875 L 39.1875 106.515625 L 40.417969 107.351562 L 41.652344 108.175781 L 42.894531 108.992188 L 44.140625 109.796875 L 45.394531 110.59375 L 46.65625 111.378906 L 47.925781 112.152344 L 49.199219 112.917969 L 50.476562 113.671875 L 51.761719 114.417969 L 53.054688 115.152344 L 54.351562 115.875 L 55.652344 116.589844 L 56.960938 117.292969 L 58.277344 117.984375 L 59.59375 118.664062 L 60.921875 119.335938 L 62.25 119.996094 L 63.585938 120.648438 L 64.925781 121.285156 L 66.273438 121.914062 L 67.625 122.53125 L 68.980469 123.136719 L 70.339844 123.734375 L 71.707031 124.320312 L 73.074219 124.894531 L 74.449219 125.457031 L 75.828125 126.007812 L 77.210938 126.546875 L 78.601562 127.078125 L 79.992188 127.597656 L 81.386719 128.105469 L 82.789062 128.601562 L 84.191406 129.085938 L 85.601562 129.558594 L 87.011719 130.019531 L 88.425781 130.472656 L 89.84375 130.910156 L 91.265625 131.339844 L 92.691406 131.757812 L 94.121094 132.164062 L 95.554688 132.558594 L 96.988281 132.9375 L 98.425781 133.308594 L 99.867188 133.667969 L 101.3125 134.015625 L 102.757812 134.355469 L 104.207031 134.679688 L 105.660156 134.992188 L 107.113281 135.292969 L 108.570312 135.582031 L 110.03125 135.859375 L 111.492188 136.128906 L 112.957031 136.382812 L 114.421875 136.625 L 115.886719 136.855469 L 117.355469 137.074219 L 118.828125 137.28125 L 120.300781 137.480469 L 121.773438 137.664062 L 123.25 137.835938 L 124.726562 137.996094 L 126.203125 138.144531 L 127.683594 138.28125 L 129.164062 138.40625 L 130.644531 138.519531 L 132.125 138.621094 L 133.609375 138.710938 L 135.089844 138.785156 L 136.574219 138.851562 L 138.058594 138.90625 L 139.542969 138.945312 L 141.03125 138.976562 L 142.515625 138.996094 L 144 139 L 145.484375 138.996094 L 146.96875 138.976562 L 148.457031 138.945312 L 149.941406 138.90625 L 151.425781 138.851562 L 152.910156 138.785156 L 154.390625 138.710938 L 155.875 138.621094 L 157.355469 138.519531 L 158.835938 138.40625 L 160.316406 138.28125 L 161.796875 138.144531 L 163.273438 137.996094 L 164.75 137.835938 L 166.226562 137.664062 L 167.699219 137.480469 L 169.171875 137.28125 L 170.644531 137.074219 L 172.113281 136.855469 L 173.578125 136.625 L 175.042969 136.382812 L 176.507812 136.128906 L 177.96875 135.859375 L 179.429688 135.582031 L 180.886719 135.292969 L 182.339844 134.992188 L 183.792969 134.679688 L 185.242188 134.355469 L 186.6875 134.015625 L 188.132812 133.667969 L 189.574219 133.308594 L 191.011719 132.9375 L 192.445312 132.558594 L 193.878906 132.164062 L 195.308594 131.757812 L 196.734375 131.339844 L 198.15625 130.910156 L 199.574219 130.472656 L 200.988281 130.019531 L 202.398438 129.558594 L 203.808594 129.085938 L 205.210938 128.601562 L 206.613281 128.105469 L 208.007812 127.597656 L 209.398438 127.078125 L 210.789062 126.546875 L 212.171875 126.007812 L 213.550781 125.457031 L 214.925781 124.894531 L 216.292969 124.320312 L 217.660156 123.734375 L 219.019531 123.136719 L 220.375 122.53125 L 221.726562 121.914062 L 223.074219 121.285156 L 224.414062 120.648438 L 225.75 119.996094 L 227.078125 119.335938 L 228.40625 118.664062 L 229.722656 117.984375 L 231.039062 117.292969 L 232.347656 116.589844 L 233.648438 115.875 L 234.945312 115.152344 L 236.238281 114.417969 L 237.523438 113.671875 L 238.800781 112.917969 L 240.074219 112.152344 L 241.34375 111.378906 L 242.605469 110.59375 L 243.859375 109.796875 L 245.105469 108.992188 L 246.347656 108.175781 L 247.582031 107.351562 L 248.8125 106.515625 L 250.03125 105.671875 L 251.246094 104.816406 L 252.457031 103.953125 L 253.65625 103.078125 L 254.851562 102.195312 L 256.035156 101.300781 L 257.214844 100.398438 L 258.390625 99.488281 L 259.554688 98.566406 L 260.710938 97.636719 L 261.863281 96.695312 L 263.003906 95.746094 L 264.140625 94.789062 L 265.265625 93.820312 L 266.386719 92.84375 L 267.496094 91.859375 L 268.601562 90.863281 L 269.695312 89.863281 L 270.785156 88.851562 L 271.863281 87.832031 L 272.933594 86.800781 L 273.996094 85.761719 L 275.050781 84.71875 L 190.332031 0 L 203.4375 0 L 288 84.5625 L 286.882812 85.78125 L 285.753906 86.992188 L 284.617188 88.191406 L 283.46875 89.382812 L 282.308594 90.5625 L 281.140625 91.730469 L 279.960938 92.894531 L 278.773438 94.042969 L 277.574219 95.183594 L 276.367188 96.316406 L 275.148438 97.433594 L 273.921875 98.542969 L 272.6875 99.644531 L 271.441406 100.730469 L 270.1875 101.808594 L 268.921875 102.878906 L 267.648438 103.933594 L 266.367188 104.980469 L 265.078125 106.015625 L 263.777344 107.039062 L 262.46875 108.050781 L 261.152344 109.050781 L 259.828125 110.042969 L 258.496094 111.019531 L 257.152344 111.988281 L 255.804688 112.945312 L 254.445312 113.890625 L 253.078125 114.820312 L 251.707031 115.742188 L 250.324219 116.652344 L 248.933594 117.550781 L 247.539062 118.4375 L 246.132812 119.3125 L 244.722656 120.171875 L 243.304688 121.023438 L 241.875 121.863281 L 240.445312 122.6875 L 239.003906 123.5 L 237.554688 124.300781 L 236.101562 125.089844 L 234.640625 125.867188 L 233.175781 126.632812 L 231.703125 127.382812 L 230.222656 128.125 L 228.734375 128.851562 L 227.242188 129.5625 L 225.746094 130.265625 L 224.242188 130.953125 L 222.730469 131.628906 L 221.214844 132.292969 L 219.695312 132.941406 L 218.167969 133.578125 L 216.636719 134.203125 L 215.097656 134.8125 L 213.554688 135.410156 L 212.007812 135.996094 L 210.457031 136.566406 L 208.898438 137.125 L 207.335938 137.671875 L 205.769531 138.203125 L 204.199219 138.722656 L 202.625 139.226562 L 201.046875 139.71875 L 199.460938 140.195312 L 197.875 140.660156 L 196.285156 141.113281 L 194.6875 141.550781 L 193.089844 141.972656 L 191.488281 142.382812 L 189.882812 142.78125 L 188.273438 143.164062 L 186.660156 143.535156 L 185.042969 143.890625 L 183.425781 144.230469 L 181.804688 144.558594 L 180.179688 144.875 L 178.554688 145.175781 L 176.925781 145.460938 L 175.292969 145.734375 L 173.660156 145.992188 L 172.023438 146.238281 L 170.386719 146.46875 L 168.746094 146.6875 L 167.105469 146.890625 L 165.460938 147.082031 L 163.816406 147.253906 L 162.167969 147.417969 L 160.523438 147.566406 L 158.875 147.699219 L 157.222656 147.816406 L 155.574219 147.921875 L 153.921875 148.015625 L 152.269531 148.089844 L 150.617188 148.15625 L 148.960938 148.203125 L 147.308594 148.238281 L 145.652344 148.261719 L 144 148.265625 L 142.347656 148.261719 L 140.691406 148.238281 L 139.039062 148.203125 L 137.382812 148.15625 L 135.730469 148.089844 L 134.078125 148.015625 L 132.425781 147.921875 L 130.777344 147.816406 L 129.125 147.699219 L 127.476562 147.566406 L 125.832031 147.417969 L 124.183594 147.253906 L 122.539062 147.082031 L 120.894531 146.890625 L 119.253906 146.6875 L 117.613281 146.46875 L 115.976562 146.238281 L 114.339844 145.992188 L 112.707031 145.734375 L 111.074219 145.460938 L 109.445312 145.175781 L 107.820312 144.875 L 106.195312 144.558594 L 104.574219 144.230469 L 102.957031 143.890625 L 101.339844 143.535156 L 99.726562 143.164062 L 98.117188 142.78125 L 96.511719 142.382812 L 94.910156 141.972656 L 93.3125 141.550781 L 91.714844 141.113281 L 90.125 140.660156 L 88.539062 140.195312 L 86.953125 139.71875 L 85.375 139.226562 L 83.800781 138.722656 L 82.230469 138.203125 L 80.664062 137.671875 L 79.101562 137.125 L 77.542969 136.566406 L 75.992188 135.996094 L 74.445312 135.410156 L 72.902344 134.8125 L 71.363281 134.203125 L 69.832031 133.578125 L 68.304688 132.941406 L 66.785156 132.292969 L 65.269531 131.628906 L 63.757812 130.953125 L 62.253906 130.265625 L 60.757812 129.5625 L 59.265625 128.851562 L 57.777344 128.125 L 56.296875 127.382812 L 54.824219 126.632812 L 53.359375 125.867188 L 51.898438 125.089844 L 50.445312 124.300781 L 48.996094 123.5 L 47.554688 122.6875 L 46.125 121.863281 L 44.695312 121.023438 L 43.277344 120.171875 L 41.867188 119.3125 L 40.460938 118.4375 L 39.066406 117.550781 L 37.675781 116.652344 L 36.292969 115.742188 L 34.921875 114.820312 L 33.554688 113.890625 L 32.195312 112.945312 L 30.847656 111.988281 L 29.503906 111.019531 L 28.171875 110.042969 L 26.847656 109.050781 L 25.53125 108.050781 L 24.222656 107.039062 L 22.921875 106.015625 L 21.632812 104.980469 L 20.351562 103.933594 L 19.078125 102.878906 L 17.8125 101.808594 L 16.558594 100.730469 L 15.3125 99.644531 L 14.078125 98.542969 L 12.851562 97.433594 L 11.632812 96.316406 L 10.425781 95.183594 L 9.226562 94.042969 L 8.039062 92.894531 L 6.859375 91.730469 L 5.691406 90.5625 L 4.53125 89.382812 L 3.382812 88.191406 L 2.246094 86.992188 L 1.117188 85.78125 L 0 84.5625 L 84.5625 0 L 97.667969 0 Z M 12.949219 84.71875 "/>
</g>
</svg>
