<?xml version="1.0" encoding="UTF-8" ?>
<svg xmlns="http://www.w3.org/2000/svg" version="1.1" viewBox="-14142.135623730952 -0.0 28284.2712474619 15000.0"  width="28284.2712474619" height="15000.0" >
<polygon points="14142,9142 14028,9255 13914,9367 13798,9478 13682,9588 13564,9697 13446,9806 13327,9913 13207,10019 13086,10125 12965,10229 12842,10332 12719,10435 12595,10536 12470,10637 12344,10736 12218,10834 12090,10932 11962,11028 11833,11124 11704,11218 11573,11311 11442,11403 11311,11495 11178,11585 11045,11674 10911,11762 10776,11849 10641,11934 10505,12019 10368,12103 10230,12185 10092,12267 9954,12347 9814,12426 9674,12504 9534,12581 9393,12657 9251,12732 9108,12806 8965,12878 8822,12949 8678,13019 8533,13088 8388,13156 8242,13223 8096,13288 7949,13353 7802,13416 7654,13478 7505,13538 7357,13598 7207,13656 7058,13713 6907,13769 6757,13824 6606,13878 6454,13930 6302,13981 6150,14031 5997,14080 5844,14127 5691,14173 5537,14218 5383,14262 5228,14305 5073,14346 4918,14386 4762,14425 4607,14462 4450,14499 4294,14534 4137,14567 3980,14600 3823,14631 3666,14661 3508,14690 3350,14717 3192,14744 3034,14769 2875,14792 2716,14815 2558,14836 2398,14856 2239,14874 2080,14892 1920,14908 1761,14922 1601,14936 1441,14948 1281,14959 1121,14969 961,14977 801,14984 641,14990 481,14994 321,14997 160,14999 0,15000 -160,14999 -321,14997 -481,14994 -641,14990 -801,14984 -961,14977 -1121,14969 -1281,14959 -1441,14948 -1601,14936 -1761,14922 -1920,14908 -2080,14892 -2239,14874 -2398,14856 -2558,14836 -2716,14815 -2875,14792 -3034,14769 -3192,14744 -3350,14717 -3508,14690 -3666,14661 -3823,14631 -3980,14600 -4137,14567 -4294,14534 -4450,14499 -4607,14462 -4762,14425 -4918,14386 -5073,14346 -5228,14305 -5383,14262 -5537,14218 -5691,14173 -5844,14127 -5997,14080 -6150,14031 -6302,13981 -6454,13930 -6606,13878 -6757,13824 -6907,13769 -7058,13713 -7207,13656 -7357,13598 -7505,13538 -7654,13478 -7802,13416 -7949,13353 -8096,13288 -8242,13223 -8388,13156 -8533,13088 -8678,13019 -8822,12949 -8965,12878 -9108,12806 -9251,12732 -9393,12657 -9534,12581 -9674,12504 -9814,12426 -9954,12347 -10092,12267 -10230,12185 -10368,12103 -10505,12019 -10641,11934 -10776,11849 -10911,11762 -11045,11674 -11178,11585 -11311,11495 -11442,11403 -11573,11311 -11704,11218 -11833,11124 -11962,11028 -12090,10932 -12218,10834 -12344,10736 -12470,10637 -12595,10536 -12719,10435 -12842,10332 -12965,10229 -13086,10125 -13207,10019 -13327,9913 -13446,9806 -13564,9697 -13682,9588 -13798,9478 -13914,9367 -14028,9255 -14142,9142 -5000,0 5000,0" fill="#ffeead" />
</svg>
