<?xml version="1.0" encoding="UTF-8" ?>
<svg xmlns="http://www.w3.org/2000/svg" version="1.1" viewBox="0 0 31079 16000"  >
<g fill="#ffeead" >
<polygon points="-14142,9142 -14028,9255 -13914,9367 -13798,9478 -13682,9588 -13564,9697 -13446,9806 -13327,9913 -13207,10019 -13086,10125 -12965,10229 -12842,10332 -12719,10435 -12595,10536 -12470,10637 -12344,10736 -12218,10834 -12090,10932 -11962,11028 -11833,11124 -11704,11218 -11573,11311 -11442,11403 -11311,11495 -11178,11585 -11045,11674 -10911,11762 -10776,11849 -10641,11934 -10505,12019 -10368,12103 -10230,12185 -10092,12267 -9954,12347 -9814,12426 -9674,12504 -9534,12581 -9393,12657 -9251,12732 -9108,12806 -8965,12878 -8822,12949 -8678,13019 -8533,13088 -8388,13156 -8242,13223 -8096,13288 -7949,13353 -7802,13416 -7654,13478 -7505,13538 -7357,13598 -7207,13656 -7058,13713 -6907,13769 -6757,13824 -6606,13878 -6454,13930 -6302,13981 -6150,14031 -5997,14080 -5844,14127 -5691,14173 -5537,14218 -5383,14262 -5228,14305 -5073,14346 -4918,14386 -4762,14425 -4607,14462 -4450,14499 -4294,14534 -4137,14567 -3980,14600 -3823,14631 -3666,14661 -3508,14690 -3350,14717 -3192,14744 -3034,14769 -2875,14792 -2716,14815 -2558,14836 -2398,14856 -2239,14874 -2080,14892 -1920,14908 -1761,14922 -1601,14936 -1441,14948 -1281,14959 -1121,14969 -961,14977 -801,14984 -641,14990 -481,14994 -321,14997 -160,14999 0,15000 160,14999 321,14997 481,14994 641,14990 801,14984 961,14977 1121,14969 1281,14959 1441,14948 1601,14936 1761,14922 1920,14908 2080,14892 2239,14874 2398,14856 2558,14836 2716,14815 2875,14792 3034,14769 3192,14744 3350,14717 3508,14690 3666,14661 3823,14631 3980,14600 4137,14567 4294,14534 4450,14499 4607,14462 4762,14425 4918,14386 5073,14346 5228,14305 5383,14262 5537,14218 5691,14173 5844,14127 5997,14080 6150,14031 6302,13981 6454,13930 6606,13878 6757,13824 6907,13769 7058,13713 7207,13656 7357,13598 7505,13538 7654,13478 7802,13416 7949,13353 8096,13288 8242,13223 8388,13156 8533,13088 8678,13019 8822,12949 8965,12878 9108,12806 9251,12732 9393,12657 9534,12581 9674,12504 9814,12426 9954,12347 10092,12267 10230,12185 10368,12103 10505,12019 10641,11934 10776,11849 10911,11762 11045,11674 11178,11585 11311,11495 11442,11403 11573,11311 11704,11218 11833,11124 11962,11028 12090,10932 12218,10834 12344,10736 12470,10637 12595,10536 12719,10435 12842,10332 12965,10229 13086,10125 13207,10019 13327,9913 13446,9806 13564,9697 13682,9588 13798,9478 13914,9367 14028,9255 14142,9142 5000,0 6414,0 15540,9125 15419,9257 15297,9387 15174,9517 15050,9645 14925,9773 14799,9899 14672,10024 14544,10149 14414,10272 14284,10394 14153,10514 14020,10634 13887,10753 13753,10870 13617,10987 13481,11102 13343,11216 13205,11329 13066,11440 12926,11551 12784,11660 12642,11768 12499,11875 12356,11981 12211,12085 12065,12188 11919,12290 11771,12391 11623,12490 11474,12588 11324,12685 11173,12781 11022,12875 10869,12968 10716,13060 10562,13150 10408,13240 10252,13327 10096,13414 9939,13499 9781,13583 9623,13665 9464,13746 9304,13826 9144,13905 8983,13982 8821,14057 8659,14132 8496,14205 8333,14276 8168,14346 8004,14415 7838,14482 7672,14548 7506,14613 7339,14676 7172,14738 7004,14798 6835,14857 6666,14914 6496,14970 6326,15024 6156,15077 5985,15129 5814,15179 5642,15228 5470,15275 5297,15321 5124,15365 4951,15408 4778,15449 4604,15489 4429,15528 4255,15565 4080,15600 3904,15634 3729,15666 3553,15697 3377,15727 3201,15755 3024,15781 2847,15806 2670,15830 2493,15851 2316,15872 2138,15891 1961,15908 1783,15924 1605,15939 1427,15951 1249,15963 1071,15973 892,15981 714,15988 535,15993 357,15997 179,15999 0,16000 -179,15999 -357,15997 -535,15993 -714,15988 -892,15981 -1071,15973 -1249,15963 -1427,15951 -1605,15939 -1783,15924 -1961,15908 -2138,15891 -2316,15872 -2493,15851 -2670,15830 -2847,15806 -3024,15781 -3201,15755 -3377,15727 -3553,15697 -3729,15666 -3904,15634 -4080,15600 -4255,15565 -4429,15528 -4604,15489 -4778,15449 -4951,15408 -5124,15365 -5297,15321 -5470,15275 -5642,15228 -5814,15179 -5985,15129 -6156,15077 -6326,15024 -6496,14970 -6666,14914 -6835,14857 -7004,14798 -7172,14738 -7339,14676 -7506,14613 -7672,14548 -7838,14482 -8004,14415 -8168,14346 -8333,14276 -8496,14205 -8659,14132 -8821,14057 -8983,13982 -9144,13905 -9304,13826 -9464,13746 -9623,13665 -9781,13583 -9939,13499 -10096,13414 -10252,13327 -10408,13240 -10562,13150 -10716,13060 -10869,12968 -11022,12875 -11173,12781 -11324,12685 -11474,12588 -11623,12490 -11771,12391 -11919,12290 -12065,12188 -12211,12085 -12356,11981 -12499,11875 -12642,11768 -12784,11660 -12926,11551 -13066,11440 -13205,11329 -13343,11216 -13481,11102 -13617,10987 -13753,10870 -13887,10753 -14020,10634 -14153,10514 -14284,10394 -14414,10272 -14544,10149 -14672,10024 -14799,9899 -14925,9773 -15050,9645 -15174,9517 -15297,9387 -15419,9257 -15540,9125 -6414,0 -5000,0" />
</g>
</svg>
