<?xml version="1.0" encoding="UTF-8"?>
<svg xmlns="http://www.w3.org/2000/svg" xmlns:xlink="http://www.w3.org/1999/xlink" width="288pt" height="288pt" viewBox="0 0 288 288" version="1.1">
<g id="surface41">
<path style=" stroke:none;fill-rule:nonzero;fill:rgb(100%,93.333333%,67.843137%);fill-opacity:0.501961;" d="M 288 93.089844 L 286.839844 94.238281 L 285.671875 95.378906 L 284.496094 96.507812 L 283.3125 97.628906 L 282.117188 98.742188 L 280.910156 99.84375 L 279.699219 100.9375 L 278.476562 102.019531 L 277.25 103.089844 L 276.007812 104.15625 L 274.761719 105.207031 L 273.507812 106.25 L 272.242188 107.28125 L 270.972656 108.304688 L 269.691406 109.316406 L 268.402344 110.320312 L 267.105469 111.3125 L 265.804688 112.292969 L 264.492188 113.265625 L 263.171875 114.226562 L 261.84375 115.175781 L 260.507812 116.113281 L 259.167969 117.042969 L 257.816406 117.960938 L 256.460938 118.867188 L 255.097656 119.761719 L 253.726562 120.648438 L 252.347656 121.519531 L 250.960938 122.382812 L 249.570312 123.234375 L 248.171875 124.074219 L 246.765625 124.90625 L 245.351562 125.722656 L 243.933594 126.53125 L 242.507812 127.324219 L 241.078125 128.109375 L 239.636719 128.878906 L 238.195312 129.640625 L 236.746094 130.390625 L 235.289062 131.128906 L 233.828125 131.855469 L 232.359375 132.566406 L 230.886719 133.269531 L 229.40625 133.960938 L 227.921875 134.640625 L 226.433594 135.304688 L 224.9375 135.960938 L 223.4375 136.601562 L 221.933594 137.234375 L 220.421875 137.851562 L 218.90625 138.457031 L 217.386719 139.050781 L 215.863281 139.632812 L 214.332031 140.203125 L 212.796875 140.761719 L 211.261719 141.308594 L 209.71875 141.839844 L 208.171875 142.359375 L 206.621094 142.867188 L 205.066406 143.363281 L 203.507812 143.847656 L 201.941406 144.316406 L 200.375 144.777344 L 198.804688 145.222656 L 197.234375 145.65625 L 195.65625 146.074219 L 194.074219 146.484375 L 192.492188 146.878906 L 190.90625 147.257812 L 189.316406 147.628906 L 187.722656 147.984375 L 186.128906 148.328125 L 184.53125 148.660156 L 182.929688 148.980469 L 181.324219 149.285156 L 179.71875 149.578125 L 178.113281 149.859375 L 176.503906 150.125 L 174.890625 150.378906 L 173.277344 150.621094 L 171.660156 150.847656 L 170.042969 151.0625 L 168.421875 151.265625 L 166.800781 151.453125 L 165.179688 151.628906 L 163.554688 151.792969 L 161.929688 151.945312 L 160.304688 152.082031 L 158.675781 152.207031 L 157.046875 152.316406 L 155.417969 152.414062 L 153.789062 152.5 L 152.160156 152.570312 L 150.527344 152.628906 L 148.894531 152.675781 L 147.265625 152.707031 L 145.632812 152.730469 L 144 152.734375 L 142.367188 152.730469 L 140.734375 152.707031 L 139.105469 152.675781 L 137.472656 152.628906 L 135.839844 152.570312 L 134.210938 152.5 L 132.582031 152.414062 L 130.953125 152.316406 L 129.324219 152.207031 L 127.695312 152.082031 L 126.070312 151.945312 L 124.445312 151.792969 L 122.820312 151.628906 L 121.199219 151.453125 L 119.578125 151.265625 L 117.957031 151.0625 L 116.339844 150.847656 L 114.722656 150.621094 L 113.109375 150.378906 L 111.496094 150.125 L 109.886719 149.859375 L 108.28125 149.578125 L 106.675781 149.285156 L 105.070312 148.980469 L 103.46875 148.660156 L 101.871094 148.328125 L 100.277344 147.984375 L 98.683594 147.628906 L 97.09375 147.257812 L 95.507812 146.878906 L 93.925781 146.484375 L 92.34375 146.074219 L 90.765625 145.65625 L 89.195312 145.222656 L 87.625 144.777344 L 86.058594 144.316406 L 84.492188 143.847656 L 82.933594 143.363281 L 81.378906 142.867188 L 79.828125 142.359375 L 78.28125 141.839844 L 76.738281 141.308594 L 75.203125 140.761719 L 73.667969 140.203125 L 72.136719 139.632812 L 70.613281 139.050781 L 69.09375 138.457031 L 67.578125 137.851562 L 66.066406 137.234375 L 64.5625 136.601562 L 63.0625 135.960938 L 61.566406 135.304688 L 60.078125 134.640625 L 58.59375 133.960938 L 57.113281 133.269531 L 55.640625 132.566406 L 54.171875 131.855469 L 52.710938 131.128906 L 51.253906 130.390625 L 49.804688 129.640625 L 48.363281 128.878906 L 46.921875 128.109375 L 45.492188 127.324219 L 44.066406 126.53125 L 42.648438 125.722656 L 41.234375 124.90625 L 39.828125 124.074219 L 38.429688 123.234375 L 37.039062 122.382812 L 35.652344 121.519531 L 34.273438 120.648438 L 32.902344 119.761719 L 31.539062 118.867188 L 30.183594 117.960938 L 28.832031 117.042969 L 27.492188 116.113281 L 26.15625 115.175781 L 24.828125 114.226562 L 23.507812 113.265625 L 22.195312 112.292969 L 20.894531 111.3125 L 19.597656 110.320312 L 18.308594 109.316406 L 17.027344 108.304688 L 15.757812 107.28125 L 14.492188 106.25 L 13.238281 105.207031 L 11.992188 104.15625 L 10.75 103.089844 L 9.523438 102.019531 L 8.300781 100.9375 L 7.089844 99.84375 L 5.882812 98.742188 L 4.6875 97.628906 L 3.503906 96.507812 L 2.328125 95.378906 L 1.160156 94.238281 L 0 93.089844 L 93.089844 0 L 194.910156 0 Z M 288 93.089844 "/>
</g>
</svg>
