<?xml version="1.0" encoding="UTF-8"?>
<svg xmlns="http://www.w3.org/2000/svg" xmlns:xlink="http://www.w3.org/1999/xlink" width="1000pt" height="1000pt" viewBox="0 0 1000 1000" version="1.1">
<g id="surface41">
<path style=" stroke:none;fill-rule:nonzero;fill:rgb(100%,93.333333%,67.843137%);fill-opacity:0.501961;" d="M 1000 323.222656 L 995.976562 327.214844 L 991.921875 331.171875 L 987.835938 335.097656 L 983.71875 338.992188 L 979.566406 342.851562 L 975.386719 346.679688 L 971.179688 350.472656 L 966.9375 354.230469 L 962.667969 357.957031 L 958.367188 361.648438 L 954.035156 365.304688 L 949.679688 368.925781 L 945.289062 372.511719 L 940.875 376.0625 L 936.429688 379.578125 L 931.957031 383.058594 L 927.457031 386.5 L 922.929688 389.910156 L 918.371094 393.28125 L 913.789062 396.613281 L 909.183594 399.910156 L 904.546875 403.171875 L 899.886719 406.394531 L 895.199219 409.582031 L 890.488281 412.730469 L 885.75 415.839844 L 880.988281 418.914062 L 876.203125 421.949219 L 871.394531 424.945312 L 866.558594 427.902344 L 861.699219 430.820312 L 856.820312 433.699219 L 851.917969 436.539062 L 846.988281 439.339844 L 842.039062 442.101562 L 837.070312 444.820312 L 832.078125 447.503906 L 827.0625 450.144531 L 822.027344 452.746094 L 816.972656 455.304688 L 811.898438 457.824219 L 806.800781 460.304688 L 801.6875 462.742188 L 796.550781 465.140625 L 791.398438 467.496094 L 786.226562 469.8125 L 781.035156 472.082031 L 775.824219 474.316406 L 770.597656 476.503906 L 765.355469 478.652344 L 760.09375 480.757812 L 754.816406 482.820312 L 749.519531 484.84375 L 744.210938 486.820312 L 738.882812 488.757812 L 733.542969 490.648438 L 728.1875 492.5 L 722.816406 494.308594 L 717.429688 496.070312 L 712.03125 497.792969 L 706.617188 499.46875 L 701.191406 501.105469 L 695.753906 502.695312 L 690.300781 504.242188 L 684.835938 505.746094 L 679.359375 507.203125 L 673.875 508.621094 L 668.375 509.992188 L 662.867188 511.316406 L 657.347656 512.601562 L 651.816406 513.839844 L 646.277344 515.035156 L 640.726562 516.183594 L 635.167969 517.289062 L 629.601562 518.351562 L 624.027344 519.367188 L 618.445312 520.339844 L 612.855469 521.265625 L 607.257812 522.148438 L 601.652344 522.984375 L 596.039062 523.777344 L 590.421875 524.523438 L 584.800781 525.226562 L 579.171875 525.882812 L 573.535156 526.496094 L 567.898438 527.0625 L 562.253906 527.585938 L 556.609375 528.058594 L 550.957031 528.492188 L 545.304688 528.878906 L 539.648438 529.21875 L 533.988281 529.511719 L 528.328125 529.761719 L 522.664062 529.964844 L 517 530.125 L 511.332031 530.238281 L 505.667969 530.308594 L 500 530.332031 L 494.332031 530.308594 L 488.667969 530.238281 L 483 530.125 L 477.335938 529.964844 L 471.671875 529.761719 L 466.011719 529.511719 L 460.351562 529.21875 L 454.695312 528.878906 L 449.042969 528.492188 L 443.390625 528.058594 L 437.746094 527.585938 L 432.101562 527.0625 L 426.464844 526.496094 L 420.828125 525.882812 L 415.199219 525.226562 L 409.578125 524.523438 L 403.960938 523.777344 L 398.347656 522.984375 L 392.742188 522.148438 L 387.144531 521.265625 L 381.554688 520.339844 L 375.972656 519.367188 L 370.398438 518.351562 L 364.832031 517.289062 L 359.273438 516.183594 L 353.722656 515.035156 L 348.183594 513.839844 L 342.652344 512.601562 L 337.132812 511.316406 L 331.625 509.992188 L 326.125 508.621094 L 320.640625 507.203125 L 315.164062 505.746094 L 309.699219 504.242188 L 304.246094 502.695312 L 298.808594 501.105469 L 293.382812 499.46875 L 287.96875 497.792969 L 282.570312 496.070312 L 277.183594 494.308594 L 271.8125 492.5 L 266.457031 490.648438 L 261.117188 488.757812 L 255.789062 486.820312 L 250.480469 484.84375 L 245.183594 482.820312 L 239.90625 480.757812 L 234.644531 478.652344 L 229.402344 476.503906 L 224.175781 474.316406 L 218.964844 472.082031 L 213.773438 469.8125 L 208.601562 467.496094 L 203.449219 465.140625 L 198.3125 462.742188 L 193.199219 460.304688 L 188.101562 457.824219 L 183.027344 455.304688 L 177.972656 452.746094 L 172.9375 450.144531 L 167.921875 447.503906 L 162.929688 444.820312 L 157.960938 442.101562 L 153.011719 439.339844 L 148.082031 436.539062 L 143.179688 433.699219 L 138.300781 430.820312 L 133.441406 427.902344 L 128.605469 424.945312 L 123.796875 421.949219 L 119.011719 418.914062 L 114.25 415.839844 L 109.511719 412.730469 L 104.800781 409.582031 L 100.113281 406.394531 L 95.453125 403.171875 L 90.816406 399.910156 L 86.210938 396.613281 L 81.628906 393.28125 L 77.070312 389.910156 L 72.542969 386.5 L 68.042969 383.058594 L 63.570312 379.578125 L 59.125 376.0625 L 54.710938 372.511719 L 50.320312 368.925781 L 45.964844 365.304688 L 41.632812 361.648438 L 37.332031 357.957031 L 33.0625 354.230469 L 28.820312 350.472656 L 24.613281 346.679688 L 20.433594 342.851562 L 16.28125 338.992188 L 12.164062 335.097656 L 8.078125 331.171875 L 4.023438 327.214844 L 0 323.222656 L 323.222656 0 L 676.777344 0 Z M 1000 323.222656 "/>
</g>
</svg>
