<?xml version="1.0" encoding="UTF-8"?>
<svg xmlns="http://www.w3.org/2000/svg" xmlns:xlink="http://www.w3.org/1999/xlink" width="288pt" height="288pt" viewBox="0 0 288 288" version="1.1">
<g id="surface53">
<path style=" stroke:none;fill-rule:nonzero;fill:rgb(58.823529%,80.784314%,70.588235%);fill-opacity:0.501961;" d="M 0 1.546875 L 1.546875 1.546875 L 1.546875 0 L 0 0 Z M 7.742188 1.546875 L 9.289062 1.546875 L 9.289062 0 L 7.742188 0 Z M 0 3.484375 L 1.546875 3.484375 L 1.546875 1.933594 L 0 1.933594 Z M 7.742188 3.484375 L 9.289062 3.484375 L 9.289062 1.933594 L 7.742188 1.933594 Z M 0 5.417969 L 1.546875 5.417969 L 1.546875 3.871094 L 0 3.871094 Z M 7.742188 5.417969 L 9.289062 5.417969 L 9.289062 3.871094 L 7.742188 3.871094 Z M 0 7.355469 L 1.546875 7.355469 L 1.546875 5.804688 L 0 5.804688 Z M 1.933594 7.355469 L 3.484375 7.355469 L 3.484375 5.804688 L 1.933594 5.804688 Z M 3.871094 7.355469 L 5.417969 7.355469 L 5.417969 5.804688 L 3.871094 5.804688 Z M 5.804688 7.355469 L 7.355469 7.355469 L 7.355469 5.804688 L 5.804688 5.804688 Z M 7.742188 7.355469 L 9.289062 7.355469 L 9.289062 5.804688 L 7.742188 5.804688 Z M 0 9.289062 L 1.546875 9.289062 L 1.546875 7.742188 L 0 7.742188 Z M 7.742188 9.289062 L 9.289062 9.289062 L 9.289062 7.742188 L 7.742188 7.742188 Z M 0 11.226562 L 1.546875 11.226562 L 1.546875 9.675781 L 0 9.675781 Z M 7.742188 11.226562 L 9.289062 11.226562 L 9.289062 9.675781 L 7.742188 9.675781 Z M 0 13.160156 L 1.546875 13.160156 L 1.546875 11.613281 L 0 11.613281 Z M 7.742188 13.160156 L 9.289062 13.160156 L 9.289062 11.613281 L 7.742188 11.613281 Z M 11.613281 5.417969 L 13.160156 5.417969 L 13.160156 3.871094 L 11.613281 3.871094 Z M 13.546875 5.417969 L 15.097656 5.417969 L 15.097656 3.871094 L 13.546875 3.871094 Z M 15.484375 5.417969 L 17.03125 5.417969 L 17.03125 3.871094 L 15.484375 3.871094 Z M 17.417969 5.417969 L 18.96875 5.417969 L 18.96875 3.871094 L 17.417969 3.871094 Z M 19.355469 5.417969 L 20.902344 5.417969 L 20.902344 3.871094 L 19.355469 3.871094 Z M 11.613281 9.289062 L 13.160156 9.289062 L 13.160156 7.742188 L 11.613281 7.742188 Z M 13.546875 9.289062 L 15.097656 9.289062 L 15.097656 7.742188 L 13.546875 7.742188 Z M 15.484375 9.289062 L 17.03125 9.289062 L 17.03125 7.742188 L 15.484375 7.742188 Z M 17.417969 9.289062 L 18.96875 9.289062 L 18.96875 7.742188 L 17.417969 7.742188 Z M 19.355469 9.289062 L 20.902344 9.289062 L 20.902344 7.742188 L 19.355469 7.742188 Z M 25.160156 1.546875 L 26.710938 1.546875 L 26.710938 0 L 25.160156 0 Z M 23.226562 3.484375 L 24.773438 3.484375 L 24.773438 1.933594 L 23.226562 1.933594 Z M 25.160156 3.484375 L 26.710938 3.484375 L 26.710938 1.933594 L 25.160156 1.933594 Z M 27.097656 3.484375 L 28.644531 3.484375 L 28.644531 1.933594 L 27.097656 1.933594 Z M 29.03125 3.484375 L 30.582031 3.484375 L 30.582031 1.933594 L 29.03125 1.933594 Z M 25.160156 5.417969 L 26.710938 5.417969 L 26.710938 3.871094 L 25.160156 3.871094 Z M 25.160156 7.355469 L 26.710938 7.355469 L 26.710938 5.804688 L 25.160156 5.804688 Z M 29.03125 7.355469 L 30.582031 7.355469 L 30.582031 5.804688 L 29.03125 5.804688 Z M 25.160156 9.289062 L 26.710938 9.289062 L 26.710938 7.742188 L 25.160156 7.742188 Z M 27.097656 9.289062 L 28.644531 9.289062 L 28.644531 7.742188 L 27.097656 7.742188 Z M 30.96875 9.289062 L 32.515625 9.289062 L 32.515625 7.742188 L 30.96875 7.742188 Z M 25.160156 11.226562 L 26.710938 11.226562 L 26.710938 9.675781 L 25.160156 9.675781 Z M 30.96875 11.226562 L 32.515625 11.226562 L 32.515625 9.675781 L 30.96875 9.675781 Z M 25.160156 13.160156 L 26.710938 13.160156 L 26.710938 11.613281 L 25.160156 11.613281 Z M 30.96875 13.160156 L 32.515625 13.160156 L 32.515625 11.613281 L 30.96875 11.613281 Z M 36.773438 5.417969 L 38.324219 5.417969 L 38.324219 3.871094 L 36.773438 3.871094 Z M 40.644531 5.417969 L 42.195312 5.417969 L 42.195312 3.871094 L 40.644531 3.871094 Z M 34.839844 7.355469 L 36.386719 7.355469 L 36.386719 5.804688 L 34.839844 5.804688 Z M 42.582031 7.355469 L 44.128906 7.355469 L 44.128906 5.804688 L 42.582031 5.804688 Z M 34.839844 9.289062 L 36.386719 9.289062 L 36.386719 7.742188 L 34.839844 7.742188 Z M 38.710938 9.289062 L 40.257812 9.289062 L 40.257812 7.742188 L 38.710938 7.742188 Z M 42.582031 9.289062 L 44.128906 9.289062 L 44.128906 7.742188 L 42.582031 7.742188 Z M 34.839844 11.226562 L 36.386719 11.226562 L 36.386719 9.675781 L 34.839844 9.675781 Z M 38.710938 11.226562 L 40.257812 11.226562 L 40.257812 9.675781 L 38.710938 9.675781 Z M 42.582031 11.226562 L 44.128906 11.226562 L 44.128906 9.675781 L 42.582031 9.675781 Z M 36.773438 13.160156 L 38.324219 13.160156 L 38.324219 11.613281 L 36.773438 11.613281 Z M 40.644531 13.160156 L 42.195312 13.160156 L 42.195312 11.613281 L 40.644531 11.613281 Z M 48.386719 5.417969 L 49.933594 5.417969 L 49.933594 3.871094 L 48.386719 3.871094 Z M 50.324219 5.417969 L 51.871094 5.417969 L 51.871094 3.871094 L 50.324219 3.871094 Z M 52.257812 5.417969 L 53.804688 5.417969 L 53.804688 3.871094 L 52.257812 3.871094 Z M 54.195312 5.417969 L 55.742188 5.417969 L 55.742188 3.871094 L 54.195312 3.871094 Z M 46.453125 7.355469 L 48 7.355469 L 48 5.804688 L 46.453125 5.804688 Z M 50.324219 7.355469 L 51.871094 7.355469 L 51.871094 5.804688 L 50.324219 5.804688 Z M 46.453125 9.289062 L 48 9.289062 L 48 7.742188 L 46.453125 7.742188 Z M 52.257812 9.289062 L 53.804688 9.289062 L 53.804688 7.742188 L 52.257812 7.742188 Z M 46.453125 11.226562 L 48 11.226562 L 48 9.675781 L 46.453125 9.675781 Z M 54.195312 11.226562 L 55.742188 11.226562 L 55.742188 9.675781 L 54.195312 9.675781 Z M 48.386719 13.160156 L 49.933594 13.160156 L 49.933594 11.613281 L 48.386719 11.613281 Z M 50.324219 13.160156 L 51.871094 13.160156 L 51.871094 11.613281 L 50.324219 11.613281 Z M 52.257812 13.160156 L 53.804688 13.160156 L 53.804688 11.613281 L 52.257812 11.613281 Z M 58.066406 11.804688 L 59.613281 11.804688 L 59.613281 10.257812 L 58.066406 10.257812 Z M 65.804688 11.804688 L 67.355469 11.804688 L 67.355469 10.257812 L 65.804688 10.257812 Z M 60 13.742188 L 61.546875 13.742188 L 61.546875 12.195312 L 60 12.195312 Z M 63.871094 13.742188 L 65.417969 13.742188 L 65.417969 12.195312 L 63.871094 12.195312 Z M 61.933594 15.675781 L 63.484375 15.675781 L 63.484375 14.128906 L 61.933594 14.128906 Z M 60 17.613281 L 61.546875 17.613281 L 61.546875 16.066406 L 60 16.066406 Z M 63.871094 17.613281 L 65.417969 17.613281 L 65.417969 16.066406 L 63.871094 16.066406 Z M 58.066406 19.546875 L 59.613281 19.546875 L 59.613281 18 L 58.066406 18 Z M 65.804688 19.546875 L 67.355469 19.546875 L 67.355469 18 L 65.804688 18 Z M 73.546875 3.484375 L 75.097656 3.484375 L 75.097656 1.933594 L 73.546875 1.933594 Z M 73.546875 5.417969 L 75.097656 5.417969 L 75.097656 3.871094 L 73.546875 3.871094 Z M 69.675781 7.355469 L 71.226562 7.355469 L 71.226562 5.804688 L 69.675781 5.804688 Z M 71.613281 7.355469 L 73.160156 7.355469 L 73.160156 5.804688 L 71.613281 5.804688 Z M 73.546875 7.355469 L 75.097656 7.355469 L 75.097656 5.804688 L 73.546875 5.804688 Z M 75.484375 7.355469 L 77.03125 7.355469 L 77.03125 5.804688 L 75.484375 5.804688 Z M 77.417969 7.355469 L 78.96875 7.355469 L 78.96875 5.804688 L 77.417969 5.804688 Z M 73.546875 9.289062 L 75.097656 9.289062 L 75.097656 7.742188 L 73.546875 7.742188 Z M 73.546875 11.226562 L 75.097656 11.226562 L 75.097656 9.675781 L 73.546875 9.675781 Z M 85.160156 1.546875 L 86.710938 1.546875 L 86.710938 0 L 85.160156 0 Z M 87.097656 1.546875 L 88.644531 1.546875 L 88.644531 0 L 87.097656 0 Z M 89.03125 1.546875 L 90.582031 1.546875 L 90.582031 0 L 89.03125 0 Z M 87.097656 3.484375 L 88.644531 3.484375 L 88.644531 1.933594 L 87.097656 1.933594 Z M 87.097656 5.417969 L 88.644531 5.417969 L 88.644531 3.871094 L 87.097656 3.871094 Z M 87.097656 7.355469 L 88.644531 7.355469 L 88.644531 5.804688 L 87.097656 5.804688 Z M 87.097656 9.289062 L 88.644531 9.289062 L 88.644531 7.742188 L 87.097656 7.742188 Z M 81.289062 11.226562 L 82.839844 11.226562 L 82.839844 9.675781 L 81.289062 9.675781 Z M 87.097656 11.226562 L 88.644531 11.226562 L 88.644531 9.675781 L 87.097656 9.675781 Z M 83.226562 13.160156 L 84.773438 13.160156 L 84.773438 11.613281 L 83.226562 11.613281 Z M 85.160156 13.160156 L 86.710938 13.160156 L 86.710938 11.613281 L 85.160156 11.613281 Z M 94.839844 5.417969 L 96.386719 5.417969 L 96.386719 3.871094 L 94.839844 3.871094 Z M 96.773438 5.417969 L 98.324219 5.417969 L 98.324219 3.871094 L 96.773438 3.871094 Z M 98.710938 5.417969 L 100.257812 5.417969 L 100.257812 3.871094 L 98.710938 3.871094 Z M 100.644531 5.417969 L 102.195312 5.417969 L 102.195312 3.871094 L 100.644531 3.871094 Z M 92.902344 7.355469 L 94.453125 7.355469 L 94.453125 5.804688 L 92.902344 5.804688 Z M 96.773438 7.355469 L 98.324219 7.355469 L 98.324219 5.804688 L 96.773438 5.804688 Z M 92.902344 9.289062 L 94.453125 9.289062 L 94.453125 7.742188 L 92.902344 7.742188 Z M 98.710938 9.289062 L 100.257812 9.289062 L 100.257812 7.742188 L 98.710938 7.742188 Z M 92.902344 11.226562 L 94.453125 11.226562 L 94.453125 9.675781 L 92.902344 9.675781 Z M 100.644531 11.226562 L 102.195312 11.226562 L 102.195312 9.675781 L 100.644531 9.675781 Z M 94.839844 13.160156 L 96.386719 13.160156 L 96.386719 11.613281 L 94.839844 11.613281 Z M 96.773438 13.160156 L 98.324219 13.160156 L 98.324219 11.613281 L 96.773438 11.613281 Z M 98.710938 13.160156 L 100.257812 13.160156 L 100.257812 11.613281 L 98.710938 11.613281 Z M 104.515625 11.804688 L 106.066406 11.804688 L 106.066406 10.257812 L 104.515625 10.257812 Z M 112.257812 11.804688 L 113.804688 11.804688 L 113.804688 10.257812 L 112.257812 10.257812 Z M 104.515625 13.742188 L 106.066406 13.742188 L 106.066406 12.195312 L 104.515625 12.195312 Z M 112.257812 13.742188 L 113.804688 13.742188 L 113.804688 12.195312 L 112.257812 12.195312 Z M 104.515625 15.675781 L 106.066406 15.675781 L 106.066406 14.128906 L 104.515625 14.128906 Z M 112.257812 15.675781 L 113.804688 15.675781 L 113.804688 14.128906 L 112.257812 14.128906 Z M 104.515625 17.613281 L 106.066406 17.613281 L 106.066406 16.066406 L 104.515625 16.066406 Z M 112.257812 17.613281 L 113.804688 17.613281 L 113.804688 16.066406 L 112.257812 16.066406 Z M 106.453125 19.546875 L 108 19.546875 L 108 18 L 106.453125 18 Z M 108.386719 19.546875 L 109.933594 19.546875 L 109.933594 18 L 108.386719 18 Z M 110.324219 19.546875 L 111.871094 19.546875 L 111.871094 18 L 110.324219 18 Z M 112.257812 19.546875 L 113.804688 19.546875 L 113.804688 18 L 112.257812 18 Z M 112.257812 21.484375 L 113.804688 21.484375 L 113.804688 19.933594 L 112.257812 19.933594 Z M 112.257812 23.417969 L 113.804688 23.417969 L 113.804688 21.871094 L 112.257812 21.871094 Z M 106.453125 25.355469 L 108 25.355469 L 108 23.804688 L 106.453125 23.804688 Z M 108.386719 25.355469 L 109.933594 25.355469 L 109.933594 23.804688 L 108.386719 23.804688 Z M 110.324219 25.355469 L 111.871094 25.355469 L 111.871094 23.804688 L 110.324219 23.804688 Z M 1.933594 48 L 3.484375 48 L 3.484375 46.453125 L 1.933594 46.453125 Z M 3.871094 48 L 5.417969 48 L 5.417969 46.453125 L 3.871094 46.453125 Z M 5.804688 48 L 7.355469 48 L 7.355469 46.453125 L 5.804688 46.453125 Z M 0 49.933594 L 1.546875 49.933594 L 1.546875 48.386719 L 0 48.386719 Z M 0 51.871094 L 1.546875 51.871094 L 1.546875 50.324219 L 0 50.324219 Z M 0 53.804688 L 1.546875 53.804688 L 1.546875 52.257812 L 0 52.257812 Z M 7.742188 53.804688 L 9.289062 53.804688 L 9.289062 52.257812 L 7.742188 52.257812 Z M 1.933594 55.742188 L 3.484375 55.742188 L 3.484375 54.195312 L 1.933594 54.195312 Z M 3.871094 55.742188 L 5.417969 55.742188 L 5.417969 54.195312 L 3.871094 54.195312 Z M 5.804688 55.742188 L 7.355469 55.742188 L 7.355469 54.195312 L 5.804688 54.195312 Z M 13.546875 37.742188 L 15.097656 37.742188 L 15.097656 36.195312 L 13.546875 36.195312 Z M 15.484375 37.742188 L 17.03125 37.742188 L 17.03125 36.195312 L 15.484375 36.195312 Z M 17.417969 37.742188 L 18.96875 37.742188 L 18.96875 36.195312 L 17.417969 36.195312 Z M 11.613281 39.675781 L 13.160156 39.675781 L 13.160156 38.128906 L 11.613281 38.128906 Z M 19.355469 39.675781 L 20.902344 39.675781 L 20.902344 38.128906 L 19.355469 38.128906 Z M 19.355469 41.613281 L 20.902344 41.613281 L 20.902344 40.066406 L 19.355469 40.066406 Z M 17.417969 43.546875 L 18.96875 43.546875 L 18.96875 42 L 17.417969 42 Z M 15.484375 45.484375 L 17.03125 45.484375 L 17.03125 43.933594 L 15.484375 43.933594 Z M 13.546875 47.417969 L 15.097656 47.417969 L 15.097656 45.871094 L 13.546875 45.871094 Z M 11.613281 49.355469 L 13.160156 49.355469 L 13.160156 47.804688 L 11.613281 47.804688 Z M 13.546875 49.355469 L 15.097656 49.355469 L 15.097656 47.804688 L 13.546875 47.804688 Z M 15.484375 49.355469 L 17.03125 49.355469 L 17.03125 47.804688 L 15.484375 47.804688 Z M 17.417969 49.355469 L 18.96875 49.355469 L 18.96875 47.804688 L 17.417969 47.804688 Z M 19.355469 49.355469 L 20.902344 49.355469 L 20.902344 47.804688 L 19.355469 47.804688 Z M 23.226562 48 L 24.773438 48 L 24.773438 46.453125 L 23.226562 46.453125 Z M 25.160156 48 L 26.710938 48 L 26.710938 46.453125 L 25.160156 46.453125 Z M 27.097656 48 L 28.644531 48 L 28.644531 46.453125 L 27.097656 46.453125 Z M 29.03125 48 L 30.582031 48 L 30.582031 46.453125 L 29.03125 46.453125 Z M 30.96875 48 L 32.515625 48 L 32.515625 46.453125 L 30.96875 46.453125 Z M 23.226562 51.871094 L 24.773438 51.871094 L 24.773438 50.324219 L 23.226562 50.324219 Z M 25.160156 51.871094 L 26.710938 51.871094 L 26.710938 50.324219 L 25.160156 50.324219 Z M 27.097656 51.871094 L 28.644531 51.871094 L 28.644531 50.324219 L 27.097656 50.324219 Z M 29.03125 51.871094 L 30.582031 51.871094 L 30.582031 50.324219 L 29.03125 50.324219 Z M 30.96875 51.871094 L 32.515625 51.871094 L 32.515625 50.324219 L 30.96875 50.324219 Z M 36.773438 48 L 38.324219 48 L 38.324219 46.453125 L 36.773438 46.453125 Z M 38.710938 48 L 40.257812 48 L 40.257812 46.453125 L 38.710938 46.453125 Z M 40.644531 48 L 42.195312 48 L 42.195312 46.453125 L 40.644531 46.453125 Z M 42.582031 49.933594 L 44.128906 49.933594 L 44.128906 48.386719 L 42.582031 48.386719 Z M 36.773438 51.871094 L 38.324219 51.871094 L 38.324219 50.324219 L 36.773438 50.324219 Z M 38.710938 51.871094 L 40.257812 51.871094 L 40.257812 50.324219 L 38.710938 50.324219 Z M 40.644531 51.871094 L 42.195312 51.871094 L 42.195312 50.324219 L 40.644531 50.324219 Z M 42.582031 51.871094 L 44.128906 51.871094 L 44.128906 50.324219 L 42.582031 50.324219 Z M 34.839844 53.804688 L 36.386719 53.804688 L 36.386719 52.257812 L 34.839844 52.257812 Z M 42.582031 53.804688 L 44.128906 53.804688 L 44.128906 52.257812 L 42.582031 52.257812 Z M 36.773438 55.742188 L 38.324219 55.742188 L 38.324219 54.195312 L 36.773438 54.195312 Z M 38.710938 55.742188 L 40.257812 55.742188 L 40.257812 54.195312 L 38.710938 54.195312 Z M 40.644531 55.742188 L 42.195312 55.742188 L 42.195312 54.195312 L 40.644531 54.195312 Z M 42.582031 55.742188 L 44.128906 55.742188 L 44.128906 54.195312 L 42.582031 54.195312 Z M 48.386719 37.742188 L 49.933594 37.742188 L 49.933594 36.195312 L 48.386719 36.195312 Z M 50.324219 37.742188 L 51.871094 37.742188 L 51.871094 36.195312 L 50.324219 36.195312 Z M 52.257812 37.742188 L 53.804688 37.742188 L 53.804688 36.195312 L 52.257812 36.195312 Z M 46.453125 39.675781 L 48 39.675781 L 48 38.128906 L 46.453125 38.128906 Z M 54.195312 39.675781 L 55.742188 39.675781 L 55.742188 38.128906 L 54.195312 38.128906 Z M 54.195312 41.613281 L 55.742188 41.613281 L 55.742188 40.066406 L 54.195312 40.066406 Z M 52.257812 43.546875 L 53.804688 43.546875 L 53.804688 42 L 52.257812 42 Z M 50.324219 45.484375 L 51.871094 45.484375 L 51.871094 43.933594 L 50.324219 43.933594 Z M 48.386719 47.417969 L 49.933594 47.417969 L 49.933594 45.871094 L 48.386719 45.871094 Z M 46.453125 49.355469 L 48 49.355469 L 48 47.804688 L 46.453125 47.804688 Z M 48.386719 49.355469 L 49.933594 49.355469 L 49.933594 47.804688 L 48.386719 47.804688 Z M 50.324219 49.355469 L 51.871094 49.355469 L 51.871094 47.804688 L 50.324219 47.804688 Z M 52.257812 49.355469 L 53.804688 49.355469 L 53.804688 47.804688 L 52.257812 47.804688 Z M 54.195312 49.355469 L 55.742188 49.355469 L 55.742188 47.804688 L 54.195312 47.804688 Z M 61.933594 46.066406 L 63.484375 46.066406 L 63.484375 44.515625 L 61.933594 44.515625 Z M 61.933594 48 L 63.484375 48 L 63.484375 46.453125 L 61.933594 46.453125 Z M 58.066406 49.933594 L 59.613281 49.933594 L 59.613281 48.386719 L 58.066406 48.386719 Z M 60 49.933594 L 61.546875 49.933594 L 61.546875 48.386719 L 60 48.386719 Z M 61.933594 49.933594 L 63.484375 49.933594 L 63.484375 48.386719 L 61.933594 48.386719 Z M 63.871094 49.933594 L 65.417969 49.933594 L 65.417969 48.386719 L 63.871094 48.386719 Z M 65.804688 49.933594 L 67.355469 49.933594 L 67.355469 48.386719 L 65.804688 48.386719 Z M 61.933594 51.871094 L 63.484375 51.871094 L 63.484375 50.324219 L 61.933594 50.324219 Z M 61.933594 53.804688 L 63.484375 53.804688 L 63.484375 52.257812 L 61.933594 52.257812 Z M 69.675781 44.128906 L 71.226562 44.128906 L 71.226562 42.582031 L 69.675781 42.582031 Z M 69.675781 46.066406 L 71.226562 46.066406 L 71.226562 44.515625 L 69.675781 44.515625 Z M 69.675781 48 L 71.226562 48 L 71.226562 46.453125 L 69.675781 46.453125 Z M 73.546875 48 L 75.097656 48 L 75.097656 46.453125 L 73.546875 46.453125 Z M 75.484375 48 L 77.03125 48 L 77.03125 46.453125 L 75.484375 46.453125 Z M 69.675781 49.933594 L 71.226562 49.933594 L 71.226562 48.386719 L 69.675781 48.386719 Z M 71.613281 49.933594 L 73.160156 49.933594 L 73.160156 48.386719 L 71.613281 48.386719 Z M 77.417969 49.933594 L 78.96875 49.933594 L 78.96875 48.386719 L 77.417969 48.386719 Z M 69.675781 51.871094 L 71.226562 51.871094 L 71.226562 50.324219 L 69.675781 50.324219 Z M 77.417969 51.871094 L 78.96875 51.871094 L 78.96875 50.324219 L 77.417969 50.324219 Z M 69.675781 53.804688 L 71.226562 53.804688 L 71.226562 52.257812 L 69.675781 52.257812 Z M 77.417969 53.804688 L 78.96875 53.804688 L 78.96875 52.257812 L 77.417969 52.257812 Z M 69.675781 55.742188 L 71.226562 55.742188 L 71.226562 54.195312 L 69.675781 54.195312 Z M 71.613281 55.742188 L 73.160156 55.742188 L 73.160156 54.195312 L 71.613281 54.195312 Z M 73.546875 55.742188 L 75.097656 55.742188 L 75.097656 54.195312 L 73.546875 54.195312 Z M 75.484375 55.742188 L 77.03125 55.742188 L 77.03125 54.195312 L 75.484375 54.195312 Z M 83.226562 37.742188 L 84.773438 37.742188 L 84.773438 36.195312 L 83.226562 36.195312 Z M 85.160156 37.742188 L 86.710938 37.742188 L 86.710938 36.195312 L 85.160156 36.195312 Z M 87.097656 37.742188 L 88.644531 37.742188 L 88.644531 36.195312 L 87.097656 36.195312 Z M 81.289062 39.675781 L 82.839844 39.675781 L 82.839844 38.128906 L 81.289062 38.128906 Z M 89.03125 39.675781 L 90.582031 39.675781 L 90.582031 38.128906 L 89.03125 38.128906 Z M 89.03125 41.613281 L 90.582031 41.613281 L 90.582031 40.066406 L 89.03125 40.066406 Z M 87.097656 43.546875 L 88.644531 43.546875 L 88.644531 42 L 87.097656 42 Z M 85.160156 45.484375 L 86.710938 45.484375 L 86.710938 43.933594 L 85.160156 43.933594 Z M 83.226562 47.417969 L 84.773438 47.417969 L 84.773438 45.871094 L 83.226562 45.871094 Z M 81.289062 49.355469 L 82.839844 49.355469 L 82.839844 47.804688 L 81.289062 47.804688 Z M 83.226562 49.355469 L 84.773438 49.355469 L 84.773438 47.804688 L 83.226562 47.804688 Z M 85.160156 49.355469 L 86.710938 49.355469 L 86.710938 47.804688 L 85.160156 47.804688 Z M 87.097656 49.355469 L 88.644531 49.355469 L 88.644531 47.804688 L 87.097656 47.804688 Z M 89.03125 49.355469 L 90.582031 49.355469 L 90.582031 47.804688 L 89.03125 47.804688 Z M 3.871094 86.710938 L 5.417969 86.710938 L 5.417969 85.160156 L 3.871094 85.160156 Z M 3.871094 88.644531 L 5.417969 88.644531 L 5.417969 87.097656 L 3.871094 87.097656 Z M 3.871094 90.582031 L 5.417969 90.582031 L 5.417969 89.03125 L 3.871094 89.03125 Z M 3.871094 92.515625 L 5.417969 92.515625 L 5.417969 90.96875 L 3.871094 90.96875 Z M 3.871094 94.453125 L 5.417969 94.453125 L 5.417969 92.902344 L 3.871094 92.902344 Z M 3.871094 96.386719 L 5.417969 96.386719 L 5.417969 94.839844 L 3.871094 94.839844 Z M 3.871094 98.324219 L 5.417969 98.324219 L 5.417969 96.773438 L 3.871094 96.773438 Z M 11.613281 86.710938 L 13.160156 86.710938 L 13.160156 85.160156 L 11.613281 85.160156 Z M 15.484375 86.710938 L 17.03125 86.710938 L 17.03125 85.160156 L 15.484375 85.160156 Z M 19.355469 86.710938 L 20.902344 86.710938 L 20.902344 85.160156 L 19.355469 85.160156 Z M 11.613281 88.644531 L 13.160156 88.644531 L 13.160156 87.097656 L 11.613281 87.097656 Z M 15.484375 88.644531 L 17.03125 88.644531 L 17.03125 87.097656 L 15.484375 87.097656 Z M 19.355469 88.644531 L 20.902344 88.644531 L 20.902344 87.097656 L 19.355469 87.097656 Z M 11.613281 90.582031 L 13.160156 90.582031 L 13.160156 89.03125 L 11.613281 89.03125 Z M 15.484375 90.582031 L 17.03125 90.582031 L 17.03125 89.03125 L 15.484375 89.03125 Z M 19.355469 90.582031 L 20.902344 90.582031 L 20.902344 89.03125 L 19.355469 89.03125 Z M 13.546875 92.515625 L 15.097656 92.515625 L 15.097656 90.96875 L 13.546875 90.96875 Z M 15.484375 92.515625 L 17.03125 92.515625 L 17.03125 90.96875 L 15.484375 90.96875 Z M 17.417969 92.515625 L 18.96875 92.515625 L 18.96875 90.96875 L 17.417969 90.96875 Z M 15.484375 94.453125 L 17.03125 94.453125 L 17.03125 92.902344 L 15.484375 92.902344 Z M 15.484375 96.386719 L 17.03125 96.386719 L 17.03125 94.839844 L 15.484375 94.839844 Z M 13.546875 98.324219 L 15.097656 98.324219 L 15.097656 96.773438 L 13.546875 96.773438 Z M 15.484375 98.324219 L 17.03125 98.324219 L 17.03125 96.773438 L 15.484375 96.773438 Z M 17.417969 98.324219 L 18.96875 98.324219 L 18.96875 96.773438 L 17.417969 96.773438 Z M 25.160156 86.710938 L 26.710938 86.710938 L 26.710938 85.160156 L 25.160156 85.160156 Z M 27.097656 88.644531 L 28.644531 88.644531 L 28.644531 87.097656 L 27.097656 87.097656 Z M 29.03125 90.582031 L 30.582031 90.582031 L 30.582031 89.03125 L 29.03125 89.03125 Z M 30.96875 92.515625 L 32.515625 92.515625 L 32.515625 90.96875 L 30.96875 90.96875 Z M 29.03125 94.453125 L 30.582031 94.453125 L 30.582031 92.902344 L 29.03125 92.902344 Z M 27.097656 96.386719 L 28.644531 96.386719 L 28.644531 94.839844 L 27.097656 94.839844 Z M 25.160156 98.324219 L 26.710938 98.324219 L 26.710938 96.773438 L 25.160156 96.773438 Z M 34.839844 90.582031 L 36.386719 90.582031 L 36.386719 89.03125 L 34.839844 89.03125 Z M 36.773438 90.582031 L 38.324219 90.582031 L 38.324219 89.03125 L 36.773438 89.03125 Z M 38.710938 90.582031 L 40.257812 90.582031 L 40.257812 89.03125 L 38.710938 89.03125 Z M 40.644531 90.582031 L 42.195312 90.582031 L 42.195312 89.03125 L 40.644531 89.03125 Z M 42.582031 90.582031 L 44.128906 90.582031 L 44.128906 89.03125 L 42.582031 89.03125 Z M 34.839844 94.453125 L 36.386719 94.453125 L 36.386719 92.902344 L 34.839844 92.902344 Z M 36.773438 94.453125 L 38.324219 94.453125 L 38.324219 92.902344 L 36.773438 92.902344 Z M 38.710938 94.453125 L 40.257812 94.453125 L 40.257812 92.902344 L 38.710938 92.902344 Z M 40.644531 94.453125 L 42.195312 94.453125 L 42.195312 92.902344 L 40.644531 92.902344 Z M 42.582031 94.453125 L 44.128906 94.453125 L 44.128906 92.902344 L 42.582031 92.902344 Z M 48.386719 90.582031 L 49.933594 90.582031 L 49.933594 89.03125 L 48.386719 89.03125 Z M 50.324219 90.582031 L 51.871094 90.582031 L 51.871094 89.03125 L 50.324219 89.03125 Z M 52.257812 90.582031 L 53.804688 90.582031 L 53.804688 89.03125 L 52.257812 89.03125 Z M 54.195312 92.515625 L 55.742188 92.515625 L 55.742188 90.96875 L 54.195312 90.96875 Z M 48.386719 94.453125 L 49.933594 94.453125 L 49.933594 92.902344 L 48.386719 92.902344 Z M 50.324219 94.453125 L 51.871094 94.453125 L 51.871094 92.902344 L 50.324219 92.902344 Z M 52.257812 94.453125 L 53.804688 94.453125 L 53.804688 92.902344 L 52.257812 92.902344 Z M 54.195312 94.453125 L 55.742188 94.453125 L 55.742188 92.902344 L 54.195312 92.902344 Z M 46.453125 96.386719 L 48 96.386719 L 48 94.839844 L 46.453125 94.839844 Z M 54.195312 96.386719 L 55.742188 96.386719 L 55.742188 94.839844 L 54.195312 94.839844 Z M 48.386719 98.324219 L 49.933594 98.324219 L 49.933594 96.773438 L 48.386719 96.773438 Z M 50.324219 98.324219 L 51.871094 98.324219 L 51.871094 96.773438 L 50.324219 96.773438 Z M 52.257812 98.324219 L 53.804688 98.324219 L 53.804688 96.773438 L 52.257812 96.773438 Z M 54.195312 98.324219 L 55.742188 98.324219 L 55.742188 96.773438 L 54.195312 96.773438 Z M 61.933594 82.257812 L 63.484375 82.257812 L 63.484375 80.710938 L 61.933594 80.710938 Z M 60 84.195312 L 61.546875 84.195312 L 61.546875 82.644531 L 60 82.644531 Z M 61.933594 84.195312 L 63.484375 84.195312 L 63.484375 82.644531 L 61.933594 82.644531 Z M 63.871094 84.195312 L 65.417969 84.195312 L 65.417969 82.644531 L 63.871094 82.644531 Z M 61.933594 86.128906 L 63.484375 86.128906 L 63.484375 84.582031 L 61.933594 84.582031 Z M 61.933594 88.066406 L 63.484375 88.066406 L 63.484375 86.515625 L 61.933594 86.515625 Z M 61.933594 90 L 63.484375 90 L 63.484375 88.453125 L 61.933594 88.453125 Z M 71.613281 90.582031 L 73.160156 90.582031 L 73.160156 89.03125 L 71.613281 89.03125 Z M 73.546875 90.582031 L 75.097656 90.582031 L 75.097656 89.03125 L 73.546875 89.03125 Z M 75.484375 90.582031 L 77.03125 90.582031 L 77.03125 89.03125 L 75.484375 89.03125 Z M 77.417969 92.515625 L 78.96875 92.515625 L 78.96875 90.96875 L 77.417969 90.96875 Z M 71.613281 94.453125 L 73.160156 94.453125 L 73.160156 92.902344 L 71.613281 92.902344 Z M 73.546875 94.453125 L 75.097656 94.453125 L 75.097656 92.902344 L 73.546875 92.902344 Z M 75.484375 94.453125 L 77.03125 94.453125 L 77.03125 92.902344 L 75.484375 92.902344 Z M 77.417969 94.453125 L 78.96875 94.453125 L 78.96875 92.902344 L 77.417969 92.902344 Z M 69.675781 96.386719 L 71.226562 96.386719 L 71.226562 94.839844 L 69.675781 94.839844 Z M 77.417969 96.386719 L 78.96875 96.386719 L 78.96875 94.839844 L 77.417969 94.839844 Z M 71.613281 98.324219 L 73.160156 98.324219 L 73.160156 96.773438 L 71.613281 96.773438 Z M 73.546875 98.324219 L 75.097656 98.324219 L 75.097656 96.773438 L 73.546875 96.773438 Z M 75.484375 98.324219 L 77.03125 98.324219 L 77.03125 96.773438 L 75.484375 96.773438 Z M 77.417969 98.324219 L 78.96875 98.324219 L 78.96875 96.773438 L 77.417969 96.773438 Z M 85.160156 86.710938 L 86.710938 86.710938 L 86.710938 85.160156 L 85.160156 85.160156 Z M 85.160156 88.644531 L 86.710938 88.644531 L 86.710938 87.097656 L 85.160156 87.097656 Z M 85.160156 90.582031 L 86.710938 90.582031 L 86.710938 89.03125 L 85.160156 89.03125 Z M 85.160156 92.515625 L 86.710938 92.515625 L 86.710938 90.96875 L 85.160156 90.96875 Z M 85.160156 94.453125 L 86.710938 94.453125 L 86.710938 92.902344 L 85.160156 92.902344 Z M 85.160156 96.386719 L 86.710938 96.386719 L 86.710938 94.839844 L 85.160156 94.839844 Z M 85.160156 98.324219 L 86.710938 98.324219 L 86.710938 96.773438 L 85.160156 96.773438 Z M 96.773438 88.644531 L 98.324219 88.644531 L 98.324219 87.097656 L 96.773438 87.097656 Z M 92.902344 90.582031 L 94.453125 90.582031 L 94.453125 89.03125 L 92.902344 89.03125 Z M 96.773438 90.582031 L 98.324219 90.582031 L 98.324219 89.03125 L 96.773438 89.03125 Z M 100.644531 90.582031 L 102.195312 90.582031 L 102.195312 89.03125 L 100.644531 89.03125 Z M 92.902344 92.515625 L 94.453125 92.515625 L 94.453125 90.96875 L 92.902344 90.96875 Z M 96.773438 92.515625 L 98.324219 92.515625 L 98.324219 90.96875 L 96.773438 90.96875 Z M 100.644531 92.515625 L 102.195312 92.515625 L 102.195312 90.96875 L 100.644531 90.96875 Z M 94.839844 94.453125 L 96.386719 94.453125 L 96.386719 92.902344 L 94.839844 92.902344 Z M 96.773438 94.453125 L 98.324219 94.453125 L 98.324219 92.902344 L 96.773438 92.902344 Z M 98.710938 94.453125 L 100.257812 94.453125 L 100.257812 92.902344 L 98.710938 92.902344 Z M 96.773438 96.386719 L 98.324219 96.386719 L 98.324219 94.839844 L 96.773438 94.839844 Z M 96.773438 98.324219 L 98.324219 98.324219 L 98.324219 96.773438 L 96.773438 96.773438 Z M 108.386719 93.097656 L 109.933594 93.097656 L 109.933594 91.546875 L 108.386719 91.546875 Z M 106.453125 95.03125 L 108 95.03125 L 108 93.484375 L 106.453125 93.484375 Z M 108.386719 95.03125 L 109.933594 95.03125 L 109.933594 93.484375 L 108.386719 93.484375 Z M 108.386719 96.96875 L 109.933594 96.96875 L 109.933594 95.417969 L 108.386719 95.417969 Z M 108.386719 98.902344 L 109.933594 98.902344 L 109.933594 97.355469 L 108.386719 97.355469 Z M 108.386719 100.839844 L 109.933594 100.839844 L 109.933594 99.289062 L 108.386719 99.289062 Z M 108.386719 102.773438 L 109.933594 102.773438 L 109.933594 101.226562 L 108.386719 101.226562 Z M 106.453125 104.710938 L 108 104.710938 L 108 103.160156 L 106.453125 103.160156 Z M 108.386719 104.710938 L 109.933594 104.710938 L 109.933594 103.160156 L 108.386719 103.160156 Z M 110.324219 104.710938 L 111.871094 104.710938 L 111.871094 103.160156 L 110.324219 103.160156 Z M 118.066406 86.710938 L 119.613281 86.710938 L 119.613281 85.160156 L 118.066406 85.160156 Z M 120 88.644531 L 121.546875 88.644531 L 121.546875 87.097656 L 120 87.097656 Z M 121.933594 90.582031 L 123.484375 90.582031 L 123.484375 89.03125 L 121.933594 89.03125 Z M 123.871094 92.515625 L 125.417969 92.515625 L 125.417969 90.96875 L 123.871094 90.96875 Z M 121.933594 94.453125 L 123.484375 94.453125 L 123.484375 92.902344 L 121.933594 92.902344 Z M 120 96.386719 L 121.546875 96.386719 L 121.546875 94.839844 L 120 94.839844 Z M 118.066406 98.324219 L 119.613281 98.324219 L 119.613281 96.773438 L 118.066406 96.773438 Z M 131.613281 88.644531 L 133.160156 88.644531 L 133.160156 87.097656 L 131.613281 87.097656 Z M 131.613281 90.582031 L 133.160156 90.582031 L 133.160156 89.03125 L 131.613281 89.03125 Z M 127.742188 92.515625 L 129.289062 92.515625 L 129.289062 90.96875 L 127.742188 90.96875 Z M 129.675781 92.515625 L 131.226562 92.515625 L 131.226562 90.96875 L 129.675781 90.96875 Z M 131.613281 92.515625 L 133.160156 92.515625 L 133.160156 90.96875 L 131.613281 90.96875 Z M 133.546875 92.515625 L 135.097656 92.515625 L 135.097656 90.96875 L 133.546875 90.96875 Z M 135.484375 92.515625 L 137.03125 92.515625 L 137.03125 90.96875 L 135.484375 90.96875 Z M 131.613281 94.453125 L 133.160156 94.453125 L 133.160156 92.902344 L 131.613281 92.902344 Z M 131.613281 96.386719 L 133.160156 96.386719 L 133.160156 94.839844 L 131.613281 94.839844 Z M 139.355469 86.710938 L 140.902344 86.710938 L 140.902344 85.160156 L 139.355469 85.160156 Z M 139.355469 88.644531 L 140.902344 88.644531 L 140.902344 87.097656 L 139.355469 87.097656 Z M 139.355469 90.582031 L 140.902344 90.582031 L 140.902344 89.03125 L 139.355469 89.03125 Z M 143.226562 90.582031 L 144.773438 90.582031 L 144.773438 89.03125 L 143.226562 89.03125 Z M 145.160156 90.582031 L 146.710938 90.582031 L 146.710938 89.03125 L 145.160156 89.03125 Z M 139.355469 92.515625 L 140.902344 92.515625 L 140.902344 90.96875 L 139.355469 90.96875 Z M 141.289062 92.515625 L 142.839844 92.515625 L 142.839844 90.96875 L 141.289062 90.96875 Z M 147.097656 92.515625 L 148.644531 92.515625 L 148.644531 90.96875 L 147.097656 90.96875 Z M 139.355469 94.453125 L 140.902344 94.453125 L 140.902344 92.902344 L 139.355469 92.902344 Z M 147.097656 94.453125 L 148.644531 94.453125 L 148.644531 92.902344 L 147.097656 92.902344 Z M 139.355469 96.386719 L 140.902344 96.386719 L 140.902344 94.839844 L 139.355469 94.839844 Z M 147.097656 96.386719 L 148.644531 96.386719 L 148.644531 94.839844 L 147.097656 94.839844 Z M 139.355469 98.324219 L 140.902344 98.324219 L 140.902344 96.773438 L 139.355469 96.773438 Z M 141.289062 98.324219 L 142.839844 98.324219 L 142.839844 96.773438 L 141.289062 96.773438 Z M 143.226562 98.324219 L 144.773438 98.324219 L 144.773438 96.773438 L 143.226562 96.773438 Z M 145.160156 98.324219 L 146.710938 98.324219 L 146.710938 96.773438 L 145.160156 96.773438 Z M 154.839844 82.257812 L 156.386719 82.257812 L 156.386719 80.710938 L 154.839844 80.710938 Z M 152.902344 84.195312 L 154.453125 84.195312 L 154.453125 82.644531 L 152.902344 82.644531 Z M 154.839844 84.195312 L 156.386719 84.195312 L 156.386719 82.644531 L 154.839844 82.644531 Z M 156.773438 84.195312 L 158.324219 84.195312 L 158.324219 82.644531 L 156.773438 82.644531 Z M 154.839844 86.128906 L 156.386719 86.128906 L 156.386719 84.582031 L 154.839844 84.582031 Z M 154.839844 88.066406 L 156.386719 88.066406 L 156.386719 86.515625 L 154.839844 86.515625 Z M 154.839844 90 L 156.386719 90 L 156.386719 88.453125 L 154.839844 88.453125 Z M 162.582031 86.710938 L 164.128906 86.710938 L 164.128906 85.160156 L 162.582031 85.160156 Z M 162.582031 88.644531 L 164.128906 88.644531 L 164.128906 87.097656 L 162.582031 87.097656 Z M 162.582031 90.582031 L 164.128906 90.582031 L 164.128906 89.03125 L 162.582031 89.03125 Z M 166.453125 90.582031 L 168 90.582031 L 168 89.03125 L 166.453125 89.03125 Z M 168.386719 90.582031 L 169.933594 90.582031 L 169.933594 89.03125 L 168.386719 89.03125 Z M 162.582031 92.515625 L 164.128906 92.515625 L 164.128906 90.96875 L 162.582031 90.96875 Z M 164.515625 92.515625 L 166.066406 92.515625 L 166.066406 90.96875 L 164.515625 90.96875 Z M 170.324219 92.515625 L 171.871094 92.515625 L 171.871094 90.96875 L 170.324219 90.96875 Z M 162.582031 94.453125 L 164.128906 94.453125 L 164.128906 92.902344 L 162.582031 92.902344 Z M 170.324219 94.453125 L 171.871094 94.453125 L 171.871094 92.902344 L 170.324219 92.902344 Z M 162.582031 96.386719 L 164.128906 96.386719 L 164.128906 94.839844 L 162.582031 94.839844 Z M 170.324219 96.386719 L 171.871094 96.386719 L 171.871094 94.839844 L 170.324219 94.839844 Z M 162.582031 98.324219 L 164.128906 98.324219 L 164.128906 96.773438 L 162.582031 96.773438 Z M 164.515625 98.324219 L 166.066406 98.324219 L 166.066406 96.773438 L 164.515625 96.773438 Z M 166.453125 98.324219 L 168 98.324219 L 168 96.773438 L 166.453125 96.773438 Z M 168.386719 98.324219 L 169.933594 98.324219 L 169.933594 96.773438 L 168.386719 96.773438 Z M 178.066406 86.710938 L 179.613281 86.710938 L 179.613281 85.160156 L 178.066406 85.160156 Z M 178.066406 88.644531 L 179.613281 88.644531 L 179.613281 87.097656 L 178.066406 87.097656 Z M 178.066406 90.582031 L 179.613281 90.582031 L 179.613281 89.03125 L 178.066406 89.03125 Z M 178.066406 92.515625 L 179.613281 92.515625 L 179.613281 90.96875 L 178.066406 90.96875 Z M 178.066406 94.453125 L 179.613281 94.453125 L 179.613281 92.902344 L 178.066406 92.902344 Z M 178.066406 96.386719 L 179.613281 96.386719 L 179.613281 94.839844 L 178.066406 94.839844 Z M 178.066406 98.324219 L 179.613281 98.324219 L 179.613281 96.773438 L 178.066406 96.773438 Z M 189.675781 88.644531 L 191.226562 88.644531 L 191.226562 87.097656 L 189.675781 87.097656 Z M 185.804688 90.582031 L 187.355469 90.582031 L 187.355469 89.03125 L 185.804688 89.03125 Z M 189.675781 90.582031 L 191.226562 90.582031 L 191.226562 89.03125 L 189.675781 89.03125 Z M 193.546875 90.582031 L 195.097656 90.582031 L 195.097656 89.03125 L 193.546875 89.03125 Z M 185.804688 92.515625 L 187.355469 92.515625 L 187.355469 90.96875 L 185.804688 90.96875 Z M 189.675781 92.515625 L 191.226562 92.515625 L 191.226562 90.96875 L 189.675781 90.96875 Z M 193.546875 92.515625 L 195.097656 92.515625 L 195.097656 90.96875 L 193.546875 90.96875 Z M 187.742188 94.453125 L 189.289062 94.453125 L 189.289062 92.902344 L 187.742188 92.902344 Z M 189.675781 94.453125 L 191.226562 94.453125 L 191.226562 92.902344 L 189.675781 92.902344 Z M 191.613281 94.453125 L 193.160156 94.453125 L 193.160156 92.902344 L 191.613281 92.902344 Z M 189.675781 96.386719 L 191.226562 96.386719 L 191.226562 94.839844 L 189.675781 94.839844 Z M 189.675781 98.324219 L 191.226562 98.324219 L 191.226562 96.773438 L 189.675781 96.773438 Z M 199.355469 93.097656 L 200.902344 93.097656 L 200.902344 91.546875 L 199.355469 91.546875 Z M 201.289062 93.097656 L 202.839844 93.097656 L 202.839844 91.546875 L 201.289062 91.546875 Z M 203.226562 93.097656 L 204.773438 93.097656 L 204.773438 91.546875 L 203.226562 91.546875 Z M 197.417969 95.03125 L 198.96875 95.03125 L 198.96875 93.484375 L 197.417969 93.484375 Z M 205.160156 95.03125 L 206.710938 95.03125 L 206.710938 93.484375 L 205.160156 93.484375 Z M 205.160156 96.96875 L 206.710938 96.96875 L 206.710938 95.417969 L 205.160156 95.417969 Z M 203.226562 98.902344 L 204.773438 98.902344 L 204.773438 97.355469 L 203.226562 97.355469 Z M 201.289062 100.839844 L 202.839844 100.839844 L 202.839844 99.289062 L 201.289062 99.289062 Z M 199.355469 102.773438 L 200.902344 102.773438 L 200.902344 101.226562 L 199.355469 101.226562 Z M 197.417969 104.710938 L 198.96875 104.710938 L 198.96875 103.160156 L 197.417969 103.160156 Z M 199.355469 104.710938 L 200.902344 104.710938 L 200.902344 103.160156 L 199.355469 103.160156 Z M 201.289062 104.710938 L 202.839844 104.710938 L 202.839844 103.160156 L 201.289062 103.160156 Z M 203.226562 104.710938 L 204.773438 104.710938 L 204.773438 103.160156 L 203.226562 103.160156 Z M 205.160156 104.710938 L 206.710938 104.710938 L 206.710938 103.160156 L 205.160156 103.160156 Z M 210.96875 86.710938 L 212.515625 86.710938 L 212.515625 85.160156 L 210.96875 85.160156 Z M 212.902344 88.644531 L 214.453125 88.644531 L 214.453125 87.097656 L 212.902344 87.097656 Z M 214.839844 90.582031 L 216.386719 90.582031 L 216.386719 89.03125 L 214.839844 89.03125 Z M 216.773438 92.515625 L 218.324219 92.515625 L 218.324219 90.96875 L 216.773438 90.96875 Z M 214.839844 94.453125 L 216.386719 94.453125 L 216.386719 92.902344 L 214.839844 92.902344 Z M 212.902344 96.386719 L 214.453125 96.386719 L 214.453125 94.839844 L 212.902344 94.839844 Z M 210.96875 98.324219 L 212.515625 98.324219 L 212.515625 96.773438 L 210.96875 96.773438 Z M 1.933594 133.160156 L 3.484375 133.160156 L 3.484375 131.613281 L 1.933594 131.613281 Z M 3.871094 133.160156 L 5.417969 133.160156 L 5.417969 131.613281 L 3.871094 131.613281 Z M 5.804688 133.160156 L 7.355469 133.160156 L 7.355469 131.613281 L 5.804688 131.613281 Z M 0 135.097656 L 1.546875 135.097656 L 1.546875 133.546875 L 0 133.546875 Z M 7.742188 135.097656 L 9.289062 135.097656 L 9.289062 133.546875 L 7.742188 133.546875 Z M 0 137.03125 L 1.546875 137.03125 L 1.546875 135.484375 L 0 135.484375 Z M 1.933594 137.03125 L 3.484375 137.03125 L 3.484375 135.484375 L 1.933594 135.484375 Z M 3.871094 137.03125 L 5.417969 137.03125 L 5.417969 135.484375 L 3.871094 135.484375 Z M 5.804688 137.03125 L 7.355469 137.03125 L 7.355469 135.484375 L 5.804688 135.484375 Z M 7.742188 137.03125 L 9.289062 137.03125 L 9.289062 135.484375 L 7.742188 135.484375 Z M 0 138.96875 L 1.546875 138.96875 L 1.546875 137.417969 L 0 137.417969 Z M 1.933594 140.902344 L 3.484375 140.902344 L 3.484375 139.355469 L 1.933594 139.355469 Z M 3.871094 140.902344 L 5.417969 140.902344 L 5.417969 139.355469 L 3.871094 139.355469 Z M 5.804688 140.902344 L 7.355469 140.902344 L 7.355469 139.355469 L 5.804688 139.355469 Z M 15.484375 122.902344 L 17.03125 122.902344 L 17.03125 121.355469 L 15.484375 121.355469 Z M 13.546875 126.773438 L 15.097656 126.773438 L 15.097656 125.226562 L 13.546875 125.226562 Z M 15.484375 126.773438 L 17.03125 126.773438 L 17.03125 125.226562 L 15.484375 125.226562 Z M 15.484375 128.710938 L 17.03125 128.710938 L 17.03125 127.160156 L 15.484375 127.160156 Z M 15.484375 130.644531 L 17.03125 130.644531 L 17.03125 129.097656 L 15.484375 129.097656 Z M 15.484375 132.582031 L 17.03125 132.582031 L 17.03125 131.03125 L 15.484375 131.03125 Z M 19.355469 132.582031 L 20.902344 132.582031 L 20.902344 131.03125 L 19.355469 131.03125 Z M 15.484375 134.515625 L 17.03125 134.515625 L 17.03125 132.96875 L 15.484375 132.96875 Z M 17.417969 134.515625 L 18.96875 134.515625 L 18.96875 132.96875 L 17.417969 132.96875 Z M 23.226562 126.773438 L 24.773438 126.773438 L 24.773438 125.226562 L 23.226562 125.226562 Z M 25.160156 126.773438 L 26.710938 126.773438 L 26.710938 125.226562 L 25.160156 125.226562 Z M 27.097656 126.773438 L 28.644531 126.773438 L 28.644531 125.226562 L 27.097656 125.226562 Z M 29.03125 126.773438 L 30.582031 126.773438 L 30.582031 125.226562 L 29.03125 125.226562 Z M 30.96875 126.773438 L 32.515625 126.773438 L 32.515625 125.226562 L 30.96875 125.226562 Z M 25.160156 128.710938 L 26.710938 128.710938 L 26.710938 127.160156 L 25.160156 127.160156 Z M 29.03125 128.710938 L 30.582031 128.710938 L 30.582031 127.160156 L 29.03125 127.160156 Z M 25.160156 130.644531 L 26.710938 130.644531 L 26.710938 129.097656 L 25.160156 129.097656 Z M 29.03125 130.644531 L 30.582031 130.644531 L 30.582031 129.097656 L 29.03125 129.097656 Z M 25.160156 132.582031 L 26.710938 132.582031 L 26.710938 131.03125 L 25.160156 131.03125 Z M 29.03125 132.582031 L 30.582031 132.582031 L 30.582031 131.03125 L 29.03125 131.03125 Z M 23.226562 134.515625 L 24.773438 134.515625 L 24.773438 132.96875 L 23.226562 132.96875 Z M 29.03125 134.515625 L 30.582031 134.515625 L 30.582031 132.96875 L 29.03125 132.96875 Z M 30.96875 134.515625 L 32.515625 134.515625 L 32.515625 132.96875 L 30.96875 132.96875 Z M 34.839844 133.160156 L 36.386719 133.160156 L 36.386719 131.613281 L 34.839844 131.613281 Z M 36.773438 133.160156 L 38.324219 133.160156 L 38.324219 131.613281 L 36.773438 131.613281 Z M 38.710938 133.160156 L 40.257812 133.160156 L 40.257812 131.613281 L 38.710938 131.613281 Z M 40.644531 133.160156 L 42.195312 133.160156 L 42.195312 131.613281 L 40.644531 131.613281 Z M 42.582031 133.160156 L 44.128906 133.160156 L 44.128906 131.613281 L 42.582031 131.613281 Z M 34.839844 137.03125 L 36.386719 137.03125 L 36.386719 135.484375 L 34.839844 135.484375 Z M 36.773438 137.03125 L 38.324219 137.03125 L 38.324219 135.484375 L 36.773438 135.484375 Z M 38.710938 137.03125 L 40.257812 137.03125 L 40.257812 135.484375 L 38.710938 135.484375 Z M 40.644531 137.03125 L 42.195312 137.03125 L 42.195312 135.484375 L 40.644531 135.484375 Z M 42.582031 137.03125 L 44.128906 137.03125 L 44.128906 135.484375 L 42.582031 135.484375 Z M 46.453125 135.097656 L 48 135.097656 L 48 133.546875 L 46.453125 133.546875 Z M 48.386719 135.097656 L 49.933594 135.097656 L 49.933594 133.546875 L 48.386719 133.546875 Z M 50.324219 135.097656 L 51.871094 135.097656 L 51.871094 133.546875 L 50.324219 133.546875 Z M 52.257812 135.097656 L 53.804688 135.097656 L 53.804688 133.546875 L 52.257812 133.546875 Z M 54.195312 135.097656 L 55.742188 135.097656 L 55.742188 133.546875 L 54.195312 133.546875 Z M 61.933594 129.289062 L 63.484375 129.289062 L 63.484375 127.742188 L 61.933594 127.742188 Z M 60 131.226562 L 61.546875 131.226562 L 61.546875 129.675781 L 60 129.675781 Z M 61.933594 131.226562 L 63.484375 131.226562 L 63.484375 129.675781 L 61.933594 129.675781 Z M 61.933594 133.160156 L 63.484375 133.160156 L 63.484375 131.613281 L 61.933594 131.613281 Z M 61.933594 135.097656 L 63.484375 135.097656 L 63.484375 133.546875 L 61.933594 133.546875 Z M 61.933594 137.03125 L 63.484375 137.03125 L 63.484375 135.484375 L 61.933594 135.484375 Z M 61.933594 138.96875 L 63.484375 138.96875 L 63.484375 137.417969 L 61.933594 137.417969 Z M 60 140.902344 L 61.546875 140.902344 L 61.546875 139.355469 L 60 139.355469 Z M 61.933594 140.902344 L 63.484375 140.902344 L 63.484375 139.355469 L 61.933594 139.355469 Z M 63.871094 140.902344 L 65.417969 140.902344 L 65.417969 139.355469 L 63.871094 139.355469 Z M 83.226562 133.160156 L 84.773438 133.160156 L 84.773438 131.613281 L 83.226562 131.613281 Z M 85.160156 133.160156 L 86.710938 133.160156 L 86.710938 131.613281 L 85.160156 131.613281 Z M 87.097656 133.160156 L 88.644531 133.160156 L 88.644531 131.613281 L 87.097656 131.613281 Z M 89.03125 135.097656 L 90.582031 135.097656 L 90.582031 133.546875 L 89.03125 133.546875 Z M 83.226562 137.03125 L 84.773438 137.03125 L 84.773438 135.484375 L 83.226562 135.484375 Z M 85.160156 137.03125 L 86.710938 137.03125 L 86.710938 135.484375 L 85.160156 135.484375 Z M 87.097656 137.03125 L 88.644531 137.03125 L 88.644531 135.484375 L 87.097656 135.484375 Z M 89.03125 137.03125 L 90.582031 137.03125 L 90.582031 135.484375 L 89.03125 135.484375 Z M 81.289062 138.96875 L 82.839844 138.96875 L 82.839844 137.417969 L 81.289062 137.417969 Z M 89.03125 138.96875 L 90.582031 138.96875 L 90.582031 137.417969 L 89.03125 137.417969 Z M 83.226562 140.902344 L 84.773438 140.902344 L 84.773438 139.355469 L 83.226562 139.355469 Z M 85.160156 140.902344 L 86.710938 140.902344 L 86.710938 139.355469 L 85.160156 139.355469 Z M 87.097656 140.902344 L 88.644531 140.902344 L 88.644531 139.355469 L 87.097656 139.355469 Z M 89.03125 140.902344 L 90.582031 140.902344 L 90.582031 139.355469 L 89.03125 139.355469 Z M 92.902344 133.160156 L 94.453125 133.160156 L 94.453125 131.613281 L 92.902344 131.613281 Z M 96.773438 133.160156 L 98.324219 133.160156 L 98.324219 131.613281 L 96.773438 131.613281 Z M 98.710938 133.160156 L 100.257812 133.160156 L 100.257812 131.613281 L 98.710938 131.613281 Z M 92.902344 135.097656 L 94.453125 135.097656 L 94.453125 133.546875 L 92.902344 133.546875 Z M 94.839844 135.097656 L 96.386719 135.097656 L 96.386719 133.546875 L 94.839844 133.546875 Z M 100.644531 135.097656 L 102.195312 135.097656 L 102.195312 133.546875 L 100.644531 133.546875 Z M 92.902344 137.03125 L 94.453125 137.03125 L 94.453125 135.484375 L 92.902344 135.484375 Z M 100.644531 137.03125 L 102.195312 137.03125 L 102.195312 135.484375 L 100.644531 135.484375 Z M 92.902344 138.96875 L 94.453125 138.96875 L 94.453125 137.417969 L 92.902344 137.417969 Z M 100.644531 138.96875 L 102.195312 138.96875 L 102.195312 137.417969 L 100.644531 137.417969 Z M 92.902344 140.902344 L 94.453125 140.902344 L 94.453125 139.355469 L 92.902344 139.355469 Z M 100.644531 140.902344 L 102.195312 140.902344 L 102.195312 139.355469 L 100.644531 139.355469 Z M 112.257812 129.289062 L 113.804688 129.289062 L 113.804688 127.742188 L 112.257812 127.742188 Z M 112.257812 131.226562 L 113.804688 131.226562 L 113.804688 129.675781 L 112.257812 129.675781 Z M 106.453125 133.160156 L 108 133.160156 L 108 131.613281 L 106.453125 131.613281 Z M 108.386719 133.160156 L 109.933594 133.160156 L 109.933594 131.613281 L 108.386719 131.613281 Z M 112.257812 133.160156 L 113.804688 133.160156 L 113.804688 131.613281 L 112.257812 131.613281 Z M 104.515625 135.097656 L 106.066406 135.097656 L 106.066406 133.546875 L 104.515625 133.546875 Z M 110.324219 135.097656 L 111.871094 135.097656 L 111.871094 133.546875 L 110.324219 133.546875 Z M 112.257812 135.097656 L 113.804688 135.097656 L 113.804688 133.546875 L 112.257812 133.546875 Z M 104.515625 137.03125 L 106.066406 137.03125 L 106.066406 135.484375 L 104.515625 135.484375 Z M 112.257812 137.03125 L 113.804688 137.03125 L 113.804688 135.484375 L 112.257812 135.484375 Z M 104.515625 138.96875 L 106.066406 138.96875 L 106.066406 137.417969 L 104.515625 137.417969 Z M 112.257812 138.96875 L 113.804688 138.96875 L 113.804688 137.417969 L 112.257812 137.417969 Z M 106.453125 140.902344 L 108 140.902344 L 108 139.355469 L 106.453125 139.355469 Z M 108.386719 140.902344 L 109.933594 140.902344 L 109.933594 139.355469 L 108.386719 139.355469 Z M 110.324219 140.902344 L 111.871094 140.902344 L 111.871094 139.355469 L 110.324219 139.355469 Z M 112.257812 140.902344 L 113.804688 140.902344 L 113.804688 139.355469 L 112.257812 139.355469 Z M 129.675781 133.160156 L 131.226562 133.160156 L 131.226562 131.613281 L 129.675781 131.613281 Z M 131.613281 133.160156 L 133.160156 133.160156 L 133.160156 131.613281 L 131.613281 131.613281 Z M 133.546875 133.160156 L 135.097656 133.160156 L 135.097656 131.613281 L 133.546875 131.613281 Z M 127.742188 135.097656 L 129.289062 135.097656 L 129.289062 133.546875 L 127.742188 133.546875 Z M 127.742188 137.03125 L 129.289062 137.03125 L 129.289062 135.484375 L 127.742188 135.484375 Z M 127.742188 138.96875 L 129.289062 138.96875 L 129.289062 137.417969 L 127.742188 137.417969 Z M 135.484375 138.96875 L 137.03125 138.96875 L 137.03125 137.417969 L 135.484375 137.417969 Z M 129.675781 140.902344 L 131.226562 140.902344 L 131.226562 139.355469 L 129.675781 139.355469 Z M 131.613281 140.902344 L 133.160156 140.902344 L 133.160156 139.355469 L 131.613281 139.355469 Z M 133.546875 140.902344 L 135.097656 140.902344 L 135.097656 139.355469 L 133.546875 139.355469 Z M 139.355469 139.546875 L 140.902344 139.546875 L 140.902344 138 L 139.355469 138 Z M 147.097656 139.546875 L 148.644531 139.546875 L 148.644531 138 L 147.097656 138 Z M 139.355469 141.484375 L 140.902344 141.484375 L 140.902344 139.933594 L 139.355469 139.933594 Z M 147.097656 141.484375 L 148.644531 141.484375 L 148.644531 139.933594 L 147.097656 139.933594 Z M 139.355469 143.417969 L 140.902344 143.417969 L 140.902344 141.871094 L 139.355469 141.871094 Z M 147.097656 143.417969 L 148.644531 143.417969 L 148.644531 141.871094 L 147.097656 141.871094 Z M 141.289062 145.355469 L 142.839844 145.355469 L 142.839844 143.804688 L 141.289062 143.804688 Z M 145.160156 145.355469 L 146.710938 145.355469 L 146.710938 143.804688 L 145.160156 143.804688 Z M 143.226562 147.289062 L 144.773438 147.289062 L 144.773438 145.742188 L 143.226562 145.742188 Z M 152.902344 139.546875 L 154.453125 139.546875 L 154.453125 138 L 152.902344 138 Z M 154.839844 139.546875 L 156.386719 139.546875 L 156.386719 138 L 154.839844 138 Z M 156.773438 139.546875 L 158.324219 139.546875 L 158.324219 138 L 156.773438 138 Z M 158.710938 141.484375 L 160.257812 141.484375 L 160.257812 139.933594 L 158.710938 139.933594 Z M 152.902344 143.417969 L 154.453125 143.417969 L 154.453125 141.871094 L 152.902344 141.871094 Z M 154.839844 143.417969 L 156.386719 143.417969 L 156.386719 141.871094 L 154.839844 141.871094 Z M 156.773438 143.417969 L 158.324219 143.417969 L 158.324219 141.871094 L 156.773438 141.871094 Z M 158.710938 143.417969 L 160.257812 143.417969 L 160.257812 141.871094 L 158.710938 141.871094 Z M 150.96875 145.355469 L 152.515625 145.355469 L 152.515625 143.804688 L 150.96875 143.804688 Z M 158.710938 145.355469 L 160.257812 145.355469 L 160.257812 143.804688 L 158.710938 143.804688 Z M 152.902344 147.289062 L 154.453125 147.289062 L 154.453125 145.742188 L 152.902344 145.742188 Z M 154.839844 147.289062 L 156.386719 147.289062 L 156.386719 145.742188 L 154.839844 145.742188 Z M 156.773438 147.289062 L 158.324219 147.289062 L 158.324219 145.742188 L 156.773438 145.742188 Z M 158.710938 147.289062 L 160.257812 147.289062 L 160.257812 145.742188 L 158.710938 145.742188 Z M 164.515625 139.546875 L 166.066406 139.546875 L 166.066406 138 L 164.515625 138 Z M 166.453125 139.546875 L 168 139.546875 L 168 138 L 166.453125 138 Z M 168.386719 139.546875 L 169.933594 139.546875 L 169.933594 138 L 168.386719 138 Z M 162.582031 141.484375 L 164.128906 141.484375 L 164.128906 139.933594 L 162.582031 139.933594 Z M 162.582031 143.417969 L 164.128906 143.417969 L 164.128906 141.871094 L 162.582031 141.871094 Z M 162.582031 145.355469 L 164.128906 145.355469 L 164.128906 143.804688 L 162.582031 143.804688 Z M 170.324219 145.355469 L 171.871094 145.355469 L 171.871094 143.804688 L 170.324219 143.804688 Z M 164.515625 147.289062 L 166.066406 147.289062 L 166.066406 145.742188 L 164.515625 145.742188 Z M 166.453125 147.289062 L 168 147.289062 L 168 145.742188 L 166.453125 145.742188 Z M 168.386719 147.289062 L 169.933594 147.289062 L 169.933594 145.742188 L 168.386719 145.742188 Z M 176.128906 131.226562 L 177.675781 131.226562 L 177.675781 129.675781 L 176.128906 129.675781 Z M 174.195312 133.160156 L 175.742188 133.160156 L 175.742188 131.613281 L 174.195312 131.613281 Z M 178.066406 133.160156 L 179.613281 133.160156 L 179.613281 131.613281 L 178.066406 131.613281 Z M 181.933594 133.160156 L 183.484375 133.160156 L 183.484375 131.613281 L 181.933594 131.613281 Z M 180 135.097656 L 181.546875 135.097656 L 181.546875 133.546875 L 180 133.546875 Z M 176.128906 137.03125 L 177.675781 137.03125 L 177.675781 135.484375 L 176.128906 135.484375 Z M 174.195312 138.96875 L 175.742188 138.96875 L 175.742188 137.417969 L 174.195312 137.417969 Z M 178.066406 138.96875 L 179.613281 138.96875 L 179.613281 137.417969 L 178.066406 137.417969 Z M 181.933594 138.96875 L 183.484375 138.96875 L 183.484375 137.417969 L 181.933594 137.417969 Z M 180 140.902344 L 181.546875 140.902344 L 181.546875 139.355469 L 180 139.355469 Z M 185.804688 129.289062 L 187.355469 129.289062 L 187.355469 127.742188 L 185.804688 127.742188 Z M 187.742188 129.289062 L 189.289062 129.289062 L 189.289062 127.742188 L 187.742188 127.742188 Z M 189.675781 129.289062 L 191.226562 129.289062 L 191.226562 127.742188 L 189.675781 127.742188 Z M 191.613281 129.289062 L 193.160156 129.289062 L 193.160156 127.742188 L 191.613281 127.742188 Z M 193.546875 129.289062 L 195.097656 129.289062 L 195.097656 127.742188 L 193.546875 127.742188 Z M 191.613281 131.226562 L 193.160156 131.226562 L 193.160156 129.675781 L 191.613281 129.675781 Z M 189.675781 133.160156 L 191.226562 133.160156 L 191.226562 131.613281 L 189.675781 131.613281 Z M 191.613281 135.097656 L 193.160156 135.097656 L 193.160156 133.546875 L 191.613281 133.546875 Z M 193.546875 137.03125 L 195.097656 137.03125 L 195.097656 135.484375 L 193.546875 135.484375 Z M 185.804688 138.96875 L 187.355469 138.96875 L 187.355469 137.417969 L 185.804688 137.417969 Z M 193.546875 138.96875 L 195.097656 138.96875 L 195.097656 137.417969 L 193.546875 137.417969 Z M 187.742188 140.902344 L 189.289062 140.902344 L 189.289062 139.355469 L 187.742188 139.355469 Z M 189.675781 140.902344 L 191.226562 140.902344 L 191.226562 139.355469 L 189.675781 139.355469 Z M 191.613281 140.902344 L 193.160156 140.902344 L 193.160156 139.355469 L 191.613281 139.355469 Z M 197.417969 133.160156 L 198.96875 133.160156 L 198.96875 131.613281 L 197.417969 131.613281 Z M 205.160156 133.160156 L 206.710938 133.160156 L 206.710938 131.613281 L 205.160156 131.613281 Z M 199.355469 135.097656 L 200.902344 135.097656 L 200.902344 133.546875 L 199.355469 133.546875 Z M 203.226562 135.097656 L 204.773438 135.097656 L 204.773438 133.546875 L 203.226562 133.546875 Z M 201.289062 137.03125 L 202.839844 137.03125 L 202.839844 135.484375 L 201.289062 135.484375 Z M 199.355469 138.96875 L 200.902344 138.96875 L 200.902344 137.417969 L 199.355469 137.417969 Z M 203.226562 138.96875 L 204.773438 138.96875 L 204.773438 137.417969 L 203.226562 137.417969 Z M 197.417969 140.902344 L 198.96875 140.902344 L 198.96875 139.355469 L 197.417969 139.355469 Z M 205.160156 140.902344 L 206.710938 140.902344 L 206.710938 139.355469 L 205.160156 139.355469 Z M 212.902344 129.289062 L 214.453125 129.289062 L 214.453125 127.742188 L 212.902344 127.742188 Z M 210.96875 131.226562 L 212.515625 131.226562 L 212.515625 129.675781 L 210.96875 129.675781 Z M 212.902344 131.226562 L 214.453125 131.226562 L 214.453125 129.675781 L 212.902344 129.675781 Z M 212.902344 133.160156 L 214.453125 133.160156 L 214.453125 131.613281 L 212.902344 131.613281 Z M 212.902344 135.097656 L 214.453125 135.097656 L 214.453125 133.546875 L 212.902344 133.546875 Z M 212.902344 137.03125 L 214.453125 137.03125 L 214.453125 135.484375 L 212.902344 135.484375 Z M 212.902344 138.96875 L 214.453125 138.96875 L 214.453125 137.417969 L 212.902344 137.417969 Z M 210.96875 140.902344 L 212.515625 140.902344 L 212.515625 139.355469 L 210.96875 139.355469 Z M 212.902344 140.902344 L 214.453125 140.902344 L 214.453125 139.355469 L 212.902344 139.355469 Z M 214.839844 140.902344 L 216.386719 140.902344 L 216.386719 139.355469 L 214.839844 139.355469 Z M 222.582031 129.289062 L 224.128906 129.289062 L 224.128906 127.742188 L 222.582031 127.742188 Z M 224.515625 129.289062 L 226.066406 129.289062 L 226.066406 127.742188 L 224.515625 127.742188 Z M 226.453125 129.289062 L 228 129.289062 L 228 127.742188 L 226.453125 127.742188 Z M 220.644531 131.226562 L 222.195312 131.226562 L 222.195312 129.675781 L 220.644531 129.675781 Z M 228.386719 131.226562 L 229.933594 131.226562 L 229.933594 129.675781 L 228.386719 129.675781 Z M 220.644531 133.160156 L 222.195312 133.160156 L 222.195312 131.613281 L 220.644531 131.613281 Z M 226.453125 133.160156 L 228 133.160156 L 228 131.613281 L 226.453125 131.613281 Z M 228.386719 133.160156 L 229.933594 133.160156 L 229.933594 131.613281 L 228.386719 131.613281 Z M 220.644531 135.097656 L 222.195312 135.097656 L 222.195312 133.546875 L 220.644531 133.546875 Z M 224.515625 135.097656 L 226.066406 135.097656 L 226.066406 133.546875 L 224.515625 133.546875 Z M 228.386719 135.097656 L 229.933594 135.097656 L 229.933594 133.546875 L 228.386719 133.546875 Z M 220.644531 137.03125 L 222.195312 137.03125 L 222.195312 135.484375 L 220.644531 135.484375 Z M 222.582031 137.03125 L 224.128906 137.03125 L 224.128906 135.484375 L 222.582031 135.484375 Z M 228.386719 137.03125 L 229.933594 137.03125 L 229.933594 135.484375 L 228.386719 135.484375 Z M 220.644531 138.96875 L 222.195312 138.96875 L 222.195312 137.417969 L 220.644531 137.417969 Z M 228.386719 138.96875 L 229.933594 138.96875 L 229.933594 137.417969 L 228.386719 137.417969 Z M 222.582031 140.902344 L 224.128906 140.902344 L 224.128906 139.355469 L 222.582031 139.355469 Z M 224.515625 140.902344 L 226.066406 140.902344 L 226.066406 139.355469 L 224.515625 139.355469 Z M 226.453125 140.902344 L 228 140.902344 L 228 139.355469 L 226.453125 139.355469 Z M 234.195312 122.902344 L 235.742188 122.902344 L 235.742188 121.355469 L 234.195312 121.355469 Z M 236.128906 122.902344 L 237.675781 122.902344 L 237.675781 121.355469 L 236.128906 121.355469 Z M 238.066406 122.902344 L 239.613281 122.902344 L 239.613281 121.355469 L 238.066406 121.355469 Z M 232.257812 124.839844 L 233.804688 124.839844 L 233.804688 123.289062 L 232.257812 123.289062 Z M 240 124.839844 L 241.546875 124.839844 L 241.546875 123.289062 L 240 123.289062 Z M 232.257812 126.773438 L 233.804688 126.773438 L 233.804688 125.226562 L 232.257812 125.226562 Z M 240 126.773438 L 241.546875 126.773438 L 241.546875 125.226562 L 240 125.226562 Z M 234.195312 128.710938 L 235.742188 128.710938 L 235.742188 127.160156 L 234.195312 127.160156 Z M 236.128906 128.710938 L 237.675781 128.710938 L 237.675781 127.160156 L 236.128906 127.160156 Z M 238.066406 128.710938 L 239.613281 128.710938 L 239.613281 127.160156 L 238.066406 127.160156 Z M 232.257812 130.644531 L 233.804688 130.644531 L 233.804688 129.097656 L 232.257812 129.097656 Z M 240 130.644531 L 241.546875 130.644531 L 241.546875 129.097656 L 240 129.097656 Z M 232.257812 132.582031 L 233.804688 132.582031 L 233.804688 131.03125 L 232.257812 131.03125 Z M 240 132.582031 L 241.546875 132.582031 L 241.546875 131.03125 L 240 131.03125 Z M 234.195312 134.515625 L 235.742188 134.515625 L 235.742188 132.96875 L 234.195312 132.96875 Z M 236.128906 134.515625 L 237.675781 134.515625 L 237.675781 132.96875 L 236.128906 132.96875 Z M 238.066406 134.515625 L 239.613281 134.515625 L 239.613281 132.96875 L 238.066406 132.96875 Z M 255.484375 133.160156 L 257.03125 133.160156 L 257.03125 131.613281 L 255.484375 131.613281 Z M 257.417969 133.160156 L 258.96875 133.160156 L 258.96875 131.613281 L 257.417969 131.613281 Z M 261.289062 133.160156 L 262.839844 133.160156 L 262.839844 131.613281 L 261.289062 131.613281 Z M 255.484375 135.097656 L 257.03125 135.097656 L 257.03125 133.546875 L 255.484375 133.546875 Z M 259.355469 135.097656 L 260.902344 135.097656 L 260.902344 133.546875 L 259.355469 133.546875 Z M 263.226562 135.097656 L 264.773438 135.097656 L 264.773438 133.546875 L 263.226562 133.546875 Z M 255.484375 137.03125 L 257.03125 137.03125 L 257.03125 135.484375 L 255.484375 135.484375 Z M 259.355469 137.03125 L 260.902344 137.03125 L 260.902344 135.484375 L 259.355469 135.484375 Z M 263.226562 137.03125 L 264.773438 137.03125 L 264.773438 135.484375 L 263.226562 135.484375 Z M 255.484375 138.96875 L 257.03125 138.96875 L 257.03125 137.417969 L 255.484375 137.417969 Z M 263.226562 138.96875 L 264.773438 138.96875 L 264.773438 137.417969 L 263.226562 137.417969 Z M 255.484375 140.902344 L 257.03125 140.902344 L 257.03125 139.355469 L 255.484375 139.355469 Z M 263.226562 140.902344 L 264.773438 140.902344 L 264.773438 139.355469 L 263.226562 139.355469 Z M 274.839844 131.226562 L 276.386719 131.226562 L 276.386719 129.675781 L 274.839844 129.675781 Z M 272.902344 133.160156 L 274.453125 133.160156 L 274.453125 131.613281 L 272.902344 131.613281 Z M 270.96875 135.097656 L 272.515625 135.097656 L 272.515625 133.546875 L 270.96875 133.546875 Z M 269.03125 137.03125 L 270.582031 137.03125 L 270.582031 135.484375 L 269.03125 135.484375 Z M 267.097656 138.96875 L 268.644531 138.96875 L 268.644531 137.417969 L 267.097656 137.417969 Z M 280.644531 133.160156 L 282.195312 133.160156 L 282.195312 131.613281 L 280.644531 131.613281 Z M 282.582031 133.160156 L 284.128906 133.160156 L 284.128906 131.613281 L 282.582031 131.613281 Z M 284.515625 133.160156 L 286.066406 133.160156 L 286.066406 131.613281 L 284.515625 131.613281 Z M 278.710938 135.097656 L 280.257812 135.097656 L 280.257812 133.546875 L 278.710938 133.546875 Z M 280.644531 137.03125 L 282.195312 137.03125 L 282.195312 135.484375 L 280.644531 135.484375 Z M 282.582031 137.03125 L 284.128906 137.03125 L 284.128906 135.484375 L 282.582031 135.484375 Z M 284.515625 137.03125 L 286.066406 137.03125 L 286.066406 135.484375 L 284.515625 135.484375 Z M 286.453125 138.96875 L 288 138.96875 L 288 137.417969 L 286.453125 137.417969 Z M 278.710938 140.902344 L 280.257812 140.902344 L 280.257812 139.355469 L 278.710938 139.355469 Z M 280.644531 140.902344 L 282.195312 140.902344 L 282.195312 139.355469 L 280.644531 139.355469 Z M 282.582031 140.902344 L 284.128906 140.902344 L 284.128906 139.355469 L 282.582031 139.355469 Z M 284.515625 140.902344 L 286.066406 140.902344 L 286.066406 139.355469 L 284.515625 139.355469 Z M 284.515625 140.902344 "/>
</g>
</svg>
