<?xml version="1.0" encoding="UTF-8" ?>
<svg xmlns="http://www.w3.org/2000/svg" version="1.1" viewBox="1.806354028742346e-11 -1.3e6 1.6e6 1.6e6"  width="1.6e6" height="1.6e6" >
<polygon points="0,-295000 74,-295856 148,-296206 222,-296472 295,-296693 443,-297058 591,-297358 739,-297615 886,-297842 1034,-298045 1182,-298228 1347,-298414 1512,-298582 1676,-298736 1841,-298876 2171,-299123 2501,-299331 2840,-299510 3180,-299657 3519,-299776 3858,-299868 4144,-299926 4429,-299967 4715,-299992 5000,-300000 5000,300000 4715,299992 4429,299967 4144,299926 3858,299868 3519,299776 3180,299657 2840,299510 2501,299331 2171,299123 1841,298876 1676,298736 1512,298582 1347,298414 1182,298228 1034,298045 886,297842 739,297615 591,297358 443,297058 295,296693 222,296472 148,296206 74,295856 0,295000" fill="black" />
<polygon points="5000,-300000 150000,-300000 150000,300000 5000,300000" fill="black" />
<polygon points="150000,-300000 400000,-300000 400000,-150000 150000,-150000" fill="black" />
<polygon points="150000,150000 400000,150000 400000,300000 150000,300000" fill="black" />
<polygon points="400000,-300000 400953,-298898 402017,-297668 403112,-296403 404037,-295334 405041,-294172 405968,-293101 406961,-291953 408112,-290623 409134,-289441 410031,-288404 411009,-287274 411992,-286137 413079,-284880 414114,-283684 415190,-282441 416095,-281394 417201,-280116 418214,-278945 419149,-277864 420096,-276769 421158,-275541 422121,-274429 423222,-273155 424242,-271976 425248,-270813 426224,-269685 427225,-268527 428296,-267290 429158,-266293 430304,-264969 431345,-263765 432316,-262643 433240,-261575 434268,-260386 435243,-259259 436332,-258000 437306,-256874 438288,-255740 439377,-254481 440228,-253497 441328,-252225 442422,-250960 443424,-249802 444382,-248694 445372,-247550 446278,-246503 447470,-245125 448329,-244132 449439,-242849 450496,-241627 451378,-240607 452447,-239372 453490,-238165 454504,-236993 455459,-235890 456529,-234652 457408,-233637 458424,-232462 459554,-231155 460405,-230171 461515,-228889 462479,-227774 463579,-226503 464507,-225430 465574,-224196 466616,-222992 467463,-222013 468602,-220697 469609,-219532 470662,-218315 471492,-217355 472525,-216161 473560,-214965 474516,-213860 475650,-212549 476615,-211433 477651,-210235 478576,-209166 479702,-207865 480726,-206681 481577,-205697 482676,-204427 483688,-203256 484601,-202201 485727,-200899 486670,-199810 487772,-198536 488668,-197499 489726,-196276 490740,-195105 491717,-193975 492798,-192726 493652,-191738 494844,-190360 495857,-189189 496688,-188229 497878,-186853 498757,-185836 499805,-184626 500745,-183539 501870,-182238 502878,-181073 503852,-179947 504744,-178916 505759,-177742 506847,-176485 507886,-175284 508928,-174079 509975,-172869 510816,-171896 511805,-170754 512896,-169492 513924,-168304 515005,-167055 515877,-166046 516975,-164777 517885,-163725 518939,-162506 519905,-161390 520933,-160201 521897,-159088 522992,-157822 524085,-156557 524988,-155514 526102,-154227 526992,-153198 527927,-152117 529052,-150816 530072,-149637 531039,-148519 532044,-147358 533053,-146190 533982,-145117 534994,-143947 536060,-142715 537032,-141591 538033,-140433 539162,-139129 540055,-138096 541049,-136947 542150,-135675 543172,-134493 544058,-133469 545242,-132101 546079,-131132 547252,-129776 548240,-128634 549211,-127512 550103,-126481 551225,-125184 552299,-123943 553321,-122761 554299,-121631 555209,-120579 556342,-119268 557333,-118123 558267,-117043 559334,-115809 560257,-114743 561262,-113581 562356,-112316 563351,-111167 564219,-110163 565346,-108860 566282,-107778 567283,-106621 568387,-105345 569335,-104249 570361,-103063 571315,-101960 572438,-100662 573332,-99628 574454,-98331 575373,-97268 576316,-96179 577391,-94936 578510,-93643 579489,-92511 580464,-91384 581451,-90243 582498,-89032 583466,-87913 584450,-86775 585511,-85550 586460,-84452 587578,-83160 588577,-82005 589477,-80964 590607,-79659 591512,-78612 592631,-77318 593521,-76290 594546,-75105 595482,-74022 596610,-72718 597619,-71553 598542,-70486 599597,-69266 600706,-67984 601528,-67034 602547,-65856 603587,-64653 604738,-63323 605670,-62245 606691,-61066 607621,-59990 608662,-58787 609655,-57639 610615,-56529 611635,-55350 612766,-54042 613633,-53040 614649,-51866 615712,-50637 616744,-49443 617692,-48348 618734,-47144 619683,-46046 620855,-44692 621840,-43553 622779,-42467 623711,-41390 624698,-40249 625875,-38888 626864,-37745 627785,-36680 628911,-35379 629872,-34268 630804,-33191 631902,-31922 632776,-30911 633841,-29680 634886,-28472 635908,-27290 636864,-26185 637835,-25063 639014,-23699 639991,-22570 641000,-21404 641944,-20313 642899,-19209 644024,-17908 644939,-16851 646023,-15597 646926,-14554 647984,-13330 648943,-12221 650000,-11000 650000,-5000 648943,-5613 647984,-6169 646926,-6783 646023,-7306 644939,-7935 644024,-8466 642899,-9119 641944,-9672 641000,-10220 639991,-10805 639014,-11372 637835,-12056 636864,-12619 635908,-13173 634886,-13766 633841,-14372 632776,-14990 631902,-15497 630804,-16134 629872,-16674 628911,-17232 627785,-17885 626864,-18419 625875,-18992 624698,-19675 623711,-20247 622779,-20788 621840,-21333 620855,-21904 619683,-22584 618734,-23135 617692,-23739 616744,-24288 615712,-24887 614649,-25504 613633,-26093 612766,-26596 611635,-27252 610615,-27843 609655,-28400 608662,-28976 607621,-29580 606691,-30119 605670,-30711 604738,-31252 603587,-31919 602547,-32523 601528,-33114 600706,-33591 599597,-34234 598542,-34846 597619,-35381 596610,-35966 595482,-36620 594546,-37163 593521,-37758 592631,-38274 591512,-38923 590607,-39448 589477,-40103 588577,-40625 587578,-41205 586460,-41853 585511,-42404 584450,-43019 583466,-43590 582498,-44151 581451,-44759 580464,-45331 579489,-45897 578510,-46464 577391,-47113 576316,-47737 575373,-48283 574454,-48817 573332,-49468 572438,-49986 571315,-50637 570361,-51191 569335,-51786 568387,-52336 567283,-52976 566282,-53556 565346,-54099 564219,-54753 563351,-55257 562356,-55833 561262,-56468 560257,-57051 559334,-57586 558267,-58205 557333,-58747 556342,-59321 555209,-59979 554299,-60507 553321,-61074 552299,-61667 551225,-62290 550103,-62941 549211,-63458 548240,-64021 547252,-64594 546079,-65274 545242,-65760 544058,-66446 543172,-66960 542150,-67553 541049,-68191 540055,-68768 539162,-69286 538033,-69941 537032,-70521 536060,-71085 534994,-71704 533982,-72290 533053,-72829 532044,-73415 531039,-73998 530072,-74558 529052,-75150 527927,-75802 526992,-76345 526102,-76861 524988,-77507 524085,-78030 522992,-78665 521897,-79300 520933,-79859 519905,-80455 518939,-81015 517885,-81627 516975,-82154 515877,-82791 515005,-83297 513924,-83924 512896,-84520 511805,-85153 510816,-85727 509975,-86215 508928,-86822 507886,-87426 506847,-88029 505759,-88660 504744,-89248 503852,-89766 502878,-90331 501870,-90915 500745,-91568 499805,-92113 498757,-92721 497878,-93231 496688,-93921 495857,-94403 494844,-94990 493652,-95682 492798,-96177 491717,-96804 490740,-97371 489726,-97959 488668,-98572 487772,-99092 486670,-99731 485727,-100278 484601,-100931 483688,-101461 482676,-102048 481577,-102685 480726,-103179 479702,-103773 478576,-104426 477651,-104962 476615,-105563 475650,-106123 474516,-106781 473560,-107335 472525,-107936 471492,-108535 470662,-109016 469609,-109627 468602,-110211 467463,-110871 466616,-111363 465574,-111967 464507,-112586 463579,-113124 462479,-113762 461515,-114321 460405,-114965 459554,-115458 458424,-116114 457408,-116704 456529,-117213 455459,-117834 454504,-118387 453490,-118976 452447,-119581 451378,-120201 450496,-120712 449439,-121325 448329,-121969 447470,-122467 446278,-123159 445372,-123684 444382,-124258 443424,-124814 442422,-125395 441328,-126030 440228,-126668 439377,-127162 438288,-127793 437306,-128362 436332,-128927 435243,-129559 434268,-130125 433240,-130721 432316,-131257 431345,-131820 430304,-132424 429158,-133088 428296,-133588 427225,-134209 426224,-134790 425248,-135356 424242,-135939 423222,-136531 422121,-137170 421158,-137728 420096,-138344 419149,-138894 418214,-139436 417201,-140024 416095,-140665 415190,-141190 414114,-141814 413079,-142414 411992,-143045 411009,-143615 410031,-144182 409134,-144702 408112,-145295 406961,-145963 405968,-146539 405041,-147076 404037,-147659 403112,-148195 402017,-148830 400953,-149447 400000,-150000" fill="black" />
<polygon points="400000,150000 400953,149447 402017,148830 403112,148195 404037,147659 405041,147076 405968,146539 406961,145963 408112,145295 409134,144702 410031,144182 411009,143615 411992,143045 413079,142414 414114,141814 415190,141190 416095,140665 417201,140024 418214,139436 419149,138894 420096,138344 421158,137728 422121,137170 423222,136531 424242,135939 425248,135356 426224,134790 427225,134209 428296,133588 429158,133088 430304,132424 431345,131820 432316,131257 433240,130721 434268,130125 435243,129559 436332,128927 437306,128362 438288,127793 439377,127162 440228,126668 441328,126030 442422,125395 443424,124814 444382,124258 445372,123684 446278,123159 447470,122467 448329,121969 449439,121325 450496,120712 451378,120201 452447,119581 453490,118976 454504,118387 455459,117834 456529,117213 457408,116704 458424,116114 459554,115458 460405,114965 461515,114321 462479,113762 463579,113124 464507,112586 465574,111967 466616,111363 467463,110871 468602,110211 469609,109627 470662,109016 471492,108535 472525,107936 473560,107335 474516,106781 475650,106123 476615,105563 477651,104962 478576,104426 479702,103773 480726,103179 481577,102685 482676,102048 483688,101461 484601,100931 485727,100278 486670,99731 487772,99092 488668,98572 489726,97959 490740,97371 491717,96804 492798,96177 493652,95682 494844,94990 495857,94403 496688,93921 497878,93231 498757,92721 499805,92113 500745,91568 501870,90915 502878,90331 503852,89766 504744,89248 505759,88660 506847,88029 507886,87426 508928,86822 509975,86215 510816,85727 511805,85153 512896,84520 513924,83924 515005,83297 515877,82791 516975,82154 517885,81627 518939,81015 519905,80455 520933,79859 521897,79300 522992,78665 524085,78030 524988,77507 526102,76861 526992,76345 527927,75802 529052,75150 530072,74558 531039,73998 532044,73415 533053,72829 533982,72290 534994,71704 536060,71085 537032,70521 538033,69941 539162,69286 540055,68768 541049,68191 542150,67553 543172,66960 544058,66446 545242,65760 546079,65274 547252,64594 548240,64021 549211,63458 550103,62941 551225,62290 552299,61667 553321,61074 554299,60507 555209,59979 556342,59321 557333,58747 558267,58205 559334,57586 560257,57051 561262,56468 562356,55833 563351,55257 564219,54753 565346,54099 566282,53556 567283,52976 568387,52336 569335,51786 570361,51191 571315,50637 572438,49986 573332,49468 574454,48817 575373,48283 576316,47737 577391,47113 578510,46464 579489,45897 580464,45331 581451,44759 582498,44151 583466,43590 584450,43019 585511,42404 586460,41853 587578,41205 588577,40625 589477,40103 590607,39448 591512,38923 592631,38274 593521,37758 594546,37163 595482,36620 596610,35966 597619,35381 598542,34846 599597,34234 600706,33591 601528,33114 602547,32523 603587,31919 604738,31252 605670,30711 606691,30119 607621,29580 608662,28976 609655,28400 610615,27843 611635,27252 612766,26596 613633,26093 614649,25504 615712,24887 616744,24288 617692,23739 618734,23135 619683,22584 620855,21904 621840,21333 622779,20788 623711,20247 624698,19675 625875,18992 626864,18419 627785,17885 628911,17232 629872,16674 630804,16134 631902,15497 632776,14990 633841,14372 634886,13766 635908,13173 636864,12619 637835,12056 639014,11372 639991,10805 641000,10220 641944,9672 642899,9119 644024,8466 644939,7935 646023,7306 646926,6783 647984,6169 648943,5613 650000,5000 650000,11000 648943,12221 647984,13330 646926,14554 646023,15597 644939,16851 644024,17908 642899,19209 641944,20313 641000,21404 639991,22570 639014,23699 637835,25063 636864,26185 635908,27290 634886,28472 633841,29680 632776,30911 631902,31922 630804,33191 629872,34268 628911,35379 627785,36680 626864,37745 625875,38888 624698,40249 623711,41390 622779,42467 621840,43553 620855,44692 619683,46046 618734,47144 617692,48348 616744,49443 615712,50637 614649,51866 613633,53040 612766,54042 611635,55350 610615,56529 609655,57639 608662,58787 607621,59990 606691,61066 605670,62245 604738,63323 603587,64653 602547,65856 601528,67034 600706,67984 599597,69266 598542,70486 597619,71553 596610,72718 595482,74022 594546,75105 593521,76290 592631,77318 591512,78612 590607,79659 589477,80964 588577,82005 587578,83160 586460,84452 585511,85550 584450,86775 583466,87913 582498,89032 581451,90243 580464,91384 579489,92511 578510,93643 577391,94936 576316,96179 575373,97268 574454,98331 573332,99628 572438,100662 571315,101960 570361,103063 569335,104249 568387,105345 567283,106621 566282,107778 565346,108860 564219,110163 563351,111167 562356,112316 561262,113581 560257,114743 559334,115809 558267,117043 557333,118123 556342,119268 555209,120579 554299,121631 553321,122761 552299,123943 551225,125184 550103,126481 549211,127512 548240,128634 547252,129776 546079,131132 545242,132101 544058,133469 543172,134493 542150,135675 541049,136947 540055,138096 539162,139129 538033,140433 537032,141591 536060,142715 534994,143947 533982,145117 533053,146190 532044,147358 531039,148519 530072,149637 529052,150816 527927,152117 526992,153198 526102,154227 524988,155514 524085,156557 522992,157822 521897,159088 520933,160201 519905,161390 518939,162506 517885,163725 516975,164777 515877,166046 515005,167055 513924,168304 512896,169492 511805,170754 510816,171896 509975,172869 508928,174079 507886,175284 506847,176485 505759,177742 504744,178916 503852,179947 502878,181073 501870,182238 500745,183539 499805,184626 498757,185836 497878,186853 496688,188229 495857,189189 494844,190360 493652,191738 492798,192726 491717,193975 490740,195105 489726,196276 488668,197499 487772,198536 486670,199810 485727,200899 484601,202201 483688,203256 482676,204427 481577,205697 480726,206681 479702,207865 478576,209166 477651,210235 476615,211433 475650,212549 474516,213860 473560,214965 472525,216161 471492,217355 470662,218315 469609,219532 468602,220697 467463,222013 466616,222992 465574,224196 464507,225430 463579,226503 462479,227774 461515,228889 460405,230171 459554,231155 458424,232462 457408,233637 456529,234652 455459,235890 454504,236993 453490,238165 452447,239372 451378,240607 450496,241627 449439,242849 448329,244132 447470,245125 446278,246503 445372,247550 444382,248694 443424,249802 442422,250960 441328,252225 440228,253497 439377,254481 438288,255740 437306,256874 436332,258000 435243,259259 434268,260386 433240,261575 432316,262643 431345,263765 430304,264969 429158,266293 428296,267290 427225,268527 426224,269685 425248,270813 424242,271976 423222,273155 422121,274429 421158,275541 420096,276769 419149,277864 418214,278945 417201,280116 416095,281394 415190,282441 414114,283684 413079,284880 411992,286137 411009,287274 410031,288404 409134,289441 408112,290623 406961,291953 405968,293101 405041,294172 404037,295334 403112,296403 402017,297668 400953,298898 400000,300000" fill="black" />
<polygon points="650000,-11000 1150000,-11000 1150000,-5000 650000,-5000" fill="black" />
<polygon points="650000,5000 1150000,5000 1150000,11000 650000,11000" fill="black" />
<polygon points="1150000,-11000 1150882,-11003 1151867,-11013 1152880,-11030 1153736,-11050 1154665,-11078 1155522,-11110 1156441,-11149 1157505,-11203 1158450,-11257 1159278,-11310 1160181,-11373 1161088,-11443 1162091,-11527 1163045,-11613 1164036,-11710 1164870,-11798 1165887,-11911 1166817,-12021 1167677,-12129 1168546,-12243 1169520,-12377 1170401,-12505 1171409,-12659 1172342,-12807 1173260,-12960 1174151,-13114 1175062,-13278 1176036,-13460 1176820,-13612 1177860,-13821 1178803,-14017 1179682,-14206 1180517,-14391 1181444,-14603 1182323,-14810 1183303,-15048 1184177,-15267 1185057,-15493 1186031,-15751 1186792,-15958 1187773,-16231 1188746,-16509 1189636,-16771 1190486,-17027 1191361,-17296 1192161,-17548 1193211,-17887 1193966,-18136 1194939,-18465 1195864,-18784 1196634,-19056 1197564,-19391 1198471,-19725 1199350,-20055 1200174,-20372 1201097,-20733 1201853,-21034 1202724,-21388 1203691,-21788 1204417,-22094 1205360,-22500 1206177,-22858 1207107,-23273 1207889,-23628 1208786,-24043 1209658,-24454 1210365,-24792 1211313,-25253 1212149,-25668 1213019,-26106 1213702,-26456 1214551,-26898 1215398,-27345 1216177,-27764 1217098,-28267 1217879,-28701 1218715,-29172 1219458,-29598 1220358,-30122 1221174,-30605 1221850,-31010 1222718,-31539 1223515,-32032 1224231,-32481 1225110,-33041 1225843,-33515 1226695,-34074 1227386,-34534 1228198,-35082 1228971,-35612 1229715,-36129 1230532,-36706 1231175,-37166 1232068,-37813 1232823,-38370 1233439,-38830 1234318,-39494 1234963,-39990 1235728,-40585 1236412,-41124 1237225,-41775 1237950,-42362 1238646,-42935 1239280,-43464 1239998,-44069 1240763,-44724 1241490,-45355 1242213,-45992 1242936,-46637 1243514,-47160 1244189,-47777 1244929,-48465 1245622,-49117 1246346,-49808 1246926,-50369 1247652,-51080 1248250,-51674 1248937,-52366 1249563,-53004 1250225,-53688 1250841,-54333 1251536,-55071 1252224,-55813 1252789,-56429 1253480,-57194 1254028,-57809 1254600,-58459 1255283,-59245 1255897,-59962 1256474,-60646 1257070,-61360 1257664,-62082 1258205,-62750 1258791,-63481 1259402,-64255 1259955,-64965 1260519,-65700 1261150,-66533 1261644,-67196 1262190,-67937 1262788,-68761 1263339,-69530 1263812,-70201 1264437,-71100 1264875,-71740 1265483,-72639 1265989,-73401 1266482,-74152 1266931,-74845 1267489,-75721 1268017,-76563 1268514,-77368 1268985,-78141 1269418,-78864 1269952,-79767 1270412,-80560 1270842,-81310 1271327,-82171 1271742,-82918 1272188,-83734 1272667,-84626 1273097,-85440 1273469,-86153 1273944,-87081 1274334,-87855 1274746,-88685 1275193,-89604 1275572,-90395 1275976,-91255 1276347,-92056 1276776,-93002 1277113,-93758 1277530,-94709 1277866,-95491 1278206,-96295 1278587,-97214 1278977,-98173 1279312,-99015 1279640,-99856 1279967,-100709 1280308,-101617 1280617,-102458 1280926,-103315 1281252,-104240 1281539,-105071 1281869,-106051 1282159,-106930 1282415,-107723 1282729,-108720 1282975,-109521 1283273,-110513 1283505,-111303 1283766,-112215 1283999,-113050 1284273,-114058 1284511,-114961 1284724,-115788 1284961,-116735 1285203,-117733 1285377,-118473 1285588,-119393 1285797,-120333 1286020,-121374 1286196,-122219 1286381,-123145 1286545,-123990 1286722,-124937 1286885,-125842 1287036,-126718 1287191,-127649 1287356,-128684 1287477,-129477 1287612,-130407 1287747,-131382 1287872,-132329 1287981,-133200 1288094,-134157 1288192,-135031 1288304,-136109 1288392,-137016 1288471,-137883 1288543,-138742 1288614,-139653 1288691,-140740 1288749,-141653 1288798,-142504 1288850,-143545 1288889,-144434 1288920,-145296 1288951,-146311 1288970,-147121 1288987,-148106 1288997,-149073 1289000,-150000 1295000,-150000 1294997,-149033 1294987,-148024 1294969,-146996 1294949,-146152 1294917,-145093 1294884,-144194 1294844,-143266 1294789,-142181 1294738,-141293 1294678,-140340 1294598,-139207 1294524,-138256 1294448,-137359 1294366,-136456 1294274,-135509 1294157,-134385 1294055,-133473 1293937,-132474 1293824,-131566 1293693,-130578 1293552,-129561 1293411,-128591 1293285,-127763 1293113,-126685 1292952,-125713 1292793,-124800 1292624,-123856 1292439,-122868 1292268,-121986 1292074,-121020 1291892,-120138 1291659,-119052 1291441,-118072 1291221,-117112 1291039,-116340 1290787,-115299 1290539,-114311 1290317,-113448 1290069,-112507 1289783,-111455 1289540,-110584 1289268,-109633 1289026,-108809 1288715,-107774 1288458,-106938 1288130,-105898 1287864,-105071 1287561,-104154 1287217,-103132 1286917,-102265 1286577,-101300 1286255,-100406 1285932,-99528 1285577,-98581 1285236,-97692 1284894,-96815 1284544,-95936 1284138,-94935 1283740,-93977 1283386,-93138 1283035,-92323 1282600,-91330 1282249,-90542 1281801,-89555 1281414,-88719 1280992,-87822 1280597,-86997 1280130,-86038 1279701,-85172 1279295,-84365 1278798,-83397 1278411,-82653 1277962,-81804 1277462,-80873 1276997,-80022 1276564,-79243 1276058,-78345 1275610,-77562 1275129,-76736 1274573,-75793 1274121,-75039 1273630,-74233 1273111,-73393 1272560,-72515 1271978,-71601 1271510,-70878 1270996,-70094 1270468,-69300 1269834,-68362 1269377,-67694 1268724,-66756 1268231,-66057 1267657,-65254 1267033,-64394 1266464,-63622 1265948,-62930 1265290,-62061 1264701,-61294 1264124,-60554 1263487,-59746 1262876,-58983 1262311,-58287 1261692,-57534 1261070,-56789 1260468,-56075 1259828,-55327 1259115,-54507 1258518,-53829 1257946,-53188 1257226,-52390 1256637,-51748 1255919,-50973 1255194,-50204 1254551,-49531 1253861,-48817 1253208,-48152 1252490,-47430 1251867,-46811 1251110,-46068 1250504,-45483 1249749,-44762 1249027,-44082 1248255,-43365 1247551,-42721 1246948,-42176 1246194,-41502 1245439,-40837 1244681,-40180 1243883,-39497 1243134,-38865 1242472,-38313 1241746,-37716 1240990,-37103 1240142,-36424 1239429,-35862 1238631,-35241 1237958,-34724 1237041,-34031 1236398,-33551 1235611,-32971 1234679,-32295 1234008,-31815 1233156,-31214 1232380,-30675 1231573,-30122 1230727,-29550 1230006,-29070 1229117,-28486 1228352,-27992 1227435,-27408 1226689,-26940 1225857,-26426 1224951,-25874 1224246,-25451 1223395,-24947 1222456,-24401 1221681,-23957 1220809,-23465 1219995,-23013 1219034,-22488 1218221,-22051 1217337,-21584 1216452,-21124 1215739,-20759 1214832,-20301 1213960,-19869 1212971,-19387 1212233,-19034 1211323,-18606 1210388,-18173 1209572,-17803 1208602,-17370 1207750,-16996 1206765,-16573 1206008,-16254 1205000,-15836 1204091,-15467 1203303,-15153 1202340,-14776 1201480,-14446 1200563,-14102 1199618,-13754 1198647,-13404 1197844,-13121 1196879,-12787 1195863,-12444 1195076,-12184 1193981,-11831 1193146,-11568 1192233,-11287 1191347,-11020 1190419,-10747 1189403,-10456 1188380,-10172 1187587,-9956 1186570,-9687 1185653,-9451 1184740,-9223 1183718,-8975 1182802,-8759 1181834,-8538 1180963,-8344 1180047,-8147 1179062,-7942 1177978,-7725 1177160,-7566 1176144,-7376 1175193,-7205 1174264,-7045 1173306,-6885 1172333,-6730 1171282,-6570 1170362,-6437 1169347,-6296 1168440,-6177 1167543,-6065 1166572,-5950 1165511,-5832 1164642,-5741 1163608,-5640 1162613,-5550 1161567,-5462 1160620,-5389 1159678,-5323 1158814,-5268 1157828,-5211 1156719,-5156 1155761,-5114 1154867,-5082 1153897,-5052 1153004,-5031 1151948,-5013 1150920,-5003 1150000,-5000" fill="black" />
<polygon points="1150000,5000 1150984,4997 1152082,4986 1153211,4967 1154166,4944 1155203,4913 1156158,4878 1157182,4834 1158368,4774 1159422,4713 1160346,4654 1161352,4584 1162365,4506 1163483,4412 1164546,4316 1165652,4208 1166581,4111 1167715,3984 1168753,3861 1169711,3742 1170681,3614 1171767,3464 1172749,3321 1173874,3150 1174913,2985 1175937,2814 1176930,2643 1177947,2460 1179033,2257 1179907,2087 1181067,1855 1182119,1636 1183099,1425 1184029,1218 1185064,982 1186044,751 1187136,486 1188111,242 1189092,-11 1190179,-298 1191027,-528 1192120,-833 1193206,-1144 1194199,-1435 1195146,-1720 1196122,-2021 1197014,-2302 1198185,-2680 1199026,-2958 1200112,-3324 1201143,-3681 1202002,-3983 1203040,-4357 1204050,-4729 1205030,-5098 1205950,-5450 1206979,-5853 1207821,-6189 1208793,-6583 1209871,-7030 1210680,-7371 1211732,-7824 1212644,-8223 1213681,-8686 1214553,-9082 1215552,-9544 1216525,-10002 1217314,-10380 1218371,-10894 1219303,-11356 1220273,-11845 1221035,-12236 1221981,-12728 1222926,-13227 1223795,-13694 1224822,-14255 1225693,-14739 1226624,-15264 1227453,-15739 1228457,-16323 1229367,-16861 1230120,-17313 1231089,-17903 1231978,-18453 1232776,-18954 1233756,-19578 1234573,-20106 1235524,-20730 1236294,-21243 1237199,-21854 1238062,-22446 1238890,-23022 1239802,-23664 1240519,-24178 1241515,-24900 1242357,-25520 1243044,-26033 1244024,-26774 1244743,-27327 1245597,-27991 1246358,-28591 1247266,-29317 1248073,-29972 1248850,-30611 1249557,-31200 1250358,-31876 1251211,-32606 1252021,-33309 1252828,-34020 1253634,-34739 1254278,-35322 1255031,-36011 1255857,-36777 1256629,-37504 1257436,-38275 1258083,-38901 1258893,-39694 1259559,-40356 1260326,-41128 1261024,-41839 1261762,-42602 1262448,-43321 1263223,-44144 1263991,-44972 1264620,-45658 1265391,-46511 1266002,-47197 1266640,-47921 1267402,-48798 1268086,-49598 1268730,-50360 1269395,-51157 1270057,-51962 1270660,-52706 1271313,-53522 1271995,-54385 1272611,-55177 1273241,-55997 1273944,-56925 1274496,-57664 1275104,-58491 1275771,-59410 1276385,-60268 1276912,-61015 1277610,-62018 1278098,-62731 1278776,-63735 1279341,-64584 1279890,-65422 1280390,-66194 1281013,-67171 1281602,-68110 1282156,-69007 1282681,-69870 1283164,-70675 1283759,-71683 1284272,-72567 1284752,-73404 1285293,-74363 1285755,-75196 1286252,-76106 1286787,-77101 1287267,-78008 1287681,-78803 1288211,-79839 1288646,-80701 1289105,-81627 1289604,-82651 1290026,-83534 1290477,-84493 1290890,-85386 1291369,-86441 1291745,-87284 1292210,-88345 1292585,-89217 1292963,-90113 1293388,-91138 1293823,-92208 1294197,-93147 1294563,-94084 1294927,-95035 1295307,-96047 1295652,-96985 1295996,-97941 1296360,-98973 1296680,-99900 1297048,-100992 1297371,-101972 1297657,-102857 1298007,-103968 1298282,-104861 1298614,-105968 1298872,-106849 1299163,-107866 1299423,-108797 1299729,-109921 1299994,-110927 1300232,-111850 1300496,-112906 1300766,-114018 1300960,-114844 1301196,-115870 1301428,-116918 1301677,-118079 1301873,-119021 1302080,-120054 1302262,-120996 1302460,-122053 1302641,-123062 1302810,-124038 1302983,-125077 1303167,-126230 1303301,-127114 1303452,-128152 1303603,-129238 1303742,-130295 1303864,-131266 1303990,-132333 1304099,-133308 1304224,-134510 1304322,-135522 1304410,-136488 1304491,-137446 1304570,-138462 1304656,-139674 1304720,-140692 1304774,-141641 1304833,-142802 1304876,-143793 1304911,-144754 1304945,-145887 1304967,-146789 1304986,-147888 1304997,-148967 1305000,-150000 1311000,-150000 1310996,-148927 1310985,-147806 1310965,-146665 1310943,-145728 1310908,-144551 1310871,-143553 1310826,-142523 1310766,-141318 1310709,-140332 1310642,-139274 1310553,-138016 1310471,-136960 1310387,-135965 1310296,-134961 1310194,-133911 1310064,-132661 1309951,-131649 1309820,-130540 1309694,-129532 1309549,-128435 1309393,-127306 1309235,-126228 1309096,-125310 1308905,-124112 1308725,-123033 1308550,-122019 1308361,-120971 1308156,-119874 1307967,-118895 1307752,-117822 1307549,-116843 1307290,-115637 1307048,-114548 1306804,-113483 1306602,-112625 1306322,-111470 1306047,-110373 1305801,-109415 1305525,-108369 1305207,-107202 1304937,-106235 1304635,-105179 1304367,-104263 1304022,-103114 1303736,-102187 1303372,-101032 1303076,-100113 1302741,-99095 1302358,-97960 1302026,-96998 1301648,-95926 1301290,-94933 1300932,-93959 1300537,-92908 1300159,-91920 1299779,-90946 1299390,-89971 1298939,-88859 1298498,-87795 1298104,-86864 1297715,-85958 1297232,-84856 1296842,-83981 1296344,-82885 1295915,-81957 1295446,-80961 1295008,-80044 1294490,-78980 1294013,-78019 1293562,-77123 1293011,-76047 1292580,-75222 1292082,-74279 1291527,-73246 1291010,-72301 1290530,-71435 1289968,-70439 1289470,-69569 1288937,-68651 1288319,-67605 1287817,-66768 1287272,-65872 1286696,-64940 1286084,-63965 1285437,-62950 1284918,-62148 1284348,-61277 1283761,-60395 1283057,-59353 1282549,-58612 1281825,-57571 1281277,-56794 1280640,-55903 1279947,-54948 1279315,-54090 1278742,-53323 1278012,-52358 1277358,-51506 1276717,-50684 1276009,-49787 1275331,-48940 1274704,-48167 1274016,-47331 1273326,-46503 1272658,-45711 1271947,-44881 1271155,-43970 1270493,-43218 1269858,-42505 1269057,-41619 1268404,-40906 1267606,-40046 1266801,-39192 1266088,-38445 1265321,-37652 1264597,-36913 1263800,-36111 1263108,-35424 1262267,-34600 1261595,-33950 1260756,-33149 1259954,-32394 1259096,-31598 1258315,-30883 1257646,-30278 1256808,-29530 1255970,-28792 1255129,-28062 1254243,-27303 1253411,-26602 1252676,-25989 1251870,-25326 1251031,-24645 1250089,-23892 1249297,-23268 1248411,-22578 1247663,-22004 1246646,-21234 1245932,-20701 1245057,-20057 1244023,-19307 1243278,-18774 1242331,-18106 1241471,-17508 1240574,-16894 1239635,-16259 1238834,-15726 1237847,-15078 1236998,-14529 1235980,-13881 1235151,-13361 1234228,-12790 1233222,-12177 1232439,-11708 1231494,-11148 1230451,-10542 1229590,-10049 1228623,-9503 1227718,-9000 1226651,-8418 1225749,-7933 1224768,-7414 1223785,-6903 1222993,-6497 1221985,-5989 1221017,-5509 1219920,-4975 1219100,-4583 1218090,-4107 1217052,-3627 1216146,-3215 1215069,-2735 1214122,-2320 1213029,-1850 1212189,-1496 1211069,-1032 1210059,-622 1209184,-273 1208116,145 1207160,511 1206143,894 1205093,1281 1204015,1669 1203123,1983 1202052,2354 1200924,2734 1200050,3023 1198834,3415 1197907,3707 1196893,4020 1195910,4316 1194879,4619 1193751,4941 1192615,5258 1191734,5497 1190605,5795 1189587,6057 1188574,6311 1187439,6587 1186421,6826 1185347,7072 1184380,7286 1183362,7505 1182269,7733 1181065,7975 1180157,8150 1179029,8361 1177973,8551 1176941,8730 1175878,8907 1174798,9079 1173630,9256 1172609,9405 1171481,9560 1170474,9693 1169479,9817 1168401,9945 1167223,10076 1166257,10177 1165110,10289 1164005,10390 1162843,10487 1161792,10568 1160746,10641 1159787,10702 1158692,10765 1157460,10827 1156396,10873 1155404,10909 1154327,10942 1153336,10965 1152162,10985 1151022,10997 1150000,11000" fill="black" />
<polygon points="1289000,-150000 1289000,-650000 1295000,-650000 1295000,-150000" fill="black" />
<polygon points="1305000,-150000 1305000,-650000 1311000,-650000 1311000,-150000" fill="black" />
<polygon points="1289000,-650000 1287898,-650953 1286668,-652017 1285403,-653112 1284334,-654037 1283172,-655041 1282101,-655968 1280953,-656961 1279623,-658112 1278441,-659134 1277404,-660031 1276274,-661009 1275137,-661992 1273880,-663079 1272684,-664114 1271441,-665190 1270394,-666095 1269116,-667201 1267945,-668214 1266864,-669149 1265769,-670096 1264541,-671158 1263429,-672121 1262155,-673222 1260976,-674242 1259813,-675248 1258685,-676224 1257527,-677225 1256290,-678296 1255293,-679158 1253969,-680304 1252765,-681345 1251643,-682316 1250575,-683240 1249386,-684268 1248259,-685243 1247000,-686332 1245874,-687306 1244740,-688288 1243481,-689377 1242497,-690228 1241225,-691328 1239960,-692422 1238802,-693424 1237694,-694382 1236550,-695372 1235503,-696278 1234125,-697470 1233132,-698329 1231849,-699439 1230627,-700496 1229607,-701378 1228372,-702447 1227165,-703490 1225993,-704504 1224890,-705459 1223652,-706529 1222637,-707408 1221462,-708424 1220155,-709554 1219171,-710405 1217889,-711515 1216774,-712479 1215503,-713579 1214430,-714507 1213196,-715574 1211992,-716616 1211013,-717463 1209697,-718602 1208532,-719609 1207315,-720662 1206355,-721492 1205161,-722525 1203965,-723560 1202860,-724516 1201549,-725650 1200433,-726615 1199235,-727651 1198166,-728576 1196865,-729702 1195681,-730726 1194697,-731577 1193427,-732676 1192256,-733688 1191201,-734601 1189899,-735727 1188810,-736670 1187536,-737772 1186499,-738668 1185276,-739726 1184105,-740740 1182975,-741717 1181726,-742798 1180738,-743652 1179360,-744844 1178189,-745857 1177229,-746688 1175853,-747878 1174836,-748757 1173626,-749805 1172539,-750745 1171238,-751870 1170073,-752878 1168947,-753852 1167916,-754744 1166742,-755759 1165485,-756847 1164284,-757886 1163079,-758928 1161869,-759975 1160896,-760816 1159754,-761805 1158492,-762896 1157304,-763924 1156055,-765005 1155046,-765877 1153777,-766975 1152725,-767885 1151506,-768939 1150390,-769905 1149201,-770933 1148088,-771897 1146822,-772992 1145557,-774085 1144514,-774988 1143227,-776102 1142198,-776992 1141117,-777927 1139816,-779052 1138637,-780072 1137519,-781039 1136358,-782044 1135190,-783053 1134117,-783982 1132947,-784994 1131715,-786060 1130591,-787032 1129433,-788033 1128129,-789162 1127096,-790055 1125947,-791049 1124675,-792150 1123493,-793172 1122469,-794058 1121101,-795242 1120132,-796079 1118776,-797252 1117634,-798240 1116512,-799211 1115481,-800103 1114184,-801225 1112943,-802299 1111761,-803321 1110631,-804299 1109579,-805209 1108268,-806342 1107123,-807333 1106043,-808267 1104809,-809334 1103743,-810257 1102581,-811262 1101316,-812356 1100167,-813351 1099163,-814219 1097860,-815346 1096778,-816282 1095621,-817283 1094345,-818387 1093249,-819335 1092063,-820361 1090960,-821315 1089662,-822438 1088628,-823332 1087331,-824454 1086268,-825373 1085179,-826316 1083936,-827391 1082643,-828510 1081511,-829489 1080384,-830464 1079243,-831451 1078032,-832498 1076913,-833466 1075775,-834450 1074550,-835511 1073452,-836460 1072160,-837578 1071005,-838577 1069964,-839477 1068659,-840607 1067612,-841512 1066318,-842631 1065290,-843521 1064105,-844546 1063022,-845482 1061718,-846610 1060553,-847619 1059486,-848542 1058266,-849597 1056984,-850706 1056034,-851528 1054856,-852547 1053653,-853587 1052323,-854738 1051245,-855670 1050066,-856691 1048990,-857621 1047787,-858662 1046639,-859655 1045529,-860615 1044350,-861635 1043042,-862766 1042040,-863633 1040866,-864649 1039637,-865712 1038443,-866744 1037348,-867692 1036144,-868734 1035046,-869683 1033692,-870855 1032553,-871840 1031467,-872779 1030390,-873711 1029249,-874698 1027888,-875875 1026745,-876864 1025680,-877785 1024379,-878911 1023268,-879872 1022191,-880804 1020922,-881902 1019911,-882776 1018680,-883841 1017472,-884886 1016290,-885908 1015185,-886864 1014063,-887835 1012699,-889014 1011570,-889991 1010404,-891000 1009313,-891944 1008209,-892899 1006908,-894024 1005851,-894939 1004597,-896023 1003554,-896926 1002330,-897984 1001221,-898943 1000000,-900000 1150000,-900000 1150613,-898943 1151169,-897984 1151783,-896926 1152306,-896023 1152935,-894939 1153466,-894024 1154119,-892899 1154672,-891944 1155220,-891000 1155805,-889991 1156372,-889014 1157056,-887835 1157619,-886864 1158173,-885908 1158766,-884886 1159372,-883841 1159990,-882776 1160497,-881902 1161134,-880804 1161674,-879872 1162232,-878911 1162885,-877785 1163419,-876864 1163992,-875875 1164675,-874698 1165247,-873711 1165788,-872779 1166333,-871840 1166904,-870855 1167584,-869683 1168135,-868734 1168739,-867692 1169288,-866744 1169887,-865712 1170504,-864649 1171093,-863633 1171596,-862766 1172252,-861635 1172843,-860615 1173400,-859655 1173976,-858662 1174580,-857621 1175119,-856691 1175711,-855670 1176252,-854738 1176919,-853587 1177523,-852547 1178114,-851528 1178591,-850706 1179234,-849597 1179846,-848542 1180381,-847619 1180966,-846610 1181620,-845482 1182163,-844546 1182758,-843521 1183274,-842631 1183923,-841512 1184448,-840607 1185103,-839477 1185625,-838577 1186205,-837578 1186853,-836460 1187404,-835511 1188019,-834450 1188590,-833466 1189151,-832498 1189759,-831451 1190331,-830464 1190897,-829489 1191464,-828510 1192113,-827391 1192737,-826316 1193283,-825373 1193817,-824454 1194468,-823332 1194986,-822438 1195637,-821315 1196191,-820361 1196786,-819335 1197336,-818387 1197976,-817283 1198556,-816282 1199099,-815346 1199753,-814219 1200257,-813351 1200833,-812356 1201468,-811262 1202051,-810257 1202586,-809334 1203205,-808267 1203747,-807333 1204321,-806342 1204979,-805209 1205507,-804299 1206074,-803321 1206667,-802299 1207290,-801225 1207941,-800103 1208458,-799211 1209021,-798240 1209594,-797252 1210274,-796079 1210760,-795242 1211446,-794058 1211960,-793172 1212553,-792150 1213191,-791049 1213768,-790055 1214286,-789162 1214941,-788033 1215521,-787032 1216085,-786060 1216704,-784994 1217290,-783982 1217829,-783053 1218415,-782044 1218998,-781039 1219558,-780072 1220150,-779052 1220802,-777927 1221345,-776992 1221861,-776102 1222507,-774988 1223030,-774085 1223665,-772992 1224300,-771897 1224859,-770933 1225455,-769905 1226015,-768939 1226627,-767885 1227154,-766975 1227791,-765877 1228297,-765005 1228924,-763924 1229520,-762896 1230153,-761805 1230727,-760816 1231215,-759975 1231822,-758928 1232426,-757886 1233029,-756847 1233660,-755759 1234248,-754744 1234766,-753852 1235331,-752878 1235915,-751870 1236568,-750745 1237113,-749805 1237721,-748757 1238231,-747878 1238921,-746688 1239403,-745857 1239990,-744844 1240682,-743652 1241177,-742798 1241804,-741717 1242371,-740740 1242959,-739726 1243572,-738668 1244092,-737772 1244731,-736670 1245278,-735727 1245931,-734601 1246461,-733688 1247048,-732676 1247685,-731577 1248179,-730726 1248773,-729702 1249426,-728576 1249962,-727651 1250563,-726615 1251123,-725650 1251781,-724516 1252335,-723560 1252936,-722525 1253535,-721492 1254016,-720662 1254627,-719609 1255211,-718602 1255871,-717463 1256363,-716616 1256967,-715574 1257586,-714507 1258124,-713579 1258762,-712479 1259321,-711515 1259965,-710405 1260458,-709554 1261114,-708424 1261704,-707408 1262213,-706529 1262834,-705459 1263387,-704504 1263976,-703490 1264581,-702447 1265201,-701378 1265712,-700496 1266325,-699439 1266969,-698329 1267467,-697470 1268159,-696278 1268684,-695372 1269258,-694382 1269814,-693424 1270395,-692422 1271030,-691328 1271668,-690228 1272162,-689377 1272793,-688288 1273362,-687306 1273927,-686332 1274559,-685243 1275125,-684268 1275721,-683240 1276257,-682316 1276820,-681345 1277424,-680304 1278088,-679158 1278588,-678296 1279209,-677225 1279790,-676224 1280356,-675248 1280939,-674242 1281531,-673222 1282170,-672121 1282728,-671158 1283344,-670096 1283894,-669149 1284436,-668214 1285024,-667201 1285665,-666095 1286190,-665190 1286814,-664114 1287414,-663079 1288045,-661992 1288615,-661009 1289182,-660031 1289702,-659134 1290295,-658112 1290963,-656961 1291539,-655968 1292076,-655041 1292659,-654037 1293195,-653112 1293830,-652017 1294447,-650953 1295000,-650000" fill="black" />
<polygon points="1305000,-650000 1305553,-650953 1306170,-652017 1306805,-653112 1307341,-654037 1307924,-655041 1308461,-655968 1309037,-656961 1309705,-658112 1310298,-659134 1310818,-660031 1311385,-661009 1311955,-661992 1312586,-663079 1313186,-664114 1313810,-665190 1314335,-666095 1314976,-667201 1315564,-668214 1316106,-669149 1316656,-670096 1317272,-671158 1317830,-672121 1318469,-673222 1319061,-674242 1319644,-675248 1320210,-676224 1320791,-677225 1321412,-678296 1321912,-679158 1322576,-680304 1323180,-681345 1323743,-682316 1324279,-683240 1324875,-684268 1325441,-685243 1326073,-686332 1326638,-687306 1327207,-688288 1327838,-689377 1328332,-690228 1328970,-691328 1329605,-692422 1330186,-693424 1330742,-694382 1331316,-695372 1331841,-696278 1332533,-697470 1333031,-698329 1333675,-699439 1334288,-700496 1334799,-701378 1335419,-702447 1336024,-703490 1336613,-704504 1337166,-705459 1337787,-706529 1338296,-707408 1338886,-708424 1339542,-709554 1340035,-710405 1340679,-711515 1341238,-712479 1341876,-713579 1342414,-714507 1343033,-715574 1343637,-716616 1344129,-717463 1344789,-718602 1345373,-719609 1345984,-720662 1346465,-721492 1347064,-722525 1347665,-723560 1348219,-724516 1348877,-725650 1349437,-726615 1350038,-727651 1350574,-728576 1351227,-729702 1351821,-730726 1352315,-731577 1352952,-732676 1353539,-733688 1354069,-734601 1354722,-735727 1355269,-736670 1355908,-737772 1356428,-738668 1357041,-739726 1357629,-740740 1358196,-741717 1358823,-742798 1359318,-743652 1360010,-744844 1360597,-745857 1361079,-746688 1361769,-747878 1362279,-748757 1362887,-749805 1363432,-750745 1364085,-751870 1364669,-752878 1365234,-753852 1365752,-754744 1366340,-755759 1366971,-756847 1367574,-757886 1368178,-758928 1368785,-759975 1369273,-760816 1369847,-761805 1370480,-762896 1371076,-763924 1371703,-765005 1372209,-765877 1372846,-766975 1373373,-767885 1373985,-768939 1374545,-769905 1375141,-770933 1375700,-771897 1376335,-772992 1376970,-774085 1377493,-774988 1378139,-776102 1378655,-776992 1379198,-777927 1379850,-779052 1380442,-780072 1381002,-781039 1381585,-782044 1382171,-783053 1382710,-783982 1383296,-784994 1383915,-786060 1384479,-787032 1385059,-788033 1385714,-789162 1386232,-790055 1386809,-791049 1387447,-792150 1388040,-793172 1388554,-794058 1389240,-795242 1389726,-796079 1390406,-797252 1390979,-798240 1391542,-799211 1392059,-800103 1392710,-801225 1393333,-802299 1393926,-803321 1394493,-804299 1395021,-805209 1395679,-806342 1396253,-807333 1396795,-808267 1397414,-809334 1397949,-810257 1398532,-811262 1399167,-812356 1399743,-813351 1400247,-814219 1400901,-815346 1401444,-816282 1402024,-817283 1402664,-818387 1403214,-819335 1403809,-820361 1404363,-821315 1405014,-822438 1405532,-823332 1406183,-824454 1406717,-825373 1407263,-826316 1407887,-827391 1408536,-828510 1409103,-829489 1409669,-830464 1410241,-831451 1410849,-832498 1411410,-833466 1411981,-834450 1412596,-835511 1413147,-836460 1413795,-837578 1414375,-838577 1414897,-839477 1415552,-840607 1416077,-841512 1416726,-842631 1417242,-843521 1417837,-844546 1418380,-845482 1419034,-846610 1419619,-847619 1420154,-848542 1420766,-849597 1421409,-850706 1421886,-851528 1422477,-852547 1423081,-853587 1423748,-854738 1424289,-855670 1424881,-856691 1425420,-857621 1426024,-858662 1426600,-859655 1427157,-860615 1427748,-861635 1428404,-862766 1428907,-863633 1429496,-864649 1430113,-865712 1430712,-866744 1431261,-867692 1431865,-868734 1432416,-869683 1433096,-870855 1433667,-871840 1434212,-872779 1434753,-873711 1435325,-874698 1436008,-875875 1436581,-876864 1437115,-877785 1437768,-878911 1438326,-879872 1438866,-880804 1439503,-881902 1440010,-882776 1440628,-883841 1441234,-884886 1441827,-885908 1442381,-886864 1442944,-887835 1443628,-889014 1444195,-889991 1444780,-891000 1445328,-891944 1445881,-892899 1446534,-894024 1447065,-894939 1447694,-896023 1448217,-896926 1448831,-897984 1449387,-898943 1450000,-900000 1600000,-900000 1598779,-898943 1597670,-897984 1596446,-896926 1595403,-896023 1594149,-894939 1593092,-894024 1591791,-892899 1590687,-891944 1589596,-891000 1588430,-889991 1587301,-889014 1585937,-887835 1584815,-886864 1583710,-885908 1582528,-884886 1581320,-883841 1580089,-882776 1579078,-881902 1577809,-880804 1576732,-879872 1575621,-878911 1574320,-877785 1573255,-876864 1572112,-875875 1570751,-874698 1569610,-873711 1568533,-872779 1567447,-871840 1566308,-870855 1564954,-869683 1563856,-868734 1562652,-867692 1561557,-866744 1560363,-865712 1559134,-864649 1557960,-863633 1556958,-862766 1555650,-861635 1554471,-860615 1553361,-859655 1552213,-858662 1551010,-857621 1549934,-856691 1548755,-855670 1547677,-854738 1546347,-853587 1545144,-852547 1543966,-851528 1543016,-850706 1541734,-849597 1540514,-848542 1539447,-847619 1538282,-846610 1536978,-845482 1535895,-844546 1534710,-843521 1533682,-842631 1532388,-841512 1531341,-840607 1530036,-839477 1528995,-838577 1527840,-837578 1526548,-836460 1525450,-835511 1524225,-834450 1523087,-833466 1521968,-832498 1520757,-831451 1519616,-830464 1518489,-829489 1517357,-828510 1516064,-827391 1514821,-826316 1513732,-825373 1512669,-824454 1511372,-823332 1510338,-822438 1509040,-821315 1507937,-820361 1506751,-819335 1505655,-818387 1504379,-817283 1503222,-816282 1502140,-815346 1500837,-814219 1499833,-813351 1498684,-812356 1497419,-811262 1496257,-810257 1495191,-809334 1493957,-808267 1492877,-807333 1491732,-806342 1490421,-805209 1489369,-804299 1488239,-803321 1487057,-802299 1485816,-801225 1484519,-800103 1483488,-799211 1482366,-798240 1481224,-797252 1479868,-796079 1478899,-795242 1477531,-794058 1476507,-793172 1475325,-792150 1474053,-791049 1472904,-790055 1471871,-789162 1470567,-788033 1469409,-787032 1468285,-786060 1467053,-784994 1465883,-783982 1464810,-783053 1463642,-782044 1462481,-781039 1461363,-780072 1460184,-779052 1458883,-777927 1457802,-776992 1456773,-776102 1455486,-774988 1454443,-774085 1453178,-772992 1451912,-771897 1450799,-770933 1449610,-769905 1448494,-768939 1447275,-767885 1446223,-766975 1444954,-765877 1443945,-765005 1442696,-763924 1441508,-762896 1440246,-761805 1439104,-760816 1438131,-759975 1436921,-758928 1435716,-757886 1434515,-756847 1433258,-755759 1432084,-754744 1431053,-753852 1429927,-752878 1428762,-751870 1427461,-750745 1426374,-749805 1425164,-748757 1424147,-747878 1422771,-746688 1421811,-745857 1420640,-744844 1419262,-743652 1418274,-742798 1417025,-741717 1415895,-740740 1414724,-739726 1413501,-738668 1412464,-737772 1411190,-736670 1410101,-735727 1408799,-734601 1407744,-733688 1406573,-732676 1405303,-731577 1404319,-730726 1403135,-729702 1401834,-728576 1400765,-727651 1399567,-726615 1398451,-725650 1397140,-724516 1396035,-723560 1394839,-722525 1393645,-721492 1392685,-720662 1391468,-719609 1390303,-718602 1388987,-717463 1388008,-716616 1386804,-715574 1385570,-714507 1384497,-713579 1383226,-712479 1382111,-711515 1380829,-710405 1379845,-709554 1378538,-708424 1377363,-707408 1376348,-706529 1375110,-705459 1374007,-704504 1372835,-703490 1371628,-702447 1370393,-701378 1369373,-700496 1368151,-699439 1366868,-698329 1365875,-697470 1364497,-696278 1363450,-695372 1362306,-694382 1361198,-693424 1360040,-692422 1358775,-691328 1357503,-690228 1356519,-689377 1355260,-688288 1354126,-687306 1353000,-686332 1351741,-685243 1350614,-684268 1349425,-683240 1348357,-682316 1347235,-681345 1346031,-680304 1344707,-679158 1343710,-678296 1342473,-677225 1341315,-676224 1340187,-675248 1339024,-674242 1337845,-673222 1336571,-672121 1335459,-671158 1334231,-670096 1333136,-669149 1332055,-668214 1330884,-667201 1329606,-666095 1328559,-665190 1327316,-664114 1326120,-663079 1324863,-661992 1323726,-661009 1322596,-660031 1321559,-659134 1320377,-658112 1319047,-656961 1317899,-655968 1316828,-655041 1315666,-654037 1314597,-653112 1313332,-652017 1312102,-650953 1311000,-650000" fill="black" />
<polygon points="1000000,-900000 1000000,-1150000 1150000,-1150000 1150000,-900000" fill="black" />
<polygon points="1450000,-900000 1450000,-1150000 1600000,-1150000 1600000,-900000" fill="black" />
<polygon points="1000000,-1150000 1000000,-1295000 1600000,-1295000 1600000,-1150000" fill="black" />
<polygon points="1000000,-1295000 1000142,-1296182 1000671,-1297501 1001820,-1298858 1005000,-1300000 1595000,-1300000 1598180,-1298858 1599329,-1297501 1599858,-1296182 1600000,-1295000" fill="black" />
</svg>
