<?xml version="1.0" encoding="UTF-8"?>
<svg xmlns="http://www.w3.org/2000/svg" xmlns:xlink="http://www.w3.org/1999/xlink" width="288pt" height="288pt" viewBox="0 0 288 288" version="1.1">
<g id="surface17">
<path style=" stroke:none;fill-rule:nonzero;fill:rgb(0%,0%,0%);fill-opacity:1;" d="M 0 180.898438 L 0.0117188 180.746094 L 0.0390625 180.636719 L 0.0546875 180.59375 L 0.078125 180.53125 L 0.105469 180.476562 L 0.132812 180.429688 L 0.160156 180.386719 L 0.1875 180.351562 L 0.210938 180.320312 L 0.242188 180.285156 L 0.300781 180.226562 L 0.332031 180.203125 L 0.390625 180.15625 L 0.449219 180.121094 L 0.511719 180.089844 L 0.574219 180.0625 L 0.632812 180.039062 L 0.695312 180.023438 L 0.746094 180.011719 L 0.796875 180.007812 L 0.847656 180 L 0.898438 180 L 0.898438 288 L 0.847656 288 L 0.796875 287.992188 L 0.746094 287.988281 L 0.695312 287.976562 L 0.632812 287.960938 L 0.574219 287.9375 L 0.511719 287.910156 L 0.449219 287.878906 L 0.390625 287.84375 L 0.332031 287.796875 L 0.300781 287.773438 L 0.242188 287.714844 L 0.210938 287.679688 L 0.1875 287.648438 L 0.160156 287.613281 L 0.132812 287.570312 L 0.105469 287.523438 L 0.078125 287.46875 L 0.0546875 287.40625 L 0.0390625 287.363281 L 0.0117188 287.253906 L 0 287.101562 Z M 0.898438 180 L 27 180 L 27 288 L 0.898438 288 Z M 27 180 L 72 180 L 72 207 L 27 207 Z M 27 261 L 72 261 L 72 288 L 27 288 Z M 72 180 L 72.171875 180.199219 L 72.363281 180.417969 L 72.558594 180.648438 L 72.726562 180.839844 L 72.90625 181.050781 L 73.074219 181.242188 L 73.253906 181.449219 L 73.460938 181.6875 L 73.644531 181.902344 L 73.804688 182.085938 L 73.980469 182.289062 L 74.160156 182.496094 L 74.355469 182.722656 L 74.539062 182.9375 L 74.734375 183.160156 L 74.898438 183.347656 L 75.097656 183.578125 L 75.277344 183.789062 L 75.445312 183.984375 L 75.617188 184.183594 L 75.808594 184.402344 L 75.980469 184.601562 L 76.179688 184.832031 L 76.363281 185.042969 L 76.542969 185.253906 L 76.71875 185.457031 L 76.902344 185.664062 L 77.09375 185.886719 L 77.25 186.066406 L 77.453125 186.304688 L 77.640625 186.523438 L 77.816406 186.722656 L 77.984375 186.917969 L 78.167969 187.128906 L 78.34375 187.332031 L 78.539062 187.558594 L 78.714844 187.761719 L 78.890625 187.96875 L 79.085938 188.195312 L 79.242188 188.371094 L 79.4375 188.597656 L 79.636719 188.828125 L 79.816406 189.035156 L 79.988281 189.234375 L 80.167969 189.441406 L 80.328125 189.628906 L 80.542969 189.878906 L 80.699219 190.054688 L 80.898438 190.289062 L 81.089844 190.507812 L 81.246094 190.691406 L 81.441406 190.914062 L 81.628906 191.128906 L 81.8125 191.339844 L 81.984375 191.539062 L 82.175781 191.761719 L 82.332031 191.945312 L 82.515625 192.15625 L 82.71875 192.390625 L 82.871094 192.570312 L 83.074219 192.800781 L 83.246094 193 L 83.445312 193.230469 L 83.609375 193.421875 L 83.804688 193.644531 L 83.992188 193.863281 L 84.347656 194.273438 L 84.53125 194.484375 L 84.71875 194.703125 L 84.867188 194.875 L 85.242188 195.304688 L 85.414062 195.503906 L 85.617188 195.742188 L 85.789062 195.941406 L 85.976562 196.15625 L 86.144531 196.351562 L 86.347656 196.585938 L 86.53125 196.796875 L 86.683594 196.972656 L 86.882812 197.203125 L 87.0625 197.414062 L 87.226562 197.605469 L 87.429688 197.839844 L 87.601562 198.035156 L 87.800781 198.261719 L 87.960938 198.449219 L 88.152344 198.671875 L 88.332031 198.882812 L 88.507812 199.085938 L 88.703125 199.308594 L 88.859375 199.488281 L 89.070312 199.734375 L 89.253906 199.945312 L 89.402344 200.117188 L 89.617188 200.367188 L 89.777344 200.550781 L 89.964844 200.765625 L 90.132812 200.964844 L 90.335938 201.195312 L 90.519531 201.40625 L 90.691406 201.609375 L 90.855469 201.796875 L 91.035156 202.007812 L 91.230469 202.234375 L 91.605469 202.664062 L 91.796875 202.882812 L 91.945312 203.058594 L 92.125 203.265625 L 92.320312 203.492188 L 92.507812 203.707031 L 92.699219 203.929688 L 92.859375 204.113281 L 93.054688 204.339844 L 93.21875 204.53125 L 93.410156 204.75 L 93.582031 204.949219 L 93.769531 205.164062 L 93.941406 205.363281 L 94.136719 205.59375 L 94.335938 205.820312 L 94.496094 206.007812 L 94.699219 206.238281 L 94.859375 206.425781 L 95.027344 206.617188 L 95.230469 206.851562 L 95.414062 207.066406 L 95.585938 207.265625 L 95.769531 207.476562 L 95.949219 207.6875 L 96.117188 207.878906 L 96.300781 208.089844 L 96.492188 208.3125 L 96.664062 208.511719 L 96.847656 208.722656 L 97.050781 208.957031 L 97.210938 209.144531 L 97.390625 209.347656 L 97.585938 209.578125 L 97.769531 209.792969 L 97.929688 209.976562 L 98.144531 210.222656 L 98.292969 210.394531 L 98.503906 210.640625 L 98.683594 210.847656 L 98.859375 211.046875 L 99.019531 211.234375 L 99.21875 211.46875 L 99.414062 211.691406 L 99.597656 211.902344 L 99.773438 212.105469 L 99.9375 212.296875 L 100.140625 212.53125 L 100.320312 212.738281 L 100.488281 212.933594 L 100.679688 213.152344 L 100.847656 213.347656 L 101.027344 213.554688 L 101.222656 213.78125 L 101.402344 213.988281 L 101.558594 214.171875 L 101.761719 214.40625 L 101.929688 214.601562 L 102.109375 214.808594 L 102.308594 215.039062 L 102.480469 215.234375 L 102.664062 215.449219 L 102.835938 215.648438 L 103.039062 215.882812 L 103.199219 216.066406 L 103.402344 216.300781 L 103.566406 216.492188 L 103.738281 216.6875 L 103.929688 216.910156 L 104.132812 217.144531 L 104.484375 217.550781 L 104.660156 217.757812 L 104.851562 217.972656 L 105.023438 218.175781 L 105.199219 218.378906 L 105.390625 218.601562 L 105.5625 218.796875 L 105.765625 219.03125 L 105.945312 219.238281 L 106.105469 219.425781 L 106.308594 219.660156 L 106.472656 219.851562 L 106.671875 220.082031 L 106.832031 220.269531 L 107.019531 220.480469 L 107.1875 220.675781 L 107.390625 220.910156 L 107.570312 221.121094 L 107.738281 221.3125 L 107.925781 221.53125 L 108.128906 221.761719 L 108.273438 221.933594 L 108.457031 222.144531 L 108.644531 222.363281 L 108.851562 222.601562 L 109.019531 222.796875 L 109.203125 223.007812 L 109.371094 223.203125 L 109.558594 223.417969 L 109.738281 223.625 L 109.910156 223.824219 L 110.09375 224.035156 L 110.296875 224.273438 L 110.453125 224.453125 L 110.636719 224.664062 L 110.828125 224.886719 L 111.015625 225.101562 L 111.183594 225.296875 L 111.371094 225.515625 L 111.542969 225.710938 L 111.753906 225.957031 L 111.929688 226.160156 L 112.101562 226.355469 L 112.269531 226.550781 L 112.445312 226.753906 L 112.65625 227 L 112.835938 227.207031 L 113 227.398438 L 113.203125 227.632812 L 113.378906 227.832031 L 113.542969 228.027344 L 113.742188 228.253906 L 113.898438 228.4375 L 114.28125 228.875 L 114.464844 229.085938 L 114.636719 229.285156 L 114.808594 229.488281 L 115.023438 229.734375 L 115.199219 229.9375 L 115.378906 230.148438 L 115.550781 230.34375 L 115.722656 230.542969 L 115.925781 230.777344 L 116.089844 230.96875 L 116.285156 231.191406 L 116.445312 231.378906 L 116.636719 231.601562 L 116.808594 231.800781 L 117 232.019531 L 117 233.101562 L 116.808594 232.988281 L 116.636719 232.890625 L 116.445312 232.777344 L 116.285156 232.683594 L 116.089844 232.570312 L 115.925781 232.476562 L 115.722656 232.359375 L 115.550781 232.257812 L 115.378906 232.160156 L 115.199219 232.054688 L 115.023438 231.953125 L 114.808594 231.828125 L 114.636719 231.730469 L 114.464844 231.628906 L 114.28125 231.523438 L 114.089844 231.414062 L 113.898438 231.300781 L 113.742188 231.210938 L 113.542969 231.097656 L 113.378906 231 L 113.203125 230.898438 L 113 230.78125 L 112.835938 230.683594 L 112.65625 230.582031 L 112.445312 230.457031 L 112.269531 230.355469 L 112.101562 230.257812 L 111.929688 230.160156 L 111.753906 230.058594 L 111.542969 229.933594 L 111.371094 229.835938 L 111.183594 229.726562 L 111.015625 229.628906 L 110.828125 229.519531 L 110.636719 229.410156 L 110.453125 229.304688 L 110.296875 229.210938 L 110.09375 229.09375 L 109.910156 228.988281 L 109.738281 228.886719 L 109.558594 228.785156 L 109.371094 228.675781 L 109.203125 228.578125 L 109.019531 228.472656 L 108.851562 228.375 L 108.644531 228.253906 L 108.457031 228.144531 L 108.273438 228.039062 L 108.128906 227.953125 L 107.925781 227.839844 L 107.738281 227.726562 L 107.570312 227.632812 L 107.390625 227.527344 L 107.1875 227.410156 L 107.019531 227.3125 L 106.832031 227.203125 L 106.671875 227.109375 L 106.472656 226.992188 L 106.308594 226.898438 L 106.105469 226.78125 L 105.945312 226.6875 L 105.765625 226.582031 L 105.5625 226.464844 L 105.390625 226.367188 L 105.199219 226.257812 L 105.023438 226.152344 L 104.851562 226.054688 L 104.660156 225.945312 L 104.484375 225.839844 L 104.132812 225.636719 L 103.929688 225.519531 L 103.738281 225.40625 L 103.566406 225.308594 L 103.402344 225.214844 L 103.199219 225.097656 L 103.039062 225.003906 L 102.835938 224.886719 L 102.664062 224.785156 L 102.480469 224.679688 L 102.308594 224.578125 L 102.109375 224.464844 L 101.929688 224.359375 L 101.761719 224.261719 L 101.558594 224.144531 L 101.402344 224.054688 L 101.222656 223.949219 L 101.027344 223.835938 L 100.847656 223.730469 L 100.679688 223.632812 L 100.488281 223.523438 L 100.320312 223.425781 L 100.140625 223.320312 L 99.9375 223.203125 L 99.773438 223.109375 L 99.597656 223.007812 L 99.414062 222.898438 L 99.21875 222.789062 L 99.019531 222.671875 L 98.859375 222.578125 L 98.683594 222.476562 L 98.503906 222.375 L 98.292969 222.25 L 98.144531 222.164062 L 97.929688 222.039062 L 97.769531 221.945312 L 97.585938 221.839844 L 97.390625 221.726562 L 97.210938 221.621094 L 97.050781 221.527344 L 96.847656 221.410156 L 96.664062 221.304688 L 96.492188 221.203125 L 96.300781 221.09375 L 96.117188 220.988281 L 95.949219 220.890625 L 95.769531 220.785156 L 95.585938 220.679688 L 95.414062 220.578125 L 95.230469 220.472656 L 95.027344 220.355469 L 94.859375 220.257812 L 94.699219 220.164062 L 94.496094 220.046875 L 94.335938 219.953125 L 94.136719 219.839844 L 93.941406 219.726562 L 93.769531 219.625 L 93.582031 219.519531 L 93.410156 219.417969 L 93.21875 219.308594 L 93.054688 219.210938 L 92.859375 219.097656 L 92.699219 219.007812 L 92.507812 218.894531 L 92.320312 218.785156 L 92.125 218.671875 L 91.945312 218.570312 L 91.796875 218.480469 L 91.605469 218.371094 L 91.417969 218.261719 L 91.230469 218.15625 L 91.035156 218.042969 L 90.855469 217.933594 L 90.691406 217.84375 L 90.519531 217.742188 L 90.335938 217.636719 L 90.132812 217.519531 L 89.964844 217.417969 L 89.777344 217.308594 L 89.617188 217.21875 L 89.402344 217.09375 L 89.253906 217.007812 L 89.070312 216.902344 L 88.859375 216.777344 L 88.703125 216.6875 L 88.507812 216.574219 L 88.332031 216.472656 L 88.152344 216.367188 L 87.960938 216.257812 L 87.800781 216.164062 L 87.601562 216.046875 L 87.429688 215.949219 L 87.226562 215.832031 L 87.0625 215.738281 L 86.882812 215.632812 L 86.683594 215.515625 L 86.53125 215.429688 L 86.347656 215.320312 L 86.144531 215.203125 L 85.976562 215.105469 L 85.789062 215 L 85.617188 214.898438 L 85.414062 214.78125 L 85.242188 214.679688 L 85.054688 214.570312 L 84.867188 214.464844 L 84.71875 214.378906 L 84.53125 214.265625 L 84.347656 214.160156 L 84.144531 214.042969 L 83.992188 213.953125 L 83.804688 213.847656 L 83.609375 213.734375 L 83.445312 213.636719 L 83.246094 213.523438 L 83.074219 213.421875 L 82.871094 213.304688 L 82.71875 213.21875 L 82.515625 213.097656 L 82.332031 212.992188 L 82.175781 212.902344 L 81.984375 212.789062 L 81.8125 212.691406 L 81.628906 212.585938 L 81.441406 212.476562 L 81.246094 212.363281 L 81.089844 212.273438 L 80.898438 212.160156 L 80.699219 212.046875 L 80.542969 211.957031 L 80.328125 211.832031 L 80.167969 211.738281 L 79.988281 211.632812 L 79.816406 211.535156 L 79.636719 211.429688 L 79.4375 211.316406 L 79.242188 211.199219 L 79.085938 211.109375 L 78.890625 210.996094 L 78.539062 210.792969 L 78.34375 210.679688 L 78.167969 210.578125 L 77.984375 210.46875 L 77.816406 210.375 L 77.640625 210.273438 L 77.453125 210.164062 L 77.25 210.042969 L 77.09375 209.953125 L 76.902344 209.84375 L 76.71875 209.738281 L 76.542969 209.636719 L 76.363281 209.53125 L 76.179688 209.425781 L 75.980469 209.308594 L 75.808594 209.207031 L 75.617188 209.097656 L 75.445312 209 L 75.277344 208.902344 L 75.097656 208.796875 L 74.898438 208.679688 L 74.734375 208.585938 L 74.539062 208.472656 L 74.355469 208.367188 L 74.160156 208.253906 L 73.980469 208.148438 L 73.804688 208.046875 L 73.644531 207.953125 L 73.460938 207.847656 L 73.253906 207.726562 L 73.074219 207.621094 L 72.90625 207.527344 L 72.726562 207.421875 L 72.558594 207.324219 L 72.363281 207.210938 L 72.171875 207.097656 L 72 207 Z M 72 261 L 72.171875 260.902344 L 72.363281 260.789062 L 72.558594 260.675781 L 72.726562 260.578125 L 72.90625 260.472656 L 73.074219 260.378906 L 73.253906 260.273438 L 73.460938 260.152344 L 73.644531 260.046875 L 73.804688 259.953125 L 73.980469 259.851562 L 74.160156 259.746094 L 74.355469 259.632812 L 74.539062 259.527344 L 74.734375 259.414062 L 74.898438 259.320312 L 75.097656 259.203125 L 75.277344 259.097656 L 75.445312 259 L 75.617188 258.902344 L 75.808594 258.792969 L 75.980469 258.691406 L 76.179688 258.574219 L 76.363281 258.46875 L 76.542969 258.363281 L 76.71875 258.261719 L 76.902344 258.15625 L 77.09375 258.046875 L 77.25 257.957031 L 77.453125 257.835938 L 77.640625 257.726562 L 77.816406 257.625 L 77.984375 257.53125 L 78.167969 257.421875 L 78.34375 257.320312 L 78.539062 257.207031 L 78.890625 257.003906 L 79.085938 256.890625 L 79.242188 256.800781 L 79.4375 256.683594 L 79.636719 256.570312 L 79.816406 256.464844 L 79.988281 256.367188 L 80.167969 256.261719 L 80.328125 256.167969 L 80.542969 256.042969 L 80.699219 255.953125 L 80.898438 255.839844 L 81.089844 255.726562 L 81.246094 255.636719 L 81.441406 255.523438 L 81.628906 255.414062 L 81.8125 255.308594 L 81.984375 255.210938 L 82.175781 255.097656 L 82.332031 255.007812 L 82.515625 254.902344 L 82.71875 254.78125 L 82.871094 254.695312 L 83.074219 254.578125 L 83.246094 254.476562 L 83.445312 254.363281 L 83.609375 254.265625 L 83.804688 254.152344 L 83.992188 254.046875 L 84.144531 253.957031 L 84.347656 253.839844 L 84.53125 253.734375 L 84.71875 253.621094 L 84.867188 253.535156 L 85.054688 253.429688 L 85.242188 253.320312 L 85.414062 253.21875 L 85.617188 253.101562 L 85.789062 253 L 85.976562 252.894531 L 86.144531 252.796875 L 86.347656 252.679688 L 86.53125 252.570312 L 86.683594 252.484375 L 86.882812 252.367188 L 87.0625 252.261719 L 87.226562 252.167969 L 87.429688 252.050781 L 87.601562 251.953125 L 87.800781 251.835938 L 87.960938 251.742188 L 88.152344 251.632812 L 88.332031 251.527344 L 88.507812 251.425781 L 88.703125 251.3125 L 88.859375 251.222656 L 89.070312 251.097656 L 89.253906 250.992188 L 89.402344 250.90625 L 89.617188 250.78125 L 89.777344 250.691406 L 89.964844 250.582031 L 90.132812 250.480469 L 90.335938 250.363281 L 90.519531 250.257812 L 90.691406 250.15625 L 90.855469 250.066406 L 91.035156 249.957031 L 91.230469 249.84375 L 91.417969 249.738281 L 91.605469 249.628906 L 91.796875 249.519531 L 91.945312 249.429688 L 92.125 249.328125 L 92.320312 249.214844 L 92.507812 249.105469 L 92.699219 248.992188 L 92.859375 248.902344 L 93.054688 248.789062 L 93.21875 248.691406 L 93.410156 248.582031 L 93.582031 248.480469 L 93.769531 248.375 L 93.941406 248.273438 L 94.136719 248.160156 L 94.335938 248.046875 L 94.496094 247.953125 L 94.699219 247.835938 L 94.859375 247.742188 L 95.027344 247.644531 L 95.230469 247.527344 L 95.414062 247.421875 L 95.585938 247.320312 L 95.769531 247.214844 L 95.949219 247.109375 L 96.117188 247.011719 L 96.300781 246.90625 L 96.492188 246.796875 L 96.664062 246.695312 L 96.847656 246.589844 L 97.050781 246.472656 L 97.210938 246.378906 L 97.390625 246.273438 L 97.585938 246.160156 L 97.769531 246.054688 L 97.929688 245.960938 L 98.144531 245.835938 L 98.292969 245.75 L 98.503906 245.625 L 98.683594 245.523438 L 98.859375 245.421875 L 99.019531 245.328125 L 99.21875 245.210938 L 99.414062 245.101562 L 99.597656 244.992188 L 99.773438 244.890625 L 99.9375 244.796875 L 100.140625 244.679688 L 100.320312 244.574219 L 100.488281 244.476562 L 100.679688 244.367188 L 100.847656 244.269531 L 101.027344 244.164062 L 101.222656 244.050781 L 101.402344 243.945312 L 101.558594 243.855469 L 101.761719 243.738281 L 101.929688 243.640625 L 102.109375 243.535156 L 102.308594 243.421875 L 102.480469 243.320312 L 102.664062 243.214844 L 102.835938 243.113281 L 103.039062 242.996094 L 103.199219 242.902344 L 103.402344 242.785156 L 103.566406 242.691406 L 103.738281 242.59375 L 103.929688 242.480469 L 104.132812 242.363281 L 104.484375 242.160156 L 104.660156 242.054688 L 104.851562 241.945312 L 105.023438 241.847656 L 105.199219 241.742188 L 105.390625 241.632812 L 105.5625 241.535156 L 105.765625 241.417969 L 105.945312 241.3125 L 106.105469 241.21875 L 106.308594 241.101562 L 106.472656 241.007812 L 106.671875 240.890625 L 106.832031 240.796875 L 107.019531 240.6875 L 107.1875 240.589844 L 107.390625 240.472656 L 107.570312 240.367188 L 107.738281 240.273438 L 107.925781 240.160156 L 108.128906 240.046875 L 108.273438 239.960938 L 108.457031 239.855469 L 108.644531 239.746094 L 108.851562 239.625 L 109.019531 239.527344 L 109.203125 239.421875 L 109.371094 239.324219 L 109.558594 239.214844 L 109.738281 239.113281 L 109.910156 239.011719 L 110.09375 238.90625 L 110.296875 238.789062 L 110.453125 238.695312 L 110.636719 238.589844 L 110.828125 238.480469 L 111.015625 238.371094 L 111.183594 238.273438 L 111.371094 238.164062 L 111.542969 238.066406 L 111.753906 237.941406 L 111.929688 237.839844 L 112.101562 237.742188 L 112.269531 237.644531 L 112.445312 237.542969 L 112.65625 237.417969 L 112.835938 237.316406 L 113 237.21875 L 113.203125 237.101562 L 113.378906 237 L 113.542969 236.902344 L 113.742188 236.789062 L 113.898438 236.699219 L 114.089844 236.585938 L 114.28125 236.476562 L 114.464844 236.371094 L 114.636719 236.269531 L 114.808594 236.171875 L 115.023438 236.046875 L 115.199219 235.945312 L 115.378906 235.839844 L 115.550781 235.742188 L 115.722656 235.640625 L 115.925781 235.523438 L 116.089844 235.429688 L 116.285156 235.316406 L 116.445312 235.222656 L 116.636719 235.109375 L 116.808594 235.011719 L 117 234.898438 L 117 235.980469 L 116.808594 236.199219 L 116.636719 236.398438 L 116.445312 236.621094 L 116.285156 236.808594 L 116.089844 237.03125 L 115.925781 237.222656 L 115.722656 237.457031 L 115.550781 237.65625 L 115.378906 237.851562 L 115.199219 238.0625 L 115.023438 238.265625 L 114.808594 238.511719 L 114.636719 238.714844 L 114.464844 238.914062 L 114.28125 239.125 L 113.898438 239.5625 L 113.742188 239.746094 L 113.542969 239.972656 L 113.378906 240.167969 L 113.203125 240.367188 L 113 240.601562 L 112.835938 240.792969 L 112.65625 241 L 112.445312 241.246094 L 112.269531 241.449219 L 112.101562 241.644531 L 111.929688 241.839844 L 111.753906 242.042969 L 111.542969 242.289062 L 111.371094 242.484375 L 111.183594 242.703125 L 111.015625 242.898438 L 110.828125 243.113281 L 110.636719 243.335938 L 110.453125 243.546875 L 110.296875 243.726562 L 110.09375 243.964844 L 109.910156 244.175781 L 109.738281 244.375 L 109.558594 244.582031 L 109.371094 244.796875 L 109.203125 244.992188 L 109.019531 245.203125 L 108.851562 245.398438 L 108.644531 245.636719 L 108.457031 245.855469 L 108.273438 246.066406 L 108.128906 246.238281 L 107.925781 246.46875 L 107.738281 246.6875 L 107.570312 246.878906 L 107.390625 247.089844 L 107.1875 247.324219 L 107.019531 247.519531 L 106.832031 247.730469 L 106.671875 247.917969 L 106.472656 248.148438 L 106.308594 248.339844 L 106.105469 248.574219 L 105.945312 248.761719 L 105.765625 248.96875 L 105.5625 249.203125 L 105.390625 249.398438 L 105.199219 249.621094 L 105.023438 249.824219 L 104.851562 250.027344 L 104.660156 250.242188 L 104.484375 250.449219 L 104.132812 250.855469 L 103.929688 251.089844 L 103.738281 251.3125 L 103.566406 251.507812 L 103.402344 251.699219 L 103.199219 251.933594 L 103.039062 252.117188 L 102.835938 252.351562 L 102.664062 252.550781 L 102.480469 252.765625 L 102.308594 252.960938 L 102.109375 253.191406 L 101.929688 253.398438 L 101.761719 253.59375 L 101.558594 253.828125 L 101.402344 254.011719 L 101.222656 254.21875 L 101.027344 254.445312 L 100.847656 254.652344 L 100.679688 254.847656 L 100.488281 255.066406 L 100.320312 255.261719 L 100.140625 255.46875 L 99.9375 255.703125 L 99.773438 255.894531 L 99.597656 256.097656 L 99.414062 256.308594 L 99.21875 256.53125 L 99.019531 256.765625 L 98.859375 256.953125 L 98.683594 257.152344 L 98.503906 257.359375 L 98.292969 257.605469 L 98.144531 257.777344 L 97.929688 258.023438 L 97.769531 258.207031 L 97.585938 258.421875 L 97.390625 258.652344 L 97.210938 258.855469 L 97.050781 259.042969 L 96.847656 259.277344 L 96.664062 259.488281 L 96.492188 259.6875 L 96.300781 259.910156 L 96.117188 260.121094 L 95.949219 260.3125 L 95.769531 260.523438 L 95.585938 260.734375 L 95.414062 260.933594 L 95.230469 261.148438 L 95.027344 261.382812 L 94.859375 261.574219 L 94.699219 261.761719 L 94.496094 261.992188 L 94.335938 262.179688 L 94.136719 262.40625 L 93.941406 262.636719 L 93.769531 262.835938 L 93.582031 263.050781 L 93.410156 263.25 L 93.21875 263.46875 L 93.054688 263.660156 L 92.859375 263.886719 L 92.699219 264.070312 L 92.507812 264.292969 L 92.320312 264.507812 L 92.125 264.734375 L 91.945312 264.941406 L 91.796875 265.117188 L 91.605469 265.335938 L 91.230469 265.765625 L 91.035156 265.992188 L 90.855469 266.203125 L 90.691406 266.390625 L 90.519531 266.59375 L 90.335938 266.804688 L 90.132812 267.035156 L 89.964844 267.234375 L 89.777344 267.449219 L 89.617188 267.632812 L 89.402344 267.882812 L 89.253906 268.054688 L 89.070312 268.265625 L 88.859375 268.511719 L 88.703125 268.691406 L 88.507812 268.914062 L 88.332031 269.117188 L 88.152344 269.328125 L 87.960938 269.550781 L 87.800781 269.738281 L 87.601562 269.964844 L 87.429688 270.160156 L 87.226562 270.394531 L 87.0625 270.585938 L 86.882812 270.796875 L 86.683594 271.027344 L 86.53125 271.203125 L 86.347656 271.414062 L 86.144531 271.648438 L 85.976562 271.84375 L 85.789062 272.058594 L 85.617188 272.257812 L 85.414062 272.496094 L 85.242188 272.695312 L 84.867188 273.125 L 84.71875 273.296875 L 84.53125 273.515625 L 84.347656 273.726562 L 83.992188 274.136719 L 83.804688 274.355469 L 83.609375 274.578125 L 83.445312 274.769531 L 83.246094 275 L 83.074219 275.199219 L 82.871094 275.429688 L 82.71875 275.609375 L 82.515625 275.84375 L 82.332031 276.054688 L 82.175781 276.238281 L 81.984375 276.460938 L 81.8125 276.660156 L 81.628906 276.871094 L 81.441406 277.085938 L 81.246094 277.308594 L 81.089844 277.492188 L 80.898438 277.710938 L 80.699219 277.945312 L 80.542969 278.121094 L 80.328125 278.371094 L 80.167969 278.558594 L 79.988281 278.765625 L 79.816406 278.964844 L 79.636719 279.171875 L 79.4375 279.402344 L 79.242188 279.628906 L 79.085938 279.804688 L 78.890625 280.03125 L 78.714844 280.238281 L 78.539062 280.441406 L 78.34375 280.667969 L 78.167969 280.871094 L 77.984375 281.082031 L 77.816406 281.277344 L 77.640625 281.476562 L 77.453125 281.695312 L 77.25 281.933594 L 77.09375 282.113281 L 76.902344 282.335938 L 76.71875 282.542969 L 76.542969 282.746094 L 76.363281 282.957031 L 76.179688 283.167969 L 75.980469 283.398438 L 75.808594 283.597656 L 75.617188 283.816406 L 75.445312 284.015625 L 75.277344 284.210938 L 75.097656 284.421875 L 74.898438 284.652344 L 74.734375 284.839844 L 74.539062 285.0625 L 74.355469 285.277344 L 74.160156 285.503906 L 73.980469 285.710938 L 73.804688 285.914062 L 73.644531 286.097656 L 73.460938 286.3125 L 73.253906 286.550781 L 73.074219 286.757812 L 72.90625 286.949219 L 72.726562 287.160156 L 72.558594 287.351562 L 72.363281 287.582031 L 72.171875 287.800781 L 72 288 Z M 117 232.019531 L 207 232.019531 L 207 233.101562 L 117 233.101562 Z M 117 234.898438 L 207 234.898438 L 207 235.980469 L 117 235.980469 Z M 207 232.019531 L 207.335938 232.019531 L 207.519531 232.015625 L 207.671875 232.011719 L 207.839844 232.007812 L 207.992188 232 L 208.160156 231.992188 L 208.351562 231.984375 L 208.519531 231.972656 L 208.671875 231.964844 L 208.832031 231.953125 L 208.996094 231.941406 L 209.175781 231.925781 L 209.347656 231.910156 L 209.527344 231.890625 L 209.675781 231.875 L 209.859375 231.855469 L 210.027344 231.835938 L 210.339844 231.796875 L 210.511719 231.773438 L 210.671875 231.75 L 210.855469 231.722656 L 211.023438 231.695312 L 211.1875 231.667969 L 211.347656 231.640625 L 211.511719 231.609375 L 211.6875 231.578125 L 211.828125 231.550781 L 212.015625 231.511719 L 212.183594 231.476562 L 212.34375 231.441406 L 212.492188 231.410156 L 212.660156 231.371094 L 212.816406 231.335938 L 212.996094 231.292969 L 213.152344 231.25 L 213.308594 231.210938 L 213.484375 231.164062 L 213.621094 231.128906 L 213.800781 231.078125 L 213.972656 231.027344 L 214.132812 230.980469 L 214.445312 230.886719 L 214.589844 230.839844 L 214.777344 230.78125 L 214.914062 230.734375 L 215.089844 230.675781 L 215.253906 230.617188 L 215.394531 230.570312 L 215.5625 230.507812 L 215.726562 230.449219 L 215.882812 230.390625 L 216.03125 230.332031 L 216.199219 230.269531 L 216.332031 230.214844 L 216.492188 230.148438 L 216.664062 230.078125 L 216.796875 230.023438 L 216.964844 229.949219 L 217.113281 229.886719 L 217.28125 229.8125 L 217.421875 229.746094 L 217.582031 229.671875 L 217.738281 229.597656 L 217.867188 229.539062 L 218.035156 229.453125 L 218.1875 229.378906 L 218.34375 229.300781 L 218.464844 229.238281 L 218.621094 229.160156 L 218.773438 229.078125 L 218.910156 229.003906 L 219.078125 228.910156 L 219.21875 228.832031 L 219.367188 228.75 L 219.503906 228.671875 L 219.664062 228.578125 L 219.8125 228.492188 L 219.933594 228.417969 L 220.089844 228.324219 L 220.234375 228.234375 L 220.363281 228.152344 L 220.519531 228.050781 L 220.652344 227.96875 L 220.804688 227.867188 L 220.929688 227.785156 L 221.074219 227.683594 L 221.214844 227.589844 L 221.347656 227.496094 L 221.496094 227.394531 L 221.613281 227.308594 L 221.773438 227.195312 L 221.90625 227.09375 L 222.019531 227.011719 L 222.175781 226.890625 L 222.292969 226.800781 L 222.429688 226.695312 L 222.554688 226.597656 L 222.699219 226.480469 L 222.832031 226.375 L 222.957031 226.273438 L 223.070312 226.175781 L 223.199219 226.066406 L 223.335938 225.949219 L 223.46875 225.835938 L 223.597656 225.722656 L 223.730469 225.605469 L 223.832031 225.511719 L 223.953125 225.398438 L 224.085938 225.277344 L 224.210938 225.160156 L 224.34375 225.035156 L 224.445312 224.933594 L 224.578125 224.804688 L 224.921875 224.460938 L 225.039062 224.335938 L 225.152344 224.21875 L 225.402344 223.953125 L 225.5 223.84375 L 225.625 223.703125 L 225.726562 223.59375 L 225.828125 223.476562 L 225.949219 223.335938 L 226.0625 223.207031 L 226.164062 223.082031 L 226.273438 222.957031 L 226.378906 222.824219 L 226.476562 222.703125 L 226.582031 222.574219 L 226.691406 222.433594 L 226.894531 222.175781 L 227.007812 222.023438 L 227.097656 221.90625 L 227.195312 221.769531 L 227.300781 221.625 L 227.402344 221.484375 L 227.484375 221.363281 L 227.597656 221.203125 L 227.675781 221.085938 L 227.785156 220.925781 L 227.878906 220.789062 L 227.96875 220.652344 L 228.046875 220.527344 L 228.148438 220.371094 L 228.242188 220.21875 L 228.332031 220.074219 L 228.417969 219.933594 L 228.496094 219.804688 L 228.589844 219.640625 L 228.675781 219.5 L 228.75 219.363281 L 228.839844 219.210938 L 228.914062 219.074219 L 228.992188 218.929688 L 229.082031 218.765625 L 229.15625 218.621094 L 229.222656 218.492188 L 229.308594 218.324219 L 229.378906 218.1875 L 229.453125 218.035156 L 229.535156 217.871094 L 229.601562 217.730469 L 229.675781 217.574219 L 229.742188 217.429688 L 229.820312 217.257812 L 229.878906 217.125 L 229.957031 216.953125 L 230.015625 216.8125 L 230.078125 216.667969 L 230.144531 216.5 L 230.214844 216.328125 L 230.277344 216.175781 L 230.335938 216.027344 L 230.394531 215.871094 L 230.457031 215.710938 L 230.511719 215.558594 L 230.566406 215.402344 L 230.625 215.238281 L 230.675781 215.085938 L 230.738281 214.910156 L 230.789062 214.753906 L 230.835938 214.609375 L 230.890625 214.429688 L 230.9375 214.285156 L 230.988281 214.109375 L 231.03125 213.964844 L 231.078125 213.800781 L 231.121094 213.652344 L 231.167969 213.46875 L 231.210938 213.308594 L 231.25 213.15625 L 231.292969 212.988281 L 231.335938 212.808594 L 231.367188 212.675781 L 231.445312 212.339844 L 231.484375 212.152344 L 231.515625 212 L 231.546875 211.832031 L 231.578125 211.683594 L 231.609375 211.511719 L 231.640625 211.347656 L 231.667969 211.191406 L 231.695312 211.023438 L 231.722656 210.835938 L 231.746094 210.695312 L 231.769531 210.527344 L 231.792969 210.351562 L 231.816406 210.179688 L 231.835938 210.023438 L 231.855469 209.851562 L 231.875 209.695312 L 231.894531 209.5 L 231.910156 209.335938 L 231.925781 209.179688 L 231.9375 209.027344 L 231.949219 208.863281 L 231.964844 208.667969 L 231.976562 208.503906 L 231.984375 208.347656 L 231.992188 208.160156 L 232 208 L 232.003906 207.847656 L 232.011719 207.664062 L 232.015625 207.519531 L 232.019531 207.339844 L 232.019531 207 L 233.101562 207 L 233.097656 207.175781 L 233.097656 207.355469 L 233.09375 207.539062 L 233.089844 207.691406 L 233.085938 207.882812 L 233.070312 208.210938 L 233.0625 208.40625 L 233.054688 208.566406 L 233.042969 208.738281 L 233.027344 208.941406 L 233.015625 209.113281 L 233 209.273438 L 232.984375 209.4375 L 232.96875 209.609375 L 232.949219 209.8125 L 232.929688 209.976562 L 232.910156 210.15625 L 232.886719 210.316406 L 232.863281 210.496094 L 232.839844 210.679688 L 232.8125 210.855469 L 232.792969 211.003906 L 232.761719 211.195312 L 232.730469 211.371094 L 232.703125 211.535156 L 232.671875 211.707031 L 232.640625 211.882812 L 232.609375 212.042969 L 232.574219 212.214844 L 232.539062 212.375 L 232.5 212.570312 L 232.460938 212.746094 L 232.417969 212.917969 L 232.386719 213.058594 L 232.339844 213.246094 L 232.296875 213.425781 L 232.257812 213.578125 L 232.210938 213.75 L 232.160156 213.9375 L 232.117188 214.09375 L 232.066406 214.265625 L 232.023438 214.414062 L 231.96875 214.601562 L 231.921875 214.75 L 231.863281 214.9375 L 231.816406 215.085938 L 231.761719 215.253906 L 231.699219 215.4375 L 231.644531 215.59375 L 231.582031 215.765625 L 231.527344 215.925781 L 231.46875 216.085938 L 231.402344 216.253906 L 231.34375 216.414062 L 231.28125 216.574219 L 231.21875 216.730469 L 231.144531 216.910156 L 231.074219 217.085938 L 231.007812 217.234375 L 230.945312 217.382812 L 230.867188 217.5625 L 230.804688 217.703125 L 230.722656 217.878906 L 230.65625 218.03125 L 230.578125 218.191406 L 230.507812 218.339844 L 230.421875 218.511719 L 230.347656 218.667969 L 230.273438 218.8125 L 230.183594 218.988281 L 230.113281 219.121094 L 230.03125 219.273438 L 229.941406 219.441406 L 229.859375 219.597656 L 229.78125 219.734375 L 229.691406 219.898438 L 229.609375 220.039062 L 229.523438 220.1875 L 229.421875 220.355469 L 229.339844 220.492188 L 229.253906 220.636719 L 229.160156 220.789062 L 229.0625 220.949219 L 228.957031 221.113281 L 228.871094 221.242188 L 228.78125 221.382812 L 228.683594 221.527344 L 228.570312 221.695312 L 228.488281 221.816406 L 228.371094 221.984375 L 228.28125 222.109375 L 228.179688 222.253906 L 228.066406 222.410156 L 227.964844 222.546875 L 227.753906 222.828125 L 227.644531 222.96875 L 227.542969 223.101562 L 227.425781 223.246094 L 227.316406 223.382812 L 227.214844 223.507812 L 227.105469 223.644531 L 226.992188 223.777344 L 226.882812 223.90625 L 226.769531 224.042969 L 226.640625 224.1875 L 226.535156 224.3125 L 226.429688 224.425781 L 226.300781 224.570312 L 226.195312 224.683594 L 226.066406 224.824219 L 225.933594 224.964844 L 225.820312 225.085938 L 225.695312 225.210938 L 225.578125 225.332031 L 225.335938 225.574219 L 225.199219 225.707031 L 225.089844 225.8125 L 224.953125 225.941406 L 224.824219 226.066406 L 224.6875 226.195312 L 224.558594 226.308594 L 224.449219 226.410156 L 224.316406 226.53125 L 224.179688 226.648438 L 224.042969 226.769531 L 223.898438 226.890625 L 223.765625 227.003906 L 223.644531 227.105469 L 223.515625 227.210938 L 223.378906 227.320312 L 223.226562 227.445312 L 223.097656 227.542969 L 222.953125 227.65625 L 222.832031 227.75 L 222.667969 227.875 L 222.550781 227.960938 L 222.410156 228.066406 L 222.242188 228.1875 L 222.121094 228.273438 L 221.96875 228.382812 L 221.828125 228.480469 L 221.683594 228.578125 L 221.402344 228.765625 L 221.242188 228.871094 L 221.101562 228.960938 L 220.9375 229.066406 L 220.804688 229.152344 L 220.65625 229.242188 L 220.492188 229.34375 L 220.363281 229.417969 L 220.210938 229.507812 L 220.042969 229.609375 L 219.902344 229.6875 L 219.746094 229.777344 L 219.597656 229.859375 L 219.425781 229.953125 L 219.28125 230.03125 L 219.121094 230.113281 L 218.960938 230.199219 L 218.832031 230.261719 L 218.667969 230.347656 L 218.511719 230.421875 L 218.335938 230.511719 L 218.203125 230.574219 L 218.039062 230.652344 L 217.871094 230.730469 L 217.722656 230.796875 L 217.546875 230.875 L 217.394531 230.941406 L 217.21875 231.015625 L 217.082031 231.074219 L 216.898438 231.148438 L 216.738281 231.214844 L 216.59375 231.273438 L 216.421875 231.339844 L 216.265625 231.398438 L 216.101562 231.460938 L 215.757812 231.585938 L 215.613281 231.636719 L 215.4375 231.699219 L 215.253906 231.761719 L 215.113281 231.808594 L 214.917969 231.871094 L 214.765625 231.917969 L 214.601562 231.96875 L 214.441406 232.015625 L 214.273438 232.066406 L 214.09375 232.117188 L 213.910156 232.167969 L 213.765625 232.207031 L 213.582031 232.257812 L 213.417969 232.296875 L 213.253906 232.339844 L 213.070312 232.382812 L 212.90625 232.421875 L 212.730469 232.464844 L 212.574219 232.496094 L 212.410156 232.535156 L 212.230469 232.570312 L 212.035156 232.609375 L 211.890625 232.636719 L 211.707031 232.671875 L 211.535156 232.703125 L 211.367188 232.730469 L 211.195312 232.761719 L 211.019531 232.789062 L 210.832031 232.816406 L 210.664062 232.839844 L 210.480469 232.867188 L 210.320312 232.886719 L 210.15625 232.910156 L 209.984375 232.929688 L 209.792969 232.949219 L 209.636719 232.964844 L 209.449219 232.984375 L 209.269531 233 L 209.082031 233.015625 L 208.910156 233.03125 L 208.742188 233.042969 L 208.585938 233.050781 L 208.410156 233.0625 L 208.210938 233.070312 L 208.035156 233.078125 L 207.875 233.085938 L 207.703125 233.089844 L 207.539062 233.09375 L 207.351562 233.097656 L 207.164062 233.097656 L 207 233.101562 Z M 207 234.898438 L 207.375 234.898438 L 207.578125 234.894531 L 207.75 234.890625 L 207.9375 234.882812 L 208.109375 234.878906 L 208.292969 234.871094 L 208.507812 234.859375 L 208.695312 234.847656 L 208.863281 234.835938 L 209.042969 234.824219 L 209.226562 234.8125 L 209.425781 234.792969 L 209.617188 234.777344 L 209.816406 234.757812 L 209.984375 234.738281 L 210.1875 234.71875 L 210.375 234.695312 L 210.546875 234.671875 L 210.722656 234.652344 L 210.917969 234.625 L 211.09375 234.597656 L 211.296875 234.566406 L 211.484375 234.539062 L 211.667969 234.507812 L 211.847656 234.476562 L 212.03125 234.441406 L 212.226562 234.40625 L 212.382812 234.375 L 212.59375 234.332031 L 212.78125 234.292969 L 212.957031 234.257812 L 213.125 234.21875 L 213.3125 234.175781 L 213.488281 234.136719 L 213.683594 234.085938 L 214.035156 234 L 214.230469 233.945312 L 214.386719 233.90625 L 214.582031 233.851562 L 214.777344 233.792969 L 214.957031 233.742188 L 215.125 233.691406 L 215.300781 233.636719 L 215.460938 233.585938 L 215.671875 233.519531 L 215.824219 233.46875 L 216.019531 233.402344 L 216.207031 233.335938 L 216.359375 233.28125 L 216.546875 233.214844 L 216.730469 233.148438 L 216.90625 233.082031 L 217.070312 233.019531 L 217.257812 232.945312 L 217.40625 232.886719 L 217.582031 232.816406 L 217.777344 232.734375 L 217.921875 232.671875 L 218.277344 232.519531 L 218.460938 232.4375 L 218.621094 232.367188 L 218.800781 232.28125 L 218.972656 232.199219 L 219.117188 232.132812 L 219.308594 232.039062 L 219.472656 231.957031 L 219.648438 231.867188 L 219.785156 231.796875 L 219.957031 231.710938 L 220.125 231.621094 L 220.28125 231.535156 L 220.46875 231.433594 L 220.625 231.347656 L 220.792969 231.253906 L 220.941406 231.167969 L 221.121094 231.0625 L 221.285156 230.964844 L 221.597656 230.777344 L 221.757812 230.679688 L 221.898438 230.589844 L 222.074219 230.476562 L 222.222656 230.382812 L 222.394531 230.269531 L 222.53125 230.175781 L 222.695312 230.066406 L 222.851562 229.960938 L 223 229.855469 L 223.164062 229.742188 L 223.292969 229.648438 L 223.472656 229.519531 L 223.625 229.40625 L 223.746094 229.3125 L 223.925781 229.179688 L 224.054688 229.082031 L 224.207031 228.960938 L 224.34375 228.855469 L 224.507812 228.722656 L 224.652344 228.605469 L 224.792969 228.488281 L 224.921875 228.382812 L 225.0625 228.261719 L 225.21875 228.132812 L 225.652344 227.746094 L 225.769531 227.640625 L 225.90625 227.519531 L 226.054688 227.378906 L 226.191406 227.25 L 226.339844 227.109375 L 226.453125 226.996094 L 226.601562 226.855469 L 226.71875 226.734375 L 226.859375 226.597656 L 226.984375 226.46875 L 227.117188 226.332031 L 227.242188 226.203125 L 227.378906 226.054688 L 227.519531 225.90625 L 227.632812 225.78125 L 227.769531 225.628906 L 227.878906 225.503906 L 227.996094 225.375 L 228.132812 225.214844 L 228.253906 225.074219 L 228.371094 224.933594 L 228.492188 224.792969 L 228.609375 224.648438 L 228.71875 224.511719 L 228.835938 224.367188 L 228.960938 224.210938 L 229.070312 224.066406 L 229.183594 223.921875 L 229.308594 223.753906 L 229.410156 223.621094 L 229.519531 223.472656 L 229.640625 223.304688 L 229.75 223.152344 L 229.84375 223.015625 L 229.96875 222.835938 L 230.058594 222.707031 L 230.179688 222.527344 L 230.28125 222.375 L 230.378906 222.222656 L 230.46875 222.085938 L 230.582031 221.910156 L 230.6875 221.738281 L 230.789062 221.578125 L 230.882812 221.421875 L 230.96875 221.277344 L 231.078125 221.097656 L 231.167969 220.9375 L 231.253906 220.789062 L 231.351562 220.613281 L 231.4375 220.464844 L 231.527344 220.300781 L 231.621094 220.121094 L 231.707031 219.957031 L 231.78125 219.816406 L 231.878906 219.628906 L 232.039062 219.308594 L 232.128906 219.121094 L 232.203125 218.964844 L 232.285156 218.792969 L 232.359375 218.628906 L 232.445312 218.441406 L 232.515625 218.289062 L 232.597656 218.097656 L 232.664062 217.941406 L 232.734375 217.78125 L 232.808594 217.59375 L 232.886719 217.402344 L 232.957031 217.234375 L 233.019531 217.066406 L 233.085938 216.894531 L 233.15625 216.710938 L 233.21875 216.542969 L 233.28125 216.371094 L 233.34375 216.183594 L 233.402344 216.019531 L 233.527344 215.644531 L 233.578125 215.484375 L 233.640625 215.285156 L 233.691406 215.125 L 233.75 214.925781 L 233.796875 214.765625 L 233.847656 214.585938 L 233.894531 214.417969 L 233.949219 214.214844 L 234 214.03125 L 234.042969 213.867188 L 234.089844 213.675781 L 234.136719 213.476562 L 234.171875 213.328125 L 234.214844 213.144531 L 234.257812 212.953125 L 234.300781 212.746094 L 234.335938 212.578125 L 234.375 212.390625 L 234.40625 212.21875 L 234.441406 212.03125 L 234.476562 211.847656 L 234.503906 211.671875 L 234.535156 211.484375 L 234.570312 211.277344 L 234.59375 211.121094 L 234.621094 210.933594 L 234.648438 210.738281 L 234.671875 210.546875 L 234.695312 210.371094 L 234.71875 210.179688 L 234.738281 210.003906 L 234.761719 209.789062 L 234.777344 209.605469 L 234.792969 209.433594 L 234.808594 209.257812 L 234.824219 209.078125 L 234.839844 208.859375 L 234.851562 208.675781 L 234.859375 208.503906 L 234.871094 208.296875 L 234.878906 208.117188 L 234.882812 207.945312 L 234.890625 207.742188 L 234.894531 207.578125 L 234.898438 207.378906 L 234.898438 207 L 235.980469 207 L 235.980469 207.191406 L 235.976562 207.394531 L 235.972656 207.601562 L 235.96875 207.769531 L 235.964844 207.980469 L 235.957031 208.160156 L 235.949219 208.347656 L 235.9375 208.5625 L 235.925781 208.742188 L 235.914062 208.929688 L 235.898438 209.15625 L 235.886719 209.347656 L 235.871094 209.527344 L 235.851562 209.707031 L 235.835938 209.894531 L 235.8125 210.121094 L 235.792969 210.304688 L 235.765625 210.503906 L 235.746094 210.683594 L 235.71875 210.882812 L 235.691406 211.085938 L 235.664062 211.277344 L 235.636719 211.445312 L 235.601562 211.660156 L 235.570312 211.855469 L 235.539062 212.035156 L 235.503906 212.226562 L 235.46875 212.421875 L 235.359375 212.96875 L 235.3125 213.183594 L 235.269531 213.382812 L 235.226562 213.574219 L 235.1875 213.726562 L 235.136719 213.933594 L 235.089844 214.132812 L 235.042969 214.304688 L 234.996094 214.492188 L 234.9375 214.703125 L 234.890625 214.878906 L 234.835938 215.066406 L 234.785156 215.234375 L 234.722656 215.4375 L 234.671875 215.605469 L 234.605469 215.8125 L 234.554688 215.980469 L 234.492188 216.164062 L 234.425781 216.367188 L 234.363281 216.539062 L 234.296875 216.734375 L 234.230469 216.910156 L 234.167969 217.085938 L 234.097656 217.277344 L 234.027344 217.453125 L 233.960938 217.628906 L 233.890625 217.804688 L 233.808594 218.003906 L 233.730469 218.195312 L 233.660156 218.363281 L 233.589844 218.527344 L 233.5 218.726562 L 233.429688 218.882812 L 233.34375 219.082031 L 233.265625 219.246094 L 233.179688 219.425781 L 233.101562 219.59375 L 233.007812 219.785156 L 232.921875 219.957031 L 232.839844 220.117188 L 232.742188 220.3125 L 232.664062 220.460938 L 232.574219 220.628906 L 232.476562 220.816406 L 232.382812 220.984375 L 232.296875 221.140625 L 232.195312 221.320312 L 232.105469 221.476562 L 232.007812 221.644531 L 231.898438 221.832031 L 231.808594 221.980469 L 231.707031 222.144531 L 231.605469 222.3125 L 231.496094 222.488281 L 231.378906 222.667969 L 231.285156 222.8125 L 231.183594 222.96875 L 231.078125 223.128906 L 230.949219 223.316406 L 230.859375 223.449219 L 230.726562 223.636719 L 230.628906 223.777344 L 230.515625 223.9375 L 230.390625 224.109375 L 230.277344 224.265625 L 230.171875 224.402344 L 229.925781 224.730469 L 229.808594 224.875 L 229.683594 225.039062 L 229.558594 225.191406 L 229.445312 225.328125 L 229.324219 225.480469 L 229.199219 225.628906 L 229.078125 225.773438 L 228.949219 225.921875 L 228.808594 226.085938 L 228.6875 226.222656 L 228.574219 226.347656 L 228.429688 226.507812 L 228.3125 226.636719 L 228.167969 226.792969 L 228.023438 226.945312 L 227.894531 227.078125 L 227.757812 227.222656 L 227.628906 227.355469 L 227.359375 227.625 L 227.207031 227.773438 L 227.085938 227.890625 L 226.9375 228.03125 L 226.792969 228.167969 L 226.636719 228.3125 L 226.496094 228.441406 L 226.375 228.550781 L 226.226562 228.683594 L 225.921875 228.949219 L 225.765625 229.085938 L 225.613281 229.210938 L 225.480469 229.320312 L 225.335938 229.441406 L 225.1875 229.5625 L 225.015625 229.699219 L 224.875 229.8125 L 224.714844 229.9375 L 224.578125 230.039062 L 224.394531 230.179688 L 224.269531 230.273438 L 224.109375 230.390625 L 223.925781 230.523438 L 223.789062 230.621094 L 223.621094 230.742188 L 223.464844 230.847656 L 223.304688 230.960938 L 223.132812 231.074219 L 222.988281 231.167969 L 222.8125 231.285156 L 222.660156 231.382812 L 222.476562 231.5 L 222.328125 231.59375 L 222.160156 231.699219 L 221.980469 231.808594 L 221.839844 231.894531 L 221.667969 231.992188 L 221.480469 232.101562 L 221.328125 232.191406 L 221.152344 232.289062 L 220.988281 232.378906 L 220.796875 232.484375 L 220.632812 232.570312 L 220.28125 232.757812 L 220.140625 232.832031 L 219.957031 232.921875 L 219.78125 233.007812 L 219.585938 233.105469 L 219.4375 233.175781 L 219.257812 233.261719 L 219.070312 233.347656 L 218.90625 233.421875 L 218.710938 233.507812 L 218.542969 233.582031 L 218.34375 233.667969 L 218.195312 233.730469 L 217.992188 233.8125 L 217.8125 233.886719 L 217.652344 233.949219 L 217.460938 234.027344 L 217.289062 234.09375 L 217.105469 234.160156 L 216.917969 234.230469 L 216.722656 234.300781 L 216.5625 234.355469 L 216.371094 234.421875 L 216.167969 234.492188 L 216.007812 234.542969 L 215.789062 234.613281 L 215.625 234.667969 L 215.441406 234.722656 L 215.265625 234.777344 L 215.078125 234.832031 L 214.875 234.890625 L 214.671875 234.945312 L 214.511719 234.988281 L 214.308594 235.042969 L 213.941406 235.136719 L 213.738281 235.1875 L 213.554688 235.230469 L 213.363281 235.273438 L 213.1875 235.3125 L 213.003906 235.351562 L 212.808594 235.390625 L 212.589844 235.433594 L 212.429688 235.46875 L 212.226562 235.503906 L 212.035156 235.539062 L 211.847656 235.570312 L 211.464844 235.632812 L 211.253906 235.667969 L 211.070312 235.691406 L 210.867188 235.722656 L 210.683594 235.746094 L 210.507812 235.765625 L 210.3125 235.789062 L 209.925781 235.832031 L 209.71875 235.851562 L 209.519531 235.871094 L 209.3125 235.886719 L 209.121094 235.902344 L 208.933594 235.914062 L 208.761719 235.925781 L 208.566406 235.9375 L 208.34375 235.949219 L 208.152344 235.957031 L 207.972656 235.964844 L 207.777344 235.96875 L 207.601562 235.972656 L 207.390625 235.976562 L 207.183594 235.980469 L 207 235.980469 Z M 232.019531 207 L 232.019531 117 L 233.101562 117 L 233.101562 207 Z M 234.898438 207 L 234.898438 117 L 235.980469 117 L 235.980469 207 Z M 232.019531 117 L 231.820312 116.828125 L 231.601562 116.636719 L 231.371094 116.441406 L 231.179688 116.273438 L 230.972656 116.09375 L 230.777344 115.925781 L 230.570312 115.746094 L 230.332031 115.539062 L 230.121094 115.355469 L 229.933594 115.195312 L 229.730469 115.019531 L 229.523438 114.839844 L 229.296875 114.644531 L 229.082031 114.460938 L 228.859375 114.265625 L 228.671875 114.101562 L 228.441406 113.902344 L 228.230469 113.722656 L 228.035156 113.554688 L 227.839844 113.382812 L 227.617188 113.191406 L 227.417969 113.019531 L 227.1875 112.820312 L 226.976562 112.636719 L 226.765625 112.457031 L 226.5625 112.28125 L 226.355469 112.097656 L 226.132812 111.90625 L 225.953125 111.75 L 225.714844 111.546875 L 225.496094 111.359375 L 225.296875 111.183594 L 225.101562 111.015625 L 224.890625 110.832031 L 224.6875 110.65625 L 224.460938 110.460938 L 224.054688 110.109375 L 223.828125 109.914062 L 223.648438 109.757812 L 223.421875 109.5625 L 223.191406 109.363281 L 222.984375 109.183594 L 222.785156 109.011719 L 222.578125 108.832031 L 222.390625 108.671875 L 222.140625 108.457031 L 221.964844 108.300781 L 221.734375 108.101562 L 221.511719 107.910156 L 221.328125 107.753906 L 221.105469 107.558594 L 220.890625 107.371094 L 220.679688 107.1875 L 220.480469 107.015625 L 220.257812 106.824219 L 220.074219 106.667969 L 219.863281 106.484375 L 219.628906 106.28125 L 219.449219 106.128906 L 219.21875 105.925781 L 219.019531 105.753906 L 218.789062 105.554688 L 218.597656 105.390625 L 218.375 105.195312 L 218.160156 105.007812 L 217.980469 104.855469 L 217.746094 104.652344 L 217.535156 104.46875 L 217.316406 104.28125 L 217.144531 104.132812 L 216.714844 103.757812 L 216.515625 103.585938 L 216.277344 103.382812 L 216.078125 103.210938 L 215.863281 103.023438 L 215.667969 102.855469 L 215.4375 102.652344 L 215.222656 102.46875 L 215.046875 102.316406 L 214.816406 102.117188 L 214.605469 101.9375 L 214.417969 101.773438 L 214.183594 101.570312 L 213.984375 101.398438 L 213.757812 101.199219 L 213.570312 101.039062 L 213.351562 100.847656 L 213.140625 100.667969 L 212.933594 100.492188 L 212.710938 100.296875 L 212.53125 100.140625 L 212.285156 99.929688 L 212.074219 99.746094 L 211.902344 99.597656 L 211.652344 99.382812 L 211.46875 99.222656 L 211.253906 99.035156 L 211.058594 98.867188 L 210.824219 98.664062 L 210.613281 98.480469 L 210.410156 98.308594 L 210.226562 98.144531 L 210.011719 97.964844 L 209.789062 97.769531 L 209.570312 97.582031 L 209.355469 97.394531 L 209.136719 97.203125 L 208.960938 97.054688 L 208.753906 96.875 L 208.527344 96.679688 L 208.316406 96.492188 L 208.089844 96.300781 L 207.910156 96.140625 L 207.679688 95.945312 L 207.492188 95.78125 L 207.269531 95.589844 L 207.070312 95.417969 L 206.855469 95.230469 L 206.65625 95.058594 L 206.429688 94.863281 L 206.199219 94.664062 L 206.011719 94.503906 L 205.78125 94.300781 L 205.59375 94.140625 L 205.402344 93.972656 L 205.167969 93.769531 L 204.953125 93.585938 L 204.753906 93.414062 L 204.542969 93.230469 L 204.335938 93.050781 L 204.140625 92.882812 L 203.929688 92.699219 L 203.707031 92.507812 L 203.507812 92.335938 L 203.296875 92.152344 L 203.0625 91.949219 L 202.878906 91.789062 L 202.671875 91.609375 L 202.441406 91.414062 L 202.230469 91.230469 L 202.042969 91.070312 L 201.796875 90.855469 L 201.625 90.707031 L 201.378906 90.496094 L 201.175781 90.316406 L 200.972656 90.140625 L 200.785156 89.980469 L 200.554688 89.78125 L 200.328125 89.585938 L 200.117188 89.402344 L 199.914062 89.226562 L 199.722656 89.0625 L 199.488281 88.859375 L 199.28125 88.679688 L 199.085938 88.511719 L 198.867188 88.320312 L 198.671875 88.152344 L 198.464844 87.972656 L 198.238281 87.777344 L 198.03125 87.597656 L 197.847656 87.441406 L 197.613281 87.238281 L 197.421875 87.070312 L 197.210938 86.890625 L 196.980469 86.691406 L 196.785156 86.519531 L 196.570312 86.335938 L 196.371094 86.164062 L 196.140625 85.960938 L 195.953125 85.800781 L 195.71875 85.597656 L 195.527344 85.433594 L 195.332031 85.261719 L 195.109375 85.070312 L 194.875 84.867188 L 194.265625 84.339844 L 194.046875 84.148438 L 193.84375 83.976562 L 193.640625 83.800781 L 193.417969 83.609375 L 193.222656 83.4375 L 192.988281 83.234375 L 192.78125 83.054688 L 192.59375 82.894531 L 192.359375 82.691406 L 192.171875 82.527344 L 191.9375 82.328125 L 191.753906 82.167969 L 191.539062 81.980469 L 191.34375 81.8125 L 191.109375 81.609375 L 190.898438 81.429688 L 190.707031 81.261719 L 190.488281 81.074219 L 190.257812 80.871094 L 190.085938 80.726562 L 189.875 80.542969 L 189.65625 80.355469 L 189.417969 80.148438 L 189.222656 79.980469 L 189.011719 79.796875 L 188.816406 79.628906 L 188.601562 79.441406 L 188.394531 79.261719 L 188.195312 79.089844 L 187.984375 78.90625 L 187.746094 78.703125 L 187.566406 78.546875 L 187.355469 78.363281 L 187.132812 78.171875 L 186.917969 77.984375 L 186.722656 77.816406 L 186.507812 77.628906 L 186.308594 77.457031 L 186.066406 77.246094 L 185.859375 77.070312 L 185.664062 76.898438 L 185.46875 76.730469 L 185.265625 76.554688 L 185.019531 76.34375 L 184.8125 76.164062 L 184.621094 76 L 184.386719 75.796875 L 184.1875 75.621094 L 183.996094 75.457031 L 183.765625 75.257812 L 183.582031 75.101562 L 183.144531 74.71875 L 182.933594 74.535156 L 182.734375 74.363281 L 182.53125 74.191406 L 182.285156 73.976562 L 182.082031 73.800781 L 181.871094 73.621094 L 181.675781 73.449219 L 181.476562 73.277344 L 181.242188 73.074219 L 181.054688 72.910156 L 180.828125 72.714844 L 180.640625 72.554688 L 180.417969 72.363281 L 180.21875 72.191406 L 180 72 L 207 72 L 207.109375 72.191406 L 207.210938 72.363281 L 207.320312 72.554688 L 207.414062 72.714844 L 207.527344 72.910156 L 207.625 73.074219 L 207.742188 73.277344 L 207.839844 73.449219 L 207.941406 73.621094 L 208.046875 73.800781 L 208.148438 73.976562 L 208.269531 74.191406 L 208.472656 74.535156 L 208.578125 74.71875 L 208.796875 75.101562 L 208.890625 75.257812 L 209.003906 75.457031 L 209.101562 75.621094 L 209.203125 75.796875 L 209.320312 76 L 209.414062 76.164062 L 209.519531 76.34375 L 209.640625 76.554688 L 209.746094 76.730469 L 209.84375 76.898438 L 209.941406 77.070312 L 210.042969 77.246094 L 210.164062 77.457031 L 210.265625 77.628906 L 210.371094 77.816406 L 210.472656 77.984375 L 210.578125 78.171875 L 210.691406 78.363281 L 210.796875 78.546875 L 210.886719 78.703125 L 211.003906 78.90625 L 211.113281 79.089844 L 211.210938 79.261719 L 211.316406 79.441406 L 211.425781 79.628906 L 211.523438 79.796875 L 211.628906 79.980469 L 211.726562 80.148438 L 211.84375 80.355469 L 211.953125 80.542969 L 212.058594 80.726562 L 212.144531 80.871094 L 212.261719 81.074219 L 212.371094 81.261719 L 212.46875 81.429688 L 212.574219 81.609375 L 212.691406 81.8125 L 212.789062 81.980469 L 212.894531 82.167969 L 212.988281 82.328125 L 213.105469 82.527344 L 213.199219 82.691406 L 213.320312 82.894531 L 213.414062 83.054688 L 213.515625 83.234375 L 213.632812 83.4375 L 213.734375 83.609375 L 213.84375 83.800781 L 213.945312 83.976562 L 214.046875 84.148438 L 214.15625 84.339844 L 214.257812 84.515625 L 214.363281 84.691406 L 214.464844 84.867188 L 214.582031 85.070312 L 214.691406 85.261719 L 214.792969 85.433594 L 214.886719 85.597656 L 215.003906 85.800781 L 215.097656 85.960938 L 215.214844 86.164062 L 215.3125 86.335938 L 215.421875 86.519531 L 215.519531 86.691406 L 215.636719 86.890625 L 215.738281 87.070312 L 215.835938 87.238281 L 215.957031 87.441406 L 216.046875 87.597656 L 216.148438 87.777344 L 216.265625 87.972656 L 216.367188 88.152344 L 216.464844 88.320312 L 216.578125 88.511719 L 216.675781 88.679688 L 216.777344 88.859375 L 216.894531 89.0625 L 216.992188 89.226562 L 217.09375 89.402344 L 217.199219 89.585938 L 217.3125 89.78125 L 217.429688 89.980469 L 217.523438 90.140625 L 217.625 90.316406 L 217.726562 90.496094 L 217.847656 90.707031 L 217.9375 90.855469 L 218.058594 91.070312 L 218.152344 91.230469 L 218.257812 91.414062 L 218.375 91.609375 L 218.476562 91.789062 L 218.570312 91.949219 L 218.6875 92.152344 L 218.792969 92.335938 L 218.894531 92.507812 L 219.007812 92.699219 L 219.113281 92.882812 L 219.210938 93.050781 L 219.316406 93.230469 L 219.417969 93.414062 L 219.519531 93.585938 L 219.628906 93.769531 L 219.746094 93.972656 L 219.84375 94.140625 L 219.933594 94.300781 L 220.050781 94.503906 L 220.144531 94.664062 L 220.257812 94.863281 L 220.375 95.058594 L 220.472656 95.230469 L 220.582031 95.417969 L 220.683594 95.589844 L 220.886719 95.945312 L 221.003906 96.140625 L 221.09375 96.300781 L 221.207031 96.492188 L 221.3125 96.679688 L 221.425781 96.875 L 221.53125 97.054688 L 221.617188 97.203125 L 221.726562 97.394531 L 221.945312 97.769531 L 222.058594 97.964844 L 222.164062 98.144531 L 222.257812 98.308594 L 222.359375 98.480469 L 222.464844 98.664062 L 222.582031 98.867188 L 222.679688 99.035156 L 222.789062 99.222656 L 222.882812 99.382812 L 223.003906 99.597656 L 223.09375 99.746094 L 223.199219 99.929688 L 223.324219 100.140625 L 223.410156 100.296875 L 223.523438 100.492188 L 223.625 100.667969 L 223.734375 100.847656 L 223.84375 101.039062 L 223.9375 101.199219 L 224.050781 101.398438 L 224.148438 101.570312 L 224.269531 101.773438 L 224.363281 101.9375 L 224.46875 102.117188 L 224.582031 102.316406 L 224.671875 102.46875 L 224.777344 102.652344 L 224.898438 102.855469 L 224.992188 103.023438 L 225.101562 103.210938 L 225.203125 103.382812 L 225.320312 103.585938 L 225.421875 103.757812 L 225.527344 103.945312 L 225.636719 104.132812 L 225.722656 104.28125 L 225.832031 104.46875 L 225.9375 104.652344 L 226.058594 104.855469 L 226.144531 105.007812 L 226.253906 105.195312 L 226.367188 105.390625 L 226.460938 105.554688 L 226.578125 105.753906 L 226.679688 105.925781 L 226.792969 106.128906 L 226.882812 106.28125 L 227 106.484375 L 227.105469 106.667969 L 227.199219 106.824219 L 227.308594 107.015625 L 227.410156 107.1875 L 227.515625 107.371094 L 227.625 107.558594 L 227.734375 107.753906 L 227.828125 107.910156 L 227.9375 108.101562 L 228.054688 108.300781 L 228.144531 108.457031 L 228.269531 108.671875 L 228.363281 108.832031 L 228.464844 109.011719 L 228.566406 109.183594 L 228.671875 109.363281 L 228.785156 109.5625 L 228.898438 109.757812 L 228.988281 109.914062 L 229.101562 110.109375 L 229.207031 110.285156 L 229.308594 110.460938 L 229.421875 110.65625 L 229.523438 110.832031 L 229.628906 111.015625 L 229.726562 111.183594 L 229.828125 111.359375 L 229.9375 111.546875 L 230.054688 111.75 L 230.144531 111.90625 L 230.257812 112.097656 L 230.363281 112.28125 L 230.464844 112.457031 L 230.570312 112.636719 L 230.675781 112.820312 L 230.789062 113.019531 L 230.890625 113.191406 L 231 113.382812 L 231.101562 113.554688 L 231.199219 113.722656 L 231.304688 113.902344 L 231.417969 114.101562 L 231.515625 114.265625 L 231.625 114.460938 L 231.734375 114.644531 L 231.847656 114.839844 L 231.949219 115.019531 L 232.054688 115.195312 L 232.144531 115.355469 L 232.253906 115.539062 L 232.375 115.746094 L 232.476562 115.925781 L 232.574219 116.09375 L 232.679688 116.273438 L 232.773438 116.441406 L 232.890625 116.636719 L 233 116.828125 L 233.101562 117 Z M 234.898438 117 L 235 116.828125 L 235.109375 116.636719 L 235.226562 116.441406 L 235.320312 116.273438 L 235.425781 116.09375 L 235.523438 115.925781 L 235.625 115.746094 L 235.746094 115.539062 L 235.855469 115.355469 L 235.945312 115.195312 L 236.050781 115.019531 L 236.152344 114.839844 L 236.265625 114.644531 L 236.375 114.460938 L 236.484375 114.265625 L 236.582031 114.101562 L 236.695312 113.902344 L 236.800781 113.722656 L 236.898438 113.554688 L 237 113.382812 L 237.109375 113.191406 L 237.210938 113.019531 L 237.324219 112.820312 L 237.429688 112.636719 L 237.535156 112.457031 L 237.636719 112.28125 L 237.742188 112.097656 L 237.855469 111.90625 L 237.945312 111.75 L 238.0625 111.546875 L 238.171875 111.359375 L 238.273438 111.183594 L 238.371094 111.015625 L 238.476562 110.832031 L 238.578125 110.65625 L 238.691406 110.460938 L 238.792969 110.285156 L 238.898438 110.109375 L 239.011719 109.914062 L 239.101562 109.757812 L 239.214844 109.5625 L 239.328125 109.363281 L 239.433594 109.183594 L 239.535156 109.011719 L 239.636719 108.832031 L 239.730469 108.671875 L 239.855469 108.457031 L 239.945312 108.300781 L 240.0625 108.101562 L 240.171875 107.910156 L 240.265625 107.753906 L 240.375 107.558594 L 240.484375 107.371094 L 240.589844 107.1875 L 240.691406 107.015625 L 240.800781 106.824219 L 240.894531 106.667969 L 241 106.484375 L 241.117188 106.28125 L 241.207031 106.128906 L 241.320312 105.925781 L 241.421875 105.753906 L 241.539062 105.554688 L 241.632812 105.390625 L 241.746094 105.195312 L 241.855469 105.007812 L 241.941406 104.855469 L 242.0625 104.652344 L 242.167969 104.46875 L 242.277344 104.28125 L 242.363281 104.132812 L 242.472656 103.945312 L 242.578125 103.757812 L 242.679688 103.585938 L 242.796875 103.382812 L 242.898438 103.210938 L 243.007812 103.023438 L 243.101562 102.855469 L 243.222656 102.652344 L 243.328125 102.46875 L 243.417969 102.316406 L 243.53125 102.117188 L 243.636719 101.9375 L 243.730469 101.773438 L 243.851562 101.570312 L 243.949219 101.398438 L 244.0625 101.199219 L 244.15625 101.039062 L 244.265625 100.847656 L 244.375 100.667969 L 244.476562 100.492188 L 244.589844 100.296875 L 244.675781 100.140625 L 244.800781 99.929688 L 244.90625 99.746094 L 244.996094 99.597656 L 245.117188 99.382812 L 245.210938 99.222656 L 245.320312 99.035156 L 245.417969 98.867188 L 245.535156 98.664062 L 245.640625 98.480469 L 245.742188 98.308594 L 245.835938 98.144531 L 245.941406 97.964844 L 246.054688 97.769531 L 246.273438 97.394531 L 246.382812 97.203125 L 246.46875 97.054688 L 246.574219 96.875 L 246.6875 96.679688 L 246.792969 96.492188 L 246.90625 96.300781 L 246.996094 96.140625 L 247.113281 95.945312 L 247.316406 95.589844 L 247.417969 95.417969 L 247.527344 95.230469 L 247.625 95.058594 L 247.742188 94.863281 L 247.855469 94.664062 L 247.949219 94.503906 L 248.066406 94.300781 L 248.15625 94.140625 L 248.253906 93.972656 L 248.371094 93.769531 L 248.480469 93.585938 L 248.582031 93.414062 L 248.683594 93.230469 L 248.789062 93.050781 L 248.886719 92.882812 L 248.992188 92.699219 L 249.105469 92.507812 L 249.207031 92.335938 L 249.3125 92.152344 L 249.429688 91.949219 L 249.523438 91.789062 L 249.625 91.609375 L 249.742188 91.414062 L 249.847656 91.230469 L 249.941406 91.070312 L 250.0625 90.855469 L 250.152344 90.707031 L 250.273438 90.496094 L 250.375 90.316406 L 250.476562 90.140625 L 250.570312 89.980469 L 250.6875 89.78125 L 250.800781 89.585938 L 250.90625 89.402344 L 251.007812 89.226562 L 251.105469 89.0625 L 251.222656 88.859375 L 251.324219 88.679688 L 251.421875 88.511719 L 251.535156 88.320312 L 251.632812 88.152344 L 251.734375 87.972656 L 251.851562 87.777344 L 251.953125 87.597656 L 252.042969 87.441406 L 252.164062 87.238281 L 252.261719 87.070312 L 252.363281 86.890625 L 252.480469 86.691406 L 252.578125 86.519531 L 252.6875 86.335938 L 252.785156 86.164062 L 252.902344 85.960938 L 252.996094 85.800781 L 253.113281 85.597656 L 253.207031 85.433594 L 253.308594 85.261719 L 253.417969 85.070312 L 253.535156 84.867188 L 253.636719 84.691406 L 253.742188 84.515625 L 253.84375 84.339844 L 253.953125 84.148438 L 254.054688 83.976562 L 254.15625 83.800781 L 254.265625 83.609375 L 254.367188 83.4375 L 254.484375 83.234375 L 254.585938 83.054688 L 254.679688 82.894531 L 254.800781 82.691406 L 254.894531 82.527344 L 255.011719 82.328125 L 255.105469 82.167969 L 255.210938 81.980469 L 255.308594 81.8125 L 255.425781 81.609375 L 255.53125 81.429688 L 255.628906 81.261719 L 255.738281 81.074219 L 255.855469 80.871094 L 255.941406 80.726562 L 256.046875 80.542969 L 256.15625 80.355469 L 256.273438 80.148438 L 256.371094 79.980469 L 256.476562 79.796875 L 256.574219 79.628906 L 256.683594 79.441406 L 256.789062 79.261719 L 256.886719 79.089844 L 256.996094 78.90625 L 257.113281 78.703125 L 257.203125 78.546875 L 257.308594 78.363281 L 257.421875 78.171875 L 257.527344 77.984375 L 257.628906 77.816406 L 257.734375 77.628906 L 257.835938 77.457031 L 257.957031 77.246094 L 258.058594 77.070312 L 258.15625 76.898438 L 258.253906 76.730469 L 258.359375 76.554688 L 258.480469 76.34375 L 258.585938 76.164062 L 258.679688 76 L 258.796875 75.796875 L 258.898438 75.621094 L 258.996094 75.457031 L 259.109375 75.257812 L 259.203125 75.101562 L 259.421875 74.71875 L 259.527344 74.535156 L 259.730469 74.191406 L 259.851562 73.976562 L 259.953125 73.800781 L 260.058594 73.621094 L 260.160156 73.449219 L 260.257812 73.277344 L 260.375 73.074219 L 260.472656 72.910156 L 260.585938 72.714844 L 260.679688 72.554688 L 260.789062 72.363281 L 260.890625 72.191406 L 261 72 L 288 72 L 287.78125 72.191406 L 287.582031 72.363281 L 287.359375 72.554688 L 287.171875 72.714844 L 286.945312 72.910156 L 286.757812 73.074219 L 286.523438 73.277344 L 286.324219 73.449219 L 286.128906 73.621094 L 285.917969 73.800781 L 285.714844 73.976562 L 285.46875 74.191406 L 285.265625 74.363281 L 285.066406 74.535156 L 284.855469 74.71875 L 284.417969 75.101562 L 284.234375 75.257812 L 284.003906 75.457031 L 283.8125 75.621094 L 283.613281 75.796875 L 283.378906 76 L 283.1875 76.164062 L 282.980469 76.34375 L 282.734375 76.554688 L 282.53125 76.730469 L 282.335938 76.898438 L 282.140625 77.070312 L 281.933594 77.246094 L 281.691406 77.457031 L 281.492188 77.628906 L 281.277344 77.816406 L 281.082031 77.984375 L 280.867188 78.171875 L 280.644531 78.363281 L 280.433594 78.546875 L 280.253906 78.703125 L 280.015625 78.90625 L 279.804688 79.089844 L 279.605469 79.261719 L 279.398438 79.441406 L 279.183594 79.628906 L 278.988281 79.796875 L 278.777344 79.980469 L 278.582031 80.148438 L 278.34375 80.355469 L 278.125 80.542969 L 277.914062 80.726562 L 277.742188 80.871094 L 277.511719 81.074219 L 277.292969 81.261719 L 277.101562 81.429688 L 276.890625 81.609375 L 276.65625 81.8125 L 276.460938 81.980469 L 276.246094 82.167969 L 276.0625 82.328125 L 275.828125 82.527344 L 275.640625 82.691406 L 275.40625 82.894531 L 275.21875 83.054688 L 275.011719 83.234375 L 274.777344 83.4375 L 274.582031 83.609375 L 274.359375 83.800781 L 274.15625 83.976562 L 273.953125 84.148438 L 273.734375 84.339844 L 273.125 84.867188 L 272.890625 85.070312 L 272.667969 85.261719 L 272.472656 85.433594 L 272.28125 85.597656 L 272.046875 85.800781 L 271.859375 85.960938 L 271.628906 86.164062 L 271.429688 86.335938 L 271.214844 86.519531 L 271.019531 86.691406 L 270.789062 86.890625 L 270.578125 87.070312 L 270.386719 87.238281 L 270.152344 87.441406 L 269.96875 87.597656 L 269.761719 87.777344 L 269.535156 87.972656 L 269.328125 88.152344 L 269.132812 88.320312 L 268.914062 88.511719 L 268.71875 88.679688 L 268.511719 88.859375 L 268.277344 89.0625 L 268.085938 89.226562 L 267.882812 89.402344 L 267.671875 89.585938 L 267.445312 89.78125 L 267.214844 89.980469 L 267.027344 90.140625 L 266.824219 90.316406 L 266.621094 90.496094 L 266.375 90.707031 L 266.203125 90.855469 L 265.957031 91.070312 L 265.769531 91.230469 L 265.558594 91.414062 L 265.328125 91.609375 L 265.121094 91.789062 L 264.9375 91.949219 L 264.703125 92.152344 L 264.492188 92.335938 L 264.292969 92.507812 L 264.070312 92.699219 L 263.859375 92.882812 L 263.664062 93.050781 L 263.457031 93.230469 L 263.246094 93.414062 L 263.046875 93.585938 L 262.832031 93.769531 L 262.597656 93.972656 L 262.40625 94.140625 L 262.21875 94.300781 L 261.988281 94.503906 L 261.800781 94.664062 L 261.570312 94.863281 L 261.34375 95.058594 L 261.144531 95.230469 L 260.929688 95.417969 L 260.730469 95.589844 L 260.507812 95.78125 L 260.320312 95.945312 L 260.089844 96.140625 L 259.910156 96.300781 L 259.683594 96.492188 L 259.472656 96.679688 L 259.246094 96.875 L 259.039062 97.054688 L 258.863281 97.203125 L 258.644531 97.394531 L 258.429688 97.582031 L 258.210938 97.769531 L 257.988281 97.964844 L 257.773438 98.144531 L 257.589844 98.308594 L 257.386719 98.480469 L 257.175781 98.664062 L 256.941406 98.867188 L 256.746094 99.035156 L 256.53125 99.222656 L 256.347656 99.382812 L 256.097656 99.597656 L 255.925781 99.746094 L 255.714844 99.929688 L 255.46875 100.140625 L 255.289062 100.296875 L 255.066406 100.492188 L 254.859375 100.667969 L 254.648438 100.847656 L 254.429688 101.039062 L 254.242188 101.199219 L 254.015625 101.398438 L 253.816406 101.570312 L 253.582031 101.773438 L 253.394531 101.9375 L 253.183594 102.117188 L 252.953125 102.316406 L 252.777344 102.46875 L 252.5625 102.652344 L 252.332031 102.855469 L 252.136719 103.023438 L 251.921875 103.210938 L 251.722656 103.382812 L 251.484375 103.585938 L 251.285156 103.757812 L 250.855469 104.132812 L 250.683594 104.28125 L 250.464844 104.46875 L 250.253906 104.652344 L 250.019531 104.855469 L 249.839844 105.007812 L 249.625 105.195312 L 249.402344 105.390625 L 249.210938 105.554688 L 248.980469 105.753906 L 248.78125 105.925781 L 248.550781 106.128906 L 248.371094 106.28125 L 248.136719 106.484375 L 247.925781 106.667969 L 247.742188 106.824219 L 247.519531 107.015625 L 247.320312 107.1875 L 247.109375 107.371094 L 246.894531 107.558594 L 246.671875 107.753906 L 246.488281 107.910156 L 246.265625 108.101562 L 246.035156 108.300781 L 245.859375 108.457031 L 245.609375 108.671875 L 245.421875 108.832031 L 245.214844 109.011719 L 245.015625 109.183594 L 244.808594 109.363281 L 244.578125 109.5625 L 244.351562 109.757812 L 244.171875 109.914062 L 243.945312 110.109375 L 243.539062 110.460938 L 243.3125 110.65625 L 243.109375 110.832031 L 242.898438 111.015625 L 242.703125 111.183594 L 242.503906 111.359375 L 242.285156 111.546875 L 242.046875 111.75 L 241.867188 111.90625 L 241.644531 112.097656 L 241.4375 112.28125 L 241.234375 112.457031 L 241.023438 112.636719 L 240.8125 112.820312 L 240.582031 113.019531 L 240.382812 113.191406 L 240.160156 113.382812 L 239.964844 113.554688 L 239.769531 113.722656 L 239.558594 113.902344 L 239.328125 114.101562 L 239.140625 114.265625 L 238.917969 114.460938 L 238.703125 114.644531 L 238.476562 114.839844 L 238.269531 115.019531 L 238.066406 115.195312 L 237.878906 115.355469 L 237.667969 115.539062 L 237.429688 115.746094 L 237.222656 115.925781 L 237.027344 116.09375 L 236.820312 116.273438 L 236.628906 116.441406 L 236.398438 116.636719 L 236.179688 116.828125 L 235.980469 117 Z M 180 72 L 180 27 L 207 27 L 207 72 Z M 261 72 L 261 27 L 288 27 L 288 72 Z M 180 27 L 180 0.898438 L 288 0.898438 L 288 27 Z M 180 0.898438 L 180 0.847656 L 180.007812 0.792969 L 180.015625 0.742188 L 180.027344 0.6875 L 180.042969 0.628906 L 180.0625 0.570312 L 180.089844 0.507812 L 180.121094 0.449219 L 180.160156 0.390625 L 180.230469 0.296875 L 180.292969 0.234375 L 180.328125 0.207031 L 180.359375 0.179688 L 180.394531 0.152344 L 180.4375 0.128906 L 180.480469 0.101562 L 180.535156 0.078125 L 180.601562 0.0507812 L 180.640625 0.0390625 L 180.75 0.0117188 L 180.898438 0 L 287.101562 0 L 287.25 0.0117188 L 287.359375 0.0390625 L 287.398438 0.0507812 L 287.464844 0.078125 L 287.519531 0.101562 L 287.5625 0.128906 L 287.605469 0.152344 L 287.640625 0.179688 L 287.671875 0.207031 L 287.707031 0.234375 L 287.769531 0.296875 L 287.839844 0.390625 L 287.878906 0.449219 L 287.910156 0.507812 L 287.9375 0.570312 L 287.957031 0.628906 L 287.972656 0.6875 L 287.984375 0.742188 L 287.992188 0.792969 L 288 0.847656 L 288 0.898438 Z M 180 0.898438 "/>
</g>
</svg>
