<?xml version="1.0" encoding="UTF-8"?>
<svg xmlns="http://www.w3.org/2000/svg" xmlns:xlink="http://www.w3.org/1999/xlink" width="288pt" height="288pt" viewBox="0 0 288 288" version="1.1">
<g id="surface21">
<path style=" stroke:none;fill-rule:nonzero;fill:rgb(0%,0%,0%);fill-opacity:1;" d="M 0 180.898438 L 0.0117188 180.746094 L 0.0390625 180.636719 L 0.0546875 180.59375 L 0.078125 180.53125 L 0.105469 180.476562 L 0.132812 180.429688 L 0.160156 180.386719 L 0.1875 180.351562 L 0.210938 180.320312 L 0.242188 180.285156 L 0.300781 180.226562 L 0.332031 180.203125 L 0.390625 180.15625 L 0.449219 180.121094 L 0.511719 180.089844 L 0.574219 180.0625 L 0.632812 180.039062 L 0.695312 180.023438 L 0.746094 180.011719 L 0.796875 180.007812 L 0.847656 180 L 0.898438 180 L 0.898438 288 L 0.847656 288 L 0.796875 287.992188 L 0.746094 287.988281 L 0.695312 287.976562 L 0.632812 287.960938 L 0.574219 287.9375 L 0.511719 287.910156 L 0.449219 287.878906 L 0.390625 287.84375 L 0.332031 287.796875 L 0.300781 287.773438 L 0.242188 287.714844 L 0.210938 287.679688 L 0.1875 287.648438 L 0.160156 287.613281 L 0.132812 287.570312 L 0.105469 287.523438 L 0.078125 287.46875 L 0.0546875 287.40625 L 0.0390625 287.363281 L 0.0117188 287.253906 L 0 287.101562 Z M 0.898438 180 L 27 180 L 27 288 L 0.898438 288 Z M 27 180 L 72 180 L 72 207 L 27 207 Z M 27 261 L 72 261 L 72 288 L 27 288 Z M 72 180 L 117 232.019531 L 117 233.101562 L 72 207 Z M 72 261 L 117 234.898438 L 117 235.980469 L 72 288 Z M 117 232.019531 L 207 232.019531 L 207 233.101562 L 117 233.101562 Z M 117 234.898438 L 207 234.898438 L 207 235.980469 L 117 235.980469 Z M 207 232.019531 L 207.335938 232.019531 L 207.519531 232.015625 L 207.671875 232.011719 L 207.839844 232.007812 L 207.992188 232 L 208.160156 231.992188 L 208.351562 231.984375 L 208.519531 231.972656 L 208.671875 231.964844 L 208.832031 231.953125 L 208.996094 231.941406 L 209.175781 231.925781 L 209.347656 231.910156 L 209.527344 231.890625 L 209.675781 231.875 L 209.859375 231.855469 L 210.027344 231.835938 L 210.339844 231.796875 L 210.511719 231.773438 L 210.671875 231.75 L 210.855469 231.722656 L 211.023438 231.695312 L 211.1875 231.667969 L 211.347656 231.640625 L 211.511719 231.609375 L 211.6875 231.578125 L 211.828125 231.550781 L 212.015625 231.511719 L 212.183594 231.476562 L 212.34375 231.441406 L 212.492188 231.410156 L 212.660156 231.371094 L 212.816406 231.335938 L 212.996094 231.292969 L 213.152344 231.25 L 213.308594 231.210938 L 213.484375 231.164062 L 213.621094 231.128906 L 213.800781 231.078125 L 213.972656 231.027344 L 214.132812 230.980469 L 214.445312 230.886719 L 214.589844 230.839844 L 214.777344 230.78125 L 214.914062 230.734375 L 215.089844 230.675781 L 215.253906 230.617188 L 215.394531 230.570312 L 215.5625 230.507812 L 215.726562 230.449219 L 215.882812 230.390625 L 216.03125 230.332031 L 216.199219 230.269531 L 216.332031 230.214844 L 216.492188 230.148438 L 216.664062 230.078125 L 216.796875 230.023438 L 216.964844 229.949219 L 217.113281 229.886719 L 217.28125 229.8125 L 217.421875 229.746094 L 217.582031 229.671875 L 217.738281 229.597656 L 217.867188 229.539062 L 218.035156 229.453125 L 218.1875 229.378906 L 218.34375 229.300781 L 218.464844 229.238281 L 218.621094 229.160156 L 218.773438 229.078125 L 218.910156 229.003906 L 219.078125 228.910156 L 219.21875 228.832031 L 219.367188 228.75 L 219.503906 228.671875 L 219.664062 228.578125 L 219.8125 228.492188 L 219.933594 228.417969 L 220.089844 228.324219 L 220.234375 228.234375 L 220.363281 228.152344 L 220.519531 228.050781 L 220.652344 227.96875 L 220.804688 227.867188 L 220.929688 227.785156 L 221.074219 227.683594 L 221.214844 227.589844 L 221.347656 227.496094 L 221.496094 227.394531 L 221.613281 227.308594 L 221.773438 227.195312 L 221.90625 227.09375 L 222.019531 227.011719 L 222.175781 226.890625 L 222.292969 226.800781 L 222.429688 226.695312 L 222.554688 226.597656 L 222.699219 226.480469 L 222.832031 226.375 L 222.957031 226.273438 L 223.070312 226.175781 L 223.199219 226.066406 L 223.335938 225.949219 L 223.46875 225.835938 L 223.597656 225.722656 L 223.730469 225.605469 L 223.832031 225.511719 L 223.953125 225.398438 L 224.085938 225.277344 L 224.210938 225.160156 L 224.34375 225.035156 L 224.445312 224.933594 L 224.578125 224.804688 L 224.921875 224.460938 L 225.039062 224.335938 L 225.152344 224.21875 L 225.402344 223.953125 L 225.5 223.84375 L 225.625 223.703125 L 225.726562 223.59375 L 225.828125 223.476562 L 225.949219 223.335938 L 226.0625 223.207031 L 226.164062 223.082031 L 226.273438 222.957031 L 226.378906 222.824219 L 226.476562 222.703125 L 226.582031 222.574219 L 226.691406 222.433594 L 226.894531 222.175781 L 227.007812 222.023438 L 227.097656 221.90625 L 227.195312 221.769531 L 227.300781 221.625 L 227.402344 221.484375 L 227.484375 221.363281 L 227.597656 221.203125 L 227.675781 221.085938 L 227.785156 220.925781 L 227.878906 220.789062 L 227.96875 220.652344 L 228.046875 220.527344 L 228.148438 220.371094 L 228.242188 220.21875 L 228.332031 220.074219 L 228.417969 219.933594 L 228.496094 219.804688 L 228.589844 219.640625 L 228.675781 219.5 L 228.75 219.363281 L 228.839844 219.210938 L 228.914062 219.074219 L 228.992188 218.929688 L 229.082031 218.765625 L 229.15625 218.621094 L 229.222656 218.492188 L 229.308594 218.324219 L 229.378906 218.1875 L 229.453125 218.035156 L 229.535156 217.871094 L 229.601562 217.730469 L 229.675781 217.574219 L 229.742188 217.429688 L 229.820312 217.257812 L 229.878906 217.125 L 229.957031 216.953125 L 230.015625 216.8125 L 230.078125 216.667969 L 230.144531 216.5 L 230.214844 216.328125 L 230.277344 216.175781 L 230.335938 216.027344 L 230.394531 215.871094 L 230.457031 215.710938 L 230.511719 215.558594 L 230.566406 215.402344 L 230.625 215.238281 L 230.675781 215.085938 L 230.738281 214.910156 L 230.789062 214.753906 L 230.835938 214.609375 L 230.890625 214.429688 L 230.9375 214.285156 L 230.988281 214.109375 L 231.03125 213.964844 L 231.078125 213.800781 L 231.121094 213.652344 L 231.167969 213.46875 L 231.210938 213.308594 L 231.25 213.15625 L 231.292969 212.988281 L 231.335938 212.808594 L 231.367188 212.675781 L 231.445312 212.339844 L 231.484375 212.152344 L 231.515625 212 L 231.546875 211.832031 L 231.578125 211.683594 L 231.609375 211.511719 L 231.640625 211.347656 L 231.667969 211.191406 L 231.695312 211.023438 L 231.722656 210.835938 L 231.746094 210.695312 L 231.769531 210.527344 L 231.792969 210.351562 L 231.816406 210.179688 L 231.835938 210.023438 L 231.855469 209.851562 L 231.875 209.695312 L 231.894531 209.5 L 231.910156 209.335938 L 231.925781 209.179688 L 231.9375 209.027344 L 231.949219 208.863281 L 231.964844 208.667969 L 231.976562 208.503906 L 231.984375 208.347656 L 231.992188 208.160156 L 232 208 L 232.003906 207.847656 L 232.011719 207.664062 L 232.015625 207.519531 L 232.019531 207.339844 L 232.019531 207 L 233.101562 207 L 233.097656 207.175781 L 233.097656 207.355469 L 233.09375 207.539062 L 233.089844 207.691406 L 233.085938 207.882812 L 233.070312 208.210938 L 233.0625 208.40625 L 233.054688 208.566406 L 233.042969 208.738281 L 233.027344 208.941406 L 233.015625 209.113281 L 233 209.273438 L 232.984375 209.4375 L 232.96875 209.609375 L 232.949219 209.8125 L 232.929688 209.976562 L 232.910156 210.15625 L 232.886719 210.316406 L 232.863281 210.496094 L 232.839844 210.679688 L 232.8125 210.855469 L 232.792969 211.003906 L 232.761719 211.195312 L 232.730469 211.371094 L 232.703125 211.535156 L 232.671875 211.707031 L 232.640625 211.882812 L 232.609375 212.042969 L 232.574219 212.214844 L 232.539062 212.375 L 232.5 212.570312 L 232.460938 212.746094 L 232.417969 212.917969 L 232.386719 213.058594 L 232.339844 213.246094 L 232.296875 213.425781 L 232.257812 213.578125 L 232.210938 213.75 L 232.160156 213.9375 L 232.117188 214.09375 L 232.066406 214.265625 L 232.023438 214.414062 L 231.96875 214.601562 L 231.921875 214.75 L 231.863281 214.9375 L 231.816406 215.085938 L 231.761719 215.253906 L 231.699219 215.4375 L 231.644531 215.59375 L 231.582031 215.765625 L 231.527344 215.925781 L 231.46875 216.085938 L 231.402344 216.253906 L 231.34375 216.414062 L 231.28125 216.574219 L 231.21875 216.730469 L 231.144531 216.910156 L 231.074219 217.085938 L 231.007812 217.234375 L 230.945312 217.382812 L 230.867188 217.5625 L 230.804688 217.703125 L 230.722656 217.878906 L 230.65625 218.03125 L 230.578125 218.191406 L 230.507812 218.339844 L 230.421875 218.511719 L 230.347656 218.667969 L 230.273438 218.8125 L 230.183594 218.988281 L 230.113281 219.121094 L 230.03125 219.273438 L 229.941406 219.441406 L 229.859375 219.597656 L 229.78125 219.734375 L 229.691406 219.898438 L 229.609375 220.039062 L 229.523438 220.1875 L 229.421875 220.355469 L 229.339844 220.492188 L 229.253906 220.636719 L 229.160156 220.789062 L 229.0625 220.949219 L 228.957031 221.113281 L 228.871094 221.242188 L 228.78125 221.382812 L 228.683594 221.527344 L 228.570312 221.695312 L 228.488281 221.816406 L 228.371094 221.984375 L 228.28125 222.109375 L 228.179688 222.253906 L 228.066406 222.410156 L 227.964844 222.546875 L 227.753906 222.828125 L 227.644531 222.96875 L 227.542969 223.101562 L 227.425781 223.246094 L 227.316406 223.382812 L 227.214844 223.507812 L 227.105469 223.644531 L 226.992188 223.777344 L 226.882812 223.90625 L 226.769531 224.042969 L 226.640625 224.1875 L 226.535156 224.3125 L 226.429688 224.425781 L 226.300781 224.570312 L 226.195312 224.683594 L 226.066406 224.824219 L 225.933594 224.964844 L 225.820312 225.085938 L 225.695312 225.210938 L 225.578125 225.332031 L 225.335938 225.574219 L 225.199219 225.707031 L 225.089844 225.8125 L 224.953125 225.941406 L 224.824219 226.066406 L 224.6875 226.195312 L 224.558594 226.308594 L 224.449219 226.410156 L 224.316406 226.53125 L 224.179688 226.648438 L 224.042969 226.769531 L 223.898438 226.890625 L 223.765625 227.003906 L 223.644531 227.105469 L 223.515625 227.210938 L 223.378906 227.320312 L 223.226562 227.445312 L 223.097656 227.542969 L 222.953125 227.65625 L 222.832031 227.75 L 222.667969 227.875 L 222.550781 227.960938 L 222.410156 228.066406 L 222.242188 228.1875 L 222.121094 228.273438 L 221.96875 228.382812 L 221.828125 228.480469 L 221.683594 228.578125 L 221.402344 228.765625 L 221.242188 228.871094 L 221.101562 228.960938 L 220.9375 229.066406 L 220.804688 229.152344 L 220.65625 229.242188 L 220.492188 229.34375 L 220.363281 229.417969 L 220.210938 229.507812 L 220.042969 229.609375 L 219.902344 229.6875 L 219.746094 229.777344 L 219.597656 229.859375 L 219.425781 229.953125 L 219.28125 230.03125 L 219.121094 230.113281 L 218.960938 230.199219 L 218.832031 230.261719 L 218.667969 230.347656 L 218.511719 230.421875 L 218.335938 230.511719 L 218.203125 230.574219 L 218.039062 230.652344 L 217.871094 230.730469 L 217.722656 230.796875 L 217.546875 230.875 L 217.394531 230.941406 L 217.21875 231.015625 L 217.082031 231.074219 L 216.898438 231.148438 L 216.738281 231.214844 L 216.59375 231.273438 L 216.421875 231.339844 L 216.265625 231.398438 L 216.101562 231.460938 L 215.757812 231.585938 L 215.613281 231.636719 L 215.4375 231.699219 L 215.253906 231.761719 L 215.113281 231.808594 L 214.917969 231.871094 L 214.765625 231.917969 L 214.601562 231.96875 L 214.441406 232.015625 L 214.273438 232.066406 L 214.09375 232.117188 L 213.910156 232.167969 L 213.765625 232.207031 L 213.582031 232.257812 L 213.417969 232.296875 L 213.253906 232.339844 L 213.070312 232.382812 L 212.90625 232.421875 L 212.730469 232.464844 L 212.574219 232.496094 L 212.410156 232.535156 L 212.230469 232.570312 L 212.035156 232.609375 L 211.890625 232.636719 L 211.707031 232.671875 L 211.535156 232.703125 L 211.367188 232.730469 L 211.195312 232.761719 L 211.019531 232.789062 L 210.832031 232.816406 L 210.664062 232.839844 L 210.480469 232.867188 L 210.320312 232.886719 L 210.15625 232.910156 L 209.984375 232.929688 L 209.792969 232.949219 L 209.636719 232.964844 L 209.449219 232.984375 L 209.269531 233 L 209.082031 233.015625 L 208.910156 233.03125 L 208.742188 233.042969 L 208.585938 233.050781 L 208.410156 233.0625 L 208.210938 233.070312 L 208.035156 233.078125 L 207.875 233.085938 L 207.703125 233.089844 L 207.539062 233.09375 L 207.351562 233.097656 L 207.164062 233.097656 L 207 233.101562 Z M 207 234.898438 L 207.375 234.898438 L 207.578125 234.894531 L 207.75 234.890625 L 207.9375 234.882812 L 208.109375 234.878906 L 208.292969 234.871094 L 208.507812 234.859375 L 208.695312 234.847656 L 208.863281 234.835938 L 209.042969 234.824219 L 209.226562 234.8125 L 209.425781 234.792969 L 209.617188 234.777344 L 209.816406 234.757812 L 209.984375 234.738281 L 210.1875 234.71875 L 210.375 234.695312 L 210.546875 234.671875 L 210.722656 234.652344 L 210.917969 234.625 L 211.09375 234.597656 L 211.296875 234.566406 L 211.484375 234.539062 L 211.667969 234.507812 L 211.847656 234.476562 L 212.03125 234.441406 L 212.226562 234.40625 L 212.382812 234.375 L 212.59375 234.332031 L 212.78125 234.292969 L 212.957031 234.257812 L 213.125 234.21875 L 213.3125 234.175781 L 213.488281 234.136719 L 213.683594 234.085938 L 214.035156 234 L 214.230469 233.945312 L 214.386719 233.90625 L 214.582031 233.851562 L 214.777344 233.792969 L 214.957031 233.742188 L 215.125 233.691406 L 215.300781 233.636719 L 215.460938 233.585938 L 215.671875 233.519531 L 215.824219 233.46875 L 216.019531 233.402344 L 216.207031 233.335938 L 216.359375 233.28125 L 216.546875 233.214844 L 216.730469 233.148438 L 216.90625 233.082031 L 217.070312 233.019531 L 217.257812 232.945312 L 217.40625 232.886719 L 217.582031 232.816406 L 217.777344 232.734375 L 217.921875 232.671875 L 218.277344 232.519531 L 218.460938 232.4375 L 218.621094 232.367188 L 218.800781 232.28125 L 218.972656 232.199219 L 219.117188 232.132812 L 219.308594 232.039062 L 219.472656 231.957031 L 219.648438 231.867188 L 219.785156 231.796875 L 219.957031 231.710938 L 220.125 231.621094 L 220.28125 231.535156 L 220.46875 231.433594 L 220.625 231.347656 L 220.792969 231.253906 L 220.941406 231.167969 L 221.121094 231.0625 L 221.285156 230.964844 L 221.597656 230.777344 L 221.757812 230.679688 L 221.898438 230.589844 L 222.074219 230.476562 L 222.222656 230.382812 L 222.394531 230.269531 L 222.53125 230.175781 L 222.695312 230.066406 L 222.851562 229.960938 L 223 229.855469 L 223.164062 229.742188 L 223.292969 229.648438 L 223.472656 229.519531 L 223.625 229.40625 L 223.746094 229.3125 L 223.925781 229.179688 L 224.054688 229.082031 L 224.207031 228.960938 L 224.34375 228.855469 L 224.507812 228.722656 L 224.652344 228.605469 L 224.792969 228.488281 L 224.921875 228.382812 L 225.0625 228.261719 L 225.21875 228.132812 L 225.652344 227.746094 L 225.769531 227.640625 L 225.90625 227.519531 L 226.054688 227.378906 L 226.191406 227.25 L 226.339844 227.109375 L 226.453125 226.996094 L 226.601562 226.855469 L 226.71875 226.734375 L 226.859375 226.597656 L 226.984375 226.46875 L 227.117188 226.332031 L 227.242188 226.203125 L 227.378906 226.054688 L 227.519531 225.90625 L 227.632812 225.78125 L 227.769531 225.628906 L 227.878906 225.503906 L 227.996094 225.375 L 228.132812 225.214844 L 228.253906 225.074219 L 228.371094 224.933594 L 228.492188 224.792969 L 228.609375 224.648438 L 228.71875 224.511719 L 228.835938 224.367188 L 228.960938 224.210938 L 229.070312 224.066406 L 229.183594 223.921875 L 229.308594 223.753906 L 229.410156 223.621094 L 229.519531 223.472656 L 229.640625 223.304688 L 229.75 223.152344 L 229.84375 223.015625 L 229.96875 222.835938 L 230.058594 222.707031 L 230.179688 222.527344 L 230.28125 222.375 L 230.378906 222.222656 L 230.46875 222.085938 L 230.582031 221.910156 L 230.6875 221.738281 L 230.789062 221.578125 L 230.882812 221.421875 L 230.96875 221.277344 L 231.078125 221.097656 L 231.167969 220.9375 L 231.253906 220.789062 L 231.351562 220.613281 L 231.4375 220.464844 L 231.527344 220.300781 L 231.621094 220.121094 L 231.707031 219.957031 L 231.78125 219.816406 L 231.878906 219.628906 L 232.039062 219.308594 L 232.128906 219.121094 L 232.203125 218.964844 L 232.285156 218.792969 L 232.359375 218.628906 L 232.445312 218.441406 L 232.515625 218.289062 L 232.597656 218.097656 L 232.664062 217.941406 L 232.734375 217.78125 L 232.808594 217.59375 L 232.886719 217.402344 L 232.957031 217.234375 L 233.019531 217.066406 L 233.085938 216.894531 L 233.15625 216.710938 L 233.21875 216.542969 L 233.28125 216.371094 L 233.34375 216.183594 L 233.402344 216.019531 L 233.527344 215.644531 L 233.578125 215.484375 L 233.640625 215.285156 L 233.691406 215.125 L 233.75 214.925781 L 233.796875 214.765625 L 233.847656 214.585938 L 233.894531 214.417969 L 233.949219 214.214844 L 234 214.03125 L 234.042969 213.867188 L 234.089844 213.675781 L 234.136719 213.476562 L 234.171875 213.328125 L 234.214844 213.144531 L 234.257812 212.953125 L 234.300781 212.746094 L 234.335938 212.578125 L 234.375 212.390625 L 234.40625 212.21875 L 234.441406 212.03125 L 234.476562 211.847656 L 234.503906 211.671875 L 234.535156 211.484375 L 234.570312 211.277344 L 234.59375 211.121094 L 234.621094 210.933594 L 234.648438 210.738281 L 234.671875 210.546875 L 234.695312 210.371094 L 234.71875 210.179688 L 234.738281 210.003906 L 234.761719 209.789062 L 234.777344 209.605469 L 234.792969 209.433594 L 234.808594 209.257812 L 234.824219 209.078125 L 234.839844 208.859375 L 234.851562 208.675781 L 234.859375 208.503906 L 234.871094 208.296875 L 234.878906 208.117188 L 234.882812 207.945312 L 234.890625 207.742188 L 234.894531 207.578125 L 234.898438 207.378906 L 234.898438 207 L 235.980469 207 L 235.980469 207.191406 L 235.976562 207.394531 L 235.972656 207.601562 L 235.96875 207.769531 L 235.964844 207.980469 L 235.957031 208.160156 L 235.949219 208.347656 L 235.9375 208.5625 L 235.925781 208.742188 L 235.914062 208.929688 L 235.898438 209.15625 L 235.886719 209.347656 L 235.871094 209.527344 L 235.851562 209.707031 L 235.835938 209.894531 L 235.8125 210.121094 L 235.792969 210.304688 L 235.765625 210.503906 L 235.746094 210.683594 L 235.71875 210.882812 L 235.691406 211.085938 L 235.664062 211.277344 L 235.636719 211.445312 L 235.601562 211.660156 L 235.570312 211.855469 L 235.539062 212.035156 L 235.503906 212.226562 L 235.46875 212.421875 L 235.359375 212.96875 L 235.3125 213.183594 L 235.269531 213.382812 L 235.226562 213.574219 L 235.1875 213.726562 L 235.136719 213.933594 L 235.089844 214.132812 L 235.042969 214.304688 L 234.996094 214.492188 L 234.9375 214.703125 L 234.890625 214.878906 L 234.835938 215.066406 L 234.785156 215.234375 L 234.722656 215.4375 L 234.671875 215.605469 L 234.605469 215.8125 L 234.554688 215.980469 L 234.492188 216.164062 L 234.425781 216.367188 L 234.363281 216.539062 L 234.296875 216.734375 L 234.230469 216.910156 L 234.167969 217.085938 L 234.097656 217.277344 L 234.027344 217.453125 L 233.960938 217.628906 L 233.890625 217.804688 L 233.808594 218.003906 L 233.730469 218.195312 L 233.660156 218.363281 L 233.589844 218.527344 L 233.5 218.726562 L 233.429688 218.882812 L 233.34375 219.082031 L 233.265625 219.246094 L 233.179688 219.425781 L 233.101562 219.59375 L 233.007812 219.785156 L 232.921875 219.957031 L 232.839844 220.117188 L 232.742188 220.3125 L 232.664062 220.460938 L 232.574219 220.628906 L 232.476562 220.816406 L 232.382812 220.984375 L 232.296875 221.140625 L 232.195312 221.320312 L 232.105469 221.476562 L 232.007812 221.644531 L 231.898438 221.832031 L 231.808594 221.980469 L 231.707031 222.144531 L 231.605469 222.3125 L 231.496094 222.488281 L 231.378906 222.667969 L 231.285156 222.8125 L 231.183594 222.96875 L 231.078125 223.128906 L 230.949219 223.316406 L 230.859375 223.449219 L 230.726562 223.636719 L 230.628906 223.777344 L 230.515625 223.9375 L 230.390625 224.109375 L 230.277344 224.265625 L 230.171875 224.402344 L 229.925781 224.730469 L 229.808594 224.875 L 229.683594 225.039062 L 229.558594 225.191406 L 229.445312 225.328125 L 229.324219 225.480469 L 229.199219 225.628906 L 229.078125 225.773438 L 228.949219 225.921875 L 228.808594 226.085938 L 228.6875 226.222656 L 228.574219 226.347656 L 228.429688 226.507812 L 228.3125 226.636719 L 228.167969 226.792969 L 228.023438 226.945312 L 227.894531 227.078125 L 227.757812 227.222656 L 227.628906 227.355469 L 227.359375 227.625 L 227.207031 227.773438 L 227.085938 227.890625 L 226.9375 228.03125 L 226.792969 228.167969 L 226.636719 228.3125 L 226.496094 228.441406 L 226.375 228.550781 L 226.226562 228.683594 L 225.921875 228.949219 L 225.765625 229.085938 L 225.613281 229.210938 L 225.480469 229.320312 L 225.335938 229.441406 L 225.1875 229.5625 L 225.015625 229.699219 L 224.875 229.8125 L 224.714844 229.9375 L 224.578125 230.039062 L 224.394531 230.179688 L 224.269531 230.273438 L 224.109375 230.390625 L 223.925781 230.523438 L 223.789062 230.621094 L 223.621094 230.742188 L 223.464844 230.847656 L 223.304688 230.960938 L 223.132812 231.074219 L 222.988281 231.167969 L 222.8125 231.285156 L 222.660156 231.382812 L 222.476562 231.5 L 222.328125 231.59375 L 222.160156 231.699219 L 221.980469 231.808594 L 221.839844 231.894531 L 221.667969 231.992188 L 221.480469 232.101562 L 221.328125 232.191406 L 221.152344 232.289062 L 220.988281 232.378906 L 220.796875 232.484375 L 220.632812 232.570312 L 220.28125 232.757812 L 220.140625 232.832031 L 219.957031 232.921875 L 219.78125 233.007812 L 219.585938 233.105469 L 219.4375 233.175781 L 219.257812 233.261719 L 219.070312 233.347656 L 218.90625 233.421875 L 218.710938 233.507812 L 218.542969 233.582031 L 218.34375 233.667969 L 218.195312 233.730469 L 217.992188 233.8125 L 217.8125 233.886719 L 217.652344 233.949219 L 217.460938 234.027344 L 217.289062 234.09375 L 217.105469 234.160156 L 216.917969 234.230469 L 216.722656 234.300781 L 216.5625 234.355469 L 216.371094 234.421875 L 216.167969 234.492188 L 216.007812 234.542969 L 215.789062 234.613281 L 215.625 234.667969 L 215.441406 234.722656 L 215.265625 234.777344 L 215.078125 234.832031 L 214.875 234.890625 L 214.671875 234.945312 L 214.511719 234.988281 L 214.308594 235.042969 L 213.941406 235.136719 L 213.738281 235.1875 L 213.554688 235.230469 L 213.363281 235.273438 L 213.1875 235.3125 L 213.003906 235.351562 L 212.808594 235.390625 L 212.589844 235.433594 L 212.429688 235.46875 L 212.226562 235.503906 L 212.035156 235.539062 L 211.847656 235.570312 L 211.464844 235.632812 L 211.253906 235.667969 L 211.070312 235.691406 L 210.867188 235.722656 L 210.683594 235.746094 L 210.507812 235.765625 L 210.3125 235.789062 L 209.925781 235.832031 L 209.71875 235.851562 L 209.519531 235.871094 L 209.3125 235.886719 L 209.121094 235.902344 L 208.933594 235.914062 L 208.761719 235.925781 L 208.566406 235.9375 L 208.34375 235.949219 L 208.152344 235.957031 L 207.972656 235.964844 L 207.777344 235.96875 L 207.601562 235.972656 L 207.390625 235.976562 L 207.183594 235.980469 L 207 235.980469 Z M 232.019531 207 L 232.019531 117 L 233.101562 117 L 233.101562 207 Z M 234.898438 207 L 234.898438 117 L 235.980469 117 L 235.980469 207 Z M 232.019531 117 L 180 72 L 207 72 L 233.101562 117 Z M 234.898438 117 L 261 72 L 288 72 L 235.980469 117 Z M 180 72 L 180 27 L 207 27 L 207 72 Z M 261 72 L 261 27 L 288 27 L 288 72 Z M 180 27 L 180 0.898438 L 288 0.898438 L 288 27 Z M 180 0.898438 L 180 0.847656 L 180.007812 0.792969 L 180.015625 0.742188 L 180.027344 0.6875 L 180.042969 0.628906 L 180.0625 0.570312 L 180.089844 0.507812 L 180.121094 0.449219 L 180.160156 0.390625 L 180.230469 0.296875 L 180.292969 0.234375 L 180.328125 0.207031 L 180.359375 0.179688 L 180.394531 0.152344 L 180.4375 0.128906 L 180.480469 0.101562 L 180.535156 0.078125 L 180.601562 0.0507812 L 180.640625 0.0390625 L 180.75 0.0117188 L 180.898438 0 L 287.101562 0 L 287.25 0.0117188 L 287.359375 0.0390625 L 287.398438 0.0507812 L 287.464844 0.078125 L 287.519531 0.101562 L 287.5625 0.128906 L 287.605469 0.152344 L 287.640625 0.179688 L 287.671875 0.207031 L 287.707031 0.234375 L 287.769531 0.296875 L 287.839844 0.390625 L 287.878906 0.449219 L 287.910156 0.507812 L 287.9375 0.570312 L 287.957031 0.628906 L 287.972656 0.6875 L 287.984375 0.742188 L 287.992188 0.792969 L 288 0.847656 L 288 0.898438 Z M 180 0.898438 "/>
<path style=" stroke:none;fill-rule:nonzero;fill:rgb(100%,0%,0%);fill-opacity:1;" d="M 122.398438 237.601562 L 126 237.601562 L 126 230.398438 L 122.398438 230.398438 Z M 129.601562 237.601562 L 133.199219 237.601562 L 133.199219 230.398438 L 129.601562 230.398438 Z M 136.800781 237.601562 L 140.398438 237.601562 L 140.398438 230.398438 L 136.800781 230.398438 Z M 144 237.601562 L 147.601562 237.601562 L 147.601562 230.398438 L 144 230.398438 Z M 151.199219 237.601562 L 154.800781 237.601562 L 154.800781 230.398438 L 151.199219 230.398438 Z M 158.398438 237.601562 L 162 237.601562 L 162 230.398438 L 158.398438 230.398438 Z M 165.601562 237.601562 L 169.199219 237.601562 L 169.199219 230.398438 L 165.601562 230.398438 Z M 172.800781 237.601562 L 176.398438 237.601562 L 176.398438 230.398438 L 172.800781 230.398438 Z M 180 237.601562 L 183.601562 237.601562 L 183.601562 230.398438 L 180 230.398438 Z M 187.199219 237.601562 L 190.800781 237.601562 L 190.800781 230.398438 L 187.199219 230.398438 Z M 194.398438 237.601562 L 198 237.601562 L 198 230.398438 L 194.398438 230.398438 Z M 201.601562 237.601562 L 205.199219 237.601562 L 205.199219 230.398438 L 201.601562 230.398438 Z M 209.285156 237.566406 L 212.851562 237.089844 L 211.894531 229.953125 L 208.328125 230.429688 Z M 217.257812 235.886719 L 220.574219 234.484375 L 217.769531 227.851562 L 214.453125 229.253906 Z M 224.507812 232.160156 L 227.335938 229.933594 L 222.882812 224.277344 L 220.054688 226.503906 Z M 230.519531 226.660156 L 232.660156 223.765625 L 226.875 219.480469 L 224.734375 222.375 Z M 234.867188 219.765625 L 236.171875 216.410156 L 229.460938 213.800781 L 228.15625 217.15625 Z M 237.246094 211.972656 L 237.621094 208.390625 L 230.460938 207.640625 L 230.085938 211.222656 Z M 237.601562 204.410156 L 237.601562 200.8125 L 230.398438 200.8125 L 230.398438 204.410156 Z M 237.601562 197.210938 L 237.601562 193.613281 L 230.398438 193.613281 L 230.398438 197.210938 Z M 237.601562 190.011719 L 237.601562 186.410156 L 230.398438 186.410156 L 230.398438 190.011719 Z M 237.601562 182.8125 L 237.601562 179.210938 L 230.398438 179.210938 L 230.398438 182.8125 Z M 237.601562 175.613281 L 237.601562 172.011719 L 230.398438 172.011719 L 230.398438 175.613281 Z M 237.601562 168.410156 L 237.601562 164.8125 L 230.398438 164.8125 L 230.398438 168.410156 Z M 237.601562 161.210938 L 237.601562 157.613281 L 230.398438 157.613281 L 230.398438 161.210938 Z M 237.601562 154.011719 L 237.601562 150.410156 L 230.398438 150.410156 L 230.398438 154.011719 Z M 237.601562 146.8125 L 237.601562 143.210938 L 230.398438 143.210938 L 230.398438 146.8125 Z M 237.601562 139.613281 L 237.601562 136.011719 L 230.398438 136.011719 L 230.398438 139.613281 Z M 237.601562 132.410156 L 237.601562 128.8125 L 230.398438 128.8125 L 230.398438 132.410156 Z M 237.601562 132.410156 "/>
</g>
</svg>
