<?xml version="1.0" encoding="UTF-8" ?>
<svg xmlns="http://www.w3.org/2000/svg" version="1.1" viewBox="1.806354028742346e-11 0 1600000 1600000"  >
<g fill="black" >
<polygon points="0,1005000 74,1004144 148,1003794 222,1003528 295,1003307 443,1002942 591,1002642 739,1002385 886,1002158 1034,1001955 1182,1001772 1347,1001586 1512,1001418 1676,1001264 1841,1001124 2171,1000877 2501,1000669 2840,1000490 3180,1000343 3519,1000224 3858,1000132 4144,1000074 4429,1000033 4715,1000008 5000,1000000 5000,1600000 4715,1599992 4429,1599967 4144,1599926 3858,1599868 3519,1599776 3180,1599657 2840,1599510 2501,1599331 2171,1599123 1841,1598876 1676,1598736 1512,1598582 1347,1598414 1182,1598228 1034,1598045 886,1597842 739,1597615 591,1597358 443,1597058 295,1596693 222,1596472 148,1596206 74,1595856 0,1595000" />
<polygon points="5000,1000000 150000,1000000 150000,1600000 5000,1600000" />
<polygon points="150000,1000000 400000,1000000 400000,1150000 150000,1150000" />
<polygon points="150000,1450000 400000,1450000 400000,1600000 150000,1600000" />
<polygon points="400000,1000000 400953,1001102 402017,1002332 403112,1003597 404037,1004666 405041,1005828 405968,1006899 406961,1008047 408112,1009377 409134,1010559 410031,1011596 411009,1012726 411992,1013863 413079,1015120 414114,1016316 415190,1017559 416095,1018606 417201,1019884 418214,1021055 419149,1022136 420096,1023231 421158,1024459 422121,1025571 423222,1026845 424242,1028024 425248,1029187 426224,1030315 427225,1031473 428296,1032710 429158,1033707 430304,1035031 431345,1036235 432316,1037357 433240,1038425 434268,1039614 435243,1040741 436332,1042000 437306,1043126 438288,1044260 439377,1045519 440228,1046503 441328,1047775 442422,1049040 443424,1050198 444382,1051306 445372,1052450 446278,1053497 447470,1054875 448329,1055868 449439,1057151 450496,1058373 451378,1059393 452447,1060628 453490,1061835 454504,1063007 455459,1064110 456529,1065348 457408,1066363 458424,1067538 459554,1068845 460405,1069829 461515,1071111 462479,1072226 463579,1073497 464507,1074570 465574,1075804 466616,1077008 467463,1077987 468602,1079303 469609,1080468 470662,1081685 471492,1082645 472525,1083839 473560,1085035 474516,1086140 475650,1087451 476615,1088567 477651,1089765 478576,1090834 479702,1092135 480726,1093319 481577,1094303 482676,1095573 483688,1096744 484601,1097799 485727,1099101 486670,1100190 487772,1101464 488668,1102501 489726,1103724 490740,1104895 491717,1106025 492798,1107274 493652,1108262 494844,1109640 495857,1110811 496688,1111771 497878,1113147 498757,1114164 499805,1115374 500745,1116461 501870,1117762 502878,1118927 503852,1120053 504744,1121084 505759,1122258 506847,1123515 507886,1124716 508928,1125921 509975,1127131 510816,1128104 511805,1129246 512896,1130508 513924,1131696 515005,1132945 515877,1133954 516975,1135223 517885,1136275 518939,1137494 519905,1138610 520933,1139799 521897,1140912 522992,1142178 524085,1143443 524988,1144486 526102,1145773 526992,1146802 527927,1147883 529052,1149184 530072,1150363 531039,1151481 532044,1152642 533053,1153810 533982,1154883 534994,1156053 536060,1157285 537032,1158409 538033,1159567 539162,1160871 540055,1161904 541049,1163053 542150,1164325 543172,1165507 544058,1166531 545242,1167899 546079,1168868 547252,1170224 548240,1171366 549211,1172488 550103,1173519 551225,1174816 552299,1176057 553321,1177239 554299,1178369 555209,1179421 556342,1180732 557333,1181877 558267,1182957 559334,1184191 560257,1185257 561262,1186419 562356,1187684 563351,1188833 564219,1189837 565346,1191140 566282,1192222 567283,1193379 568387,1194655 569335,1195751 570361,1196937 571315,1198040 572438,1199338 573332,1200372 574454,1201669 575373,1202732 576316,1203821 577391,1205064 578510,1206357 579489,1207489 580464,1208616 581451,1209757 582498,1210968 583466,1212087 584450,1213225 585511,1214450 586460,1215548 587578,1216840 588577,1217995 589477,1219036 590607,1220341 591512,1221388 592631,1222682 593521,1223710 594546,1224895 595482,1225978 596610,1227282 597619,1228447 598542,1229514 599597,1230734 600706,1232016 601528,1232966 602547,1234144 603587,1235347 604738,1236677 605670,1237755 606691,1238934 607621,1240010 608662,1241213 609655,1242361 610615,1243471 611635,1244650 612766,1245958 613633,1246960 614649,1248134 615712,1249363 616744,1250557 617692,1251652 618734,1252856 619683,1253954 620855,1255308 621840,1256447 622779,1257533 623711,1258610 624698,1259751 625875,1261112 626864,1262255 627785,1263320 628911,1264621 629872,1265732 630804,1266809 631902,1268078 632776,1269089 633841,1270320 634886,1271528 635908,1272710 636864,1273815 637835,1274937 639014,1276301 639991,1277430 641000,1278596 641944,1279687 642899,1280791 644024,1282092 644939,1283149 646023,1284403 646926,1285446 647984,1286670 648943,1287779 650000,1289000 650000,1295000 648943,1294387 647984,1293831 646926,1293217 646023,1292694 644939,1292065 644024,1291534 642899,1290881 641944,1290328 641000,1289780 639991,1289195 639014,1288628 637835,1287944 636864,1287381 635908,1286827 634886,1286234 633841,1285628 632776,1285010 631902,1284503 630804,1283866 629872,1283326 628911,1282768 627785,1282115 626864,1281581 625875,1281008 624698,1280325 623711,1279753 622779,1279212 621840,1278667 620855,1278096 619683,1277416 618734,1276865 617692,1276261 616744,1275712 615712,1275113 614649,1274496 613633,1273907 612766,1273404 611635,1272748 610615,1272157 609655,1271600 608662,1271024 607621,1270420 606691,1269881 605670,1269289 604738,1268748 603587,1268081 602547,1267477 601528,1266886 600706,1266409 599597,1265766 598542,1265154 597619,1264619 596610,1264034 595482,1263380 594546,1262837 593521,1262242 592631,1261726 591512,1261077 590607,1260552 589477,1259897 588577,1259375 587578,1258795 586460,1258147 585511,1257596 584450,1256981 583466,1256410 582498,1255849 581451,1255241 580464,1254669 579489,1254103 578510,1253536 577391,1252887 576316,1252263 575373,1251717 574454,1251183 573332,1250532 572438,1250014 571315,1249363 570361,1248809 569335,1248214 568387,1247664 567283,1247024 566282,1246444 565346,1245901 564219,1245247 563351,1244743 562356,1244167 561262,1243532 560257,1242949 559334,1242414 558267,1241795 557333,1241253 556342,1240679 555209,1240021 554299,1239493 553321,1238926 552299,1238333 551225,1237710 550103,1237059 549211,1236542 548240,1235979 547252,1235406 546079,1234726 545242,1234240 544058,1233554 543172,1233040 542150,1232447 541049,1231809 540055,1231232 539162,1230714 538033,1230059 537032,1229479 536060,1228915 534994,1228296 533982,1227710 533053,1227171 532044,1226585 531039,1226002 530072,1225442 529052,1224850 527927,1224198 526992,1223655 526102,1223139 524988,1222493 524085,1221970 522992,1221335 521897,1220700 520933,1220141 519905,1219545 518939,1218985 517885,1218373 516975,1217846 515877,1217209 515005,1216703 513924,1216076 512896,1215480 511805,1214847 510816,1214273 509975,1213785 508928,1213178 507886,1212574 506847,1211971 505759,1211340 504744,1210752 503852,1210234 502878,1209669 501870,1209085 500745,1208432 499805,1207887 498757,1207279 497878,1206769 496688,1206079 495857,1205597 494844,1205010 493652,1204318 492798,1203823 491717,1203196 490740,1202629 489726,1202041 488668,1201428 487772,1200908 486670,1200269 485727,1199722 484601,1199069 483688,1198539 482676,1197952 481577,1197315 480726,1196821 479702,1196227 478576,1195574 477651,1195038 476615,1194437 475650,1193877 474516,1193219 473560,1192665 472525,1192064 471492,1191465 470662,1190984 469609,1190373 468602,1189789 467463,1189129 466616,1188637 465574,1188033 464507,1187414 463579,1186876 462479,1186238 461515,1185679 460405,1185035 459554,1184542 458424,1183886 457408,1183296 456529,1182787 455459,1182166 454504,1181613 453490,1181024 452447,1180419 451378,1179799 450496,1179288 449439,1178675 448329,1178031 447470,1177533 446278,1176841 445372,1176316 444382,1175742 443424,1175186 442422,1174605 441328,1173970 440228,1173332 439377,1172838 438288,1172207 437306,1171638 436332,1171073 435243,1170441 434268,1169875 433240,1169279 432316,1168743 431345,1168180 430304,1167576 429158,1166912 428296,1166412 427225,1165791 426224,1165210 425248,1164644 424242,1164061 423222,1163469 422121,1162830 421158,1162272 420096,1161656 419149,1161106 418214,1160564 417201,1159976 416095,1159335 415190,1158810 414114,1158186 413079,1157586 411992,1156955 411009,1156385 410031,1155818 409134,1155298 408112,1154705 406961,1154037 405968,1153461 405041,1152924 404037,1152341 403112,1151805 402017,1151170 400953,1150553 400000,1150000" />
<polygon points="400000,1450000 400953,1449447 402017,1448830 403112,1448195 404037,1447659 405041,1447076 405968,1446539 406961,1445963 408112,1445295 409134,1444702 410031,1444182 411009,1443615 411992,1443045 413079,1442414 414114,1441814 415190,1441190 416095,1440665 417201,1440024 418214,1439436 419149,1438894 420096,1438344 421158,1437728 422121,1437170 423222,1436531 424242,1435939 425248,1435356 426224,1434790 427225,1434209 428296,1433588 429158,1433088 430304,1432424 431345,1431820 432316,1431257 433240,1430721 434268,1430125 435243,1429559 436332,1428927 437306,1428362 438288,1427793 439377,1427162 440228,1426668 441328,1426030 442422,1425395 443424,1424814 444382,1424258 445372,1423684 446278,1423159 447470,1422467 448329,1421969 449439,1421325 450496,1420712 451378,1420201 452447,1419581 453490,1418976 454504,1418387 455459,1417834 456529,1417213 457408,1416704 458424,1416114 459554,1415458 460405,1414965 461515,1414321 462479,1413762 463579,1413124 464507,1412586 465574,1411967 466616,1411363 467463,1410871 468602,1410211 469609,1409627 470662,1409016 471492,1408535 472525,1407936 473560,1407335 474516,1406781 475650,1406123 476615,1405563 477651,1404962 478576,1404426 479702,1403773 480726,1403179 481577,1402685 482676,1402048 483688,1401461 484601,1400931 485727,1400278 486670,1399731 487772,1399092 488668,1398572 489726,1397959 490740,1397371 491717,1396804 492798,1396177 493652,1395682 494844,1394990 495857,1394403 496688,1393921 497878,1393231 498757,1392721 499805,1392113 500745,1391568 501870,1390915 502878,1390331 503852,1389766 504744,1389248 505759,1388660 506847,1388029 507886,1387426 508928,1386822 509975,1386215 510816,1385727 511805,1385153 512896,1384520 513924,1383924 515005,1383297 515877,1382791 516975,1382154 517885,1381627 518939,1381015 519905,1380455 520933,1379859 521897,1379300 522992,1378665 524085,1378030 524988,1377507 526102,1376861 526992,1376345 527927,1375802 529052,1375150 530072,1374558 531039,1373998 532044,1373415 533053,1372829 533982,1372290 534994,1371704 536060,1371085 537032,1370521 538033,1369941 539162,1369286 540055,1368768 541049,1368191 542150,1367553 543172,1366960 544058,1366446 545242,1365760 546079,1365274 547252,1364594 548240,1364021 549211,1363458 550103,1362941 551225,1362290 552299,1361667 553321,1361074 554299,1360507 555209,1359979 556342,1359321 557333,1358747 558267,1358205 559334,1357586 560257,1357051 561262,1356468 562356,1355833 563351,1355257 564219,1354753 565346,1354099 566282,1353556 567283,1352976 568387,1352336 569335,1351786 570361,1351191 571315,1350637 572438,1349986 573332,1349468 574454,1348817 575373,1348283 576316,1347737 577391,1347113 578510,1346464 579489,1345897 580464,1345331 581451,1344759 582498,1344151 583466,1343590 584450,1343019 585511,1342404 586460,1341853 587578,1341205 588577,1340625 589477,1340103 590607,1339448 591512,1338923 592631,1338274 593521,1337758 594546,1337163 595482,1336620 596610,1335966 597619,1335381 598542,1334846 599597,1334234 600706,1333591 601528,1333114 602547,1332523 603587,1331919 604738,1331252 605670,1330711 606691,1330119 607621,1329580 608662,1328976 609655,1328400 610615,1327843 611635,1327252 612766,1326596 613633,1326093 614649,1325504 615712,1324887 616744,1324288 617692,1323739 618734,1323135 619683,1322584 620855,1321904 621840,1321333 622779,1320788 623711,1320247 624698,1319675 625875,1318992 626864,1318419 627785,1317885 628911,1317232 629872,1316674 630804,1316134 631902,1315497 632776,1314990 633841,1314372 634886,1313766 635908,1313173 636864,1312619 637835,1312056 639014,1311372 639991,1310805 641000,1310220 641944,1309672 642899,1309119 644024,1308466 644939,1307935 646023,1307306 646926,1306783 647984,1306169 648943,1305613 650000,1305000 650000,1311000 648943,1312221 647984,1313330 646926,1314554 646023,1315597 644939,1316851 644024,1317908 642899,1319209 641944,1320313 641000,1321404 639991,1322570 639014,1323699 637835,1325063 636864,1326185 635908,1327290 634886,1328472 633841,1329680 632776,1330911 631902,1331922 630804,1333191 629872,1334268 628911,1335379 627785,1336680 626864,1337745 625875,1338888 624698,1340249 623711,1341390 622779,1342467 621840,1343553 620855,1344692 619683,1346046 618734,1347144 617692,1348348 616744,1349443 615712,1350637 614649,1351866 613633,1353040 612766,1354042 611635,1355350 610615,1356529 609655,1357639 608662,1358787 607621,1359990 606691,1361066 605670,1362245 604738,1363323 603587,1364653 602547,1365856 601528,1367034 600706,1367984 599597,1369266 598542,1370486 597619,1371553 596610,1372718 595482,1374022 594546,1375105 593521,1376290 592631,1377318 591512,1378612 590607,1379659 589477,1380964 588577,1382005 587578,1383160 586460,1384452 585511,1385550 584450,1386775 583466,1387913 582498,1389032 581451,1390243 580464,1391384 579489,1392511 578510,1393643 577391,1394936 576316,1396179 575373,1397268 574454,1398331 573332,1399628 572438,1400662 571315,1401960 570361,1403063 569335,1404249 568387,1405345 567283,1406621 566282,1407778 565346,1408860 564219,1410163 563351,1411167 562356,1412316 561262,1413581 560257,1414743 559334,1415809 558267,1417043 557333,1418123 556342,1419268 555209,1420579 554299,1421631 553321,1422761 552299,1423943 551225,1425184 550103,1426481 549211,1427512 548240,1428634 547252,1429776 546079,1431132 545242,1432101 544058,1433469 543172,1434493 542150,1435675 541049,1436947 540055,1438096 539162,1439129 538033,1440433 537032,1441591 536060,1442715 534994,1443947 533982,1445117 533053,1446190 532044,1447358 531039,1448519 530072,1449637 529052,1450816 527927,1452117 526992,1453198 526102,1454227 524988,1455514 524085,1456557 522992,1457822 521897,1459088 520933,1460201 519905,1461390 518939,1462506 517885,1463725 516975,1464777 515877,1466046 515005,1467055 513924,1468304 512896,1469492 511805,1470754 510816,1471896 509975,1472869 508928,1474079 507886,1475284 506847,1476485 505759,1477742 504744,1478916 503852,1479947 502878,1481073 501870,1482238 500745,1483539 499805,1484626 498757,1485836 497878,1486853 496688,1488229 495857,1489189 494844,1490360 493652,1491738 492798,1492726 491717,1493975 490740,1495105 489726,1496276 488668,1497499 487772,1498536 486670,1499810 485727,1500899 484601,1502201 483688,1503256 482676,1504427 481577,1505697 480726,1506681 479702,1507865 478576,1509166 477651,1510235 476615,1511433 475650,1512549 474516,1513860 473560,1514965 472525,1516161 471492,1517355 470662,1518315 469609,1519532 468602,1520697 467463,1522013 466616,1522992 465574,1524196 464507,1525430 463579,1526503 462479,1527774 461515,1528889 460405,1530171 459554,1531155 458424,1532462 457408,1533637 456529,1534652 455459,1535890 454504,1536993 453490,1538165 452447,1539372 451378,1540607 450496,1541627 449439,1542849 448329,1544132 447470,1545125 446278,1546503 445372,1547550 444382,1548694 443424,1549802 442422,1550960 441328,1552225 440228,1553497 439377,1554481 438288,1555740 437306,1556874 436332,1558000 435243,1559259 434268,1560386 433240,1561575 432316,1562643 431345,1563765 430304,1564969 429158,1566293 428296,1567290 427225,1568527 426224,1569685 425248,1570813 424242,1571976 423222,1573155 422121,1574429 421158,1575541 420096,1576769 419149,1577864 418214,1578945 417201,1580116 416095,1581394 415190,1582441 414114,1583684 413079,1584880 411992,1586137 411009,1587274 410031,1588404 409134,1589441 408112,1590623 406961,1591953 405968,1593101 405041,1594172 404037,1595334 403112,1596403 402017,1597668 400953,1598898 400000,1600000" />
<polygon points="650000,1289000 1150000,1289000 1150000,1295000 650000,1295000" />
<polygon points="650000,1305000 1150000,1305000 1150000,1311000 650000,1311000" />
<polygon points="1150000,1289000 1150882,1288997 1151867,1288987 1152880,1288970 1153736,1288950 1154665,1288922 1155522,1288890 1156441,1288851 1157505,1288797 1158450,1288743 1159278,1288690 1160181,1288627 1161088,1288557 1162091,1288473 1163045,1288387 1164036,1288290 1164870,1288202 1165887,1288089 1166817,1287979 1167677,1287871 1168546,1287757 1169520,1287623 1170401,1287495 1171409,1287341 1172342,1287193 1173260,1287040 1174151,1286886 1175062,1286722 1176036,1286540 1176820,1286388 1177860,1286179 1178803,1285983 1179682,1285794 1180517,1285609 1181444,1285397 1182323,1285190 1183303,1284952 1184177,1284733 1185057,1284507 1186031,1284249 1186792,1284042 1187773,1283769 1188746,1283491 1189636,1283229 1190486,1282973 1191361,1282704 1192161,1282452 1193211,1282113 1193966,1281864 1194939,1281535 1195864,1281216 1196634,1280944 1197564,1280609 1198471,1280275 1199350,1279945 1200174,1279628 1201097,1279267 1201853,1278966 1202724,1278612 1203691,1278212 1204417,1277906 1205360,1277500 1206177,1277142 1207107,1276727 1207889,1276372 1208786,1275957 1209658,1275546 1210365,1275208 1211313,1274747 1212149,1274332 1213019,1273894 1213702,1273544 1214551,1273102 1215398,1272655 1216177,1272236 1217098,1271733 1217879,1271299 1218715,1270828 1219458,1270402 1220358,1269878 1221174,1269395 1221850,1268990 1222718,1268461 1223515,1267968 1224231,1267519 1225110,1266959 1225843,1266485 1226695,1265926 1227386,1265466 1228198,1264918 1228971,1264388 1229715,1263871 1230532,1263294 1231175,1262834 1232068,1262187 1232823,1261630 1233439,1261170 1234318,1260506 1234963,1260010 1235728,1259415 1236412,1258876 1237225,1258225 1237950,1257638 1238646,1257065 1239280,1256536 1239998,1255931 1240763,1255276 1241490,1254645 1242213,1254008 1242936,1253363 1243514,1252840 1244189,1252223 1244929,1251535 1245622,1250883 1246346,1250192 1246926,1249631 1247652,1248920 1248250,1248326 1248937,1247634 1249563,1246996 1250225,1246312 1250841,1245667 1251536,1244929 1252224,1244187 1252789,1243571 1253480,1242806 1254028,1242191 1254600,1241541 1255283,1240755 1255897,1240038 1256474,1239354 1257070,1238640 1257664,1237918 1258205,1237250 1258791,1236519 1259402,1235745 1259955,1235035 1260519,1234300 1261150,1233467 1261644,1232804 1262190,1232063 1262788,1231239 1263339,1230470 1263812,1229799 1264437,1228900 1264875,1228260 1265483,1227361 1265989,1226599 1266482,1225848 1266931,1225155 1267489,1224279 1268017,1223437 1268514,1222632 1268985,1221859 1269418,1221136 1269952,1220233 1270412,1219440 1270842,1218690 1271327,1217829 1271742,1217082 1272188,1216266 1272667,1215374 1273097,1214560 1273469,1213847 1273944,1212919 1274334,1212145 1274746,1211315 1275193,1210396 1275572,1209605 1275976,1208745 1276347,1207944 1276776,1206998 1277113,1206242 1277530,1205291 1277866,1204509 1278206,1203705 1278587,1202786 1278977,1201827 1279312,1200985 1279640,1200144 1279967,1199291 1280308,1198383 1280617,1197542 1280926,1196685 1281252,1195760 1281539,1194929 1281869,1193949 1282159,1193070 1282415,1192277 1282729,1191280 1282975,1190479 1283273,1189487 1283505,1188697 1283766,1187785 1283999,1186950 1284273,1185942 1284511,1185039 1284724,1184212 1284961,1183265 1285203,1182267 1285377,1181527 1285588,1180607 1285797,1179667 1286020,1178626 1286196,1177781 1286381,1176855 1286545,1176010 1286722,1175063 1286885,1174158 1287036,1173282 1287191,1172351 1287356,1171316 1287477,1170523 1287612,1169593 1287747,1168618 1287872,1167671 1287981,1166800 1288094,1165843 1288192,1164969 1288304,1163891 1288392,1162984 1288471,1162117 1288543,1161258 1288614,1160347 1288691,1159260 1288749,1158347 1288798,1157496 1288850,1156455 1288889,1155566 1288920,1154704 1288951,1153689 1288970,1152879 1288987,1151894 1288997,1150927 1289000,1150000 1295000,1150000 1294997,1150967 1294987,1151976 1294969,1153004 1294949,1153848 1294917,1154907 1294884,1155806 1294844,1156734 1294789,1157819 1294738,1158707 1294678,1159660 1294598,1160793 1294524,1161744 1294448,1162641 1294366,1163544 1294274,1164491 1294157,1165615 1294055,1166527 1293937,1167526 1293824,1168434 1293693,1169422 1293552,1170439 1293411,1171409 1293285,1172237 1293113,1173315 1292952,1174287 1292793,1175200 1292624,1176144 1292439,1177132 1292268,1178014 1292074,1178980 1291892,1179862 1291659,1180948 1291441,1181928 1291221,1182888 1291039,1183660 1290787,1184701 1290539,1185689 1290317,1186552 1290069,1187493 1289783,1188545 1289540,1189416 1289268,1190367 1289026,1191191 1288715,1192226 1288458,1193062 1288130,1194102 1287864,1194929 1287561,1195846 1287217,1196868 1286917,1197735 1286577,1198700 1286255,1199594 1285932,1200472 1285577,1201419 1285236,1202308 1284894,1203185 1284544,1204064 1284138,1205065 1283740,1206023 1283386,1206862 1283035,1207677 1282600,1208670 1282249,1209458 1281801,1210445 1281414,1211281 1280992,1212178 1280597,1213003 1280130,1213962 1279701,1214828 1279295,1215635 1278798,1216603 1278411,1217347 1277962,1218196 1277462,1219127 1276997,1219978 1276564,1220757 1276058,1221655 1275610,1222438 1275129,1223264 1274573,1224207 1274121,1224961 1273630,1225767 1273111,1226607 1272560,1227485 1271978,1228399 1271510,1229122 1270996,1229906 1270468,1230700 1269834,1231638 1269377,1232306 1268724,1233244 1268231,1233943 1267657,1234746 1267033,1235606 1266464,1236378 1265948,1237070 1265290,1237939 1264701,1238706 1264124,1239446 1263487,1240254 1262876,1241017 1262311,1241713 1261692,1242466 1261070,1243211 1260468,1243925 1259828,1244673 1259115,1245493 1258518,1246171 1257946,1246812 1257226,1247610 1256637,1248252 1255919,1249027 1255194,1249796 1254551,1250469 1253861,1251183 1253208,1251848 1252490,1252570 1251867,1253189 1251110,1253932 1250504,1254517 1249749,1255238 1249027,1255918 1248255,1256635 1247551,1257279 1246948,1257824 1246194,1258498 1245439,1259163 1244681,1259820 1243883,1260503 1243134,1261135 1242472,1261687 1241746,1262284 1240990,1262897 1240142,1263576 1239429,1264138 1238631,1264759 1237958,1265276 1237041,1265969 1236398,1266449 1235611,1267029 1234679,1267705 1234008,1268185 1233156,1268786 1232380,1269325 1231573,1269878 1230727,1270450 1230006,1270930 1229117,1271514 1228352,1272008 1227435,1272592 1226689,1273060 1225857,1273574 1224951,1274126 1224246,1274549 1223395,1275053 1222456,1275599 1221681,1276043 1220809,1276535 1219995,1276987 1219034,1277512 1218221,1277949 1217337,1278416 1216452,1278876 1215739,1279241 1214832,1279699 1213960,1280131 1212971,1280613 1212233,1280966 1211323,1281394 1210388,1281827 1209572,1282197 1208602,1282630 1207750,1283004 1206765,1283427 1206008,1283746 1205000,1284164 1204091,1284533 1203303,1284847 1202340,1285224 1201480,1285554 1200563,1285898 1199618,1286246 1198647,1286596 1197844,1286879 1196879,1287213 1195863,1287556 1195076,1287816 1193981,1288169 1193146,1288432 1192233,1288713 1191347,1288980 1190419,1289253 1189403,1289544 1188380,1289828 1187587,1290044 1186570,1290313 1185653,1290549 1184740,1290777 1183718,1291025 1182802,1291241 1181834,1291462 1180963,1291656 1180047,1291853 1179062,1292058 1177978,1292275 1177160,1292434 1176144,1292624 1175193,1292795 1174264,1292955 1173306,1293115 1172333,1293270 1171282,1293430 1170362,1293563 1169347,1293704 1168440,1293823 1167543,1293935 1166572,1294050 1165511,1294168 1164642,1294259 1163608,1294360 1162613,1294450 1161567,1294538 1160620,1294611 1159678,1294677 1158814,1294732 1157828,1294789 1156719,1294844 1155761,1294886 1154867,1294918 1153897,1294948 1153004,1294969 1151948,1294987 1150920,1294997 1150000,1295000" />
<polygon points="1150000,1305000 1150984,1304997 1152082,1304986 1153211,1304967 1154166,1304944 1155203,1304913 1156158,1304878 1157182,1304834 1158368,1304774 1159422,1304713 1160346,1304654 1161352,1304584 1162365,1304506 1163483,1304412 1164546,1304316 1165652,1304208 1166581,1304111 1167715,1303984 1168753,1303861 1169711,1303742 1170681,1303614 1171767,1303464 1172749,1303321 1173874,1303150 1174913,1302985 1175937,1302814 1176930,1302643 1177947,1302460 1179033,1302257 1179907,1302087 1181067,1301855 1182119,1301636 1183099,1301425 1184029,1301218 1185064,1300982 1186044,1300751 1187136,1300486 1188111,1300242 1189092,1299989 1190179,1299702 1191027,1299472 1192120,1299167 1193206,1298856 1194199,1298565 1195146,1298280 1196122,1297979 1197014,1297698 1198185,1297320 1199026,1297042 1200112,1296676 1201143,1296319 1202002,1296017 1203040,1295643 1204050,1295271 1205030,1294902 1205950,1294550 1206979,1294147 1207821,1293811 1208793,1293417 1209871,1292970 1210680,1292629 1211732,1292176 1212644,1291777 1213681,1291314 1214553,1290918 1215552,1290456 1216525,1289998 1217314,1289620 1218371,1289106 1219303,1288644 1220273,1288155 1221035,1287764 1221981,1287272 1222926,1286773 1223795,1286306 1224822,1285745 1225693,1285261 1226624,1284736 1227453,1284261 1228457,1283677 1229367,1283139 1230120,1282687 1231089,1282097 1231978,1281547 1232776,1281046 1233756,1280422 1234573,1279894 1235524,1279270 1236294,1278757 1237199,1278146 1238062,1277554 1238890,1276978 1239802,1276336 1240519,1275822 1241515,1275100 1242357,1274480 1243044,1273967 1244024,1273226 1244743,1272673 1245597,1272009 1246358,1271409 1247266,1270683 1248073,1270028 1248850,1269389 1249557,1268800 1250358,1268124 1251211,1267394 1252021,1266691 1252828,1265980 1253634,1265261 1254278,1264678 1255031,1263989 1255857,1263223 1256629,1262496 1257436,1261725 1258083,1261099 1258893,1260306 1259559,1259644 1260326,1258872 1261024,1258161 1261762,1257398 1262448,1256679 1263223,1255856 1263991,1255028 1264620,1254342 1265391,1253489 1266002,1252803 1266640,1252079 1267402,1251202 1268086,1250402 1268730,1249640 1269395,1248843 1270057,1248038 1270660,1247294 1271313,1246478 1271995,1245615 1272611,1244823 1273241,1244003 1273944,1243075 1274496,1242336 1275104,1241509 1275771,1240590 1276385,1239732 1276912,1238985 1277610,1237982 1278098,1237269 1278776,1236265 1279341,1235416 1279890,1234578 1280390,1233806 1281013,1232829 1281602,1231890 1282156,1230993 1282681,1230130 1283164,1229325 1283759,1228317 1284272,1227433 1284752,1226596 1285293,1225637 1285755,1224804 1286252,1223894 1286787,1222899 1287267,1221992 1287681,1221197 1288211,1220161 1288646,1219299 1289105,1218373 1289604,1217349 1290026,1216466 1290477,1215507 1290890,1214614 1291369,1213559 1291745,1212716 1292210,1211655 1292585,1210783 1292963,1209887 1293388,1208862 1293823,1207792 1294197,1206853 1294563,1205916 1294927,1204965 1295307,1203953 1295652,1203015 1295996,1202059 1296360,1201027 1296680,1200100 1297048,1199008 1297371,1198028 1297657,1197143 1298007,1196032 1298282,1195139 1298614,1194032 1298872,1193151 1299163,1192134 1299423,1191203 1299729,1190079 1299994,1189073 1300232,1188150 1300496,1187094 1300766,1185982 1300960,1185156 1301196,1184130 1301428,1183082 1301677,1181921 1301873,1180979 1302080,1179946 1302262,1179004 1302460,1177947 1302641,1176938 1302810,1175962 1302983,1174923 1303167,1173770 1303301,1172886 1303452,1171848 1303603,1170762 1303742,1169705 1303864,1168734 1303990,1167667 1304099,1166692 1304224,1165490 1304322,1164478 1304410,1163512 1304491,1162554 1304570,1161538 1304656,1160326 1304720,1159308 1304774,1158359 1304833,1157198 1304876,1156207 1304911,1155246 1304945,1154113 1304967,1153211 1304986,1152112 1304997,1151033 1305000,1150000 1311000,1150000 1310996,1151073 1310985,1152194 1310965,1153335 1310943,1154272 1310908,1155449 1310871,1156447 1310826,1157477 1310766,1158682 1310709,1159668 1310642,1160726 1310553,1161984 1310471,1163040 1310387,1164035 1310296,1165039 1310194,1166089 1310064,1167339 1309951,1168351 1309820,1169460 1309694,1170468 1309549,1171565 1309393,1172694 1309235,1173772 1309096,1174690 1308905,1175888 1308725,1176967 1308550,1177981 1308361,1179029 1308156,1180126 1307967,1181105 1307752,1182178 1307549,1183157 1307290,1184363 1307048,1185452 1306804,1186517 1306602,1187375 1306322,1188530 1306047,1189627 1305801,1190585 1305525,1191631 1305207,1192798 1304937,1193765 1304635,1194821 1304367,1195737 1304022,1196886 1303736,1197813 1303372,1198968 1303076,1199887 1302741,1200905 1302358,1202040 1302026,1203002 1301648,1204074 1301290,1205067 1300932,1206041 1300537,1207092 1300159,1208080 1299779,1209054 1299390,1210029 1298939,1211141 1298498,1212205 1298104,1213136 1297715,1214042 1297232,1215144 1296842,1216019 1296344,1217115 1295915,1218043 1295446,1219039 1295008,1219956 1294490,1221020 1294013,1221981 1293562,1222877 1293011,1223953 1292580,1224778 1292082,1225721 1291527,1226754 1291010,1227699 1290530,1228565 1289968,1229561 1289470,1230431 1288937,1231349 1288319,1232395 1287817,1233232 1287272,1234128 1286696,1235060 1286084,1236035 1285437,1237050 1284918,1237852 1284348,1238723 1283761,1239605 1283057,1240647 1282549,1241388 1281825,1242429 1281277,1243206 1280640,1244097 1279947,1245052 1279315,1245910 1278742,1246677 1278012,1247642 1277358,1248494 1276717,1249316 1276009,1250213 1275331,1251060 1274704,1251833 1274016,1252669 1273326,1253497 1272658,1254289 1271947,1255119 1271155,1256030 1270493,1256782 1269858,1257495 1269057,1258381 1268404,1259094 1267606,1259954 1266801,1260808 1266088,1261555 1265321,1262348 1264597,1263087 1263800,1263889 1263108,1264576 1262267,1265400 1261595,1266050 1260756,1266851 1259954,1267606 1259096,1268402 1258315,1269117 1257646,1269722 1256808,1270470 1255970,1271208 1255129,1271938 1254243,1272697 1253411,1273398 1252676,1274011 1251870,1274674 1251031,1275355 1250089,1276108 1249297,1276732 1248411,1277422 1247663,1277996 1246646,1278766 1245932,1279299 1245057,1279943 1244023,1280693 1243278,1281226 1242331,1281894 1241471,1282492 1240574,1283106 1239635,1283741 1238834,1284274 1237847,1284922 1236998,1285471 1235980,1286119 1235151,1286639 1234228,1287210 1233222,1287823 1232439,1288292 1231494,1288852 1230451,1289458 1229590,1289951 1228623,1290497 1227718,1291000 1226651,1291582 1225749,1292067 1224768,1292586 1223785,1293097 1222993,1293503 1221985,1294011 1221017,1294491 1219920,1295025 1219100,1295417 1218090,1295893 1217052,1296373 1216146,1296785 1215069,1297265 1214122,1297680 1213029,1298150 1212189,1298504 1211069,1298968 1210059,1299378 1209184,1299727 1208116,1300145 1207160,1300511 1206143,1300894 1205093,1301281 1204015,1301669 1203123,1301983 1202052,1302354 1200924,1302734 1200050,1303023 1198834,1303415 1197907,1303707 1196893,1304020 1195910,1304316 1194879,1304619 1193751,1304941 1192615,1305258 1191734,1305497 1190605,1305795 1189587,1306057 1188574,1306311 1187439,1306587 1186421,1306826 1185347,1307072 1184380,1307286 1183362,1307505 1182269,1307733 1181065,1307975 1180157,1308150 1179029,1308361 1177973,1308551 1176941,1308730 1175878,1308907 1174798,1309079 1173630,1309256 1172609,1309405 1171481,1309560 1170474,1309693 1169479,1309817 1168401,1309945 1167223,1310076 1166257,1310177 1165110,1310289 1164005,1310390 1162843,1310487 1161792,1310568 1160746,1310641 1159787,1310702 1158692,1310765 1157460,1310827 1156396,1310873 1155404,1310909 1154327,1310942 1153336,1310965 1152162,1310985 1151022,1310997 1150000,1311000" />
<polygon points="1289000,1150000 1289000,650000 1295000,650000 1295000,1150000" />
<polygon points="1305000,1150000 1305000,650000 1311000,650000 1311000,1150000" />
<polygon points="1289000,650000 1287898,649047 1286668,647983 1285403,646888 1284334,645963 1283172,644959 1282101,644032 1280953,643039 1279623,641888 1278441,640866 1277404,639969 1276274,638991 1275137,638008 1273880,636921 1272684,635886 1271441,634810 1270394,633905 1269116,632799 1267945,631786 1266864,630851 1265769,629904 1264541,628842 1263429,627879 1262155,626778 1260976,625758 1259813,624752 1258685,623776 1257527,622775 1256290,621704 1255293,620842 1253969,619696 1252765,618655 1251643,617684 1250575,616760 1249386,615732 1248259,614757 1247000,613668 1245874,612694 1244740,611712 1243481,610623 1242497,609772 1241225,608672 1239960,607578 1238802,606576 1237694,605618 1236550,604628 1235503,603722 1234125,602530 1233132,601671 1231849,600561 1230627,599504 1229607,598622 1228372,597553 1227165,596510 1225993,595496 1224890,594541 1223652,593471 1222637,592592 1221462,591576 1220155,590446 1219171,589595 1217889,588485 1216774,587521 1215503,586421 1214430,585493 1213196,584426 1211992,583384 1211013,582537 1209697,581398 1208532,580391 1207315,579338 1206355,578508 1205161,577475 1203965,576440 1202860,575484 1201549,574350 1200433,573385 1199235,572349 1198166,571424 1196865,570298 1195681,569274 1194697,568423 1193427,567324 1192256,566312 1191201,565399 1189899,564273 1188810,563330 1187536,562228 1186499,561332 1185276,560274 1184105,559260 1182975,558283 1181726,557202 1180738,556348 1179360,555156 1178189,554143 1177229,553312 1175853,552122 1174836,551243 1173626,550195 1172539,549255 1171238,548130 1170073,547122 1168947,546148 1167916,545256 1166742,544241 1165485,543153 1164284,542114 1163079,541072 1161869,540025 1160896,539184 1159754,538195 1158492,537104 1157304,536076 1156055,534995 1155046,534123 1153777,533025 1152725,532115 1151506,531061 1150390,530095 1149201,529067 1148088,528103 1146822,527008 1145557,525915 1144514,525012 1143227,523898 1142198,523008 1141117,522073 1139816,520948 1138637,519928 1137519,518961 1136358,517956 1135190,516947 1134117,516018 1132947,515006 1131715,513940 1130591,512968 1129433,511967 1128129,510838 1127096,509945 1125947,508951 1124675,507850 1123493,506828 1122469,505942 1121101,504758 1120132,503921 1118776,502748 1117634,501760 1116512,500789 1115481,499897 1114184,498775 1112943,497701 1111761,496679 1110631,495701 1109579,494791 1108268,493658 1107123,492667 1106043,491733 1104809,490666 1103743,489743 1102581,488738 1101316,487644 1100167,486649 1099163,485781 1097860,484654 1096778,483718 1095621,482717 1094345,481613 1093249,480665 1092063,479639 1090960,478685 1089662,477562 1088628,476668 1087331,475546 1086268,474627 1085179,473684 1083936,472609 1082643,471490 1081511,470511 1080384,469536 1079243,468549 1078032,467502 1076913,466534 1075775,465550 1074550,464489 1073452,463540 1072160,462422 1071005,461423 1069964,460523 1068659,459393 1067612,458488 1066318,457369 1065290,456479 1064105,455454 1063022,454518 1061718,453390 1060553,452381 1059486,451458 1058266,450403 1056984,449294 1056034,448472 1054856,447453 1053653,446413 1052323,445262 1051245,444330 1050066,443309 1048990,442379 1047787,441338 1046639,440345 1045529,439385 1044350,438365 1043042,437234 1042040,436367 1040866,435351 1039637,434288 1038443,433256 1037348,432308 1036144,431266 1035046,430317 1033692,429145 1032553,428160 1031467,427221 1030390,426289 1029249,425302 1027888,424125 1026745,423136 1025680,422215 1024379,421089 1023268,420128 1022191,419196 1020922,418098 1019911,417224 1018680,416159 1017472,415114 1016290,414092 1015185,413136 1014063,412165 1012699,410986 1011570,410009 1010404,409000 1009313,408056 1008209,407101 1006908,405976 1005851,405061 1004597,403977 1003554,403074 1002330,402016 1001221,401057 1000000,400000 1150000,400000 1150613,401057 1151169,402016 1151783,403074 1152306,403977 1152935,405061 1153466,405976 1154119,407101 1154672,408056 1155220,409000 1155805,410009 1156372,410986 1157056,412165 1157619,413136 1158173,414092 1158766,415114 1159372,416159 1159990,417224 1160497,418098 1161134,419196 1161674,420128 1162232,421089 1162885,422215 1163419,423136 1163992,424125 1164675,425302 1165247,426289 1165788,427221 1166333,428160 1166904,429145 1167584,430317 1168135,431266 1168739,432308 1169288,433256 1169887,434288 1170504,435351 1171093,436367 1171596,437234 1172252,438365 1172843,439385 1173400,440345 1173976,441338 1174580,442379 1175119,443309 1175711,444330 1176252,445262 1176919,446413 1177523,447453 1178114,448472 1178591,449294 1179234,450403 1179846,451458 1180381,452381 1180966,453390 1181620,454518 1182163,455454 1182758,456479 1183274,457369 1183923,458488 1184448,459393 1185103,460523 1185625,461423 1186205,462422 1186853,463540 1187404,464489 1188019,465550 1188590,466534 1189151,467502 1189759,468549 1190331,469536 1190897,470511 1191464,471490 1192113,472609 1192737,473684 1193283,474627 1193817,475546 1194468,476668 1194986,477562 1195637,478685 1196191,479639 1196786,480665 1197336,481613 1197976,482717 1198556,483718 1199099,484654 1199753,485781 1200257,486649 1200833,487644 1201468,488738 1202051,489743 1202586,490666 1203205,491733 1203747,492667 1204321,493658 1204979,494791 1205507,495701 1206074,496679 1206667,497701 1207290,498775 1207941,499897 1208458,500789 1209021,501760 1209594,502748 1210274,503921 1210760,504758 1211446,505942 1211960,506828 1212553,507850 1213191,508951 1213768,509945 1214286,510838 1214941,511967 1215521,512968 1216085,513940 1216704,515006 1217290,516018 1217829,516947 1218415,517956 1218998,518961 1219558,519928 1220150,520948 1220802,522073 1221345,523008 1221861,523898 1222507,525012 1223030,525915 1223665,527008 1224300,528103 1224859,529067 1225455,530095 1226015,531061 1226627,532115 1227154,533025 1227791,534123 1228297,534995 1228924,536076 1229520,537104 1230153,538195 1230727,539184 1231215,540025 1231822,541072 1232426,542114 1233029,543153 1233660,544241 1234248,545256 1234766,546148 1235331,547122 1235915,548130 1236568,549255 1237113,550195 1237721,551243 1238231,552122 1238921,553312 1239403,554143 1239990,555156 1240682,556348 1241177,557202 1241804,558283 1242371,559260 1242959,560274 1243572,561332 1244092,562228 1244731,563330 1245278,564273 1245931,565399 1246461,566312 1247048,567324 1247685,568423 1248179,569274 1248773,570298 1249426,571424 1249962,572349 1250563,573385 1251123,574350 1251781,575484 1252335,576440 1252936,577475 1253535,578508 1254016,579338 1254627,580391 1255211,581398 1255871,582537 1256363,583384 1256967,584426 1257586,585493 1258124,586421 1258762,587521 1259321,588485 1259965,589595 1260458,590446 1261114,591576 1261704,592592 1262213,593471 1262834,594541 1263387,595496 1263976,596510 1264581,597553 1265201,598622 1265712,599504 1266325,600561 1266969,601671 1267467,602530 1268159,603722 1268684,604628 1269258,605618 1269814,606576 1270395,607578 1271030,608672 1271668,609772 1272162,610623 1272793,611712 1273362,612694 1273927,613668 1274559,614757 1275125,615732 1275721,616760 1276257,617684 1276820,618655 1277424,619696 1278088,620842 1278588,621704 1279209,622775 1279790,623776 1280356,624752 1280939,625758 1281531,626778 1282170,627879 1282728,628842 1283344,629904 1283894,630851 1284436,631786 1285024,632799 1285665,633905 1286190,634810 1286814,635886 1287414,636921 1288045,638008 1288615,638991 1289182,639969 1289702,640866 1290295,641888 1290963,643039 1291539,644032 1292076,644959 1292659,645963 1293195,646888 1293830,647983 1294447,649047 1295000,650000" />
<polygon points="1305000,650000 1305553,649047 1306170,647983 1306805,646888 1307341,645963 1307924,644959 1308461,644032 1309037,643039 1309705,641888 1310298,640866 1310818,639969 1311385,638991 1311955,638008 1312586,636921 1313186,635886 1313810,634810 1314335,633905 1314976,632799 1315564,631786 1316106,630851 1316656,629904 1317272,628842 1317830,627879 1318469,626778 1319061,625758 1319644,624752 1320210,623776 1320791,622775 1321412,621704 1321912,620842 1322576,619696 1323180,618655 1323743,617684 1324279,616760 1324875,615732 1325441,614757 1326073,613668 1326638,612694 1327207,611712 1327838,610623 1328332,609772 1328970,608672 1329605,607578 1330186,606576 1330742,605618 1331316,604628 1331841,603722 1332533,602530 1333031,601671 1333675,600561 1334288,599504 1334799,598622 1335419,597553 1336024,596510 1336613,595496 1337166,594541 1337787,593471 1338296,592592 1338886,591576 1339542,590446 1340035,589595 1340679,588485 1341238,587521 1341876,586421 1342414,585493 1343033,584426 1343637,583384 1344129,582537 1344789,581398 1345373,580391 1345984,579338 1346465,578508 1347064,577475 1347665,576440 1348219,575484 1348877,574350 1349437,573385 1350038,572349 1350574,571424 1351227,570298 1351821,569274 1352315,568423 1352952,567324 1353539,566312 1354069,565399 1354722,564273 1355269,563330 1355908,562228 1356428,561332 1357041,560274 1357629,559260 1358196,558283 1358823,557202 1359318,556348 1360010,555156 1360597,554143 1361079,553312 1361769,552122 1362279,551243 1362887,550195 1363432,549255 1364085,548130 1364669,547122 1365234,546148 1365752,545256 1366340,544241 1366971,543153 1367574,542114 1368178,541072 1368785,540025 1369273,539184 1369847,538195 1370480,537104 1371076,536076 1371703,534995 1372209,534123 1372846,533025 1373373,532115 1373985,531061 1374545,530095 1375141,529067 1375700,528103 1376335,527008 1376970,525915 1377493,525012 1378139,523898 1378655,523008 1379198,522073 1379850,520948 1380442,519928 1381002,518961 1381585,517956 1382171,516947 1382710,516018 1383296,515006 1383915,513940 1384479,512968 1385059,511967 1385714,510838 1386232,509945 1386809,508951 1387447,507850 1388040,506828 1388554,505942 1389240,504758 1389726,503921 1390406,502748 1390979,501760 1391542,500789 1392059,499897 1392710,498775 1393333,497701 1393926,496679 1394493,495701 1395021,494791 1395679,493658 1396253,492667 1396795,491733 1397414,490666 1397949,489743 1398532,488738 1399167,487644 1399743,486649 1400247,485781 1400901,484654 1401444,483718 1402024,482717 1402664,481613 1403214,480665 1403809,479639 1404363,478685 1405014,477562 1405532,476668 1406183,475546 1406717,474627 1407263,473684 1407887,472609 1408536,471490 1409103,470511 1409669,469536 1410241,468549 1410849,467502 1411410,466534 1411981,465550 1412596,464489 1413147,463540 1413795,462422 1414375,461423 1414897,460523 1415552,459393 1416077,458488 1416726,457369 1417242,456479 1417837,455454 1418380,454518 1419034,453390 1419619,452381 1420154,451458 1420766,450403 1421409,449294 1421886,448472 1422477,447453 1423081,446413 1423748,445262 1424289,444330 1424881,443309 1425420,442379 1426024,441338 1426600,440345 1427157,439385 1427748,438365 1428404,437234 1428907,436367 1429496,435351 1430113,434288 1430712,433256 1431261,432308 1431865,431266 1432416,430317 1433096,429145 1433667,428160 1434212,427221 1434753,426289 1435325,425302 1436008,424125 1436581,423136 1437115,422215 1437768,421089 1438326,420128 1438866,419196 1439503,418098 1440010,417224 1440628,416159 1441234,415114 1441827,414092 1442381,413136 1442944,412165 1443628,410986 1444195,410009 1444780,409000 1445328,408056 1445881,407101 1446534,405976 1447065,405061 1447694,403977 1448217,403074 1448831,402016 1449387,401057 1450000,400000 1600000,400000 1598779,401057 1597670,402016 1596446,403074 1595403,403977 1594149,405061 1593092,405976 1591791,407101 1590687,408056 1589596,409000 1588430,410009 1587301,410986 1585937,412165 1584815,413136 1583710,414092 1582528,415114 1581320,416159 1580089,417224 1579078,418098 1577809,419196 1576732,420128 1575621,421089 1574320,422215 1573255,423136 1572112,424125 1570751,425302 1569610,426289 1568533,427221 1567447,428160 1566308,429145 1564954,430317 1563856,431266 1562652,432308 1561557,433256 1560363,434288 1559134,435351 1557960,436367 1556958,437234 1555650,438365 1554471,439385 1553361,440345 1552213,441338 1551010,442379 1549934,443309 1548755,444330 1547677,445262 1546347,446413 1545144,447453 1543966,448472 1543016,449294 1541734,450403 1540514,451458 1539447,452381 1538282,453390 1536978,454518 1535895,455454 1534710,456479 1533682,457369 1532388,458488 1531341,459393 1530036,460523 1528995,461423 1527840,462422 1526548,463540 1525450,464489 1524225,465550 1523087,466534 1521968,467502 1520757,468549 1519616,469536 1518489,470511 1517357,471490 1516064,472609 1514821,473684 1513732,474627 1512669,475546 1511372,476668 1510338,477562 1509040,478685 1507937,479639 1506751,480665 1505655,481613 1504379,482717 1503222,483718 1502140,484654 1500837,485781 1499833,486649 1498684,487644 1497419,488738 1496257,489743 1495191,490666 1493957,491733 1492877,492667 1491732,493658 1490421,494791 1489369,495701 1488239,496679 1487057,497701 1485816,498775 1484519,499897 1483488,500789 1482366,501760 1481224,502748 1479868,503921 1478899,504758 1477531,505942 1476507,506828 1475325,507850 1474053,508951 1472904,509945 1471871,510838 1470567,511967 1469409,512968 1468285,513940 1467053,515006 1465883,516018 1464810,516947 1463642,517956 1462481,518961 1461363,519928 1460184,520948 1458883,522073 1457802,523008 1456773,523898 1455486,525012 1454443,525915 1453178,527008 1451912,528103 1450799,529067 1449610,530095 1448494,531061 1447275,532115 1446223,533025 1444954,534123 1443945,534995 1442696,536076 1441508,537104 1440246,538195 1439104,539184 1438131,540025 1436921,541072 1435716,542114 1434515,543153 1433258,544241 1432084,545256 1431053,546148 1429927,547122 1428762,548130 1427461,549255 1426374,550195 1425164,551243 1424147,552122 1422771,553312 1421811,554143 1420640,555156 1419262,556348 1418274,557202 1417025,558283 1415895,559260 1414724,560274 1413501,561332 1412464,562228 1411190,563330 1410101,564273 1408799,565399 1407744,566312 1406573,567324 1405303,568423 1404319,569274 1403135,570298 1401834,571424 1400765,572349 1399567,573385 1398451,574350 1397140,575484 1396035,576440 1394839,577475 1393645,578508 1392685,579338 1391468,580391 1390303,581398 1388987,582537 1388008,583384 1386804,584426 1385570,585493 1384497,586421 1383226,587521 1382111,588485 1380829,589595 1379845,590446 1378538,591576 1377363,592592 1376348,593471 1375110,594541 1374007,595496 1372835,596510 1371628,597553 1370393,598622 1369373,599504 1368151,600561 1366868,601671 1365875,602530 1364497,603722 1363450,604628 1362306,605618 1361198,606576 1360040,607578 1358775,608672 1357503,609772 1356519,610623 1355260,611712 1354126,612694 1353000,613668 1351741,614757 1350614,615732 1349425,616760 1348357,617684 1347235,618655 1346031,619696 1344707,620842 1343710,621704 1342473,622775 1341315,623776 1340187,624752 1339024,625758 1337845,626778 1336571,627879 1335459,628842 1334231,629904 1333136,630851 1332055,631786 1330884,632799 1329606,633905 1328559,634810 1327316,635886 1326120,636921 1324863,638008 1323726,638991 1322596,639969 1321559,640866 1320377,641888 1319047,643039 1317899,644032 1316828,644959 1315666,645963 1314597,646888 1313332,647983 1312102,649047 1311000,650000" />
<polygon points="1000000,400000 1000000,150000 1150000,150000 1150000,400000" />
<polygon points="1450000,400000 1450000,150000 1600000,150000 1600000,400000" />
<polygon points="1000000,150000 1000000,5000 1600000,5000 1600000,150000" />
<polygon points="1000000,5000 1000009,4705 1000035,4409 1000079,4114 1000142,3818 1000234,3488 1000351,3159 1000496,2829 1000671,2499 1000885,2160 1001141,1820 1001288,1651 1001448,1481 1001625,1311 1001820,1142 1002001,999 1002202,856 1002426,714 1002680,571 1002976,428 1003335,285 1003553,214 1003814,143 1004158,71 1005000,0 1595000,0 1595842,71 1596186,143 1596447,214 1596665,285 1597024,428 1597320,571 1597574,714 1597798,856 1597999,999 1598180,1142 1598375,1311 1598552,1481 1598712,1651 1598859,1820 1599115,2160 1599329,2499 1599504,2829 1599649,3159 1599766,3488 1599858,3818 1599921,4114 1599965,4409 1599991,4705 1600000,5000" />
</g>
<g fill="red" >
<polygon points="680000,1320000 700000,1320000 700000,1280000 680000,1280000" />
<polygon points="721272,1320000 741272,1320000 741272,1280000 721272,1280000" />
<polygon points="762544,1320000 782544,1320000 782544,1280000 762544,1280000" />
<polygon points="803816,1320000 823816,1320000 823816,1280000 803816,1280000" />
<polygon points="845088,1320000 865088,1320000 865088,1280000 845088,1280000" />
<polygon points="886361,1320000 906361,1320000 906361,1280000 886361,1280000" />
<polygon points="927633,1320000 947633,1320000 947633,1280000 927633,1280000" />
<polygon points="968905,1320000 988905,1320000 988905,1280000 968905,1280000" />
<polygon points="1010177,1320000 1030177,1320000 1030177,1280000 1010177,1280000" />
<polygon points="1051449,1320000 1071449,1320000 1071449,1280000 1051449,1280000" />
<polygon points="1092721,1320000 1112721,1320000 1112721,1280000 1092721,1280000" />
<polygon points="1133993,1320000 1153993,1320000 1153993,1280000 1133993,1280000" />
<polygon points="1179875,1317653 1199325,1312994 1190008,1274094 1170558,1278753" />
<polygon points="1224301,1303230 1241754,1293462 1222218,1258557 1204765,1268325" />
<polygon points="1263137,1277279 1277279,1263137 1248995,1234853 1234853,1248995" />
<polygon points="1293462,1241754 1303230,1224301 1268325,1204765 1258557,1222218" />
<polygon points="1312994,1199325 1317653,1179875 1278753,1170558 1274094,1190008" />
<polygon points="1320000,1153993 1320000,1133993 1280000,1133993 1280000,1153993" />
<polygon points="1320000,1112721 1320000,1092721 1280000,1092721 1280000,1112721" />
<polygon points="1320000,1071449 1320000,1051449 1280000,1051449 1280000,1071449" />
<polygon points="1320000,1030177 1320000,1010177 1280000,1010177 1280000,1030177" />
<polygon points="1320000,988905 1320000,968905 1280000,968905 1280000,988905" />
<polygon points="1320000,947633 1320000,927633 1280000,927633 1280000,947633" />
<polygon points="1320000,906361 1320000,886361 1280000,886361 1280000,906361" />
<polygon points="1320000,865088 1320000,845088 1280000,845088 1280000,865088" />
<polygon points="1320000,823816 1320000,803816 1280000,803816 1280000,823816" />
<polygon points="1320000,782544 1320000,762544 1280000,762544 1280000,782544" />
<polygon points="1320000,741272 1320000,721272 1280000,721272 1280000,741272" />
<polygon points="1320000,700000 1320000,680000 1280000,680000 1280000,700000" />
</g>
</svg>
