<?xml version="1.0" encoding="UTF-8" ?>
<svg xmlns="http://www.w3.org/2000/svg" version="1.1" viewBox="-6.735557395310443e-13 0 697000 183000"  >
<g fill="#96ceb4" >
<polygon points="0,80500 100000,80500 100000,86500 0,86500" />
<polygon points="0,96500 100000,96500 100000,102500 0,102500" />
</g>
<g fill="#ffeead" >
<polygon points="212000,139000 132000,139000 132000,44000 212000,44000 212000,0 88000,0 88000,80500 100000,80500 100000,12000 200000,12000 200000,32000 120000,32000 120000,151000 200000,151000 200000,171000 100000,171000 100000,102500 88000,102500 88000,183000 212000,183000" />
</g>
<g fill="#ffcc5c" >
<polygon points="677000,113500 677000,109500 675000,109500 671000,109500 671000,105500 667000,105500 667000,104000 167000,104000 167000,79000 667000,79000 667000,77500 671000,77500 671000,73500 675000,73500 675000,81500 667000,81500 667000,101500 675000,101500 675000,109500 677000,109500 677000,105500 681000,105500 681000,109500 697000,109500 697000,73500 681000,73500 681000,77500 677000,77500 677000,69500 697000,69500 697000,49000 137000,49000 137000,134000 697000,134000 697000,113500" />
</g>
</svg>
