<?xml version="1.0" encoding="UTF-8" ?>
<svg xmlns="http://www.w3.org/2000/svg" version="1.1" viewBox="-14142.135623730952 -0.0 28284.2712474619 15000.0"  width="28284.2712474619" height="15000.0" >
<polygon points="14142.135623730948,9142.135623730952 14028.343825055228,9255.019099462294 13913.651012069726,9366.987001954552 13798.064551279494,9478.032139718578 13681.59186658692,9588.147380532686 13564.240438814892,9697.325651900714 13446.017805226333,9805.559941506312 13326.931559040075,9912.843297663314 13206.989348943183,10019.168829762226 13086.198878599684,10124.52970871281 12964.567906155768,10228.919167382688 12842.104243741504,10332.330501032007 12718.815756969103,10434.757067744036 12594.710364427669,10536.192288851804 12469.796037174667,10636.629649360599 12344.080798223911,10736.062698366439 12217.572722030283,10834.485049470397 12090.279933971111,10931.890381188778 11962.210609824318,11028.272437359135 11833.372975243263,11123.625027542112 11703.77530522847,11217.942027419022 11573.425923596113,11311.217379185202 11442.33320244339,11403.445091939118 11310.50556161082,11494.619242067116 11177.951468141426,11584.733973623905 11044.679435736947,11673.783498708666 10910.69802421097,11761.762097836816 10776.015838939202,11848.664120307327 10640.641530306728,11934.48398456568 10504.583793152424,12019.216178562381 10367.8513662105,12102.85526010692 10230.453031549232,12185.395857217401 10092.397614006913,12266.832668465504 9953.693980625023,12347.160463317025 9814.351040078758,12426.374082467788 9674.37774210479,12504.468438175074 9533.783076926506,12581.438514584343 9392.576074676512,12657.279368051419 9250.7658048167,12731.986127460004 9108.361375555714,12805.553994534534 8965.371933263936,12877.978244148395 8821.806661886054,12949.254224627353 8677.67478235116,13019.377358048388 8532.985551980557,13088.34314053366 8387.748263893134,13156.147142539843 8241.972246408508,13222.78500914259 8095.6668624478725,13288.252460316251 7948.841508932653,13352.54529120877 7801.505616180934,13415.659372411767 7653.6686473017935,13477.590650225735 7505.340097587481,13538.335146920439 7356.529493903571,13597.888960990353 7207.246394077067,13656.248267405295 7057.500386282504,13713.409317856069 6907.301088426148,13769.368440995207 6756.658147528229,13824.122042672812 6605.58123910334,13877.666606167353 6454.0800665389925,13929.99869241158 6302.164360472412,13981.114940213374 6149.843878165509,14031.012066471667 5997.128402878228,14079.686866387277 5844.027743240183,14127.136213668762 5690.551732620645,14173.35706073321 5536.710228496984,14218.346438901988 5382.513111821535,14262.101458591409 5227.97028638696,14304.619309498314 5073.091678190142,14345.897260780588 4917.88723479469,14385.932661232566 4762.36692469196,14424.72293945528 4606.540736660869,14462.265604021646 4450.418679126285,14498.558243636473 4294.010779516228,14533.598527291339 4137.327083617814,14567.38420441431 3980.3776549320437,14599.913105014466 3823.172574027446,14631.18313982131 3665.721937892591,14661.19230041894 3508.0358592876296,14689.938659375051 3350.1244660947254,14717.420370364722 3191.997900667583,14743.635668289002 3033.6663191800144,14768.582869388303 2875.1398909736286,14792.260371350523 2716.4287979046912,14814.666653413937 2557.5432336901163,14835.800276464923 2398.4934032528054,14855.65988313037 2239.2895220661544,14874.244197864855 2079.941815497955,14891.55202703256 1920.460518153634,14907.582258983964 1760.8558732189056,14922.333864127226 1601.138131801863,14935.805894994317 1441.3175522745898,14947.997486301858 1281.40439961426,14958.907855006728 1121.4089447438334,14968.536300356334 961.3414638724138,14976.88220393362 801.212237835183,14983.945029696792 641.0315514331031,14989.724324013758 480.8096927723352,14994.219715691237 320.55695260347136,14997.430915998628 160.28362366055114,14999.357718686526 -2.328066879653148e-12,15000.0 -160.2836236605558,14999.357718686526 -320.55695260347596,14997.430915998628 -480.8096927723399,14994.219715691237 -641.0315514331078,14989.724324013758 -801.2122378351831,14983.945029696792 -961.3414638724186,14976.88220393362 -1121.408944743838,14968.536300356334 -1281.4043996142645,14958.907855006728 -1441.3175522745942,14947.997486301858 -1601.1381318018673,14935.805894994317 -1760.8558732189056,14922.333864127226 -1920.4605181536388,14907.582258983964 -2079.94181549796,14891.55202703256 -2239.2895220661594,14874.244197864855 -2398.493403252811,14855.65988313037 -2557.5432336901213,14835.800276464923 -2716.428797904696,14814.666653413937 -2875.139890973637,14792.260371350523 -3033.666319180019,14768.582869388303 -3191.9979006675876,14743.635668289002 -3350.12446609473,14717.420370364722 -3508.0358592876382,14689.938659375051 -3665.7219378925956,14661.19230041894 -3823.1725740274505,14631.18313982131 -3980.3776549320473,14599.913105014466 -4137.327083617819,14567.38420441431 -4294.010779516232,14533.598527291339 -4450.41867912629,14498.558243636473 -4606.540736660873,14462.265604021646 -4762.366924691964,14424.72293945528 -4917.887234794694,14385.932661232566 -5073.091678190148,14345.897260780588 -5227.970286386964,14304.619309498314 -5382.513111821536,14262.101458591409 -5536.71022849699,14218.346438901995 -5690.551732620651,14173.357060733217 -5844.027743240193,14127.136213668762 -5997.128402878234,14079.686866387277 -6149.843878165514,14031.012066471667 -6302.164360472417,13981.114940213374 -6454.080066539002,13929.99869241158 -6605.581239103343,13877.666606167353 -6756.658147528234,13824.122042672812 -6907.301088426154,13769.368440995207 -7057.500386282512,13713.409317856069 -7207.246394077072,13656.248267405295 -7356.529493903577,13597.888960990353 -7505.340097587485,13538.335146920439 -7653.668647301798,13477.590650225735 -7801.50561618094,13415.659372411767 -7948.841508932657,13352.545291208777 -8095.666862447876,13288.252460316251 -8241.972246408508,13222.78500914259 -8387.748263893138,13156.147142539843 -8532.985551980557,13088.34314053366 -8677.674782351165,13019.377358048388 -8821.806661886058,12949.254224627353 -8965.371933263941,12877.978244148395 -9108.361375555714,12805.55399453454 -9250.765804816705,12731.986127460004 -9392.576074676519,12657.279368051419 -9533.783076926515,12581.438514584343 -9674.377742104796,12504.468438175074 -9814.351040078762,12426.374082467788 -9953.693980625028,12347.160463317025 -10092.397614006917,12266.832668465504 -10230.453031549236,12185.395857217409 -10367.851366210505,12102.855260106928 -10504.583793152424,12019.216178562381 -10640.641530306732,11934.483984565688 -10776.015838939213,11848.664120307327 -10910.698024210977,11761.762097836816 -11044.679435736953,11673.783498708666 -11177.95146814143,11584.733973623905 -11310.505561610824,11494.619242067116 -11442.333202443393,11403.445091939118 -11573.425923596118,11311.21737918521 -11703.775305228472,11217.942027419027 -11833.372975243268,11123.625027542112 -11962.210609824324,11028.272437359135 -12090.279933971116,10931.890381188778 -12217.572722030289,10834.485049470397 -12344.080798223913,10736.062698366444 -12469.796037174672,10636.6296493606 -12594.710364427678,10536.192288851802 -12718.815756969105,10434.75706774404 -12842.104243741513,10332.330501032005 -12964.567906155768,10228.919167382692 -13086.198878599691,10124.52970871281 -13206.989348943187,10019.168829762231 -13326.931559040082,9912.843297663318 -13446.017805226335,9805.559941506315 -13564.240438814897,9697.325651900715 -13681.591866586927,9588.147380532686 -13798.064551279502,9478.032139718576 -13913.651012069731,9366.987001954554 -14028.343825055237,9255.019099462292 -14142.135623730952,9142.135623730952 -5000.000000000002,1.7763568394002505e-12 5000.0,0.0" fill="#ffeead" />
</svg>
