<?xml version="1.0" encoding="UTF-8" ?>
<svg xmlns="http://www.w3.org/2000/svg" version="1.1" viewBox="-15539.503755377875 -0.0 31079.00751075575 16000.0"  width="31079.00751075575" height="16000.0" >
<polygon points="-14142.13562373095,9142.135623730952 -14028.343825055234,9255.01909946229 -13913.651012069728,9366.987001954552 -13798.064551279498,9478.032139718574 -13681.591866586923,9588.147380532684 -13564.240438814893,9697.325651900714 -13446.017805226338,9805.55994150631 -13326.931559040078,9912.843297663316 -13206.989348943183,10019.16882976223 -13086.198878599687,10124.52970871281 -12964.567906155764,10228.91916738269 -12842.104243741509,10332.330501032004 -12718.815756969108,10434.757067744033 -12594.710364427669,10536.192288851804 -12469.796037174669,10636.629649360599 -12344.08079822391,10736.062698366442 -12217.572722030285,10834.485049470395 -12090.279933971113,10931.890381188776 -11962.21060982432,11028.272437359132 -11833.372975243265,11123.625027542112 -11703.775305228475,11217.942027419022 -11573.425923596116,11311.217379185206 -11442.33320244339,11403.445091939118 -11310.50556161082,11494.619242067112 -11177.951468141426,11584.733973623905 -11044.679435736949,11673.783498708666 -10910.698024210973,11761.762097836816 -10776.015838939209,11848.664120307323 -10640.641530306728,11934.483984565684 -10504.58379315243,12019.216178562374 -10367.85136621049,12102.855260106928 -10230.45303154924,12185.395857217401 -10092.397614006906,12266.832668465508 -9953.693980625025,12347.160463317021 -9814.351040078758,12426.374082467784 -9674.377742104793,12504.468438175074 -9533.783076926504,12581.438514584344 -9392.576074676515,12657.279368051419 -9250.765804816701,12731.98612746 -9108.361375555718,12805.553994534534 -8965.371933263938,12877.978244148391 -8821.806661886047,12949.254224627357 -8677.674782351161,13019.377358048385 -8532.985551980553,13088.34314053366 -8387.748263893134,13156.147142539843 -8241.97224640851,13222.785009142588 -8095.6668624478725,13288.252460316251 -7948.8415089326545,13352.545291208773 -7801.505616180936,13415.659372411767 -7653.668647301794,13477.590650225735 -7505.340097587482,13538.335146920435 -7356.529493903573,13597.888960990353 -7207.246394077064,13656.248267405295 -7057.500386282509,13713.409317856065 -6907.30108842615,13769.368440995207 -6756.65814752823,13824.122042672812 -6605.581239103344,13877.66660616735 -6454.080066538998,13929.998692411576 -6302.164360472413,13981.114940213374 -6149.84387816551,14031.012066471667 -5997.128402878234,14079.686866387277 -5844.02774324018,14127.136213668766 -5690.551732620647,14173.357060733213 -5536.7102284969815,14218.346438901992 -5382.513111821537,14262.101458591405 -5227.970286386956,14304.619309498314 -5073.091678190144,14345.897260780588 -4917.887234794691,14385.932661232562 -4762.366924691961,14424.722939455276 -4606.54073666087,14462.265604021643 -4450.418679126286,14498.558243636473 -4294.0107795162285,14533.598527291339 -4137.327083617812,14567.384204414306 -3980.3776549320482,14599.913105014462 -3823.172574027443,14631.183139821307 -3665.7219378925965,14661.19230041894 -3508.035859287631,14689.938659375048 -3350.1244660947264,14717.420370364718 -3191.997900667588,14743.635668289002 -3033.6663191800153,14768.582869388303 -2875.139890973629,14792.26037135052 -2716.4287979046876,14814.666653413933 -2557.5432336901176,14835.800276464923 -2398.493403252803,14855.65988313037 -2239.2895220661558,14874.244197864851 -2079.9418154979517,14891.552027032556 -1920.4605181536308,14907.582258983964 -1760.855873218902,14922.333864127226 -1601.138131801864,14935.805894994313 -1441.3175522745908,14947.997486301854 -1281.4043996142566,14958.907855006728 -1121.4089447438344,14968.536300356334 -961.341463872415,14976.882203933617 -801.212237835184,14983.945029696792 -641.0315514331041,14989.724324013758 -480.8096927723408,14994.219715691237 -320.5569526034724,14997.430915998624 -160.2836236605567,14999.357718686526 1.2246467991473533e-12,15000.0 160.28362366055916,14999.357718686526 320.5569526034793,14997.430915998624 480.8096927723432,14994.219715691237 641.0315514331066,14989.724324013758 801.2122378351866,14983.945029696792 961.3414638724174,14976.882203933617 1121.4089447438369,14968.536300356334 1281.404399614259,14958.907855006728 1441.3175522745978,14947.997486301854 1601.1381318018664,14935.805894994313 1760.855873218909,14922.333864127226 1920.4605181536376,14907.582258983964 2079.9418154979585,14891.552027032556 2239.289522066158,14874.244197864851 2398.493403252809,14855.65988313037 2557.54323369012,14835.800276464923 2716.4287979046903,14814.666653413933 2875.1398909736367,14792.260371350516 3033.6663191800135,14768.582869388307 3191.997900667591,14743.635668289002 3350.1244660947245,14717.420370364718 3508.0358592876373,14689.938659375048 3665.721937892599,14661.192300418936 3823.1725740274496,14631.183139821307 3980.3776549320514,14599.913105014462 4137.327083617818,14567.384204414306 4294.010779516231,14533.598527291339 4450.418679126288,14498.558243636473 4606.540736660877,14462.265604021643 4762.3669246919635,14424.722939455276 4917.8872347946935,14385.932661232562 5073.091678190146,14345.897260780588 5227.970286386963,14304.61930949831 5382.513111821538,14262.101458591405 5536.710228496988,14218.346438901988 5690.551732620649,14173.35706073321 5844.027743240186,14127.136213668762 5997.128402878232,14079.686866387277 6149.843878165509,14031.012066471667 6302.164360472416,13981.114940213374 6454.080066539,13929.998692411576 6605.581239103343,13877.666606167353 6756.658147528237,13824.122042672809 6907.301088426157,13769.368440995207 7057.500386282511,13713.409317856065 7207.24639407707,13656.248267405295 7356.529493903575,13597.888960990353 7505.340097587484,13538.335146920435 7653.668647301797,13477.590650225735 7801.505616180938,13415.659372411767 7948.841508932655,13352.54529120877 8095.666862447876,13288.252460316251 8241.972246408512,13222.785009142588 8387.748263893136,13156.14714253984 8532.98555198056,13088.34314053366 8677.674782351163,13019.377358048385 8821.806661886054,12949.254224627353 8965.37193326394,12877.978244148391 9108.361375555718,12805.553994534534 9250.765804816703,12731.98612746 9392.576074676512,12657.279368051419 9533.78307692651,12581.438514584343 9674.377742104794,12504.468438175074 9814.351040078762,12426.374082467784 9953.69398062503,12347.160463317017 10092.397614006917,12266.832668465504 10230.453031549236,12185.395857217401 10367.851366210503,12102.85526010692 10504.583793152427,12019.216178562378 10640.64153030673,11934.48398456568 10776.015838939205,11848.664120307323 10910.698024210975,11761.762097836812 11044.679435736949,11673.783498708666 11177.951468141431,11584.733973623901 11310.505561610824,11494.619242067112 11442.333202443393,11403.445091939118 11573.425923596116,11311.217379185202 11703.775305228473,11217.942027419022 11833.372975243266,11123.625027542112 11962.21060982432,11028.272437359132 12090.279933971118,10931.890381188774 12217.572722030285,10834.485049470395 12344.080798223915,10736.062698366437 12469.79603717467,10636.629649360597 12594.710364427672,10536.192288851802 12718.815756969103,10434.757067744034 12842.104243741509,10332.330501032004 12964.567906155768,10228.919167382688 13086.198878599687,10124.529708712807 13206.989348943187,10019.168829762224 13326.931559040078,9912.843297663312 13446.017805226336,9805.55994150631 13564.240438814895,9697.32565190071 13681.591866586923,9588.147380532684 13798.064551279496,9478.032139718578 13913.651012069728,9366.987001954552 14028.343825055232,9255.019099462292 14142.135623730952,9142.13562373095 5000.0,0.0 6414.213562373095,0.0 15539.503755377875,9125.290193004776 15418.873748701699,9256.869653665126 15297.129640884461,9387.418974575463 15174.280228628937,9516.928722806382 15050.334388502417,9645.389540543523 14925.301076295325,9772.792145763697 14799.18932637412,9899.127332905586 14672.008251028508,10024.385973534872 14543.767039813016,10148.559017003849 14414.474958883018,10271.637491105348 14284.141350325177,10393.61250272107 14152.775631482447,10514.475238464132 14020.387294273603,10634.216965315893 13886.985904507408,10752.829031256973 13752.581101191414,10870.302865892407 13617.182595835502,10986.629981070893 13480.80017175016,11101.801971498124 13343.443683339598,11215.81051534411 13205.12305538969,11328.647374844482 13065.848282350875,11440.304396895719 12925.629427615982,11550.77351364424 12784.476622793101,11660.046743069379 12642.40006697353,11768.116189560107 12499.410025994799,11874.97404448554 12355.516831698942,11980.612586759175 12210.730881185938,12085.024183396761 12065.06263606247,12188.201290067827 11918.522621686016,12290.136451640823 11771.121426404332,12390.82230272177 11622.869700790377,12490.251568186462 11473.77815687276,12588.417063706145 11323.857567361723,12685.311696266614 11173.118764870764,12780.928464680714 11021.572641133904,12875.260460094243 10869.230146218726,12968.300866485122 10716.102287735119,13060.042961155936 10562.20013003997,13150.48011521964 10407.534793437677,13239.60579407856 10252.117453376637,13327.413557896545 10095.959339641773,13413.897062064294 9939.07173554311,13499.050057657776 9781.465977100477,13582.866391889755 9623.153452224451,13665.340008554374 9464.145599893489,13746.46494846473 9304.453909327396,13826.235349883476 9144.089919157183,13904.64544894635 8983.065216591303,13981.689580078675 8821.391436578451,14057.362176404695 8659.08026096685,14131.657770149828 8496.14341766015,14204.570993035748 8332.592679770067,14276.096576668273 8168.4398647656735,14346.229352918022 8003.696833619536,14414.964254293867 7838.375489950685,14482.29631430906 7672.487779164511,14548.220667840109 7506.045687589647,14612.73255147831 7339.061241611882,14675.827303873917 7171.546506805189,14737.500366072962 7003.513587059921,14797.747281846665 6834.974623708229,14856.563698013424 6665.941794646792,14913.945364753343 6496.427313456886,14969.888135915318 6326.443428521893,15024.38796931662 6156.002422142265,15077.440927034964 5985.116609648089,15129.043175693041 5813.798338509215,15179.190986735506 5642.059987443077,15227.880736698391 5469.913965520275,15275.108907470909 5297.37271126794,15320.872086549674 5124.448691770983,15365.166967285259 4951.154401771277,15407.990349121124 4777.502362764832,15449.339137824878 4603.5051220970645,15489.210345711865 4429.175252056162,15527.601091861008 4254.525348964693,15564.508602323005 4079.5680322693925,15599.930210320754 3904.31594362942,15633.863356442027 3728.7817460028227,15666.305588824436 3552.9781227316894,15697.25456333255 3376.9177766255893,15726.708043727303 3200.613429043797,15754.66390182757 3024.0778189760726,15781.120117663939 2847.3237021222058,15806.074779624656 2670.3638499703397,15829.526084593752 2493.211048874157,15851.472338081354 2315.8780991290187,15871.911954346075 2138.3778140470085,15890.843456509636 1960.723019031168,15908.265476663559 1782.926550648746,15924.176755968005 1605.0012557037096,15938.576144742732 1426.9599903084625,15951.462602550184 1248.8156189549359,15962.835198270635 1070.5810135850568,15972.693110169497 892.2690526606581,15981.035625956696 713.8926202329637,15987.862142838107 535.4646050116212,15993.172167559142 356.99789943344587,15996.965316440377 178.50539873082317,15999.24131540528 -3.3770575643209367e-12,16000.0 -178.5053987308253,15999.24131540528 -356.99789943344337,15996.965316440377 -535.4646050116233,15993.172167559142 -713.8926202329611,15987.862142838107 -892.2690526606555,15981.035625956696 -1070.5810135850545,15972.693110169497 -1248.815618954938,15962.835198270635 -1426.959990308469,15951.462602550184 -1605.0012557037164,15938.576144742732 -1782.9265506487436,15924.176755968005 -1960.7230190311654,15908.265476663559 -2138.3778140470017,15890.84345650964 -2315.8780991290164,15871.911954346075 -2493.211048874163,15851.472338081354 -2670.3638499703325,15829.526084593752 -2847.3237021222076,15806.074779624656 -3024.0778189760795,15781.120117663939 -3200.613429043794,15754.663901827573 -3376.917776625587,15726.708043727303 -3552.978122731692,15697.25456333255 -3728.7817460028255,15666.305588824436 -3904.315943629417,15633.863356442027 -4079.568032269399,15599.93021032075 -4254.525348964695,15564.508602323001 -4429.175252056164,15527.601091861005 -4603.505122097057,15489.210345711865 -4777.502362764829,15449.339137824882 -4951.154401771275,15407.990349121124 -5124.448691770985,15365.166967285259 -5297.372711267943,15320.872086549674 -5469.9139655202825,15275.108907470909 -5642.0599874430745,15227.880736698391 -5813.798338509217,15179.190986735506 -5985.116609648092,15129.043175693041 -6156.0024221422655,15077.440927034964 -6326.443428521891,15024.38796931662 -6496.427313456878,14969.888135915318 -6665.941794646793,14913.94536475334 -6834.974623708226,14856.563698013424 -7003.513587059917,14797.747281846669 -7171.546506805187,14737.500366072962 -7339.061241611884,14675.827303873917 -7506.045687589644,14612.73255147831 -7672.487779164513,14548.220667840109 -7838.375489950686,14482.296314309056 -8003.696833619529,14414.96425429387 -8168.43986476567,14346.229352918022 -8332.592679770072,14276.096576668273 -8496.143417660147,14204.570993035748 -8659.080260966848,14131.657770149828 -8821.391436578453,14057.362176404695 -8983.065216591303,13981.689580078675 -9144.08991915718,13904.64544894635 -9304.453909327398,13826.235349883473 -9464.145599893489,13746.464948464727 -9623.153452224453,13665.340008554374 -9781.465977100466,13582.866391889758 -9939.071735543108,13499.050057657776 -10095.959339641775,13413.897062064294 -10252.117453376639,13327.413557896545 -10407.53479343768,13239.60579407856 -10562.200130039972,13150.48011521964 -10716.10228773512,13060.042961155936 -10869.230146218728,12968.300866485122 -11021.572641133902,12875.260460094243 -11173.118764870767,12780.92846468071 -11323.857567361723,12685.31169626661 -11473.778156872755,12588.417063706152 -11622.869700790377,12490.251568186462 -11771.121426404334,12390.822302721766 -11918.522621686017,12290.136451640823 -12065.062636062465,12188.201290067831 -12210.73088118594,12085.024183396754 -12355.516831698938,11980.612586759178 -12499.410025994806,11874.974044485536 -12642.400066973525,11768.116189560107 -12784.476622793105,11660.046743069377 -12925.629427615984,11550.77351364424 -13065.84828235087,11440.304396895723 -13205.123055389684,11328.647374844486 -13343.443683339596,11215.810515344114 -13480.800171750157,11101.801971498126 -13617.182595835498,10986.629981070895 -13752.581101191421,10870.302865892401 -13886.985904507406,10752.829031256975 -14020.387294273607,10634.216965315887 -14152.775631482451,10514.475238464127 -14284.141350325175,10393.612502721073 -14414.474958883015,10271.63749110535 -14543.767039813014,10148.559017003849 -14672.008251028505,10024.385973534872 -14799.18932637412,9899.127332905586 -14925.301076295325,9772.792145763698 -15050.334388502417,9645.389540543523 -15174.280228628944,9516.928722806375 -15297.129640884461,9387.418974575463 -15418.873748701699,9256.86965366513 -15539.503755377875,9125.290193004776 -6414.213562373095,-0.0 -5000.0,-0.0" fill="#ffeead" />
</svg>
