<?xml version="1.0" encoding="UTF-8" ?>
<svg xmlns="http://www.w3.org/2000/svg" version="1.1" viewBox="125.00000000000001 0 186000 95125"  >
<g fill="#96ceb4" >
<polygon points="125,1000 1125,1000 1125,0 125,0" />
<polygon points="5125,1000 6125,1000 6125,0 5125,0" />
<polygon points="125,2250 1125,2250 1125,1250 125,1250" />
<polygon points="5125,2250 6125,2250 6125,1250 5125,1250" />
<polygon points="125,3500 1125,3500 1125,2500 125,2500" />
<polygon points="5125,3500 6125,3500 6125,2500 5125,2500" />
<polygon points="125,4750 1125,4750 1125,3750 125,3750" />
<polygon points="1375,4750 2375,4750 2375,3750 1375,3750" />
<polygon points="2625,4750 3625,4750 3625,3750 2625,3750" />
<polygon points="3875,4750 4875,4750 4875,3750 3875,3750" />
<polygon points="5125,4750 6125,4750 6125,3750 5125,3750" />
<polygon points="125,6000 1125,6000 1125,5000 125,5000" />
<polygon points="5125,6000 6125,6000 6125,5000 5125,5000" />
<polygon points="125,7250 1125,7250 1125,6250 125,6250" />
<polygon points="5125,7250 6125,7250 6125,6250 5125,6250" />
<polygon points="125,8500 1125,8500 1125,7500 125,7500" />
<polygon points="5125,8500 6125,8500 6125,7500 5125,7500" />
<polygon points="7625,3500 8625,3500 8625,2500 7625,2500" />
<polygon points="8875,3500 9875,3500 9875,2500 8875,2500" />
<polygon points="10125,3500 11125,3500 11125,2500 10125,2500" />
<polygon points="11375,3500 12375,3500 12375,2500 11375,2500" />
<polygon points="12625,3500 13625,3500 13625,2500 12625,2500" />
<polygon points="7625,6000 8625,6000 8625,5000 7625,5000" />
<polygon points="8875,6000 9875,6000 9875,5000 8875,5000" />
<polygon points="10125,6000 11125,6000 11125,5000 10125,5000" />
<polygon points="11375,6000 12375,6000 12375,5000 11375,5000" />
<polygon points="12625,6000 13625,6000 13625,5000 12625,5000" />
<polygon points="16375,1000 17375,1000 17375,0 16375,0" />
<polygon points="15125,2250 16125,2250 16125,1250 15125,1250" />
<polygon points="16375,2250 17375,2250 17375,1250 16375,1250" />
<polygon points="17625,2250 18625,2250 18625,1250 17625,1250" />
<polygon points="18875,2250 19875,2250 19875,1250 18875,1250" />
<polygon points="16375,3500 17375,3500 17375,2500 16375,2500" />
<polygon points="16375,4750 17375,4750 17375,3750 16375,3750" />
<polygon points="18875,4750 19875,4750 19875,3750 18875,3750" />
<polygon points="16375,6000 17375,6000 17375,5000 16375,5000" />
<polygon points="17625,6000 18625,6000 18625,5000 17625,5000" />
<polygon points="20125,6000 21125,6000 21125,5000 20125,5000" />
<polygon points="16375,7250 17375,7250 17375,6250 16375,6250" />
<polygon points="20125,7250 21125,7250 21125,6250 20125,6250" />
<polygon points="16375,8500 17375,8500 17375,7500 16375,7500" />
<polygon points="20125,8500 21125,8500 21125,7500 20125,7500" />
<polygon points="23875,3500 24875,3500 24875,2500 23875,2500" />
<polygon points="26375,3500 27375,3500 27375,2500 26375,2500" />
<polygon points="22625,4750 23625,4750 23625,3750 22625,3750" />
<polygon points="27625,4750 28625,4750 28625,3750 27625,3750" />
<polygon points="22625,6000 23625,6000 23625,5000 22625,5000" />
<polygon points="25125,6000 26125,6000 26125,5000 25125,5000" />
<polygon points="27625,6000 28625,6000 28625,5000 27625,5000" />
<polygon points="22625,7250 23625,7250 23625,6250 22625,6250" />
<polygon points="25125,7250 26125,7250 26125,6250 25125,6250" />
<polygon points="27625,7250 28625,7250 28625,6250 27625,6250" />
<polygon points="23875,8500 24875,8500 24875,7500 23875,7500" />
<polygon points="26375,8500 27375,8500 27375,7500 26375,7500" />
<polygon points="31375,3500 32375,3500 32375,2500 31375,2500" />
<polygon points="32625,3500 33625,3500 33625,2500 32625,2500" />
<polygon points="33875,3500 34875,3500 34875,2500 33875,2500" />
<polygon points="35125,3500 36125,3500 36125,2500 35125,2500" />
<polygon points="30125,4750 31125,4750 31125,3750 30125,3750" />
<polygon points="32625,4750 33625,4750 33625,3750 32625,3750" />
<polygon points="30125,6000 31125,6000 31125,5000 30125,5000" />
<polygon points="33875,6000 34875,6000 34875,5000 33875,5000" />
<polygon points="30125,7250 31125,7250 31125,6250 30125,6250" />
<polygon points="35125,7250 36125,7250 36125,6250 35125,6250" />
<polygon points="31375,8500 32375,8500 32375,7500 31375,7500" />
<polygon points="32625,8500 33625,8500 33625,7500 32625,7500" />
<polygon points="33875,8500 34875,8500 34875,7500 33875,7500" />
<polygon points="37625,7625 38625,7625 38625,6625 37625,6625" />
<polygon points="42625,7625 43625,7625 43625,6625 42625,6625" />
<polygon points="38875,8875 39875,8875 39875,7875 38875,7875" />
<polygon points="41375,8875 42375,8875 42375,7875 41375,7875" />
<polygon points="40125,10125 41125,10125 41125,9125 40125,9125" />
<polygon points="38875,11375 39875,11375 39875,10375 38875,10375" />
<polygon points="41375,11375 42375,11375 42375,10375 41375,10375" />
<polygon points="37625,12625 38625,12625 38625,11625 37625,11625" />
<polygon points="42625,12625 43625,12625 43625,11625 42625,11625" />
<polygon points="47625,2250 48625,2250 48625,1250 47625,1250" />
<polygon points="47625,3500 48625,3500 48625,2500 47625,2500" />
<polygon points="45125,4750 46125,4750 46125,3750 45125,3750" />
<polygon points="46375,4750 47375,4750 47375,3750 46375,3750" />
<polygon points="47625,4750 48625,4750 48625,3750 47625,3750" />
<polygon points="48875,4750 49875,4750 49875,3750 48875,3750" />
<polygon points="50125,4750 51125,4750 51125,3750 50125,3750" />
<polygon points="47625,6000 48625,6000 48625,5000 47625,5000" />
<polygon points="47625,7250 48625,7250 48625,6250 47625,6250" />
<polygon points="55125,1000 56125,1000 56125,0 55125,0" />
<polygon points="56375,1000 57375,1000 57375,0 56375,0" />
<polygon points="57625,1000 58625,1000 58625,0 57625,0" />
<polygon points="56375,2250 57375,2250 57375,1250 56375,1250" />
<polygon points="56375,3500 57375,3500 57375,2500 56375,2500" />
<polygon points="56375,4750 57375,4750 57375,3750 56375,3750" />
<polygon points="56375,6000 57375,6000 57375,5000 56375,5000" />
<polygon points="52625,7250 53625,7250 53625,6250 52625,6250" />
<polygon points="56375,7250 57375,7250 57375,6250 56375,6250" />
<polygon points="53875,8500 54875,8500 54875,7500 53875,7500" />
<polygon points="55125,8500 56125,8500 56125,7500 55125,7500" />
<polygon points="61375,3500 62375,3500 62375,2500 61375,2500" />
<polygon points="62625,3500 63625,3500 63625,2500 62625,2500" />
<polygon points="63875,3500 64875,3500 64875,2500 63875,2500" />
<polygon points="65125,3500 66125,3500 66125,2500 65125,2500" />
<polygon points="60125,4750 61125,4750 61125,3750 60125,3750" />
<polygon points="62625,4750 63625,4750 63625,3750 62625,3750" />
<polygon points="60125,6000 61125,6000 61125,5000 60125,5000" />
<polygon points="63875,6000 64875,6000 64875,5000 63875,5000" />
<polygon points="60125,7250 61125,7250 61125,6250 60125,6250" />
<polygon points="65125,7250 66125,7250 66125,6250 65125,6250" />
<polygon points="61375,8500 62375,8500 62375,7500 61375,7500" />
<polygon points="62625,8500 63625,8500 63625,7500 62625,7500" />
<polygon points="63875,8500 64875,8500 64875,7500 63875,7500" />
<polygon points="67625,7625 68625,7625 68625,6625 67625,6625" />
<polygon points="72625,7625 73625,7625 73625,6625 72625,6625" />
<polygon points="67625,8875 68625,8875 68625,7875 67625,7875" />
<polygon points="72625,8875 73625,8875 73625,7875 72625,7875" />
<polygon points="67625,10125 68625,10125 68625,9125 67625,9125" />
<polygon points="72625,10125 73625,10125 73625,9125 72625,9125" />
<polygon points="67625,11375 68625,11375 68625,10375 67625,10375" />
<polygon points="72625,11375 73625,11375 73625,10375 72625,10375" />
<polygon points="68875,12625 69875,12625 69875,11625 68875,11625" />
<polygon points="70125,12625 71125,12625 71125,11625 70125,11625" />
<polygon points="71375,12625 72375,12625 72375,11625 71375,11625" />
<polygon points="72625,12625 73625,12625 73625,11625 72625,11625" />
<polygon points="72625,13875 73625,13875 73625,12875 72625,12875" />
<polygon points="72625,15125 73625,15125 73625,14125 72625,14125" />
<polygon points="68875,16375 69875,16375 69875,15375 68875,15375" />
<polygon points="70125,16375 71125,16375 71125,15375 70125,15375" />
<polygon points="71375,16375 72375,16375 72375,15375 71375,15375" />
<polygon points="1375,31000 2375,31000 2375,30000 1375,30000" />
<polygon points="2625,31000 3625,31000 3625,30000 2625,30000" />
<polygon points="3875,31000 4875,31000 4875,30000 3875,30000" />
<polygon points="125,32250 1125,32250 1125,31250 125,31250" />
<polygon points="125,33500 1125,33500 1125,32500 125,32500" />
<polygon points="125,34750 1125,34750 1125,33750 125,33750" />
<polygon points="5125,34750 6125,34750 6125,33750 5125,33750" />
<polygon points="1375,36000 2375,36000 2375,35000 1375,35000" />
<polygon points="2625,36000 3625,36000 3625,35000 2625,35000" />
<polygon points="3875,36000 4875,36000 4875,35000 3875,35000" />
<polygon points="8875,24375 9875,24375 9875,23375 8875,23375" />
<polygon points="10125,24375 11125,24375 11125,23375 10125,23375" />
<polygon points="11375,24375 12375,24375 12375,23375 11375,23375" />
<polygon points="7625,25625 8625,25625 8625,24625 7625,24625" />
<polygon points="12625,25625 13625,25625 13625,24625 12625,24625" />
<polygon points="12625,26875 13625,26875 13625,25875 12625,25875" />
<polygon points="11375,28125 12375,28125 12375,27125 11375,27125" />
<polygon points="10125,29375 11125,29375 11125,28375 10125,28375" />
<polygon points="8875,30625 9875,30625 9875,29625 8875,29625" />
<polygon points="7625,31875 8625,31875 8625,30875 7625,30875" />
<polygon points="8875,31875 9875,31875 9875,30875 8875,30875" />
<polygon points="10125,31875 11125,31875 11125,30875 10125,30875" />
<polygon points="11375,31875 12375,31875 12375,30875 11375,30875" />
<polygon points="12625,31875 13625,31875 13625,30875 12625,30875" />
<polygon points="15125,31000 16125,31000 16125,30000 15125,30000" />
<polygon points="16375,31000 17375,31000 17375,30000 16375,30000" />
<polygon points="17625,31000 18625,31000 18625,30000 17625,30000" />
<polygon points="18875,31000 19875,31000 19875,30000 18875,30000" />
<polygon points="20125,31000 21125,31000 21125,30000 20125,30000" />
<polygon points="15125,33500 16125,33500 16125,32500 15125,32500" />
<polygon points="16375,33500 17375,33500 17375,32500 16375,32500" />
<polygon points="17625,33500 18625,33500 18625,32500 17625,32500" />
<polygon points="18875,33500 19875,33500 19875,32500 18875,32500" />
<polygon points="20125,33500 21125,33500 21125,32500 20125,32500" />
<polygon points="23875,31000 24875,31000 24875,30000 23875,30000" />
<polygon points="25125,31000 26125,31000 26125,30000 25125,30000" />
<polygon points="26375,31000 27375,31000 27375,30000 26375,30000" />
<polygon points="27625,32250 28625,32250 28625,31250 27625,31250" />
<polygon points="23875,33500 24875,33500 24875,32500 23875,32500" />
<polygon points="25125,33500 26125,33500 26125,32500 25125,32500" />
<polygon points="26375,33500 27375,33500 27375,32500 26375,32500" />
<polygon points="27625,33500 28625,33500 28625,32500 27625,32500" />
<polygon points="22625,34750 23625,34750 23625,33750 22625,33750" />
<polygon points="27625,34750 28625,34750 28625,33750 27625,33750" />
<polygon points="23875,36000 24875,36000 24875,35000 23875,35000" />
<polygon points="25125,36000 26125,36000 26125,35000 25125,35000" />
<polygon points="26375,36000 27375,36000 27375,35000 26375,35000" />
<polygon points="27625,36000 28625,36000 28625,35000 27625,35000" />
<polygon points="31375,24375 32375,24375 32375,23375 31375,23375" />
<polygon points="32625,24375 33625,24375 33625,23375 32625,23375" />
<polygon points="33875,24375 34875,24375 34875,23375 33875,23375" />
<polygon points="30125,25625 31125,25625 31125,24625 30125,24625" />
<polygon points="35125,25625 36125,25625 36125,24625 35125,24625" />
<polygon points="35125,26875 36125,26875 36125,25875 35125,25875" />
<polygon points="33875,28125 34875,28125 34875,27125 33875,27125" />
<polygon points="32625,29375 33625,29375 33625,28375 32625,28375" />
<polygon points="31375,30625 32375,30625 32375,29625 31375,29625" />
<polygon points="30125,31875 31125,31875 31125,30875 30125,30875" />
<polygon points="31375,31875 32375,31875 32375,30875 31375,30875" />
<polygon points="32625,31875 33625,31875 33625,30875 32625,30875" />
<polygon points="33875,31875 34875,31875 34875,30875 33875,30875" />
<polygon points="35125,31875 36125,31875 36125,30875 35125,30875" />
<polygon points="40125,29750 41125,29750 41125,28750 40125,28750" />
<polygon points="40125,31000 41125,31000 41125,30000 40125,30000" />
<polygon points="37625,32250 38625,32250 38625,31250 37625,31250" />
<polygon points="38875,32250 39875,32250 39875,31250 38875,31250" />
<polygon points="40125,32250 41125,32250 41125,31250 40125,31250" />
<polygon points="41375,32250 42375,32250 42375,31250 41375,31250" />
<polygon points="42625,32250 43625,32250 43625,31250 42625,31250" />
<polygon points="40125,33500 41125,33500 41125,32500 40125,32500" />
<polygon points="40125,34750 41125,34750 41125,33750 40125,33750" />
<polygon points="45125,28500 46125,28500 46125,27500 45125,27500" />
<polygon points="45125,29750 46125,29750 46125,28750 45125,28750" />
<polygon points="45125,31000 46125,31000 46125,30000 45125,30000" />
<polygon points="47625,31000 48625,31000 48625,30000 47625,30000" />
<polygon points="48875,31000 49875,31000 49875,30000 48875,30000" />
<polygon points="45125,32250 46125,32250 46125,31250 45125,31250" />
<polygon points="46375,32250 47375,32250 47375,31250 46375,31250" />
<polygon points="50125,32250 51125,32250 51125,31250 50125,31250" />
<polygon points="45125,33500 46125,33500 46125,32500 45125,32500" />
<polygon points="50125,33500 51125,33500 51125,32500 50125,32500" />
<polygon points="45125,34750 46125,34750 46125,33750 45125,33750" />
<polygon points="50125,34750 51125,34750 51125,33750 50125,33750" />
<polygon points="45125,36000 46125,36000 46125,35000 45125,35000" />
<polygon points="46375,36000 47375,36000 47375,35000 46375,35000" />
<polygon points="47625,36000 48625,36000 48625,35000 47625,35000" />
<polygon points="48875,36000 49875,36000 49875,35000 48875,35000" />
<polygon points="53875,24375 54875,24375 54875,23375 53875,23375" />
<polygon points="55125,24375 56125,24375 56125,23375 55125,23375" />
<polygon points="56375,24375 57375,24375 57375,23375 56375,23375" />
<polygon points="52625,25625 53625,25625 53625,24625 52625,24625" />
<polygon points="57625,25625 58625,25625 58625,24625 57625,24625" />
<polygon points="57625,26875 58625,26875 58625,25875 57625,25875" />
<polygon points="56375,28125 57375,28125 57375,27125 56375,27125" />
<polygon points="55125,29375 56125,29375 56125,28375 55125,28375" />
<polygon points="53875,30625 54875,30625 54875,29625 53875,29625" />
<polygon points="52625,31875 53625,31875 53625,30875 52625,30875" />
<polygon points="53875,31875 54875,31875 54875,30875 53875,30875" />
<polygon points="55125,31875 56125,31875 56125,30875 55125,30875" />
<polygon points="56375,31875 57375,31875 57375,30875 56375,30875" />
<polygon points="57625,31875 58625,31875 58625,30875 57625,30875" />
<polygon points="2625,56000 3625,56000 3625,55000 2625,55000" />
<polygon points="2625,57250 3625,57250 3625,56250 2625,56250" />
<polygon points="2625,58500 3625,58500 3625,57500 2625,57500" />
<polygon points="2625,59750 3625,59750 3625,58750 2625,58750" />
<polygon points="2625,61000 3625,61000 3625,60000 2625,60000" />
<polygon points="2625,62250 3625,62250 3625,61250 2625,61250" />
<polygon points="2625,63500 3625,63500 3625,62500 2625,62500" />
<polygon points="7625,56000 8625,56000 8625,55000 7625,55000" />
<polygon points="10125,56000 11125,56000 11125,55000 10125,55000" />
<polygon points="12625,56000 13625,56000 13625,55000 12625,55000" />
<polygon points="7625,57250 8625,57250 8625,56250 7625,56250" />
<polygon points="10125,57250 11125,57250 11125,56250 10125,56250" />
<polygon points="12625,57250 13625,57250 13625,56250 12625,56250" />
<polygon points="7625,58500 8625,58500 8625,57500 7625,57500" />
<polygon points="10125,58500 11125,58500 11125,57500 10125,57500" />
<polygon points="12625,58500 13625,58500 13625,57500 12625,57500" />
<polygon points="8875,59750 9875,59750 9875,58750 8875,58750" />
<polygon points="10125,59750 11125,59750 11125,58750 10125,58750" />
<polygon points="11375,59750 12375,59750 12375,58750 11375,58750" />
<polygon points="10125,61000 11125,61000 11125,60000 10125,60000" />
<polygon points="10125,62250 11125,62250 11125,61250 10125,61250" />
<polygon points="8875,63500 9875,63500 9875,62500 8875,62500" />
<polygon points="10125,63500 11125,63500 11125,62500 10125,62500" />
<polygon points="11375,63500 12375,63500 12375,62500 11375,62500" />
<polygon points="16375,56000 17375,56000 17375,55000 16375,55000" />
<polygon points="17625,57250 18625,57250 18625,56250 17625,56250" />
<polygon points="18875,58500 19875,58500 19875,57500 18875,57500" />
<polygon points="20125,59750 21125,59750 21125,58750 20125,58750" />
<polygon points="18875,61000 19875,61000 19875,60000 18875,60000" />
<polygon points="17625,62250 18625,62250 18625,61250 17625,61250" />
<polygon points="16375,63500 17375,63500 17375,62500 16375,62500" />
<polygon points="22625,58500 23625,58500 23625,57500 22625,57500" />
<polygon points="23875,58500 24875,58500 24875,57500 23875,57500" />
<polygon points="25125,58500 26125,58500 26125,57500 25125,57500" />
<polygon points="26375,58500 27375,58500 27375,57500 26375,57500" />
<polygon points="27625,58500 28625,58500 28625,57500 27625,57500" />
<polygon points="22625,61000 23625,61000 23625,60000 22625,60000" />
<polygon points="23875,61000 24875,61000 24875,60000 23875,60000" />
<polygon points="25125,61000 26125,61000 26125,60000 25125,60000" />
<polygon points="26375,61000 27375,61000 27375,60000 26375,60000" />
<polygon points="27625,61000 28625,61000 28625,60000 27625,60000" />
<polygon points="31375,58500 32375,58500 32375,57500 31375,57500" />
<polygon points="32625,58500 33625,58500 33625,57500 32625,57500" />
<polygon points="33875,58500 34875,58500 34875,57500 33875,57500" />
<polygon points="35125,59750 36125,59750 36125,58750 35125,58750" />
<polygon points="31375,61000 32375,61000 32375,60000 31375,60000" />
<polygon points="32625,61000 33625,61000 33625,60000 32625,60000" />
<polygon points="33875,61000 34875,61000 34875,60000 33875,60000" />
<polygon points="35125,61000 36125,61000 36125,60000 35125,60000" />
<polygon points="30125,62250 31125,62250 31125,61250 30125,61250" />
<polygon points="35125,62250 36125,62250 36125,61250 35125,61250" />
<polygon points="31375,63500 32375,63500 32375,62500 31375,62500" />
<polygon points="32625,63500 33625,63500 33625,62500 32625,62500" />
<polygon points="33875,63500 34875,63500 34875,62500 33875,62500" />
<polygon points="35125,63500 36125,63500 36125,62500 35125,62500" />
<polygon points="40125,53125 41125,53125 41125,52125 40125,52125" />
<polygon points="38875,54375 39875,54375 39875,53375 38875,53375" />
<polygon points="40125,54375 41125,54375 41125,53375 40125,53375" />
<polygon points="41375,54375 42375,54375 42375,53375 41375,53375" />
<polygon points="40125,55625 41125,55625 41125,54625 40125,54625" />
<polygon points="40125,56875 41125,56875 41125,55875 40125,55875" />
<polygon points="40125,58125 41125,58125 41125,57125 40125,57125" />
<polygon points="46375,58500 47375,58500 47375,57500 46375,57500" />
<polygon points="47625,58500 48625,58500 48625,57500 47625,57500" />
<polygon points="48875,58500 49875,58500 49875,57500 48875,57500" />
<polygon points="50125,59750 51125,59750 51125,58750 50125,58750" />
<polygon points="46375,61000 47375,61000 47375,60000 46375,60000" />
<polygon points="47625,61000 48625,61000 48625,60000 47625,60000" />
<polygon points="48875,61000 49875,61000 49875,60000 48875,60000" />
<polygon points="50125,61000 51125,61000 51125,60000 50125,60000" />
<polygon points="45125,62250 46125,62250 46125,61250 45125,61250" />
<polygon points="50125,62250 51125,62250 51125,61250 50125,61250" />
<polygon points="46375,63500 47375,63500 47375,62500 46375,62500" />
<polygon points="47625,63500 48625,63500 48625,62500 47625,62500" />
<polygon points="48875,63500 49875,63500 49875,62500 48875,62500" />
<polygon points="50125,63500 51125,63500 51125,62500 50125,62500" />
<polygon points="55125,56000 56125,56000 56125,55000 55125,55000" />
<polygon points="55125,57250 56125,57250 56125,56250 55125,56250" />
<polygon points="55125,58500 56125,58500 56125,57500 55125,57500" />
<polygon points="55125,59750 56125,59750 56125,58750 55125,58750" />
<polygon points="55125,61000 56125,61000 56125,60000 55125,60000" />
<polygon points="55125,62250 56125,62250 56125,61250 55125,61250" />
<polygon points="55125,63500 56125,63500 56125,62500 55125,62500" />
<polygon points="62625,57250 63625,57250 63625,56250 62625,56250" />
<polygon points="60125,58500 61125,58500 61125,57500 60125,57500" />
<polygon points="62625,58500 63625,58500 63625,57500 62625,57500" />
<polygon points="65125,58500 66125,58500 66125,57500 65125,57500" />
<polygon points="60125,59750 61125,59750 61125,58750 60125,58750" />
<polygon points="62625,59750 63625,59750 63625,58750 62625,58750" />
<polygon points="65125,59750 66125,59750 66125,58750 65125,58750" />
<polygon points="61375,61000 62375,61000 62375,60000 61375,60000" />
<polygon points="62625,61000 63625,61000 63625,60000 62625,60000" />
<polygon points="63875,61000 64875,61000 64875,60000 63875,60000" />
<polygon points="62625,62250 63625,62250 63625,61250 62625,61250" />
<polygon points="62625,63500 63625,63500 63625,62500 62625,62500" />
<polygon points="70125,60125 71125,60125 71125,59125 70125,59125" />
<polygon points="68875,61375 69875,61375 69875,60375 68875,60375" />
<polygon points="70125,61375 71125,61375 71125,60375 70125,60375" />
<polygon points="70125,62625 71125,62625 71125,61625 70125,61625" />
<polygon points="70125,63875 71125,63875 71125,62875 70125,62875" />
<polygon points="70125,65125 71125,65125 71125,64125 70125,64125" />
<polygon points="70125,66375 71125,66375 71125,65375 70125,65375" />
<polygon points="68875,67625 69875,67625 69875,66625 68875,66625" />
<polygon points="70125,67625 71125,67625 71125,66625 70125,66625" />
<polygon points="71375,67625 72375,67625 72375,66625 71375,66625" />
<polygon points="76375,56000 77375,56000 77375,55000 76375,55000" />
<polygon points="77625,57250 78625,57250 78625,56250 77625,56250" />
<polygon points="78875,58500 79875,58500 79875,57500 78875,57500" />
<polygon points="80125,59750 81125,59750 81125,58750 80125,58750" />
<polygon points="78875,61000 79875,61000 79875,60000 78875,60000" />
<polygon points="77625,62250 78625,62250 78625,61250 77625,61250" />
<polygon points="76375,63500 77375,63500 77375,62500 76375,62500" />
<polygon points="85125,57250 86125,57250 86125,56250 85125,56250" />
<polygon points="85125,58500 86125,58500 86125,57500 85125,57500" />
<polygon points="82625,59750 83625,59750 83625,58750 82625,58750" />
<polygon points="83875,59750 84875,59750 84875,58750 83875,58750" />
<polygon points="85125,59750 86125,59750 86125,58750 85125,58750" />
<polygon points="86375,59750 87375,59750 87375,58750 86375,58750" />
<polygon points="87625,59750 88625,59750 88625,58750 87625,58750" />
<polygon points="85125,61000 86125,61000 86125,60000 85125,60000" />
<polygon points="85125,62250 86125,62250 86125,61250 85125,61250" />
<polygon points="90125,56000 91125,56000 91125,55000 90125,55000" />
<polygon points="90125,57250 91125,57250 91125,56250 90125,56250" />
<polygon points="90125,58500 91125,58500 91125,57500 90125,57500" />
<polygon points="92625,58500 93625,58500 93625,57500 92625,57500" />
<polygon points="93875,58500 94875,58500 94875,57500 93875,57500" />
<polygon points="90125,59750 91125,59750 91125,58750 90125,58750" />
<polygon points="91375,59750 92375,59750 92375,58750 91375,58750" />
<polygon points="95125,59750 96125,59750 96125,58750 95125,58750" />
<polygon points="90125,61000 91125,61000 91125,60000 90125,60000" />
<polygon points="95125,61000 96125,61000 96125,60000 95125,60000" />
<polygon points="90125,62250 91125,62250 91125,61250 90125,61250" />
<polygon points="95125,62250 96125,62250 96125,61250 95125,61250" />
<polygon points="90125,63500 91125,63500 91125,62500 90125,62500" />
<polygon points="91375,63500 92375,63500 92375,62500 91375,62500" />
<polygon points="92625,63500 93625,63500 93625,62500 92625,62500" />
<polygon points="93875,63500 94875,63500 94875,62500 93875,62500" />
<polygon points="100125,53125 101125,53125 101125,52125 100125,52125" />
<polygon points="98875,54375 99875,54375 99875,53375 98875,53375" />
<polygon points="100125,54375 101125,54375 101125,53375 100125,53375" />
<polygon points="101375,54375 102375,54375 102375,53375 101375,53375" />
<polygon points="100125,55625 101125,55625 101125,54625 100125,54625" />
<polygon points="100125,56875 101125,56875 101125,55875 100125,55875" />
<polygon points="100125,58125 101125,58125 101125,57125 100125,57125" />
<polygon points="105125,56000 106125,56000 106125,55000 105125,55000" />
<polygon points="105125,57250 106125,57250 106125,56250 105125,56250" />
<polygon points="105125,58500 106125,58500 106125,57500 105125,57500" />
<polygon points="107625,58500 108625,58500 108625,57500 107625,57500" />
<polygon points="108875,58500 109875,58500 109875,57500 108875,57500" />
<polygon points="105125,59750 106125,59750 106125,58750 105125,58750" />
<polygon points="106375,59750 107375,59750 107375,58750 106375,58750" />
<polygon points="110125,59750 111125,59750 111125,58750 110125,58750" />
<polygon points="105125,61000 106125,61000 106125,60000 105125,60000" />
<polygon points="110125,61000 111125,61000 111125,60000 110125,60000" />
<polygon points="105125,62250 106125,62250 106125,61250 105125,61250" />
<polygon points="110125,62250 111125,62250 111125,61250 110125,61250" />
<polygon points="105125,63500 106125,63500 106125,62500 105125,62500" />
<polygon points="106375,63500 107375,63500 107375,62500 106375,62500" />
<polygon points="107625,63500 108625,63500 108625,62500 107625,62500" />
<polygon points="108875,63500 109875,63500 109875,62500 108875,62500" />
<polygon points="115125,56000 116125,56000 116125,55000 115125,55000" />
<polygon points="115125,57250 116125,57250 116125,56250 115125,56250" />
<polygon points="115125,58500 116125,58500 116125,57500 115125,57500" />
<polygon points="115125,59750 116125,59750 116125,58750 115125,58750" />
<polygon points="115125,61000 116125,61000 116125,60000 115125,60000" />
<polygon points="115125,62250 116125,62250 116125,61250 115125,61250" />
<polygon points="115125,63500 116125,63500 116125,62500 115125,62500" />
<polygon points="122625,57250 123625,57250 123625,56250 122625,56250" />
<polygon points="120125,58500 121125,58500 121125,57500 120125,57500" />
<polygon points="122625,58500 123625,58500 123625,57500 122625,57500" />
<polygon points="125125,58500 126125,58500 126125,57500 125125,57500" />
<polygon points="120125,59750 121125,59750 121125,58750 120125,58750" />
<polygon points="122625,59750 123625,59750 123625,58750 122625,58750" />
<polygon points="125125,59750 126125,59750 126125,58750 125125,58750" />
<polygon points="121375,61000 122375,61000 122375,60000 121375,60000" />
<polygon points="122625,61000 123625,61000 123625,60000 122625,60000" />
<polygon points="123875,61000 124875,61000 124875,60000 123875,60000" />
<polygon points="122625,62250 123625,62250 123625,61250 122625,61250" />
<polygon points="122625,63500 123625,63500 123625,62500 122625,62500" />
<polygon points="128875,60125 129875,60125 129875,59125 128875,59125" />
<polygon points="130125,60125 131125,60125 131125,59125 130125,59125" />
<polygon points="131375,60125 132375,60125 132375,59125 131375,59125" />
<polygon points="127625,61375 128625,61375 128625,60375 127625,60375" />
<polygon points="132625,61375 133625,61375 133625,60375 132625,60375" />
<polygon points="132625,62625 133625,62625 133625,61625 132625,61625" />
<polygon points="131375,63875 132375,63875 132375,62875 131375,62875" />
<polygon points="130125,65125 131125,65125 131125,64125 130125,64125" />
<polygon points="128875,66375 129875,66375 129875,65375 128875,65375" />
<polygon points="127625,67625 128625,67625 128625,66625 127625,66625" />
<polygon points="128875,67625 129875,67625 129875,66625 128875,66625" />
<polygon points="130125,67625 131125,67625 131125,66625 130125,66625" />
<polygon points="131375,67625 132375,67625 132375,66625 131375,66625" />
<polygon points="132625,67625 133625,67625 133625,66625 132625,66625" />
<polygon points="136375,56000 137375,56000 137375,55000 136375,55000" />
<polygon points="137625,57250 138625,57250 138625,56250 137625,56250" />
<polygon points="138875,58500 139875,58500 139875,57500 138875,57500" />
<polygon points="140125,59750 141125,59750 141125,58750 140125,58750" />
<polygon points="138875,61000 139875,61000 139875,60000 138875,60000" />
<polygon points="137625,62250 138625,62250 138625,61250 137625,61250" />
<polygon points="136375,63500 137375,63500 137375,62500 136375,62500" />
<polygon points="1375,86000 2375,86000 2375,85000 1375,85000" />
<polygon points="2625,86000 3625,86000 3625,85000 2625,85000" />
<polygon points="3875,86000 4875,86000 4875,85000 3875,85000" />
<polygon points="125,87250 1125,87250 1125,86250 125,86250" />
<polygon points="5125,87250 6125,87250 6125,86250 5125,86250" />
<polygon points="125,88500 1125,88500 1125,87500 125,87500" />
<polygon points="1375,88500 2375,88500 2375,87500 1375,87500" />
<polygon points="2625,88500 3625,88500 3625,87500 2625,87500" />
<polygon points="3875,88500 4875,88500 4875,87500 3875,87500" />
<polygon points="5125,88500 6125,88500 6125,87500 5125,87500" />
<polygon points="125,89750 1125,89750 1125,88750 125,88750" />
<polygon points="1375,91000 2375,91000 2375,90000 1375,90000" />
<polygon points="2625,91000 3625,91000 3625,90000 2625,90000" />
<polygon points="3875,91000 4875,91000 4875,90000 3875,90000" />
<polygon points="10125,79375 11125,79375 11125,78375 10125,78375" />
<polygon points="8875,81875 9875,81875 9875,80875 8875,80875" />
<polygon points="10125,81875 11125,81875 11125,80875 10125,80875" />
<polygon points="10125,83125 11125,83125 11125,82125 10125,82125" />
<polygon points="10125,84375 11125,84375 11125,83375 10125,83375" />
<polygon points="10125,85625 11125,85625 11125,84625 10125,84625" />
<polygon points="12625,85625 13625,85625 13625,84625 12625,84625" />
<polygon points="10125,86875 11125,86875 11125,85875 10125,85875" />
<polygon points="11375,86875 12375,86875 12375,85875 11375,85875" />
<polygon points="15125,81875 16125,81875 16125,80875 15125,80875" />
<polygon points="16375,81875 17375,81875 17375,80875 16375,80875" />
<polygon points="17625,81875 18625,81875 18625,80875 17625,80875" />
<polygon points="18875,81875 19875,81875 19875,80875 18875,80875" />
<polygon points="20125,81875 21125,81875 21125,80875 20125,80875" />
<polygon points="16375,83125 17375,83125 17375,82125 16375,82125" />
<polygon points="18875,83125 19875,83125 19875,82125 18875,82125" />
<polygon points="16375,84375 17375,84375 17375,83375 16375,83375" />
<polygon points="18875,84375 19875,84375 19875,83375 18875,83375" />
<polygon points="16375,85625 17375,85625 17375,84625 16375,84625" />
<polygon points="18875,85625 19875,85625 19875,84625 18875,84625" />
<polygon points="15125,86875 16125,86875 16125,85875 15125,85875" />
<polygon points="18875,86875 19875,86875 19875,85875 18875,85875" />
<polygon points="20125,86875 21125,86875 21125,85875 20125,85875" />
<polygon points="22625,86000 23625,86000 23625,85000 22625,85000" />
<polygon points="23875,86000 24875,86000 24875,85000 23875,85000" />
<polygon points="25125,86000 26125,86000 26125,85000 25125,85000" />
<polygon points="26375,86000 27375,86000 27375,85000 26375,85000" />
<polygon points="27625,86000 28625,86000 28625,85000 27625,85000" />
<polygon points="22625,88500 23625,88500 23625,87500 22625,87500" />
<polygon points="23875,88500 24875,88500 24875,87500 23875,87500" />
<polygon points="25125,88500 26125,88500 26125,87500 25125,87500" />
<polygon points="26375,88500 27375,88500 27375,87500 26375,87500" />
<polygon points="27625,88500 28625,88500 28625,87500 27625,87500" />
<polygon points="30125,87250 31125,87250 31125,86250 30125,86250" />
<polygon points="31375,87250 32375,87250 32375,86250 31375,86250" />
<polygon points="32625,87250 33625,87250 33625,86250 32625,86250" />
<polygon points="33875,87250 34875,87250 34875,86250 33875,86250" />
<polygon points="35125,87250 36125,87250 36125,86250 35125,86250" />
<polygon points="40125,83500 41125,83500 41125,82500 40125,82500" />
<polygon points="38875,84750 39875,84750 39875,83750 38875,83750" />
<polygon points="40125,84750 41125,84750 41125,83750 40125,83750" />
<polygon points="40125,86000 41125,86000 41125,85000 40125,85000" />
<polygon points="40125,87250 41125,87250 41125,86250 40125,86250" />
<polygon points="40125,88500 41125,88500 41125,87500 40125,87500" />
<polygon points="40125,89750 41125,89750 41125,88750 40125,88750" />
<polygon points="38875,91000 39875,91000 39875,90000 38875,90000" />
<polygon points="40125,91000 41125,91000 41125,90000 40125,90000" />
<polygon points="41375,91000 42375,91000 42375,90000 41375,90000" />
<polygon points="53875,86000 54875,86000 54875,85000 53875,85000" />
<polygon points="55125,86000 56125,86000 56125,85000 55125,85000" />
<polygon points="56375,86000 57375,86000 57375,85000 56375,85000" />
<polygon points="57625,87250 58625,87250 58625,86250 57625,86250" />
<polygon points="53875,88500 54875,88500 54875,87500 53875,87500" />
<polygon points="55125,88500 56125,88500 56125,87500 55125,87500" />
<polygon points="56375,88500 57375,88500 57375,87500 56375,87500" />
<polygon points="57625,88500 58625,88500 58625,87500 57625,87500" />
<polygon points="52625,89750 53625,89750 53625,88750 52625,88750" />
<polygon points="57625,89750 58625,89750 58625,88750 57625,88750" />
<polygon points="53875,91000 54875,91000 54875,90000 53875,90000" />
<polygon points="55125,91000 56125,91000 56125,90000 55125,90000" />
<polygon points="56375,91000 57375,91000 57375,90000 56375,90000" />
<polygon points="57625,91000 58625,91000 58625,90000 57625,90000" />
<polygon points="60125,86000 61125,86000 61125,85000 60125,85000" />
<polygon points="62625,86000 63625,86000 63625,85000 62625,85000" />
<polygon points="63875,86000 64875,86000 64875,85000 63875,85000" />
<polygon points="60125,87250 61125,87250 61125,86250 60125,86250" />
<polygon points="61375,87250 62375,87250 62375,86250 61375,86250" />
<polygon points="65125,87250 66125,87250 66125,86250 65125,86250" />
<polygon points="60125,88500 61125,88500 61125,87500 60125,87500" />
<polygon points="65125,88500 66125,88500 66125,87500 65125,87500" />
<polygon points="60125,89750 61125,89750 61125,88750 60125,88750" />
<polygon points="65125,89750 66125,89750 66125,88750 65125,88750" />
<polygon points="60125,91000 61125,91000 61125,90000 60125,90000" />
<polygon points="65125,91000 66125,91000 66125,90000 65125,90000" />
<polygon points="72625,83500 73625,83500 73625,82500 72625,82500" />
<polygon points="72625,84750 73625,84750 73625,83750 72625,83750" />
<polygon points="68875,86000 69875,86000 69875,85000 68875,85000" />
<polygon points="70125,86000 71125,86000 71125,85000 70125,85000" />
<polygon points="72625,86000 73625,86000 73625,85000 72625,85000" />
<polygon points="67625,87250 68625,87250 68625,86250 67625,86250" />
<polygon points="71375,87250 72375,87250 72375,86250 71375,86250" />
<polygon points="72625,87250 73625,87250 73625,86250 72625,86250" />
<polygon points="67625,88500 68625,88500 68625,87500 67625,87500" />
<polygon points="72625,88500 73625,88500 73625,87500 72625,87500" />
<polygon points="67625,89750 68625,89750 68625,88750 67625,88750" />
<polygon points="72625,89750 73625,89750 73625,88750 72625,88750" />
<polygon points="68875,91000 69875,91000 69875,90000 68875,90000" />
<polygon points="70125,91000 71125,91000 71125,90000 70125,90000" />
<polygon points="71375,91000 72375,91000 72375,90000 71375,90000" />
<polygon points="72625,91000 73625,91000 73625,90000 72625,90000" />
<polygon points="83875,86000 84875,86000 84875,85000 83875,85000" />
<polygon points="85125,86000 86125,86000 86125,85000 85125,85000" />
<polygon points="86375,86000 87375,86000 87375,85000 86375,85000" />
<polygon points="82625,87250 83625,87250 83625,86250 82625,86250" />
<polygon points="82625,88500 83625,88500 83625,87500 82625,87500" />
<polygon points="82625,89750 83625,89750 83625,88750 82625,88750" />
<polygon points="87625,89750 88625,89750 88625,88750 87625,88750" />
<polygon points="83875,91000 84875,91000 84875,90000 83875,90000" />
<polygon points="85125,91000 86125,91000 86125,90000 85125,90000" />
<polygon points="86375,91000 87375,91000 87375,90000 86375,90000" />
<polygon points="90125,90125 91125,90125 91125,89125 90125,89125" />
<polygon points="95125,90125 96125,90125 96125,89125 95125,89125" />
<polygon points="90125,91375 91125,91375 91125,90375 90125,90375" />
<polygon points="95125,91375 96125,91375 96125,90375 95125,90375" />
<polygon points="90125,92625 91125,92625 91125,91625 90125,91625" />
<polygon points="95125,92625 96125,92625 96125,91625 95125,91625" />
<polygon points="91375,93875 92375,93875 92375,92875 91375,92875" />
<polygon points="93875,93875 94875,93875 94875,92875 93875,92875" />
<polygon points="92625,95125 93625,95125 93625,94125 92625,94125" />
<polygon points="98875,90125 99875,90125 99875,89125 98875,89125" />
<polygon points="100125,90125 101125,90125 101125,89125 100125,89125" />
<polygon points="101375,90125 102375,90125 102375,89125 101375,89125" />
<polygon points="102625,91375 103625,91375 103625,90375 102625,90375" />
<polygon points="98875,92625 99875,92625 99875,91625 98875,91625" />
<polygon points="100125,92625 101125,92625 101125,91625 100125,91625" />
<polygon points="101375,92625 102375,92625 102375,91625 101375,91625" />
<polygon points="102625,92625 103625,92625 103625,91625 102625,91625" />
<polygon points="97625,93875 98625,93875 98625,92875 97625,92875" />
<polygon points="102625,93875 103625,93875 103625,92875 102625,92875" />
<polygon points="98875,95125 99875,95125 99875,94125 98875,94125" />
<polygon points="100125,95125 101125,95125 101125,94125 100125,94125" />
<polygon points="101375,95125 102375,95125 102375,94125 101375,94125" />
<polygon points="102625,95125 103625,95125 103625,94125 102625,94125" />
<polygon points="106375,90125 107375,90125 107375,89125 106375,89125" />
<polygon points="107625,90125 108625,90125 108625,89125 107625,89125" />
<polygon points="108875,90125 109875,90125 109875,89125 108875,89125" />
<polygon points="105125,91375 106125,91375 106125,90375 105125,90375" />
<polygon points="105125,92625 106125,92625 106125,91625 105125,91625" />
<polygon points="105125,93875 106125,93875 106125,92875 105125,92875" />
<polygon points="110125,93875 111125,93875 111125,92875 110125,92875" />
<polygon points="106375,95125 107375,95125 107375,94125 106375,94125" />
<polygon points="107625,95125 108625,95125 108625,94125 107625,94125" />
<polygon points="108875,95125 109875,95125 109875,94125 108875,94125" />
<polygon points="113875,84750 114875,84750 114875,83750 113875,83750" />
<polygon points="112625,86000 113625,86000 113625,85000 112625,85000" />
<polygon points="115125,86000 116125,86000 116125,85000 115125,85000" />
<polygon points="117625,86000 118625,86000 118625,85000 117625,85000" />
<polygon points="116375,87250 117375,87250 117375,86250 116375,86250" />
<polygon points="113875,88500 114875,88500 114875,87500 113875,87500" />
<polygon points="112625,89750 113625,89750 113625,88750 112625,88750" />
<polygon points="115125,89750 116125,89750 116125,88750 115125,88750" />
<polygon points="117625,89750 118625,89750 118625,88750 117625,88750" />
<polygon points="116375,91000 117375,91000 117375,90000 116375,90000" />
<polygon points="120125,83500 121125,83500 121125,82500 120125,82500" />
<polygon points="121375,83500 122375,83500 122375,82500 121375,82500" />
<polygon points="122625,83500 123625,83500 123625,82500 122625,82500" />
<polygon points="123875,83500 124875,83500 124875,82500 123875,82500" />
<polygon points="125125,83500 126125,83500 126125,82500 125125,82500" />
<polygon points="123875,84750 124875,84750 124875,83750 123875,83750" />
<polygon points="122625,86000 123625,86000 123625,85000 122625,85000" />
<polygon points="123875,87250 124875,87250 124875,86250 123875,86250" />
<polygon points="125125,88500 126125,88500 126125,87500 125125,87500" />
<polygon points="120125,89750 121125,89750 121125,88750 120125,88750" />
<polygon points="125125,89750 126125,89750 126125,88750 125125,88750" />
<polygon points="121375,91000 122375,91000 122375,90000 121375,90000" />
<polygon points="122625,91000 123625,91000 123625,90000 122625,90000" />
<polygon points="123875,91000 124875,91000 124875,90000 123875,90000" />
<polygon points="127625,86000 128625,86000 128625,85000 127625,85000" />
<polygon points="132625,86000 133625,86000 133625,85000 132625,85000" />
<polygon points="128875,87250 129875,87250 129875,86250 128875,86250" />
<polygon points="131375,87250 132375,87250 132375,86250 131375,86250" />
<polygon points="130125,88500 131125,88500 131125,87500 130125,87500" />
<polygon points="128875,89750 129875,89750 129875,88750 128875,88750" />
<polygon points="131375,89750 132375,89750 132375,88750 131375,88750" />
<polygon points="127625,91000 128625,91000 128625,90000 127625,90000" />
<polygon points="132625,91000 133625,91000 133625,90000 132625,90000" />
<polygon points="137625,83500 138625,83500 138625,82500 137625,82500" />
<polygon points="136375,84750 137375,84750 137375,83750 136375,83750" />
<polygon points="137625,84750 138625,84750 138625,83750 137625,83750" />
<polygon points="137625,86000 138625,86000 138625,85000 137625,85000" />
<polygon points="137625,87250 138625,87250 138625,86250 137625,86250" />
<polygon points="137625,88500 138625,88500 138625,87500 137625,87500" />
<polygon points="137625,89750 138625,89750 138625,88750 137625,88750" />
<polygon points="136375,91000 137375,91000 137375,90000 136375,90000" />
<polygon points="137625,91000 138625,91000 138625,90000 137625,90000" />
<polygon points="138875,91000 139875,91000 139875,90000 138875,90000" />
<polygon points="143875,83500 144875,83500 144875,82500 143875,82500" />
<polygon points="145125,83500 146125,83500 146125,82500 145125,82500" />
<polygon points="146375,83500 147375,83500 147375,82500 146375,82500" />
<polygon points="142625,84750 143625,84750 143625,83750 142625,83750" />
<polygon points="147625,84750 148625,84750 148625,83750 147625,83750" />
<polygon points="142625,86000 143625,86000 143625,85000 142625,85000" />
<polygon points="146375,86000 147375,86000 147375,85000 146375,85000" />
<polygon points="147625,86000 148625,86000 148625,85000 147625,85000" />
<polygon points="142625,87250 143625,87250 143625,86250 142625,86250" />
<polygon points="145125,87250 146125,87250 146125,86250 145125,86250" />
<polygon points="147625,87250 148625,87250 148625,86250 147625,86250" />
<polygon points="142625,88500 143625,88500 143625,87500 142625,87500" />
<polygon points="143875,88500 144875,88500 144875,87500 143875,87500" />
<polygon points="147625,88500 148625,88500 148625,87500 147625,87500" />
<polygon points="142625,89750 143625,89750 143625,88750 142625,88750" />
<polygon points="147625,89750 148625,89750 148625,88750 147625,88750" />
<polygon points="143875,91000 144875,91000 144875,90000 143875,90000" />
<polygon points="145125,91000 146125,91000 146125,90000 145125,90000" />
<polygon points="146375,91000 147375,91000 147375,90000 146375,90000" />
<polygon points="151375,79375 152375,79375 152375,78375 151375,78375" />
<polygon points="152625,79375 153625,79375 153625,78375 152625,78375" />
<polygon points="153875,79375 154875,79375 154875,78375 153875,78375" />
<polygon points="150125,80625 151125,80625 151125,79625 150125,79625" />
<polygon points="155125,80625 156125,80625 156125,79625 155125,79625" />
<polygon points="150125,81875 151125,81875 151125,80875 150125,80875" />
<polygon points="155125,81875 156125,81875 156125,80875 155125,80875" />
<polygon points="151375,83125 152375,83125 152375,82125 151375,82125" />
<polygon points="152625,83125 153625,83125 153625,82125 152625,82125" />
<polygon points="153875,83125 154875,83125 154875,82125 153875,82125" />
<polygon points="150125,84375 151125,84375 151125,83375 150125,83375" />
<polygon points="155125,84375 156125,84375 156125,83375 155125,83375" />
<polygon points="150125,85625 151125,85625 151125,84625 150125,84625" />
<polygon points="155125,85625 156125,85625 156125,84625 155125,84625" />
<polygon points="151375,86875 152375,86875 152375,85875 151375,85875" />
<polygon points="152625,86875 153625,86875 153625,85875 152625,85875" />
<polygon points="153875,86875 154875,86875 154875,85875 153875,85875" />
<polygon points="165125,86000 166125,86000 166125,85000 165125,85000" />
<polygon points="166375,86000 167375,86000 167375,85000 166375,85000" />
<polygon points="168875,86000 169875,86000 169875,85000 168875,85000" />
<polygon points="165125,87250 166125,87250 166125,86250 165125,86250" />
<polygon points="167625,87250 168625,87250 168625,86250 167625,86250" />
<polygon points="170125,87250 171125,87250 171125,86250 170125,86250" />
<polygon points="165125,88500 166125,88500 166125,87500 165125,87500" />
<polygon points="167625,88500 168625,88500 168625,87500 167625,87500" />
<polygon points="170125,88500 171125,88500 171125,87500 170125,87500" />
<polygon points="165125,89750 166125,89750 166125,88750 165125,88750" />
<polygon points="170125,89750 171125,89750 171125,88750 170125,88750" />
<polygon points="165125,91000 166125,91000 166125,90000 165125,90000" />
<polygon points="170125,91000 171125,91000 171125,90000 170125,90000" />
<polygon points="177625,84750 178625,84750 178625,83750 177625,83750" />
<polygon points="176375,86000 177375,86000 177375,85000 176375,85000" />
<polygon points="175125,87250 176125,87250 176125,86250 175125,86250" />
<polygon points="173875,88500 174875,88500 174875,87500 173875,87500" />
<polygon points="172625,89750 173625,89750 173625,88750 172625,88750" />
<polygon points="181375,86000 182375,86000 182375,85000 181375,85000" />
<polygon points="182625,86000 183625,86000 183625,85000 182625,85000" />
<polygon points="183875,86000 184875,86000 184875,85000 183875,85000" />
<polygon points="180125,87250 181125,87250 181125,86250 180125,86250" />
<polygon points="181375,88500 182375,88500 182375,87500 181375,87500" />
<polygon points="182625,88500 183625,88500 183625,87500 182625,87500" />
<polygon points="183875,88500 184875,88500 184875,87500 183875,87500" />
<polygon points="185125,89750 186125,89750 186125,88750 185125,88750" />
<polygon points="180125,91000 181125,91000 181125,90000 180125,90000" />
<polygon points="181375,91000 182375,91000 182375,90000 181375,90000" />
<polygon points="182625,91000 183625,91000 183625,90000 182625,90000" />
<polygon points="183875,91000 184875,91000 184875,90000 183875,90000" />
</g>
</svg>
